<mxfile host="Electron" agent="Mozilla/5.0 (Windows NT 10.0; Win64; x64) AppleWebKit/537.36 (KHTML, like Gecko) draw.io/27.0.9 Chrome/134.0.6998.205 Electron/35.4.0 Safari/537.36" version="27.0.9">
  <diagram name="Page-1" id="QWLUFdAqgPKilKIYA6Zh">
    <mxGraphModel dx="2276" dy="841" grid="1" gridSize="10" guides="1" tooltips="1" connect="1" arrows="1" fold="1" page="1" pageScale="1" pageWidth="850" pageHeight="1100" math="0" shadow="0">
      <root>
        <mxCell id="0" />
        <mxCell id="1" parent="0" />
        <mxCell id="JgDv4yjVZVKhBUE-g2lu-1" value="" style="rounded=0;whiteSpace=wrap;html=1;fillColor=none;strokeColor=default;dashed=1;" parent="1" vertex="1">
          <mxGeometry x="-810" y="230" width="140" height="440" as="geometry" />
        </mxCell>
        <mxCell id="JgDv4yjVZVKhBUE-g2lu-2" value="Sources" style="rounded=0;whiteSpace=wrap;html=1;strokeWidth=24;strokeColor=none;fontSize=23;fontStyle=1" parent="1" vertex="1">
          <mxGeometry x="-791" y="217.42000000000002" width="90" height="30" as="geometry" />
        </mxCell>
        <mxCell id="JgDv4yjVZVKhBUE-g2lu-5" value="" style="rounded=0;whiteSpace=wrap;html=1;fillColor=none;strokeColor=default;dashed=1;" parent="1" vertex="1">
          <mxGeometry x="-596" y="140" width="650" height="670" as="geometry" />
        </mxCell>
        <mxCell id="JgDv4yjVZVKhBUE-g2lu-6" value="" style="rounded=0;whiteSpace=wrap;html=1;fillColor=none;strokeColor=default;dashed=1;" parent="1" vertex="1">
          <mxGeometry x="138" y="230" width="140" height="440" as="geometry" />
        </mxCell>
        <mxCell id="JgDv4yjVZVKhBUE-g2lu-8" value="Bronze Layer" style="rounded=0;whiteSpace=wrap;html=1;fillColor=#ffe6cc;strokeColor=#d79b00;fontSize=20;fontStyle=1" parent="1" vertex="1">
          <mxGeometry x="-566" y="197" width="150" height="30" as="geometry" />
        </mxCell>
        <mxCell id="JgDv4yjVZVKhBUE-g2lu-9" value="&lt;div&gt;&lt;br&gt;&lt;/div&gt;&lt;div&gt;&lt;br&gt;&lt;/div&gt;" style="rounded=0;whiteSpace=wrap;html=1;fillColor=none;strokeColor=#FFCC99;" parent="1" vertex="1">
          <mxGeometry x="-568" y="232" width="148" height="558" as="geometry" />
        </mxCell>
        <mxCell id="JgDv4yjVZVKhBUE-g2lu-10" value="Silver Layer" style="rounded=0;whiteSpace=wrap;html=1;fillColor=#f5f5f5;strokeColor=#666666;fontSize=20;fontColor=#333333;fontStyle=1" parent="1" vertex="1">
          <mxGeometry x="-349" y="197" width="153" height="30" as="geometry" />
        </mxCell>
        <mxCell id="JgDv4yjVZVKhBUE-g2lu-11" value="Gold Layer" style="rounded=0;whiteSpace=wrap;html=1;fillColor=#fff2cc;strokeColor=#d6b656;fontSize=20;fontStyle=1" parent="1" vertex="1">
          <mxGeometry x="-125" y="196" width="149" height="30" as="geometry" />
        </mxCell>
        <mxCell id="JgDv4yjVZVKhBUE-g2lu-12" value="" style="rounded=0;whiteSpace=wrap;html=1;fillColor=none;strokeColor=#C6C6C6;" parent="1" vertex="1">
          <mxGeometry x="-346.5" y="233" width="145" height="557" as="geometry" />
        </mxCell>
        <mxCell id="JgDv4yjVZVKhBUE-g2lu-13" value="" style="rounded=0;whiteSpace=wrap;html=1;strokeColor=#FFEFBB;" parent="1" vertex="1">
          <mxGeometry x="-125" y="233" width="150" height="557" as="geometry" />
        </mxCell>
        <mxCell id="JgDv4yjVZVKhBUE-g2lu-17" value="&lt;b&gt;CRM&lt;/b&gt;" style="image;aspect=fixed;html=1;points=[];align=center;fontSize=12;image=img/lib/azure2/general/Folder_Blank.svg;" parent="1" vertex="1">
          <mxGeometry x="-770" y="270" width="50" height="40.58" as="geometry" />
        </mxCell>
        <mxCell id="JgDv4yjVZVKhBUE-g2lu-19" value="" style="image;aspect=fixed;html=1;points=[];align=center;fontSize=12;image=img/lib/azure2/general/File.svg;" parent="1" vertex="1">
          <mxGeometry x="-740" y="280.58" width="30" height="36.96" as="geometry" />
        </mxCell>
        <mxCell id="JgDv4yjVZVKhBUE-g2lu-20" value="Data Warehouse" style="rounded=0;whiteSpace=wrap;html=1;strokeWidth=24;strokeColor=none;fontSize=23;fontStyle=1" parent="1" vertex="1">
          <mxGeometry x="-428.5" y="126" width="250" height="30" as="geometry" />
        </mxCell>
        <mxCell id="JgDv4yjVZVKhBUE-g2lu-21" value="Consumers" style="rounded=0;whiteSpace=wrap;html=1;strokeWidth=24;strokeColor=none;fontSize=23;fontStyle=1" parent="1" vertex="1">
          <mxGeometry x="143" y="227.42000000000002" width="130" height="10" as="geometry" />
        </mxCell>
        <mxCell id="JgDv4yjVZVKhBUE-g2lu-22" value="ERP" style="image;aspect=fixed;html=1;points=[];align=center;fontSize=12;image=img/lib/azure2/general/Folder_Blank.svg;" parent="1" vertex="1">
          <mxGeometry x="-768" y="370.00000000000006" width="50" height="40.58" as="geometry" />
        </mxCell>
        <mxCell id="JgDv4yjVZVKhBUE-g2lu-23" value="" style="image;aspect=fixed;html=1;points=[];align=center;fontSize=12;image=img/lib/azure2/general/File.svg;" parent="1" vertex="1">
          <mxGeometry x="-738" y="380.5800000000001" width="30" height="36.96" as="geometry" />
        </mxCell>
        <mxCell id="JgDv4yjVZVKhBUE-g2lu-25" value="" style="shape=link;html=1;rounded=0;" parent="1" edge="1">
          <mxGeometry width="100" relative="1" as="geometry">
            <mxPoint x="-791" y="489.5" as="sourcePoint" />
            <mxPoint x="-691" y="489.5" as="targetPoint" />
          </mxGeometry>
        </mxCell>
        <mxCell id="JgDv4yjVZVKhBUE-g2lu-32" value="" style="html=1;verticalLabelPosition=bottom;align=center;labelBackgroundColor=#ffffff;verticalAlign=top;strokeWidth=2;strokeColor=#d79b00;shadow=0;dashed=0;shape=mxgraph.ios7.icons.data;fillColor=#ffe6cc;" parent="1" vertex="1">
          <mxGeometry x="-523" y="270" width="53" height="60" as="geometry" />
        </mxCell>
        <mxCell id="JgDv4yjVZVKhBUE-g2lu-33" value="" style="html=1;verticalLabelPosition=bottom;align=center;labelBackgroundColor=#ffffff;verticalAlign=top;strokeWidth=2;strokeColor=#666666;shadow=0;dashed=0;shape=mxgraph.ios7.icons.data;fillColor=#f5f5f5;fontColor=#333333;" parent="1" vertex="1">
          <mxGeometry x="-306.5" y="270" width="50" height="60" as="geometry" />
        </mxCell>
        <mxCell id="JgDv4yjVZVKhBUE-g2lu-34" value="" style="html=1;verticalLabelPosition=bottom;align=center;labelBackgroundColor=#ffffff;verticalAlign=top;strokeWidth=2;strokeColor=#d6b656;shadow=0;dashed=0;shape=mxgraph.ios7.icons.data;fillColor=#fff2cc;" parent="1" vertex="1">
          <mxGeometry x="-80" y="269.42" width="51" height="60" as="geometry" />
        </mxCell>
        <mxCell id="JgDv4yjVZVKhBUE-g2lu-36" value="" style="shape=singleArrow;whiteSpace=wrap;html=1;fillColor=#dae8fc;strokeColor=#6c8ebf;" parent="1" vertex="1">
          <mxGeometry x="-656" y="320" width="50" height="50" as="geometry" />
        </mxCell>
        <mxCell id="JgDv4yjVZVKhBUE-g2lu-37" value="" style="shape=singleArrow;whiteSpace=wrap;html=1;fillColor=#dae8fc;strokeColor=#6c8ebf;" parent="1" vertex="1">
          <mxGeometry x="-410" y="317.54" width="50" height="50" as="geometry" />
        </mxCell>
        <mxCell id="JgDv4yjVZVKhBUE-g2lu-38" value="" style="shape=singleArrow;whiteSpace=wrap;html=1;fillColor=#dae8fc;strokeColor=#6c8ebf;" parent="1" vertex="1">
          <mxGeometry x="-186" y="320" width="50" height="50" as="geometry" />
        </mxCell>
        <mxCell id="JgDv4yjVZVKhBUE-g2lu-39" value="" style="shape=singleArrow;whiteSpace=wrap;html=1;fillColor=#dae8fc;strokeColor=#6c8ebf;" parent="1" vertex="1">
          <mxGeometry x="70" y="320" width="50" height="50" as="geometry" />
        </mxCell>
        <mxCell id="JgDv4yjVZVKhBUE-g2lu-40" value="Interface: Files In Folder" style="text;html=1;align=center;verticalAlign=middle;whiteSpace=wrap;rounded=0;" parent="1" vertex="1">
          <mxGeometry x="-810" y="550" width="140" height="30" as="geometry" />
        </mxCell>
        <mxCell id="JgDv4yjVZVKhBUE-g2lu-41" value="Raw Data" style="text;html=1;align=center;verticalAlign=middle;whiteSpace=wrap;rounded=0;" parent="1" vertex="1">
          <mxGeometry x="-529" y="340" width="60" height="30" as="geometry" />
        </mxCell>
        <mxCell id="JgDv4yjVZVKhBUE-g2lu-42" value="Object Type: CSV Files" style="text;html=1;align=center;verticalAlign=middle;whiteSpace=wrap;rounded=0;" parent="1" vertex="1">
          <mxGeometry x="-811" y="520" width="135" height="30" as="geometry" />
        </mxCell>
        <mxCell id="JgDv4yjVZVKhBUE-g2lu-45" value="Cleaned, Strandardized Data" style="text;html=1;align=center;verticalAlign=middle;whiteSpace=wrap;rounded=0;" parent="1" vertex="1">
          <mxGeometry x="-316.5" y="347.54" width="60" height="30" as="geometry" />
        </mxCell>
        <mxCell id="JgDv4yjVZVKhBUE-g2lu-46" value="Business-Ready Data" style="text;html=1;align=center;verticalAlign=middle;whiteSpace=wrap;rounded=0;" parent="1" vertex="1">
          <mxGeometry x="-85" y="347.54" width="60" height="30" as="geometry" />
        </mxCell>
        <mxCell id="JgDv4yjVZVKhBUE-g2lu-47" value="" style="shape=link;html=1;rounded=0;" parent="1" edge="1">
          <mxGeometry width="100" relative="1" as="geometry">
            <mxPoint x="-550" y="401" as="sourcePoint" />
            <mxPoint x="-450" y="401" as="targetPoint" />
          </mxGeometry>
        </mxCell>
        <mxCell id="JgDv4yjVZVKhBUE-g2lu-48" value="" style="shape=link;html=1;rounded=0;" parent="1" edge="1">
          <mxGeometry width="100" relative="1" as="geometry">
            <mxPoint x="-329" y="401" as="sourcePoint" />
            <mxPoint x="-229" y="401" as="targetPoint" />
          </mxGeometry>
        </mxCell>
        <mxCell id="JgDv4yjVZVKhBUE-g2lu-53" value="&lt;span style=&quot;background-color: transparent; color: light-dark(rgb(0, 0, 0), rgb(255, 255, 255));&quot;&gt;&lt;b&gt;Object Type: &lt;/b&gt;Table&lt;b&gt;&amp;nbsp;&lt;/b&gt;&lt;/span&gt;&lt;div&gt;&lt;span style=&quot;background-color: transparent; color: light-dark(rgb(0, 0, 0), rgb(255, 255, 255));&quot;&gt;&lt;b&gt;&lt;br&gt;&lt;/b&gt;&lt;/span&gt;&lt;/div&gt;&lt;div&gt;&lt;span style=&quot;background-color: transparent; color: light-dark(rgb(0, 0, 0), rgb(255, 255, 255));&quot;&gt;&lt;b&gt;Load:&lt;/b&gt;&lt;/span&gt;&lt;/div&gt;&lt;div&gt;&lt;ul&gt;&lt;li&gt;&lt;span style=&quot;background-color: transparent; color: light-dark(rgb(0, 0, 0), rgb(255, 255, 255));&quot;&gt;Batch Processing&lt;/span&gt;&lt;/li&gt;&lt;li&gt;Full Load&amp;nbsp;&lt;span style=&quot;background-color: transparent; color: light-dark(rgb(0, 0, 0), rgb(255, 255, 255));&quot;&gt;(Turncate &amp;amp; Insert)&lt;/span&gt;&lt;/li&gt;&lt;/ul&gt;&lt;span style=&quot;background-color: transparent; color: light-dark(rgb(0, 0, 0), rgb(255, 255, 255));&quot;&gt;No&lt;b&gt; Transformations&lt;/b&gt;&lt;/span&gt;&lt;div&gt;&lt;span style=&quot;background-color: transparent; color: light-dark(rgb(0, 0, 0), rgb(255, 255, 255));&quot;&gt;&lt;b&gt;&amp;nbsp;&lt;/b&gt;&lt;/span&gt;&lt;div&gt;&lt;span style=&quot;background-color: transparent; color: light-dark(rgb(0, 0, 0), rgb(255, 255, 255));&quot;&gt;&lt;b&gt;Data Model: &lt;/b&gt;None (as-is)&lt;/span&gt;&lt;/div&gt;&lt;/div&gt;&lt;/div&gt;" style="text;html=1;align=left;verticalAlign=middle;whiteSpace=wrap;rounded=0;fontSize=11;" parent="1" vertex="1">
          <mxGeometry x="-562" y="470" width="136" height="40" as="geometry" />
        </mxCell>
        <mxCell id="JgDv4yjVZVKhBUE-g2lu-56" value="&lt;span style=&quot;background-color: transparent; color: light-dark(rgb(0, 0, 0), rgb(255, 255, 255));&quot;&gt;&lt;b&gt;Object Type: &lt;/b&gt;Table&lt;b&gt;&amp;nbsp;&lt;/b&gt;&lt;/span&gt;&lt;div&gt;&lt;span style=&quot;background-color: transparent; color: light-dark(rgb(0, 0, 0), rgb(255, 255, 255));&quot;&gt;&lt;b&gt;&lt;br&gt;&lt;/b&gt;&lt;/span&gt;&lt;/div&gt;&lt;div&gt;&lt;span style=&quot;background-color: transparent; color: light-dark(rgb(0, 0, 0), rgb(255, 255, 255));&quot;&gt;&lt;b&gt;Load:&lt;/b&gt;&lt;/span&gt;&lt;/div&gt;&lt;div&gt;&lt;ul&gt;&lt;li&gt;&lt;span style=&quot;background-color: transparent; color: light-dark(rgb(0, 0, 0), rgb(255, 255, 255));&quot;&gt;Batch Processing&lt;/span&gt;&lt;/li&gt;&lt;li&gt;Full Load&amp;nbsp;&lt;span style=&quot;background-color: transparent; color: light-dark(rgb(0, 0, 0), rgb(255, 255, 255));&quot;&gt;(Turncate &amp;amp; Insert)&lt;/span&gt;&lt;/li&gt;&lt;/ul&gt;&lt;span style=&quot;background-color: transparent; color: light-dark(rgb(0, 0, 0), rgb(255, 255, 255));&quot;&gt;No&lt;b&gt; Transformations&lt;/b&gt;&lt;/span&gt;&lt;div&gt;&lt;span style=&quot;background-color: transparent; color: light-dark(rgb(0, 0, 0), rgb(255, 255, 255));&quot;&gt;&lt;b&gt;&amp;nbsp;&lt;/b&gt;&lt;/span&gt;&lt;div&gt;&lt;span style=&quot;background-color: transparent; color: light-dark(rgb(0, 0, 0), rgb(255, 255, 255));&quot;&gt;&lt;b&gt;Data Model: &lt;/b&gt;None (as-is)&lt;/span&gt;&lt;/div&gt;&lt;/div&gt;&lt;/div&gt;" style="text;html=1;align=left;verticalAlign=middle;whiteSpace=wrap;rounded=0;fontSize=11;" parent="1" vertex="1">
          <mxGeometry x="-339" y="470" width="130" height="40" as="geometry" />
        </mxCell>
        <mxCell id="JgDv4yjVZVKhBUE-g2lu-58" value="&lt;span style=&quot;background-color: transparent; color: light-dark(rgb(0, 0, 0), rgb(255, 255, 255));&quot;&gt;&lt;b&gt;Object Type: &lt;/b&gt;Views&lt;b&gt;&amp;nbsp;&lt;/b&gt;&lt;/span&gt;&lt;div&gt;&lt;span style=&quot;background-color: transparent; color: light-dark(rgb(0, 0, 0), rgb(255, 255, 255));&quot;&gt;&lt;b&gt;&lt;br&gt;&lt;/b&gt;&lt;/span&gt;&lt;/div&gt;&lt;div&gt;&lt;span style=&quot;background-color: transparent; color: light-dark(rgb(0, 0, 0), rgb(255, 255, 255));&quot;&gt;No&lt;b&gt; Load&lt;/b&gt;&lt;/span&gt;&lt;/div&gt;&lt;div&gt;&lt;span style=&quot;background-color: transparent; color: light-dark(rgb(0, 0, 0), rgb(255, 255, 255));&quot;&gt;&lt;b&gt;&lt;br&gt;&lt;/b&gt;&lt;/span&gt;&lt;/div&gt;&lt;div&gt;&lt;span style=&quot;background-color: transparent; color: light-dark(rgb(0, 0, 0), rgb(255, 255, 255));&quot;&gt;&lt;b&gt;Transformations:&lt;/b&gt;&lt;/span&gt;&lt;/div&gt;&lt;div&gt;&lt;ul&gt;&lt;li&gt;Data Integrations&lt;/li&gt;&lt;li&gt;Aggregations&lt;/li&gt;&lt;li&gt;Business Logics&lt;/li&gt;&lt;/ul&gt;&lt;/div&gt;&lt;div&gt;&lt;div&gt;&lt;span style=&quot;background-color: transparent; color: light-dark(rgb(0, 0, 0), rgb(255, 255, 255));&quot;&gt;&lt;b&gt;&amp;nbsp;&lt;/b&gt;&lt;/span&gt;&lt;div&gt;&lt;span style=&quot;background-color: transparent; color: light-dark(rgb(0, 0, 0), rgb(255, 255, 255));&quot;&gt;&lt;b&gt;Data Model:&amp;nbsp;&lt;/b&gt;&lt;/span&gt;&lt;/div&gt;&lt;/div&gt;&lt;/div&gt;&lt;div&gt;&lt;ul&gt;&lt;li&gt;&lt;span style=&quot;background-color: transparent; color: light-dark(rgb(0, 0, 0), rgb(255, 255, 255));&quot;&gt;Star Schema&lt;/span&gt;&lt;/li&gt;&lt;li&gt;&lt;span style=&quot;background-color: transparent; color: light-dark(rgb(0, 0, 0), rgb(255, 255, 255));&quot;&gt;Flat Table&lt;/span&gt;&lt;/li&gt;&lt;li&gt;&lt;span style=&quot;background-color: transparent; color: light-dark(rgb(0, 0, 0), rgb(255, 255, 255));&quot;&gt;Aggregated Table&lt;/span&gt;&lt;/li&gt;&lt;/ul&gt;&lt;/div&gt;" style="text;html=1;align=left;verticalAlign=middle;whiteSpace=wrap;rounded=0;fontSize=11;" parent="1" vertex="1">
          <mxGeometry x="-115" y="500" width="140" height="40" as="geometry" />
        </mxCell>
        <mxCell id="JgDv4yjVZVKhBUE-g2lu-61" value="" style="shape=image;verticalLabelPosition=bottom;labelBackgroundColor=default;verticalAlign=top;aspect=fixed;imageAspect=0;image=data:image/png,iVBORw0KGgoAAAANSUhEUgAAAgAAAAIACAYAAAD0eNT6AAAABHNCSVQICAgIfAhkiAAAAAlwSFlzAAAOxAAADsQBlSsOGwAAABl0RVh0U29mdHdhcmUAd3d3Lmlua3NjYXBlLm9yZ5vuPBoAACAASURBVHic7N13mBXV+Qfw73tmbtlGL4p0UFQsICh2WcUSsSMbjYBgw0RjiUbTJcY0f5YYYyIqVrCsAipoxLaKgiJFQFFApAgivW25deb7+2PR2MDdnTMz9+6ez/PMk8S473nn3Lkz7z0zcw5gGIZhGIZhGIZhGIZhGIZhGIZhGIZhGIZhGIZhGIZhGIZhGIZhGIZhGIZhGIZhGIZhGIZhGIZhGIZhGIZhGIZhGIZhGIZhGIZhGIZhGIZhGIZhGIZhGIZhGIZhGIZhGMa3SdgJGIbxwzinXwQl69tBWe3gYg+I1QKClnDZwhW0gKCFEC0ANIMwAkpzgHFACgCUALC/Fq4IQPRr/zsFoGbnf88CqNzZKgHZtvOfZyCylXS3gbIVCtsUsRXENihsgytbYck2ZLNbUOSsk05rEn72h2EY3pkCwDBCxk96NgPSneBKF4h0cl12hEhnATsBaA+gHYA2IadZX1sgWAviMwJrFbgGlDUQrIXjrkZWPpeDPtsadpKG0ZSZAsAwAsDFvUogNfvCVXtDsadL9BSgJyA9AbYNO7+QbAewhMBSBS4GZCnEWorCzFIzgmAY/jMFgGFoxNUdC1AjB4A40CX2E+AAgPsB0iXs3PIIAawCsLS2OJAPodz3UYgPTGFgGPqYAsAwGoif9GyGbLIvyL4uVF8BDwGwL755v93QJwvgY0LmKfB9UObBSsyXfTdVhp2YYeQjUwAYRh2QsLC44/5wcLgrOFzgDgBkPwAq7NyaOBfAMhLzFPAeqN7CptXzpRTZsBMzjFxnCgDD+B5c0TWOROowuOo4ksdCMAC1T9Mbua8SwEyBvA1x30RhbLZ0W5kMOynDyDWmADAMAKyAjVZ7HuFaMkjI4wAMABAPOy9DixSA2QSmK4W3gOzb0ntjVdhJGUbYTAFgNFlc0L4dRI5zidNFcBqAlmHnZAQiC3KWiEwB5FUc+MU8ETDspAwjaKYAMJoMlsPCvnv2cckvL/iHwHwHDGA9iZeVYArSqZel/9btYSdkGEEwJz+jUeO8Nh1gWacScgrAQQCah52TkdPSAN4W8L8QmSQHrV8edkKG4RdTABiNDmft1RrxzGCSQwE5Bea1PKPhPiLxtFLuE3LwpiVhJ2MYOpkCwGgUuLB5SycbO10JhxI4GUAk7JyMxkY+AvC0cpwnpf/mxWFnYxhemQLAyFtc2Lyl40bPVi7KKDgB5pe+EZz5AJ5RLp6SfhuXhZ2MYTSEKQCMvMKZHQucWGKIgpxHwYn45qp2hhE0UjADrjxoFfEZMyuhkU9MAWDkBc5tvZ9LXAiRiwHm28p4RtOQFJEpDnif3Xfza+bVQiPXmQLAyFlc1LbYSTk/BuVSqZ2Yp6nbDmADgc0K3EzKZohsBrgZIpsJbAeZpKDSJqugrCSyagccVqMwlf4qSlVJUo787qI6XNi8dh6EKgoiBS0AAJKNwkJJlmguYHO4UiyCEhAlELQA0EaAti7QVijtIWwHoCiIzshxn4J8RIGPSP+tn4WdjGF8H1MAGDmHc9v0c+FeCuJ8AM3CzicgNQCWiXAlXayGqM9JrKHIGptYC4mulv5ra8JOsi44p0MhrJp2yMpejqCLAJ0B1VmATgS7AuiMpvO5ugK85or8x/p08/NSBifshAzjS6YAMHIC323VzLV5AYhLAfQNOx+fZAAsEXAxKcsossyiuwxZa5kcufnzsJMLEmeVtIZEejmCfQXcR4BerF1JsQca6xscgpUg/q0yzjg5cseWsNMxDFMAGKHivBZd3AyuhuASNK7FdlYK8CHBDylqoeVgEUq2LpbeSP/wnzZdrICN4pIeDtXBAvQR4mCKHAxgr7Bz06gGkAlK4W7pv/WDsJMxmi5TABih4LvN+7kK1wNyLvL/9b0vhHiPkNku3dl2TN6Tvtu2hZ1UY8I5JW2yVH0U0UcoAyg4HEDHsPPySgQVLvEva+W258ztASNopgAwAkNCnPdaDlbC6wgMDDufBsoQnCOi3qLLdy2q2XL4ljVhJ9UU8d1WHR3LOVwohxM4XGrXdigIO68GIVZBcKdShffny7MeRv4zBYDhOy5C1KlqcZ6IewMgvcPOp54yECwE8CqpZlgK081iMbmJFbBR0PxgVzBIBIMIHIX8Kwg2gXKPSvMuOWb71rCTMRo3UwAYvuFbzVu6MV4JyhUA2oedTx25JOYIZJqCvIySre+Z+/b5iRWIZ+MtDlcWSkm3VCBHIH9uN20HcI+KOP+QQ6o2hp2M0TiZAsDQjhVti93C9BUAfgWgRdj51MEGAd4k8aqyM1Okf80XYSdk6McF7YucVPp4gXsaiMHIjwcLUxA8omDdIodtWR12MkbjYgoAQxsuaF/kppI/B3E9gNZh57NbgnkAn1VUz+OwbQvNrG1NCwnBrOaHuIqnkjJYgEMBqLDz2o00gMeUK7fIEdtWhp2M0TiYAsDwjIsQdSubj4RwDIA9w85nFxwS74rIFEVOksN3fBJ2Qkbu4Lzitk5G/UgBub6aZAbCh5RyxpiRKsMrUwAYDVZ74W92KRR+A6JD2Pl8D0eAV13hkxYxRQZUbg47ISP31RYDcqaCDCFwPHJzwakqEP9QtnWbeSjVaChTABj1xjmIOJmSC0XkdwC6hJ3Pt5DAuyJ4XGXdcjmqakPYCRn5i++3aOEkORSCYQIeg9w7Z24G+DflVt4jR+I76zsYxu7k2sFs5LjsrGaDhbgdQK+wc/mWRRB5XAFPyIDtK8JOxmh8OKNFF1dxGIQXANgv7Hy+iWtI/NFKVj4spciGnY2RH0wBYNQJ3ynej0ruIHFK2Ll8zQ4ATynKODlix6ywkzGaDs5q3t+lMxyQYQBahZ3P1ywh5Bf24TteDDsRI/eZAsDYLb7VvKUbdW8EcS1y517oXAD3qUT8cSndWBV2MkbTxRcRc1oXn6GoLiN4AnLknCqQVwXu1XJ41Udh52Lkrpw4WI3cwwrYbkHxZYDcjNx4pW8LgAeVhQfk0MolYSdjGN/GmSX7uoLLIBiB3PjOpEH8QzmxW+ToTZVhJ2PkHlMAGN+ReadokIK6E8ABYecCYCGBf1mRkglmjnQjH/BFxJxWzYbC5dUi6B92PiC+IORX1hE7HjPzXRhfZwoA4yuc0bwHxbmdgjNDTsUR4FkH+FfkiKo3Qs7FMBqM75QcRfIaCs4GYIWaC/Cu5bpXyVE1s8PMw8gdpgAwaof74yXXAbwJ4S6esgPCsSrr/kuOTnwWYh6GoRVnxLu4ErkSipeAoU6P7QIYp5L2DVJqlqxu6kwB0MTxncJDXKgHAPQNMY11ELlL2fZ/zKQmRmPGirbFbkHNxaBcD6BjeIngCyr83D68amJoORihMwVAE8WZKHDZ7EYIf4Pwpj1dAchdCjvuM5OYGE0J5yDipJudL+CvAewbVh4CTBU7+zM5LGEWGmqCTAHQBGVmFB+vRMYC6BlSCgsp/LO1umqilMEJKQfDCB3LYTl7FQ8VJb8CcXBIaWwHeKM6ouo+85Bg02IKgCaEbzVv6Vru/wG4COF89h8RHGMdUTVRBG4I7RtGTiIhzjslgwUYA6BfKDkA0y0Ll8qAyqVhtG8EzxQATUR2RvG5Qrkbgj1CaH4JRW62jtjxpLnwG8aukRBnRvHZInIzgN4hpJAEcbNaW3mrGZ1r/EwB0MjV/urnvSDKQmj+UwputtbsmGBOJoZRdySUM7PZTwS4CSHcqiPwjgUZLkdt/zToto3gmAKgEePM4uNcqscAdAq46Q0Q3KyiO+6T/sgE3LZhNBqcg4iTaj5SwN8j+O9xJclr7aMrxwXcrhEQUwA0QqyA7drNfgfB7xDs5CM1EN6tYvZfzet8hqEPZ6LAdZpftfOtnWZBti3AfyXjXCSl1euCbNfwnykAGhm+2bybo2Q8hEcG2KwLwUQL8ks5atuqANs1jCaFFSVtsrb1exFegWCL+w2gusQ+ZuuUANs0fGYKgEYkO6P5pSDuBFAUYLMvO0pdHzty6wcBtmkYTVpqesuDLOXeBuDEAJslBP+xYkW/NOtyNA6mAGgEWFHSxrHV/QDOCqxRwUpQfmEfs21yYG0ahvEN2enNBlPkDgH2CapNAotdV5XFjjNFf74zBUCey7zVfJBAHgHQIZgWmaTIrbYq/pscucbM3mcYIeOLiLklLX5J4DcIbi2PGgh+Zh+97ZGA2jN8YAqAPEVC3Leb30DInxHcvcCpFni1HLN9eUDt5bXa+7WR/oo8hMLuALoQ0knAVhBEQTRH7eIs2wFkBVhPwSpQ1gi5xBW8byflfTkxPx+oZEXb4qxKH6aU9CHYA0B3Al0FUgJB8c79J4BtAEBwnVCthnC1UJa7IvPsbGaOlFZuCnVH8gQrWnV0bPdOAOcG2OxjVkHh5eaWQH4yBUAe4rutmjlp91EgsGV7VwJypX3s1hcCai8vcVr7IqcwfTzongrISQC66wgrwIcuZBpc92W77fY3pTfSGuJqxwrYWWlxDBROV8DxBA6AnuJ0OUReATDVKih43Vxsdi87vcWZAO4C0CWI9oSYr2yea+YMyD+mAMgznN5q/yzcyQIJ4p6fQ8jddiLyOzl5fXUA7eUdlsPK7tFqkIAXovYZDL+HYLcAKKfChMjRW9/2ua06Sb/VeoByncsgchaAVj43lwDwPEU9YB+9+XUzs+T345wOhdnqxB9EcB0AO4Amt0M4yjwTlF9MAZBHait7eQRAc7/bEuADR9Sl0WM2z/K7rXzEirbFru1cRvIaBD9BCwBAahdVut1qte3JoEcFOAcRp6bVhUJeQUGfINv+mhVCuUclI/eaAvX7paa3PMiGPEgwiPUFSMrddpstv8zVUSrjm0wBkAdYATurWv5VgOvg/2eWFOAWVbT1VjOL33dxWvsiN5a6jiJXw/9fu3X1OUTGWOu2POT3lMucg4hT1WrkzglpuvrZVj1sFOAO5dr/ktKNVWEnk2s4BxG3usWNhPwOQMz3BgVvW+nIuTJow3rf2zI8MQVAjuP04rYOI08BUhpAczMtS10kR29aEkBbeYWEONNbDwf4FwB7hZ3P9yHwEVxcFynd8pIf8TPTW58A8t9BvnJWT2tBXm8P3PpE2InkIk5vtb9DjANwuO+NCVa54p4ZPWbbAt/bMhrMFAA5LD299WGKfAb+DzGnRWSMWrfZrAD2PfhW8+6Oaz0E4Niwc6kT4WNWOnutDKrcrCMcZ7Rv52SzdwL8iY54AXjdgnW5HLfxk7ATyTUsh+W2a3U1BX8GEPe5uSqIDLOP3fycz+0YDWQKgByVfbP1OSDHw+eHygh8RKWGR4/dNM/PdvKV82bL0aTcBqA47FzqaT2JkV5HAzJvtDpRgEeBUJaR9qIKIlfax20276l/D05vtb/ryniCff1uisTN9sAtfxQBfW7LqCdTAOQg581WV5NyBwDlYzMEeL9VHL/WvFb1XZzZscBJJ+4DMCzsXDxwSfmTPXDTzfV9Wp7lsLLtW98ixA3w9zj0FzHBStujzUOC38U5iGQr2/xWhP4vGkZ5yorFR5nJw3KLKQByCCtgO6r13SAu97mpVRQ1InLcxuk+t5OX+HbLzm5WPUvA719HwRC+YCUjP67rRZDT2hc5sewTAE73ObNAiGCuEjldjt30Rdi55KJMRZuBInwEQGefm3rXojpbSjeaVQVzhCkAcgQr2hY74jwFyqk+NzXZsrMXyzHbt/rcTl7i6216OcJXENKrfT6aZSF92g/NqsdX27V3LGcKgEMDyisoqxxycOz4LYvCTiQXsaJFC0ese0D4/ZzHapfW6dHjN5iHA3OAKQByAKe32dN1MIWAn+/qpgRyoxq48Z/mXtz3S1e07aOE00C0CzsXPxBYbDtq4K5ez+Kr7dpnLfcNAfYNOreAbHLglMZKt34YdiK5Kvt66xEQ+Tf8XVG0iq47JHLClpd9bMOoA1MAhCxV0fIAEesFoa/Db0sIOS9aunG+j23kteSbbfe2XL4FoH3YufiLH9hOuvTbbwiwokWLLOzX0Vhue+yKYIObdUtjg7Z8FHYquSr1Zuv9lKvKAR7gWyOCtBAX2qWbnvStDeMHmQIgRJmK1oNAeQY+zuxH4LGIyM/MBCm7xopWHTNUM8T/e6C5YpadsU748pkATulQmC1Kvwmgf8h5BeVzmxwgJ2z+POxEchUr2hZnyHsFuMDPZiD4ZaR00+0+tmHsRv4+3ZvnshWtLwTlv/Dv4p+i4NLo8ZtGmIv/rnFKh8Is1dQmdPEHgAGZiDOOhJCQTFH6QTSdiz8A7JVVMpkzOwa1dG7ekdKNVdHjNw0jcRlq11/wpRkQt2Vea30LaX6MhsF0egjSr7a9QgR3w7/+X0O4Q6InbH7Pp/iNRvq1No8KZHjYeYTkVzv/82+hZhESQh6PnrDBz1+4jUL69XYHK3AyiW5+tSGCcZZsvFxKkfWrDeO7TAEQsMyr7W6A8O8+NvGWrVBmXrX5YenX21wmlLEBNLWO4KsA5grVIsflyphkN8iJW7cDtaMQqVhmL0uxIyEHQdhfKCdAsKfPeX0566O/74ADDsA5QpnrKi5QwOeuYD3BKjp2Wkm2jRJp60J1UXQPJKQfgEMCyAskLokO2jjO73byHV9q1iobiT0J4EQfm5li10TOk9PNvCRBMQVAgDKvtrsZwt/714LcaasNN5gq+oclX23f3RJ3Afyb4W8jgMepOD4ycNPc+r55QUIyb7TpJ64MAzACQEtfsvSPA2CagOOtTHqanLJjS33+mC81a+VEo6cQMhzEifCvGKjMZtXBBSevX+FT/EaDFbCzbrtbAV7rWyOCt+2kM1hO3bLDtzaMr5gCIAAkJPtau9sA/MKnJhIicrF9wnqzCEodcAxU9ui2rwEy0Ifwn5P8e6Qo9oCuWc84s2NBpiZzmYA3Ar6PCniVFJH7Lde6TU5c+5mOgHxtzy4OnV8SuBj+zF8/3T5hw0DzemzdZF9rN5zEWPg1TTkxy7bTp0jptm2+xDe+YgoAn3EMlHN0u38TGO1TE+uo5Kzo8etn+RS/0Um/1naUUB7UHDYF8HbbUX/xa9pZTulQmC1w/gDwFwAifrTh0UTbyl4jpVvW+BGcr+3ZJUvndgBDdMcWYJg9aMME3XEbq/TrbfrBlckC8WnCLJljx5InmQnL/GUKAB+xHJbTqt0DBEb61MQHtlinywlfrPIpfqPDae2LshaXAuigMerHVHJ+ULObpV9u20eUPIXcWZZ3s1Autk9cH8iqb9lX251F4AEArTWGXWM7sq9ZM6DuWNF2j6yD5wHxa9bI+bZlnyila3c7e6XRcOY1QJ+wvHc026Ldk6SMBAX6NzXNZuYYc/Gvn6zwOlA6aPwcJtmJSP8gpzaNnrRxvh13+wMy2Z9jqx6bK+/ZVqRPUBd/ALAHbXjWtiJ9AJmrcV86ZhWvD2ofGgMp3bjOdlQpKM/5dHz1yWad6axom28rUeYNUwD4gOW9o9mWmyZB5FxfGhDcZW9dN/jLp8iNuuHbbUogou0BJgHutmesGxrGU8ty9KZKe8v6oQL5T9Btf81UmzheSj/3Zch/d6T08zW2g+MAvKAx6lWsaJtvyz6HSk5eX21vXT8Egrt8amK/bEa9ylfbNfIZOsNhCgDNWAE723LzEwAG+xDeJeXKyKD110jZV69wGXWUTajRAFroiCXEOGvQ+qtlTP2W2dVJyuDYJ677mY8n39152c6UnBvmkHntxafNOQCmagrZKpNVl2qK1WRIGZzIoPXXELgK8OG8JOidpVTwpTa5/gBs3jHPAGjEMVCZI9s/IhA/1pBPCTHMPnndMz7EbvRYATub2WMFgI4aok22Z64/N8yL/9dxDFT2yPbPAHJ2MC3KTLvYGpQra7tzZseCbFW2AsAAz7GA1ZFt67qZArthstPan0aRJ+HHYkKCJba4x+1qMSuj/swIgCYkxDlyj3t8uvhXAeoMc/FvOCezx0nQcvHHIjvijsiViz8AyBi4dsK5EIIlATT3he1mzs2Viz8AyJFrEjay5wD4wnMsoFO21Z5+TnbTqNknr59KhVIA+h/cI3plXfUKX+rYSnvsJsoUAJpkX9njbwQu1x6YWEdRx0ZOWmuWzvTAFYzQECZDWMNycW0FOXNTJWmdB/g6CRShOEJO2eT5QqubnLRpLZRcBHh/l58uL9SQUpMVHbRutityLIHVPoQ/MKuyL5pnNfQwtwA0yLzUwZcZ/gRYnqV1cvyUNct0x25K+Fybkmw8sh5eJy6h/Clyyto/6MnKH5lpe/4V/5vjXyshHrBP+SKn75Fnp+0xjpCLPIZJ2slMOzlzU6WWpJoovrBnl6yNaQB66Q/O12y3eLCcuiylPXYTYkYAPMq83OEGCn9P1P700LjNtxwebi7+3qXj0RMIFHj5PFzIF7Y4fq7hoIUN9xYC6304HqsscX8b7N7UnwX+msAOj/saT8ejJ4SQfqMig79YZcM9lsA87cejyAlZq3oCy/1fL6IxMwWAB+mX97iC9GVhn/cimcjxcuq6jT7EbnIE/JH3GO4t+TBJjJy8vhqCv2qPC94mJ6/foDuubnLy+g2E3Ok5DniKjnyaOjl5/YaIkyqF4A3dsQkMybTY436zlHDDmQKggdLT9roQrrrbh8kv3oo4qRPltM/MFJi6UE7y+JlsiaTVw2HvRl1FUnI/KNu0HZOQhG1Z/wp7v+oq6rj3AJLwuN8nh70fjYWcumVHJCWDQXlF+/nSVaMy0/a6I+x9zFemAGiAzMsdTgJ5P/Q/Q/FqRJwfmZWw9OG09u0AdPUWhI/k0xKlO3Mdry0g8aQM+nyztng+k1PXbQTxlMcwXfmCmYFOFzl9bU0kFj2DwEv6o/OazEsdcvrZnFxlCoB6Sr20R2+6eAqaF2Mh5L+RHeqMfBhmzieOG+nvPQrzbpVFoTyuMVbeLZIjCp4/M8e2+urIxaglpSuT0R0tzxRA+7TRBMakp+1l3t6oJ1MA1EP1y506CK3/gtJC5zCWUJ6P7mhxlpTlzrvVjQWFfTx+Nmsip6ybE/Z+1Jc96/NZcGW9huH/bXbbPaaHvT/1ZUfWvg7KVi/7Tsc6JOz9aGykbFHa3tGyTKh0rx8gcHFf5qW9SsPex3xiCoA6YkXb4ojjTgWgdflLCv5rs6BMyhaldcY1apHS3dPfQ97Kx3XiZQxcCCo8xyGmS/+5GR05BUlKkRXgbS8xqHJmtcVGRcoWpe227YcKMElz6CiJiampe+6nOW6jZQqAOmA5rGwyOgGA7iHB16I7ZIh5l9VHZGdvf493NGUSOBG+ryHMbA0xwkGZ4e3vtcwcaXwP6T83Y7fd4zxS2zoOX2oplnrRLB5UN6YAqINMSce7SDlD75CVmhGJp82wv++ks6dbAJAgptf1h2O/r+E4fS/s3WgoR+Rjj/u/V9j70JhJ/7mZaFWLIYS8pPl2QNdMOjqVUzoUhr2Puc4UAD8g82LHG0BcoTnsu5FM4ke5OKVs40NPq/85wKe6MgmaY7krPMdw6DlGWMRRn3gMYX5F+kzKFqWjWXcIiLc0h+6ftdSjHGOucbtjOmc3Ui/udS6heVIVwdxIJHqKmWY0KOLpV0AsZeXN62/fFpOM59dJY1Z2m45cwhBVKa8L0kS1JGLslpy+tiaSts8AoOOW1VcIDEkf1jHnZ+8MkykAdiE9peNhQnkUhNI4h+UnEZU5VU5cvj3o/WmyiAJPn1mn1vn7WqZTst3zMYviPJ6ToniHx/03BUBA5OyV2yLIngzyY51zBgtxffqFTqOC3p98IWEnkIs4rUe7TDY9Bxqf+CfwheuoowrOWJW3Q6r5KP1CpxS8/JIT9wjS6qyEvUjZh2A7AZoDbA7Il3FrAKQIbBTKalFc7ZKfgtb70TmrloS5dHD6hU6e3mCIDl4d2jmCc/pFMus2HgTlHkJXuopIZ4BdALb9Wt83A7ADwNad2wYBl7oii5XjfkalZnrJITJ7tZVLSz83djVTOu5lK5kJwNvDu9+UBHBMdPDqvHud12+mAPgWlsNKF3V6UYCTNIbdAbjHRQd/Pl9jTKMO0i922gSidXgZSCWEcwV4nVBTIz9aNT/I1wrzqQDgGKhs/y6Hu8o5QyilAA4GEAuq/e+RjA5e7W0FSaPeUi923l/ItwC00hh2dUQy/cz6Kt9kCoBvSU/tdBuA6zSGTIrg5Mjg1Xk3mUpjkJ7acSUgXcLO40sCrCHwLMQdF0RBmJ7qsQA4zf8CID2l42EQdQnAswC09bu9uiLwRey01R3CzqMpSr/QcQAorwPQ+CS/VESKPjtJSpHVFzO/2WEnkEtSUzsPBfALjSEdCs+Lmot/iFROPWxJoCOAK0HryvTUzu8Bcl9ERcb7NxdEbtb4rOgaz1Q5IyEyGkCf2n+aW7kKkLcPQOa76OA1s1JTuwwX8Gnoe1atNFPd6W/A6us1xct75iHAnZL/7dYLwAO1z43oeQbFpVwTG7xa+7zXRt2RWKnxmSLd22EEH0i7qaXpFzqP5px+WteXgIYctedT3juantrpp+lqdxlF/kOgTw58Drva93U+dIFRR7HTVk2C4Gd6P1e5LjWl048D3pWcZQoAAHyxZzPJOs+BaKbrSBMXd8dPX5U3S6g2YlqfKvZnk850cW9q7cZXte+9hqugTql45Suk/BvEXuH3++43F1iqvweM+ogO/mwsXPxd62cLGZd6oeOBwe5JbmryBQAJSbvpRwHpVTsEqWV7MZL87Nqg98X4LoH6WOPn6usmov7tRw942zRno9R/wu7nOm8UUwDkgOi8z34DyGSNn20RXGsSp3ZuGfS+5JomXwCkp3b5LVw5U2OF+VE0Yf1EyuAEvS/GdxFuZdi/JOuykZgRPW1luQ8d4PHXkl7RwSufIjEj7P6uy6YgNfp7wKgvGQM3mnAuAGW2xs+3Z9qRcUHvS65p0gVA8tnOg0CM0RhynSvWj6TMTPSTC1JTulwAyiNh51EHroJ7bT6uOlhfIqAifg7kBF++TgAAIABJREFU/rv1JO9OPd/5xrDzMAApW5NwXGsIdD6XITg7PaXr5dri5SH9Y3x5glP2aZNmegEAXa/5JEXkuOjpK/J28ZTGguW9o6l4zZ0C/izsXOroodgZKy/yI3Dq+a6eiorYGSt9OUeknu/6IIBRfsTWj49Fk85os3BX+NLPdh1AhTcAxDWFTADuobEzPlukKV5eabIjAGk3/W8QHXQNKQl4pbn4h48v9oylY9VPC/mzsIeQ67hVZjP8rX8d4nHzSYbyaxBep+oNaJPhqZg9jS/2bOZbhxh1Ej1r5SxQRoCgps+3AFRPsbxjk5zwqUkWAOnnul0KYKiueAK5J3rGqiZ/PylsnNa+KJPJTAVwRti51Jngz0VDVn0RdhpBKz5zxXpQ80JbPhLgmHTWeZ2T9gpxVkkDAGJnrngaAp2L/PROxezbNcbLG02uAEg+16Mngdv1PVGKmZFUoc7Jg4wG4LT2RelE4SuEGhT60+N135ZHS3CXX31Sy/Px7Ztoc/wDkOU58DnUbSP6pa3oKyzv3ty3TjHqJDpv5W8BmabrsxXIT1PPdysLfEdC1qQKAFYMtIXueBAlmoaPvsjCGSpli9KB74zxFZbDStcUTgBwRPjDxfXZ3OuldGXSn17ZyWuOPqrdd/ll+J9Dvba+mSifZXlvs1JgiGQM3Ggq8xMQK7V9ti7uTUzs1iXofQlTkyoA0ttX/gnAAE3hUkKcVXTm6rWa4hkNlIl0+wcEZ4adR30IpCJ21qrJYecRttiZyycJ8UrYedQHgYHpaPW9YefR1EnZmi1C/BiArmm0W4qFx1gOS1O8nNdkCoDMpK7HAeoGbUNGItdEzzYP/YUt+Vy3KylyZejDw/XbHLgMaKIor7kGgPglIE4OfC712NSo5LPdzJzyIYueveI9EblG23kdckw62r3JfK4BfcPDxcldW6Sh5gPQM7wj8nTsrE8Du1+UmNiti1I4RqAGANyPYDdAWgJoidrBq20AtgCyTMiPqDgz7arpJed8uiGoHMOQeq7bQaDMArW9ErQrlaBUEHhbBJ9AZGnUTtc+uLdRJVBkl6Rttqdy9hJaBwPukYQcKbtY2Y7gffGzV4z2OWcAQGpyd08D+bGzlwdyjkhO7jZWIJd97/8pWAdiJokZhMxXyH4RzVprpWz5dk7pUAixY6mk3QaCfaC4r0COADAIgN/36tMCOTJ69qdzfW4nVFXPdWsfcXCsiBxJYH+APb92/gGArQC3CmQFwI8IvOfaMr3g9OWfBZVjanL3cQB0vUqbgqX6xc5Y1uhfDWwSBUBqcrcnAdG1AMSyaEz1k1OX7dAU73tVTurRLqo4CkQZgEMaEMIl8bYCnohkC8ZL2aIq3TmGieUdC9J2dDYEvX1qIgXBM67IuPi6Fm/L6LmZeuU3Bip5cPdSBQwDMARAyc7/a3s0o/aWsmWBrEueLwUAy3u2TUfcT/C/i/Z2As8Qanx8wbLpMqZ+EwexYqCd3LbmaAVeBLAMQEx70rWWRgurD5GT11f7FD8UfK5XSYaZ4S5xvgBHomGjxfMAeSpqWw/K6Us36c7x6zilQ2E6E39P4/lgVjSz/KjGPqNroy8AUs/2PBfk07rCiStHRocsm6cp3nckpnTvLFn8QSDDoO+ktR3A2Ggm9XcpW7NFU8xQpSd1v4MiPgyjsxqibk+7vEfXCAqndm6ZzkR+AeBqAn+Mn/1pYK8cpSb38FgAfBrYOSI5ucd1AtwE4B9ROHfI2Su1LMdb9Vy39hFaPwPd6wAp0hHz6wj+O3728it0xw0DJ+3bOo3MryAYjf8VrV6lKHjUBf5UeNanqzXF/G4jz/fsDYezAeh6p//G2Nmf3qopVk5q1AUAy7s3T9uyCMBeWuJBroyfs+weHbG+E/uhrvF0c+v3AK6Df79WthG4Kbbw03/V9xdVLkk907M3FOcDsDWGdQF5JGtZvys6c4kvD3Zyyj5tkIjsCPKtkdQkjwXAOcEVACzvHUVBpplfvxZryvfZy4o4fwUxDHrPfY7A7Rc9Z8UCjTEDxXJYKav7z0VkDPy7dZIC8X/RHc6fZZQ/b7+kJ3f/KSm6FtVKwZV+sXMb762ARl0ApCb1HEdQz30hckrsnOVn+jFfe3piz0Nc4RMA9tEd+/sIMdOF+5OCIStWBdGebslJPV4DcLzGkGup3PMKzlrxlsaYOSHpsQCIB1gABCUxce9jRdwnAeypLyqnx85ePjAf13NIPN+rm8pmHydweEBNLlGizoue/cl8P4InJvd4cufbAZ4JOSvqNN5bAY32LYDE5J4DCY7SFO7zmJMe6ceXOzG5x0hXOAMBXfwBgIIjlai5yYndBwXVpi6piT3Oht6Lf0XWcg9pjBd/4/sVDPlkusNsPwAaP3M5Nj2p5xB98YKRnNTjFGSdOQFe/AGgl0t3ZmJSjxF+BI/DuRzASh2xKDIgZfdotEu7N8oCgOUdC8TF/aAIKPC4EbRG+nHvPDWx56/FlQdBiWvIs14bKa0B9UJqUo/zdO+Xnwj5ncY+eDyW/fTE4jNXrA97v3zjtZ8aqaIhq76IbWxxAoEn9B1P+C2ZP6OqiWd6DgPleSFaBX3+AaVAKA+nJvXUvtqinL1ym0sMAyWrKdebk+W9eunOMxc0ygIgZcXGAOipJZjwn/EhS1/VEutrUhN7/obAXxDubZgoKRPypQhIPt3zJDTsjYjvoKA87iwb0ViH9owfJqPnZuItO40AOUlPQPRJTe5xspZYPks803OYCB4FEAkxDSHxt9QzPX+lO3DhkE9nUETXegEFsJxx+VTc1VWjKwDSk/Y5GND2dPjHsWzq15pifSUxae9RBG7RHbeBFCmPJJ7ufkLYifwgBU0nCnkx3rLjBebib0jpG9mYGz8fwDRNEbX/otUtOWnvE0XwIHLkGTAK/pKYuPdI3XHjG5v9EYCuORqOSk7Wn2PYcuIA0IUVA+3UlrXvguynIVxGiRwVHbJ0toZYX0mX793HVZgJfa+qaEFgCyR7SK4+GJh8pvvegLUE3o/ZNWll9Wl2zuLNOvLKdcln9vb2EOC5nzSqc8SucELnlqlYbD6Azp6DuWrfeNmSJd6z0q/m2R6dlKPmgWgTdi7fklSue3S0TO+kSqnynvtTyVzA+2RhAmxOpWXfZj/xd06DIDWqEYD0pjXXabr4Q0Ru0n3x55QOha7CM8ixiz8ACNBKYD+Sq8NcFGs4vF/8s3Tl/KZy8TfqTi74bCvJCwHvo0K03As0pKQdx0CprDyRgxd/AIi7Sj3B8o5az42xsmUficjNOmIRaB2NMVdGbrVoNAVAcnLPHhS5SUcsArOjzlLtE0CkUkV/BNBDd1xtiOOSE/e5JOw0vo2ECOH9pEreVVC29G0NKRmNUMHQZW8A8k+vcYS4IBcL6dQBe18GyFFh57Ebe6esQi3n8K+LOktvFeBdLcGIS9MT9zlUS6wc0GgKAGTV7aAUaHjiM6OgLtF9fzhZ3qMnKFeH8LRtvTYh/sLxPZvp3HevMk/vcygo3T3u29YYY38Je18C5/WYaGLSSv0ZlO0e+617ZtI+/cPel69jeffmpPw57PPLD24urk1O3Ke7zn2XMjh01UhQEhpyVI6Lf3NM47h2NoqdSJT3Oh7QsxwsBX+NnbtkoY5Y34ir7D8i3Cdu66pNOmZdHXYSX0eB9/kKyL9K2aJGMQ2y4Z9m5yzeLIDn0T+6Go5ZjZJiXytAq7DzqIOouNA+ChAvW7JEIGN0xBKgf+1oSv7L+wKA5bBE+A9N4RbHK9N/1RTrKzUTe3YUMrDVA70ieBVf7OnXdMT1RqLUY4gdsYJqX6ZwNhqfKCP/BFDpJQapdbIqT/hQ17gCrgw7j7oicH71E7066I4bbbPnHaDoWceF8pfKST3aaYkVorwvAFLc53JQDtQwtOO6rlzixxzV4tiXgmKHPrxW961Nuto6V3c/NERtISJHedyfp+X0tTVh70sovB4LTZCULaoSYqK3fpOjcqWIThfHhpDSOgfOK3XdIrbNS3X3g5S+kVUKo0FxNOTYMpqx/6Y7x6Dl9TecEw5smYqklwIanmoVuTM+dPEvvGf1XcnyXkugb6rfBQDGAng9BnsF2rZ105vX9qSrBgG8DMCBmtppNCg8tmDo0iY51W+yvJe31wDLluT1OaKhEuW9jhfgtbDzyEEfABgnyno1WmOvRHyLm1aFXejgBIhcBuAgTe18HC9bsr+mWN+QfKrXnRBcoyEUXchRhWWL39EQKxR5/eVOPrXPPyHycw2h1sRg7ydli6o0xPqG1DP796brfKghVBIi18TOXXzfrtYk4Bio1H69LoPgTmh477Vx4PrY0KV75uMiLTqYAqBhOAYqtX+vLwDk/TCvJikA18Y+WjJ2VyuJ7uyz0QDugI737hX3i527dLHXON/GKf0KU4mqDwF08x5NpsfLFh/nPU448vYWQOrJvfcD1OU6hpyEco0fF38AYJbHacgxSeLU+NDFY3d3IZMxcOM/XnIviVNBSebAUF74G6x3m+rFH4CG/muaZAxcUGaFfvzmxpYi8aN42ZL/7G4ZcRkDN1625D87zz+en7hnVvlyYZXT59bA5RV6+gbHJp/c9zQ/8gxC3hYAFOsO6Hmq/pXYjxdP1BDnewlc76tsEdcU/HhJRV3/9YIfL6kA5TrP7TYCAup5/9docgR8L+wccgPrf/4Rej7/iOAIrzF2JX7e0v9CoGcNCOD/WDHQ1hQrUHlZACSf3Pc0EqeQgMctBaGOWwi75EL285KjSyyI/XjxffVtN7b443tJfKChj/J8kzl+fK75wmv/NWWEzA7/+A19+yD28ZL6n38+WjKWHs8/riv7+fG5fsl17GtIVHvuI2Df1Pp1F/mZq1/yrgDg2H4RQm6rfXzB4yZyq/9zdkt3LzkqyG6H/XfZ6hi4AtynpZ/yeBNh413qt0689mHTJYK1YR+/YW8CGbe7Yf9d9p2O849A64RA31Z4/oerAdyqo58oMoaPHlTkZ75+yLsCINm85kIAOtZmXhUvLPT1NY6ds0W19BREua839E9FWQ3+28Yi69DM+280iAO3yU8cJUq90vC/9Xz+aUWfp1SOJ5K3AljhORCxZzKWvt57RsHKqwKA5b2jIH4HAl43BblaTp/r77vh3Q8qACFe8owVOysb2ny0IL5SR1/l81bY3GnaBYDXPmzCClCzJezjN+wtGsuubmj/RZPWKo/tKzx2UGFD268LGbUy6br4hZb+cuX6qvLee/iZr255VQCksu4lgHTxPGRDqYid99FzwWTtMdf12YZXwG6VFfYQYuhbVTKvjnH9vPZhE1ZtM/TjN+wtVZ311om5f/wV/eTjZyEyTUN/FVsuxwSStCZ5c3JkeccCivxWQyjXFQTzhPzyhQl4/B2VjpV0bfDfJlQXL203BjVOkbdbMEaTlSiKtg47h7Cl3RZdG/y3ccfr+cfF8IWBzOCpoK4F4LHYAUBclCjv1c17RsHImwIgkW3+UxAdNAzVPFJ0/kfvB5Fz7bvE8DSMSHFPaGj7DtWJYQ8hhr3ZovJhART/eO3DJsx2I23CPn7D3kg2eE0DZnmCt/Zlc1BzeMTO+/BjuHhAQ59FkFW/DiJnHfKiAOCjBxUJcIOGIZoERd0UbPKy3EvOJEY3ZOlJlg+1hLgk9CHEkDfC0r6oSH7J/SHYXOU62CPs4zfszSUua9D5ZwwUoS7zeOwtr2+7XmQd+yZAKr33mxqZePSgbkHm3lB5UQAkbefnANp7DkS5deerH0HyOpXlgam9Dxhd3z9KOR9fAcCXubTzCR3k1LrsRv6gSJM/dgQ4qEHnn169fwrwAI/Na58GeHdKRizcAModGkJFYLs3aojju5wvADi+ZzMQ12sYmvki7qj/Czp/gbzjeRgOvD0xoXdpXdtMTthvEF3eFvbwYS5sBA+ra781Sl77sAkjeXjYx28ubATvqM/5JzGhdyld3O61XSFm1rVNXeIR3gYX67z3G0clHu3dOej86yvnC4CkRK8F4PlhHCH+LCMWVmtIqZ7t8k0NYQoAvJh8vPfPdjccx/KhVnLCAVcR6kXomSY57wlweEOGMI2mjWOgBPA+jXfjEAfwQnLCAT/d7flnDFRyfO8rAPwXgPelkF1Lx7mzXqRsUZUoLU/yR6mQ86MAOX2Tb9uEA1vGwBUAmnuLxJXxCHpJ2aK0lsTqKTHhgMXQM3kRAHwgkPuE7uvR6vhKtEyqdNLq6tg8SciLYYb9v8tFacHwD98IO40wJCYc4Ol3fMEFH+b0OcIvtb94pclPpPU9/nf+ieIzVFdn05Gi7lRyAoHLQHgd9v/SRwUXfNhbU6x6YcVAO7l20wcA9vUYKkWqnoXDFq7RkZcfcnoBgxjxc3i++AOgulnKPgjl4g8AcPEkBDdpinYgwbsJQbIoBaQFUC6k3pN1/gCRYQUXfDBBc9R644s9Y8kt8a2oHQVpGMFwAG/oyimvNPFh/AajutBj59XEWyVbyanLUrpSaqjEhAMvADleU7j/nX/SACLFtf9U9/kH8pTuiHVuufSNbM1jvW8Wkcc9hopBnBsB+LrejBc5OzTKh7rGAf5MQ6gl8Y6tH9MQp8HoWvdDxzumQSE2xlsmngk7DQDYeQKd4THMufk4T7cRDpb3LgZ4rqcgghm5cPEHgHi6ciKAfJoRM+0ye3+YCRR8uugpQBZ5jSOUS6qf6JWzbyLlbAGQjJQMB6S911cySPxBSt8I9eJbeOGCzwF5MuxXeuq8Kflnrpy8AABUFR73qVlSuVeFkHkO8Ho8ND3JlHUVIEWezjuQ18LI/fvIqJVJCO4O/bxS9+3xouEff+FXf9SFjIFL8mYN+xK3nOjVwe9B3eRkAcDa+fOv0fAE6wcFn36YG79kBTeByIT9RG8dnl7dFE+m7/KvJ+qPSl71/kSx3LC9vHfTmxTI6/HQxOx4vF8bgDd47Te60uBFdPwQZ/JOEJvDP7/84JZGxvqjfz1RdwXDPnyaxALPxwJxOcf3bBbCLvygnCwAah476DQC+3u/lnFMQ5ay9EP8gg+WU3Bn+N+vHzjfC26Ui5dU+tYRDVDwkwWzCSz3sl8u0CKSUr8LIf1QeT4emhjbSf2OQHNv/cZPioYvnBdC+rskw5btcIHfhH1++cHvqcjtBaPmr/StI+qhdhZC+ZOG/WqWQPzC4Pfgh+VkASCC67wOvRDyccHyD58NIf1dKogWjwHkkxwYYtvV9nr8gg8f8rELGkQEJDBBw/5dlXisz8DAdyBUXvus6ag9NtSVXvtMxNL1wJ1WhcM+uB+Q6TlwntnVtqQws+NmP/ugvgqGLZwEqAWe943qWpYPtULYhd3KuQKg+uED+4E4zmvJpSh/zZVf/1+SsncSLpyhIBKhl9rf3TbAlRFBzb1dX5ayHtOwjxbpjq8d5m0ivPZZE1H5YN+2pDsehOWxzyji5mQBIAJCcAGIjTlwvvn2liTwExm1MulvL9SPCAiXt2jYv241qcWnB78Hu5dzBYAouV5DmBXxTi2f0BBHu+LhixZI7dsNuXR6TQnlvNqHFXNT/IL5nwB4U0OovSLZzHiW945qiGU0AizvHVW2OwHAXp5jQV6NX/BBoHPY10fhsIVrROF8AOG9Fv1dFMHoXLtt8qWCFQsnAVjqNY5QfqEhHa1yqgBITOjbBZBzvQ63EHJr2E/+707BiA8ehsivc2DIDYA4gBpecOGCCt933COSf9exz4ScnEjaT7BiYE7Pg6GH1/5q3Di2XySRsp8U4EQdx5YC/xb8XtRPwbCFr0EwEhA3B84/ANWNBcMXPur7jjeQjIFLqNs07OsxNY8cnFNTk+dUAcCMcw0I2+NQy7rCeOEjIaRfL4XDF/wdkBtBMMRhtzQg5xeOmP90EPvsVeGID16Chqdyd27nJD7b9ijH9mvcUyZ77adGjBUD7UQ8OwEuztZ0TL1XMGJhXsweWDh84RNwOQzhvplEuPxl4YXzA1+jpb4Kt1U9CmKt9+8Tc+qVwJwpADh+QDOIXOw9EG+XsncSGlLyXeGI+beK4EIAYeS7UYQ/ypeLP4Cd9zDlz/oi8vxEPPt69WP99tQX08gH1eP6dkis2vo6gKG6YlJ4i65YQSgcufAJpWQwwDAmCaoRyvDCkQtvC6HtepOrlqUgouH1aBlaM/6gjt7j6JEzBUBNNn0BICUeh1gqk6lIqDNI1VfBiAWPuUodQcjHAQ65vQXH6Zcvv1a+rmD4/GdA9ZbG/jha3Oy8xKN9jwt6X4LhtX8an8QjB5eKxXkQOUbXcUTIy0UjFk4JfGc8ig+f/4rYVj9AZgR1/iHlIxfWEQUj54c+1Xh9FKjYvSKy3eP+R+ion4aQ/vfKmQJAwEs1DK883Gr03O2BJ+9R8fD3FxRur+pL8E8gkz4OuW0lcWXByvcHFl704eog91EXEdAlrwLh6OsX2YMuK2oe7vNYzSMHe34QbFd2PN6vTeAPH3r+TgWYannvqJ9vaNQ8cvBe1Q/3eYSUVwG01/i9ytiirvErb78VXPD+qoIV84+FK1eB2Obf+YdJkjcX7qg6pPjCeQuD3EcdZNisHXTkXq/9IMSoXHn+KCcKgOpH+/YH0NdjGFfRzqkZ7OpDrlqWKrpwwR/gOvsIcB9Ana/DbCPw13TE6VE0cv49ufZ6ZH0Vj5o/H8RYzWEFwDBQllQ/cvDNVfcf0F5X4G0TDmxZ/XCfW+y0szxRE83ZhUHClqiJ/txOO8urH+5zy/YH9M3aWPnoQe2qHzn4ZlCWCDAC+s97d8VGzPtYc8xAyRi4haPevzuTzfQA5e8CaPwhxaSA98Lm3kUjF9wkV+XQNOP1RBf/BJDxGGbPmlXbT9WRj1c5McaXeLjPWEIu8xZFni0cOe9sPRmFb8fj/drYKWcURMoA9EP9PysHkOkEnixU2QkyYmG1D2mGho8eVJRwrXkA9vGpiTQgT4uLB+MZeUtGz63Xl55joJJd+5a6xHAROQdgCQAIsD3rYu+Si97f6E/a31TzcF9Pv+MLR74fyDmi8sG+bW2FT/i/1T+rCEyyyPGxor1fl7KnnfrEY3nvaCoRPdYlLgIwBIAvIy8CfBBn88Nk1Bs59f66VyzvXVxTHR0mwHkQHA2gvpPYEMBcAE9mJfJwswvfy6fFiHar5uG+TwPwtlgUOLVw5PzQ5wUIvQDgowcV1TjWWgE8zZUsxMCCi95/U1deuaTm/oM6iq2OJeRwCvYToguANgB2rsWJSgAbBFhO4mNYMiOblLeajZ67Kbys/Vc9rm9/UZgBn07u/yOVAF4D3Jkkllp0Fyfj3OBWRd1Wo+du3/HIYa2FqT0iwF4uVV8ARwA4EkDb741G3ldw0fzR/uZcq+YhjwXAqGAKgMSDfcZSdvkjYDOE7wjxjitYQEfWwM2sS7uxpCpOK5UtUCqb6agEe4ugJ4BjCBwHwO8VIBOOuIeWjFzgedW4XFb5YN+2lsgxII8UYH8KugFoj9rzDwFUA9hEwSohPhbwXSq+mcvziniReLjvsaTnOUkc0O5WeNHsUG/Fhl4AJB7uezGJB7zEEOCDglHvH6QrJyN/1DzY53qI5PxrRN/iuC76FV/8/gK/G8qHAqBqXN+DlcJc1P9XZqgI/LRo1Pv3hp2HEbyah/rOB3CwlxhC/L7govdDfXMk9GcASLlUw5PK/wg8cSMnFF40/zaBjA3qCWZNm6VUUMes5++W/xlachsgVg58LnXeBDLWXPybLlL9y+sxRJGLOSbca3CojVc91O9AEAM8PlG5PW45T4WRv5Eb4mn5OclX/Ht62Y9NBtY8dMg5PnXJ/3jN02c14/oOEReDwv886r4J8EK8qMcVfvWJkfsKi6MT4H155a6pLv1PCCH9r4Rbfbi41GsMCsY3tgfcjPqR0XMzqYwaCuD9sHOpF+L/+NDAeNhphIUPDYxD5Naw86gXckY8LWX1fSjRaFx2Tjb3kNc4Ll3P10AvQisAWH5EAYXDSMDL5mZxX1j7YOSOVqPnbk+JezyJd7weUwFu3avdSl/fH/eao5+qncprSXTPgc+hbuca4s1qFP5IRs+t8bdnjHyQFRlHgh6PqzMrH+z7vQ8LByG0AqC6MnUOKC093UcRebf40vybUMLwR8tR87cVRrInCtRrYd8jrvu9ZPy2eqyfUxF7zdEfVfcPaC+CX4Xd//XYXigqif2o7cUzKv3qEyO/NBs1dzG8z6AYVZSyENIHEGIBIJSfeI1BUvdkMEaekxELqwtKIqcL+FjYudRRMWyd6xvkB1HOX+Hx1d8A3V2Yxdn5ssaIERyC47xHkfO8x2hgy2E0uu3fB7aMRKPr4O397e2FDjqY4ThjV6rvP+QyiNwN3+cJ8MwVyBGFl8x5T3fg6gf6eRrIL7pkrvZzRPWD/Q6Bi9nIgbeQfkASkCuKLpnzYNiJGLmJ5UcU1OxIrwXQwksYBbdbwSXvr9KVV12F8gWMxGLnABL1NHRCecJc/I3dKbp03n0QXJ0Dw8c/tCkCd5B+FORec9OLhMCVfwKicqDfd7sJZbi5+Bu7I2XvJEB50uOxJg5sbatS1kc4FTjh+Z6HUPJliNcIkVAKws6hjo5KjOv/47CT8Fvigf7nATgq7DzqwlVS/MP/ltHkKeX5NoAAodwGCLwA2DG2XxsQx3t8f/LTgktnvxN07kb+Idgz7PfG67q5lJ/50AHeNs1cyE/D7ue6bsrhfvp7wGhsii5+bw6ID70db+yXvHfA3kHnHngBYFkyBBDb25CJGi/ix+nJaHRc6Rn2UHIdtvUCuboosfVE/R2QW7cAihJbTxTKNYBsyIF+3+1GEVMAGHX1hNfjzbHcwEcBAi8AxIXnYU6LeFxHLkYTIOgUdgq7IsBiAKML7aKuhZfO/mc+L5NaV3LVslThZbPvKqy0u0J4uQBLws5pN7qGnYCRH5Q4E+BxzEwAz2/GNaDN4FTdc+geEsEaeFv0Y2bRZbPz4h6iEb7qsYd+lmPh9dbOAAAgAElEQVRFwHZAJirBw/FL3nvb75Gs6vsO9RS/6LLZvp4jSEhy7KHHuIKREAxBbr0auLLostndwk7CyA/V9x06A7WrgDYYRR1cfOmswOa2sYNqCAAkqoaA9LbiFzleUzpGUyDi95KwP8QF8CFF3gAwtah51ZtStigNAN4nwq6LQGv8eqstgGZPBzCd5b0vr95efJyQpwMcCEhvhPmqoKAktLaN/CPqcZCeCgABywA0zgKA5I89no4c141M1JON0UR4e5KbOA2CTgT2FqAXwD1BaQFBMwAlACIAtgNIA1gPYA3INQIscolFqbSa3fqqWTs870UTsLMwemXnhi1j+zWPUvVXgt4EekNUJ8DtCEg71M7t0BxABkAliB0QbgPkCwJLBPgExGoIpjY4IZoCwKg710qXq2zkH/ByXSXPAPA7bUn9gMB+HlSPO6oDspnV8FDRC1BROPq94zWmlRcSDxzZxclmjhGRAQLsR6AbgJY7NwLYBmALiGUUfKQoMx1a00t+OnNDqInngOqxh6XgYSKgwpbVsa9+secZ/rNnrCbWKuklRhPf/1TR6Pea7GJNX+I9A4urrcQRIjgGQH+AbQG0A9AGtefzrQC2CrEOgjmgzIaFdwsvnbUmzLzDUD12wIsAf+QlhrLsrgWXzFylK6fdCW4EIOucCoin4TwKntGVTq6r/M+R7UTcUSIscx3nENnZdd9zQ1fwZTEg6CHAyRRcq8Rxq8YOeFvIJwqdwvFyxRtVge5AzpBKAK0b+tc7djQrBrBFXz7BqYw1L7E81vhNfP+b7Lz/LO8dTWwrPgfA6BomjpZvXCu+06d7AtiTgv0BHA8B4ILVYwe8K+DjTiT2VMlFb20MKvcwkXhaRDwVAK7jnAbgHk0p7VaA99e8VUUAXFj2s1pSyWGJsf06V993+ANKZT8T4d8AHNLAUEqAYyHynxo7saZm7OF/3/7AEa105ponPJ3EY4601JVI0KJW1Mv0pACa/P43uQJg8z8HNKsee9gtNVuLPyPxBImBaNgPRQFwBCF3q0xqddW9A/5Rdf+A9nqzzT3/z955x8dRXXv8d+6sJKusVithY1oogUfxo5rgoraEkkDgEQimBUgIPEhCMJYr2GCvCwaDG70lQELHlDQgoUorG4dieguETsDYlrS7KralnXveH5ITwsPG1rmzM7u6389nPv7kE+7vnpkdzZy559xzdIb/CCAjlPmBCVs2h6w4AByPhcA4RFIogRnLSs9c9lk27PUDvjU2qPP6kZdodt6B5jPBVGSwqEmEmSeHMvq9rhtHjuV44Guwm4PRLrl2GZ3Z1Q+zTeBq3k167wzw8x8wuRvMoI7rR/54UCHeBtM0MLY29/yhIgLOJxfvdd4wYibfNyzovTn6TfmvnmshxlJhUaDv8rWxrFShzMqLoGPb9dUMijAI/T0A5G3yX+eNIw/oXL/uFSZMZagiyXX6hqNCM67s2npk89prRu/o93lnAwatFF0zpXb3+xz6CzPtLr5nBvT5Y6Xf55ANOq+u3rbzxpFPgnAHg7bx8PlTyqDpna3h5e3XjszbIksu0UOy66SKupy1h2TD1qw4AOTi+0IJdqjgISPGBIyO60f+lBnLAPxXtuZkwmg3pFd03DTy0GzN6RdEskIzxDzSlC1Zh3mUVGJAnz9TkIsUGaHzhoMO5AL3OQAHZ3HaA8jBivbrR/jWBtdLQgj9Hl+brrX5aFBWwgBZWgrmIzdv6WOjx8vF5yz9ODu2Zo+OG0ZdCOAWMAYJr09/jiq4eDhf/wg3oF1+W3ad6GBvuvR5C/d+SsTk98nAPX/urdSYt7RfN2oMs0qAsZ0Pz59iAt3Zft2Ic7Nzttmj+JylH4PxouT6ENNR2fi789wB6Ly6eluA9hbV5IZ6xGs7s03ndSOngjEXIPKx3nkhQd3Zfv3ovHUCSKm3hddoaNd1ow/0wXQRa6+vHtG7X158jwzc89dO3joAndeN/gER7gKo2MfnjyJS13RcN3pKNs45mxDwkOzaYJuum0bu77Wd3q8AhPT30XdG/YU155UD0HHd6DOYaI7fdvShCPzbjhtGZSXmlG00db+C3mp8/YdwmhlrsgcrfaoxsYF5/loX6VeMGBMwOq8d/R0G34ssF4LbKMSXtt8w+ni/zTAJU6j/Bag2oL0PA2QjBHCEcKmoNTx4+2ezYGdW6Lyh+kCAr0NfllFAjkJo3N111YjtvT7/bFN+zoo1YLwiWwrmU/iKffwuKbzZ8BX7lLLGSabuj4F5/vRS5KzlOVn/YFN0XT9qOyb+M4DSADx3NhxEmm/ruKFmX49PP2uUnrP0VTA+E/3dMR/stZ2eOgAcj4WY6VDhMtEjdMIS10s7swXfOLwEmu8BaJCPy24bOwbrkHNHLsZ7vxn1pPDaVHWWlmalcr8JOsvKfg5QlcF7YwCeP57IvuXeoxnXw0xoyPRRCq3v5auOKPL2CmQHIjCIHpNdEzWKb415WonSUwegfUjPKACiYhxMeNiQOb7T6Q6aycC3/bZjE9R3XTf6LL+NMA5pAw9zmshXHB74r+DVv6kOg2mieeUBdv6KnjRgTqDozfWho/22YxPs3hVKTfLbCFMw8FehxKCOtetHGDFmI3jqAJDWhwqXhlxdwI95aWO2SF07alcwnx+A5bZvWO7F3JarRgSpJauY0rVIgJEUXpvtOks6pvtg/hZRvI5ngHmoB/fGQDr/ttKigmYfzPeM1huHR0jjSr+fL9/4/GFMXXddzS4eXoqswW7mcTBc2TWhg7200VsHgCgmU+AX8iUO57Caid7OcUFnq0GOOt9vI0xC45evZfA9BqQaOq8f5Xlmbn/pvGbkAQDGejjFgDh/Au6mMxpFTZSCRmGm6Cz0NvAJOsUZdqf6bYQJyn/1XAsDz0s0iLjelD1fh2cOQG8shw4SxkCe9sq+bNJ5dfW2IIwJQJxtsw6GOt/r2FO2cdi5zcC1KYBW9wVxhWTVtbEyJucugAo8vDcGxvlrutWHU/AMvm+MA9C5fj9XNv9Qp7ZfPzoXnJXNQP1VdC1YjeKFo4o9s84r4Q6VGgFpgRtwXjgAmnAOGAV+L69twVHV2dXzI6+uhx+U/Grps2C8YWCJctdCFbqt96EaDPi+MU4x99wJxu5ZWKLN7/PXeL30vGUvZP8svKNj1Wc/AmPnADxXNvcoUi7lRS4Su/yk9Fp0FDie5QF4tg9UEdUziyS6S7vKlhkyx1cIMFlo5xUG38iKngqvSn4ADNbtVet3JaUOJaazAd7byCyMOzquqb7DiFaeQcCxHav+eR2Ac/y2hRnUcc3n1xPhf7I1Z16fP+G/O66plj258pusPH8YOAXAXBNafhJuTT7buVVFF4ASgUwMQKMRg74CeSEKAB1X1zwOoN+15omxtHTs0lqDJvlC+zXVw4jpdQNS64h5XMl5y26i3goC/w+OQ3VVVZ/NoEUA8moJP4gwcFPZ1tv80q9tqnzfGKfji8+vJ8CXLXoD/fwHGFl//igO7VAytvFTqY7fdFxT8xRY0muBE2XnLas3Z9G/8SQEwPeNcUAQLVtooqdN2eMrTCZ+uHWs+cjSsctu3NgfHwBQHLr0vGU3sOYjAeRVElMQIeDsji8+v3/1vOpwtuduuWpEeccXKx/08+U30M9/AOHL84ep53tSjSBAjCahwgiv8gA8cQA616wcBobwocBPmbHGX4gh7qZGzOPC5y/bbIcofP6ypxmYIJ3X8s0Q8MPiElrReVVd1rLjO6+pPWAQFa4gcNaW/TfGQD//gYBfzx8mGi3VCAIaUgcARWsLaT8jxnwFT3IAuIdHgkTRhZ6yTCYvyv9qqD1JlgzxSul5S2/a0s1NZS1Lb+iorP05ADM5AZZNsRuDn+24qnZxl+PMGnJuY4cXk6yeVx0uKqYZWmMsgAIPI3hbykA//3zGv+cPB7po2mZTVhb6W0e7uw6CsIirnQMBLDdnVS+erAAQKdHyPwMv0/jla03Z4ycElha12OSy20bnjUMDuEk4t2XzKWBgUrHrvtNxdW3DSoNV81ZecXhpx5U14wcVq3cINAHBrCcx0M8/X/Hz+ZMXDkBvTQkW1QNgIk86cnqzAgAWOQBE+JspW/yE41AdQFSkobUkFJIXYZQcYxtmLCwtWjut/arau7XmO8rPX/rclj5EmUHpq6tHKNCpwNqTGVTplcGGGejnn1f4/PzZlhnUHwckaBBjGRP6ndROYE8cAONraC1XjSgv5KI2CFYXiOiUsrFNdxs0yxdWXnF4aWnhOtFyaBmVDqKxj67vz1i+cXhJx7rSTsn8FgMwVkHhaQL/Dey8rbnnA9Z6dXk63QEA6fLyMlJqsKKCnUHuHgwaCY2DQZ5Xbuvu+7fQ01mCe/6Wb8Dv509ZW8LpW03IadJX1h9L4AcFEnrdOrdi8JRl7caMggcrAIVu8QFQWhRacJTzjCl7cp7w2n47aWuSg5xBdjOg/xCGgHEig04ENIgckOOgI1oF4N+eMkMDTBvGeA4TfgEAxPiNpxMF9Pwtm4Hfz5+9xhCwRCjiP47Wf9NKdFOrQcXqAMgTCv9T1KQYABC50mzgL4p/9dRHRozxma07H1sLyJav2juwU3/HDhpUsKNkbkv+woQF5WMTt5SPTdzC4IV+22MJJj4/fzTeXJLzy/8AUNrQ/DmAf0o0SJvPAzC+AqBZ7S903vPm65/i0O2LqRVAVb81MvoQAG/3ayzzYWw/pSxfgYgfLhu69ZQN/zu8zdDJ7Z+t2oOAI/20yxI8fH7+fJYPy///guk5AMf2ezhg3AHwYAUAohUABvKqDjcD74sEFJ3D8S3/nfi+MQ4DeVFP22IOAj+7dp178per99EJS9wete5kIjznp22WAOLn84f5PdH4gMFE0r+vYDsAfdWK9pBoOMQvGzInGHD/vOcvjd+7I1K/xTXXOz5bdS6AvURzW/KNxrXr3cO+LpGoauyz6bXrMoeC2WiM0ZLj+Pj8IUV55QCQ1lIH4NvJ62pEu8q+ilEHII3Q3pCGFZSbVw4AmSjeQFjQfmX9ZteS7lgUOxTAfPG8lryBgUfKdPeRm8oiHjxlWXtZSeeRDPwlm7ZZAo5Pzx+tOS+awW0gA/UiZDlh5HQro4XdjDoABDVM2Ppwdel5yz4zaZPvOLrJQHvMYjAeaV9Y/8tNLcfxfWOc9sX1Yxn8CHKr/bA9PD3oznByzbGbU1yLzlnRFU6uOQaMu/232x4BOXx5/oQc9djG5spFog2NSTA+EV0XYE+TNhnNEEsvjs0nZkkN6MfCDU150QDiy7Qvqn8bwO6G5F4D0U1Q7lNlRV0frs6EVXEGO5Hmw5lxJsgu+xtG2srTPwjroKkhPL7xhv4Mb19Y/0soLADnbGfJ3P3tgku2nj9vhBua/tuQVmDoWFj/JyYc1X8FujLc0DjOlD1mdwEwy2I+QF4t//8bugfgGYbE9gbz1XAVOrrKUNznFjJg1J0j8KllDYk7zSnmJun5sT3I4TsBHOC3LVvIO+SqE8omPP1KfwXC45uu61xQt1wruhfAbgZtywYr2KVTyyc2ynJw8oD2xXUngukeQ3JZef4wkJ/PHsJrgMQBYKMrAIZDABgmEmDu98MqyDisbgaQ8duOLWB1qVN6v99GBIHyiY1vl6XWjCLiywD0+G3PZuACdO267syBkpf/BkonJF7qdtYdCOD6Xu3A0wPC3LKSjlH25d9LWXHngwA+9duOLWAtXLrZbyM84jXh+GA6AH09wXcQykgvTiApGf/UP5lhygP3HqKr+lv+Mx+h+BvdZeMSF8LR+4H5Sb/t2QSNRPqAcEPjr0yWDK0a+2w63ND0S9JqOBDoXQJPALxveFzTNDpnRS44a1mBzlnRw4zr/bZjcyGmu8onNq7x2w4vYFavCiW273vXGsGYA1BSFNoDskUgtzSt3jVlT9DQ5M5AbnxBrlm3vudKv40IIuGxzW+GxycOZdCxILzktz1f4h0QTgg3NB1cNq5Z+oDZKGUTnn4l3JCIgflEAO94NU8/eJFZ/TDc0HRYuCHxlt/GBJFMd8G1IKz0247NoKuHMMdvI7yirDT9DgDJxxX1vWuNYMwBYM27CbM+P6J44zpT9gSNioal75PGogBk9G7yYPAU0w0n8o3yhsbfl53fNFxDHQWNhE+/FYPxmNL8g7JU057hcU1ZK5geHp+4ryzVtKeGOgrA4322+HD+3KQ0/yDc0DS8fPzTf8jKyecolRc8kSLNE/x+vnzzQZdGGxo/9OxC+Ayds6IHjL+LntGuuTwAY0mATOh1APo7vp/lJnOJUuqOd6DwWAQ3oeqp8LjErWjw24zg09ui9OmHATycnh/bA6TPJKJTAQz1dF7gQwb9Adq9KTyx+U0v59qkHXHoDeffvvDgYYA+m4FjCNjR46lXEnC7Vuo35eOe/rvHc+UVZeMTd7UvrD8TwHf9tmUjvFMWKr7CbyO8h98FaJ9+DydzeQDmHACmbwuTQPP+j5nGL1/buaj2JM1qGRC4rVWrVE/mtHzovZ1t+pLNJnEcU9LltQcq0NHM9D0i7AegQCjfw4yXSeFPpNUfTST2mSY8/uk3AJwP4PyORbH9GHw0M/6HgH1h4PwJeIkZf9Wk/1yebn4hr+rDZxnVkzlNF4aeB2Nbv235Ch2k9JiBkHtEwLuShywbTAQ0tnGjfWH9MwBG9VuA+efhCYkbTdkTZNILYj8l4lsQnKan68E4Ijyh6Wm/DcknOB4b1B7h/YlpOIBdQbwzGDsxECFCORhl6M2sbwOQBJBkIAnCW4r5VWK8WtLe8gbF3+j29UT6CceHFXaFq4YxYR9NtA8YexJQgd4j2vevA0IHM9IEpED4EEwfAPgHE68Ip+ilfA4N+kFqQWykIm4EUOS3LX0wiI8PNyQe9NuQbJBeVPczYpK04H4zPL5JtuOuD5MOwGoAW/VfQcXC458OcoaxUdIL6qYQ0WV+2wHABePk8ITsxZAtFou/tC+oOxFEd8CDjrBbCgOTy8c3DYCl/17aF9fVQZPkXdcRHt9kZCeAkSTAlqtGlIOxlSSxQVEmSFnFnlM+ITGPNI/zKYFqw9EN5h/bl7/FMrAIT0jcy0zHgrHWx+cPE1PDQHr5A4Bifld43cpSC0dVGrHFhEhRpkia+LOuZFxzLmxRMUrZxMSVxPgJgG+s0e4Bq6H5iPCExL0+zG2xWHymfELjnwH8AIAfe+67QHRK2YTGxT7M7St97zrRTiuHir5lwhYjDgBp2l4o8fFATT4rm9h0O0GNApDN/cvNDnh4eFLiqSzOabFYAkZ4QtPTKpPZF8Dj2ZqTgReYaXh4fGPuFEczSN+77n2JhtY6OA6AViRdAfjIhB25StmEp18pKyjZH8BsAF4mPLUB/Kuy9qZYyYTEJx7OY7FYcoTSKcs+Kxvf9D0QnQdvVwM6QJgRLusYbcs0y955RMqIA2AkAYTBwhLA9LEJO3KZvu0v07sW1N2cIboIjNNhbqtgEsD1utu9ouLCpW2GNC0WS57Q+1XaeM3qedW/HRRyxjNoPIByQ/LrQLieQvrS8Njm1YY0cxoN+kS06M3Sd24vZjJAtawHAIEHvAOwgb4v83PS82PTwHwGgBNAGI4t37HhAkgQcE8nF905dNJjncaNtVgseUVfFdCZq66NLShay8cq8I8ZdCgAZwulGMTPEOhOXh+6r3zqky0emJuzEMuaMzEQnBUAANtJBjPZFYCv0tcM4woAV3TNi23fo3SdIhqpgT37qq1tBaCs7z9vB7AKjPdB9BaYl4GoOV8balgsFm8Zcm5jB4DbAdyenntIFRfokQB/h4gPArAdA1HqreXgAGgF0MbgLwh4noDnlev+rXTKss/8PIcgw4RPSbAAQBSkFQDGNpKKAgQe0DkA30TJlMZPAdzVd1gsFkvW6Pt6f7jvsBhAaXzKgncmMwUnCRCEIZLhnFHWU7RYLBbLgMBlJUrCJmBbjsvf32IBvnF4AQBRUQK3kL+Q2mGxWCwWSy4QGVT0KSDa+u6ky0dVSO0QOwBrOyNDICsp3F0xrjEltcNisVgsllygb9eXaEcWsSMovd+LOAegW/NQJSvhs2qgFgGyWCwWywCFsQaC1XOmkLgcsHgFgDQPloxnwO4LtVgsFstAQ7Y1UlOV1AB5EqDSIiMIGHA9ACwWi8Uy4JFt02bXfwdAaQgTEWiV1AaLxWKxWHIKEq4AqACsALCiiFDBVoiyWCwWy8CCWbgCIHcA5IWANEclmwAIsDsALBaLxTKwYNUi2wnI/icBAiQKAWhhX2SLxWKxWHIOEq5+M/wPAQAQhQAIZB0Ai8VisQwomNEhEiBZAT7AhAPA/2pI0y+IdFpsg8VisVgsOQQxizq0EqFEaoPcASAWGaHJrgBYLBaLZWCh4MgcAEaR1AYD3QCpRJLHQBnrAFgsFotlYOGCOyUtgRkYJLVB7gAwSiSZjAqudQAsFovFMqBwWHdqSRcdcAAcAEhDAOrl9Lw6uRkWi8ViyTc6AfqQmJ+Ao34dntT4ut8GmSLjoENpgQCT2AEwsQtAnIhgsVgsFsvXUArwMCacz1q/nLq87hqODyv02ygTOMiIcgBA8hCACQegwICGxWKxWCybwiHGue0lVY/mgxOQCRV2CyUC4ACwiTCCxWKxWCybAeO7HcVVC/w2Q4p21koCAEAgHADAAQP2sIc97GEPe2TjYMYv2i+rHoYcpmd9xBVeB4dvHC5agTfjAFgsFovFkj0cRuhMv42QsHVntyvVWP15WFQLwDoAFovFYsk9iA/z2wQZq6UhAFBxj2gjoQkHwOYAWCwWiyW7MHb02wQRe+0lXgHYqkBnJONNOACyhgYWi8VisWw5pX4bIGLMEvEKANJpkRNhohLgJwD2EutYLBaLxbL5iL+g/YQInL4UDECwjD9Y5ESIVwAIeFyqYbFYLBbLFpLTDkBfBr8oho8ZjaJrIA8BaPVr5PgPYbFYLJacI6ffO59/Li6ip4nAEgGxAxCe1vg6M26Q6lgsFovFsgXktAMwaFBU6gCIz99EEiDKu1vGM+FJE1oWi8VisXwjDFEGvN8U6PXScsZiB8DIFj6Kv9HN8WFHdhRWLWDgF7C1ASwWi8XiLV1+GyDB0QWFGSXyYYKxAgD0OgHhqYnzSLn7gmgRgNdhtwhaLBaLxRty2gFY72jfQwDGi/iEL1j2BoDxJrRSc+tPI/DvJBohjW+VXJT4xIQ9FsuW0D637hwGrgIQsM5l/BGI3mTG+wR8SIyPQfwF2GlRcFt6FK9bFyrpHjrpsU5mUOqymgqHKeQShx2liqDV1lrrbymFHbTG9qSwIxh7A9je7zP7Ct0EjA1PTdzotyGW/0/yktoDFNGK/o7nHHcAHM4UCr/B10ptCHQVPwbXCxXeK7mo2b78LVmF48MK2wuqrtbA2X7bAuALZjyjgGXk4PnMOvVqNN6Y3NzBvVnGS9v6/ufqvn/f+rr/Nj0/tpXuwX5Ku/uD1EEMPhhAldB+CYUM3JCeW7d/uLtlLMXfkLZftZhEOZXMom3snaZM8QOXVKmS5PAT0lIbAu0AEDgm2SbJoEZjxlgsm0HH5bGh6Yy+H0C1Tyb0ENAM4FFS7qN9K3JZoXxi4xoAT/Qd4DhUKhQ7AEofqoDDGKiDD88cBs5JF1QO67jkkOPLpj35Rbbnt2wErSuFu+BzegUAUBFA4AAx5a8D0DKnbgcA35ZoEKjJkDkWyzeSmlN7UCajHyRguyxP7QJ4ioB7ubvnofL48tYsz/+1UBwaaHwBwAsALmufWzvYhToezCcRoQYGc5C+2Riq0eh5ITkndmzFRY0vZG1ey8YhqoJgGzuBUgatyToO63LZAoBul9oQWAcgpCgGFtU4QIa50Yw1FsumSc2tO5IZ9xOjOIvTfgyi32QcuqVqSuOnWZy3X4SnNq8GcD2A61vmxbZ3XD4dzL/MlsPEwPZEuil1aexHkQsb/5KNOS2bgLlSNl63ffN/FFwYFJG84xjyFYDseeBbCGt5/L/KJv9ZskBybu3xYDxEyNrL/xlN+FF5T2LnyNSmWbnw8v8qVVMaP62Y2jQ3slXnzsw4CcDyLE1dAq3/0Da37rgszWfZCERCB4AoECtd/Ya5XCaQxyEAImH8n2383+I96bl1P2HGb5CN2hfMfyGlZpVPbcrWy9Jz6JwVPQDuBXBvak5sJEjPAuB1n/dCxbg3Nbf+Z5GpTbd7PJdlY7CqlIQAct0BYKIIiVa5OT9XAHrj/ySL/ysb/7d4S+qSunOZcSs8fvkzkCDimshFzUfk08v/q0QuavxbZFricK3VwQCWeTxdCMy3JefW/8LjeSwbRbYCoIGcDgEo4QoAsXwXQCAdgJCimFQjo2383+IdqTm14wBcA2k3r03BWAnGqRXTEvXlU5u9fiEGhujFjY2RaYkaYvofgN/zcCpFzNem5tSP9XAOy8YRbRFVGmtMGeITUclgTXm6AsCa68FA/w8b/7d4R2pO3Y8BWii7Rzd5uABf7YYK94hclLgzm+cWJMovavpTeXFmb2hcAka3R9eaAF6UmlN/clZPzgIwqkS/ncJKH6w2hgYNkZw/6TxNAuzd/99/7P5/i1ckZ9cdDuAWePXlT3hWa3wnMq15bOUFT+T0NicT0PjlayMXJy4ipfZlhldhPQXwbcnZsUM90rd8PaLKkdrlnHYASPPWIgHFLVIbAucAGIn/2/3/Fg9IzqoZToQH4E1p3wwYM8t327o6Oj3xkgf6OU351Ma3IxclDgZjHAAvKvoVEukHk5fUHuCBtuUrtM+tHQygTKIRcdXnhszxB8JQyXDF9JnUhMA5ACEYiP/Dxv8tZkldGtuVlHoEwofWRniXoUZFLk7E6YQlOd3j3EuIwJGLE1dCUw2Af3gwRZiYHk5eWrOLB9qWL6EzaiehRBvFG9eZsMVHhkgGM7viqpaBcwBYuPxv9/9bTLN6XnUYrv4ThH+wXwvhj26o8Du2Ot3mE5ne9JohuSgAACAASURBVHx3gXsAmO7xQH4ouerPq+IxLxw9Sx/s8M5CiZz++u+7v0olGj1uRnwNAlcHgJjrbf1/S5Ao7HZuBrCHYVkGeEb5tOY5vQ13LFvC4CnL2plxSnpO7ZsAzYTZnIw9ixz3JgCnGNS0fAnFtBPL9sB/bMwYHyh01NaQNULqqoo/m19JgEbi/2Tj/xZzpGbXnwfgRMOyGWL+WeTi5tn25d9/ekMCzbOZ6EQYbwxDJ6dm1f/SrKZlA8x6J6HEBybs8AtFGVkCINjICkigVgB64//C+v82/m8xRGpWzQiA5xuW7SLoE8unL/2zYd0tYuUVh5eWrO/eX7MepoCdAezCwA7o3Zsd6TuK+v7zJAAN0GpArybQKs14XxHeZlJvZDJr3zTxNdJfKi5qWpKaVf8hiB8GMNiYMPHC1Kz65yPTm543pmnZgCgEQKQ+NGSHL2hgB9mSFRnZAREoB4DBMdlF4feqLmq28X+LmFR8VCWUugdsNOM/SaSOLr8osdSg5mbREh9R7oQKD1Ogw8EYyevW7cVAiLBZLndF7z9cCdDuDICobxxrhJwiNz27/nUmbmaNZhToxysuXJrVKm2R6U3Pp+fG6tjVTwLY1pBsEYgfSMdjB5THG3O96EzAUDtLPvZ0jq8AgLGTZDgB4h0AQMAcABv/twQFcgpvZOadDEp+ppT6Xnha4+sGNTdJKj6qEk7ByQQ+nkHVYBR4FG9wGLwvGPsS4VfIqJ7UnLpGZnrIcXseCMefWeXNtP9J+dTGt9Ozq78LOE+wcI/5l9iBHX0tzIeBBizMoNQc/pbkY480PjRljx8QeEfRu44g3gEABCgHwMb/LUGhbXbdcQw+3qRktl7+zKDU7Nj307Prl8Ap+AzANdy7tbbA67m/RAEYhxH4Ou2EPknPrrsvObP+MI57/7wpv3jZ37Wr6wGYTBI7IT2n9hiDegOa1kvqthd3ztTdXpaI9h6mnUTDQUZyAALjAIRciknLetr4v0VK8tKaqGJcY7DUbBcxH+31y5/jwwrTM+t+kppT9ypYP8rMx4NR5FH53C05CpkxhogfS6v6N9Mz637CNw731BmpiC99XwHfB6PV1Hmwpuva4rEKL+0eKIRc3kf4e6yKxJfndCdAADtKrgG5MBLqDowDwGT3/1v8hzJqEYBtDMm5xHRq+XTvGvlwHCo9s/6MdlX1HhNuI8Z/ezWXHN6dCbelvyj9e3pW7Vl83xjPuiiGL068BegjYW53wLaO415uSGtAw4r2E41nvG3KFh/ZUTKYyEwhrMA4AATEJOOZbPzfIiM5u+67YJxuSI4JOLt8RtNDhvT+H8mZ9Ye1q/oXmfgWgzHvbLAzg25uf3vVirbZsZhXk0SmL32WmE4CYKS6IjOdlZxZf5gJrYGMAvYVjafcdgDa46OHQFgEiEI6fxyA3vg/ROU3Sdv4v6X/8FVHFBHjZpgqKEM8o3x64hYjWl+hfW7t4NTs2ruI+DEGix6mfsLgfRXrp1Oz6+7pqw1vnPIZTX8i4gsNyRERX+t1CCPfYcbeIgHCO4ZM8QUdKpSWmk6HpzavNmFLIByAkGug/r9j4/+W/pNOdvwCQif0S/yx/KLmOYa0/oPUrNqTdIbeAFP+tK9lnKgz9Fp6du0PvZAPX9Q8n0G/NyS3W3pV6dmGtAYcn8WHlwDYTaLBwFuGzPEF0q6sqqih5X8gIA4AM8dkSSE2/m/pP62XHRoB0zRDCWPvuoWFp5uu8Mfx2KDkzLpfg+luMAYHILnP9LE1a3ooGa/7Dcdjg0xeOyIwazoDzO8ZsVVj+up51WGTNg4USlHy32A4kutfQKFX/LDdGEx7SM6fNIztgAiEA0AkjP/b/f8WAaH1PVMAbGVAKgPSp1Ve8ETKgNa/aI3XfCtNuomAM03qBhEi/CxNenlbPLaTSd1ovDHpMo5jYK0BuSGFa9VEAzoDDlZKlAAIoKXkoqf+acQYn2BpXxHmdw2Z4r8DYCT+Dxv/t/SPznj1tgw+34QWg6dHpi991oTWBtLxutEOqRcBHGRSN+Dsp0g/l55VX2tStDLe/KoCLjYiRjSh85JaU7tFBgykxTkrLxsxxFdI5gAoyp8VABv/t/iJSyoOoMSA1LMRbp5nQOdfpOO1P9SEJ9Bbn3+gMZiZH2+L1x1nUjS859aLAZhw0kozGUPOxECCeB+hwKtmDPGH3gRSFn7wcv44AMx2/7/FHzovqd2GQSa2/bnM/EuKQ9Tf88ukZ9X9jInuF1dMy22KFOGe1My6H5sSpBOWuIrcMwGsN6B2Rt+WLstmwFcdUcSg4SIR4pxeAWj/PPxtCKtyOqogf5IACVwvSYhgtvF/S/9we/ArGKmWx9dVxJtfNGVXKl57KmvcLE2WypOjAIzfmXQCwtOXvQHGHAO2DdJwzjVlV77Tnuw4kBjFkmuuNL/gh+2mcKH3Et5zqeJpTxlpBAT47ADY+v8Wv/gsPryEQecYkPpCw5luQAcAkIzXHg/QrQiAcx4gFBi3puM1R5kSLEfL5YCJ7VT0C144aiCv0mw2mlEnlEiVoTmniwApYH+hxKsmdxj5+pAJZXCwVMNl1zoAli2mlErPgJnY+vhovDFpQAfpWbXVBLoD2e3SuYpA9wOYCfDJDB7ODnbhIl1Zvk1nYfmMhOIiXRkq4G0BHsHEx4N4OgEPAjDSkGQzKdBQ95lKDKT4G90MTDMgNTiVLjzNgE7eQ0zC346fNxlm8wmpA2B0C6Sv7YAZqJeVXeP3KuNLTXb9sgwAOA6VZogz/xloqogn7jJhU1s8thNr/SCAIhN638DzIL5bsfN42YzGNzb5RXEOACxt6/tfnwN4DsADG/7v9lnVw5id7zPjBHi8U4GAYtb8QGu85kATf/eRGYkl6Zl14wCMktnFDcy42XTth3yC7xvjpN/8YrREg0A5vfwPAAzsJ3nnMeg1Y8bA5xUAAtdLxtv9/5b+kEbd9yGsRgYASrGJL0h8Fh9eQtB/AuBlQlmagfnKwV6ReOKgyIzmReF44+vSl1Z4+rI3ymckFkTiiRFw8F8AFgMwWgfhKwx2oB4wUSyICEyKJwHiF/ceqZl1tkfAJki+/cU+ACIyFTa6xTbbtMdHDyFgO4kGKdfoCoBvDoCN/1v8g081IPJXU13+ylC6iOBZF79WgGZwkd6pIp6Y1NslzxsiFyfejcQTDd3F7g4AzYB3jsCBKehrTAj1/YaPSnXIzD2VtygtXf4HE9xnjBjjE5oc6fK/XltcYrStuG8OQKibYsyA5Mh02/3/li1jVTxWxkzHSO89cmmmCXva4nXHacbZUnv+39H7z28IavdIvGlWxYX/Wsb3nMFTlrVH4k2zgJ5dGHwzM7Tp8wPjzLbptceYsFdDXSG3iY5dOfFwUYe3fIbBdcL7+e1w/JlVfp+HBGbaX3if/WPopMc6TdrkmwPAJNz/T/xe1SV2/79lyyjSfCyEhX8YeKZ8dtNyqS19S4I3SXW+hn8ooKYinjirPN64xgP9zSISX95aEW8+W2muA5krXrIBUnRjOh4Tl3COxhsbQXheKFNWXLLOk2ZGuQ73dtisEcokTNjiKyxNADRfBMnPHICYbLiN/1u2HCYDS7VM8w2YggwXLAAbrvJHuNel9cPL44nALJeWz25e1tOl9+feHQ7mYGytma82oqXpCqkEE04xYUq+kby4Zh8wtpZoUD44ACRMNiU23gTJFwegZZqB+v/axv8tW0ZHPDYUhEOEMh9XvDXkj1JbktNrDyFiY8VtAGgmbqiIJ06qij+bNqhrhMGXL2uPzmw6DYRJgMmtXHxS28W1omRiAIi8NeRBAB8KZQ7vmHqI6EWXjxApcf2GDFROOwBrpn13OzB2kGhoID9WAEKOgfr/ro3/W7aMjNbHgOFINIjoN7RkiSvR4DFjHCi6GgzZLth/001Mp0bjzYsN6XlGRTwxnwljAHSb0iRFi3nMGNnvumSJy4TfCk0JZQozRvIS8gqCzAEgvFsVb/zUkDW+EHJc0RZIACiAes6ELV/GFweAiWOycog2/m/pF98TluF0Xbi3SY1I7rHyNGjsaahUbjcRjo3Marpbale2iMYTDxLzcWCsN3QN9kvt+cVPpXZRBr8Fg0W2uLDbAb9Ee3z0EDAOklxTZvzVD9tNQsSjpe+8snjjStN2+ZMDwDb+b8kuHI+FAHxXJoInpQVo+OzhBURkqoscM+N/I/HEI4b0skZkVvPDrHACANFqypeY2vcb95uKOYkPCCzb2kl8qHQ1Ip/IuKGjIH3PEB43Y41/MMvi/0xKnHT8dWTdATAS/4eN/1u2jHbXHQFhIRIG7pXakdq67AwI7/8NMPP46OzE70xo+UE0nvgjgycZktslrflkqQhDSa9nRXqPzw+U2pEvEOhooUSG1xbm9PP+k4ZRxRCWAFYa+eEA2Pi/xQ9chcOFEj3K6fm9RIABYmJxCeI+7o3ODn7M/5uIzmpeBLCR8IUGX9C35azfqJ7Qg5CuShBJ77W8gM87ogjEh0o0CPy3ynlPeFlZ0nMiZaEDABRKNDQ4PxwA8f5/2Pi/ZcshFj6UGc2R+PJWiURqev2hBOwlsqOXf7hq/dkGdAJBt3LOBvCuVIeAvVLxOlGDsfJLn2xhQFpy1joAANJVaw8GUCbRYNBfDJnjGxpKukulo+LtrY3vAAD8yAHQkCUAahv/t2wZnzSMKgbjQNF9Z6JcLPN5BhLeWLn4SRC3+vWXIfHGDnZxFhhafH0yEDtGivGoLGmNDuL4MNEXXz6gtT5K+ntqxX/ywXTD8CHC6/CsdOfRxsiqA2Ak/q9s/N+yZZSXhPaGsPOlC1fkAKTjsa0Y+L5EAwDAuKX8kuAU+TFF9JJEAoSbxUKEH7ZfWDtYIsEOS5MqC1Oo9Kq3Q07AcShiCCsj8keV8WZPvnyzRV/TKtEWQIY38X8gyw6Ajf9b/ICJpE04vqiavewNiYDO6B8BKBDa0apC6gKhRmBxVGY6AOnKRpHr0HESgUi8+SUAX4is0OJ7LqdJZepiEHa+Y1DOf/2ntFsNQNS5UhF55vBn1QFgtvF/iw8oaQ1uyP8AiU+SS/BiP2v7e004/swqYpaXWSYWfXkSwAT8TaLBwqzv3EdecpuIxBU3fYeFW48Bzd2u6F7cFNnOAYiJRrON/1v6hehhzAzR3vC2eKwCELdDTXOGjbTADTJuT9FVELcRpkN6r3n/YRY3BxqwDsAnDaOKQfQjoUwyotbkQbiXZKXHCS9WXOZdJ8+sOQA2/m/xA47HQmDsLdIgkpXg1HwwICtBDOAmLx8EQaFy3hMpIrpFKFNA2pX2fBA5AMTYd6AWBAqXFRwNoFyiQcAfKf6GsXLRftA65dAIgOEyFfK0CFLWHIAQSJb9zzb+b9ly0sBOYBRLsu7JodckNpDWh4mzoV0lrVOfMyjNN0uvF2nZiguFel6ArCxwaXLYalHzl1yFgFPFvx/rJT6YbhQq6D4EjJDkOjC8rYKYNQeAYeP/luyjNQsfwvxxNN6YFCkQ1ctswPOVcxtfF2rkDOE5ibcg/AJnQOQA9NZ8YFnZZ1d67+Ue6XhsK2bxbpdUOBXO+fK/xPiBUKKroq3E0x0/WcwB4JjIJYT9+rf0A3Z3kH2K0JuS6T+LDy8h5t0lNrChSnk5BfP9wufFvqsnV4eFNrwvscHBwHMA2M2cAHCB8H7/I1396Ho/7DcFAwTiI4X3cMLr65AVB6BlWt0OIGH8n2Hj/5YtRmn1Lcl4Zv2+ZHxpz6B9IIz/a9KPScbnIlqRtPCSU1ig9hQpEES/PWveXjR/DsJM4ux/peU9N/wmNa16OIChEg1m9nwVJCsOQAg6JtXIQDXKLbEMNJi06CFMrD6Uze/sKxkPYFXl7GWiVYhcpHJ24jUGPpdoaJDMAWCSOQDAgFoBaL+obk8AIyUaDHxeXujkfPtfJucosQbTEyZs2RSi6mibC0PFwCyRsPF/S/9gEj6E9UdCA74Nya3PSBBECjmLYjzHwDH9HU8EkQNAjPclF14NMAcgo/W5RCRqxkTA7RRvzJiyyS9I85GytlRYGZ3bLEo+3hyylAMgTgBsNGGFZUAiW4YjrBbOL3oJsCJRBcLchl6Qjdc7i0ZDiaoBMmhryfhcoiU+opyITpfqKO3casIeP+mIx4aCIGoJzYQnsuH4e+4AtE6p+Rak+/9h4/+WflMsGcw6JKq8xwxRDoLS/LZkfC7D0g6BTEMkw8lxhWWJuUQ2PncIZQp/AkCUdMnAM+WXNub8/Z7J6GMgbUvN2emC6LkD4IQg3QJl4/8WCSIHoAhui2Q8SVcgHBa3yc1VSMli8ABEX+DUE5L2oRfde7kCA8TMv5TqECPnv/4BAMzHCxV6dIF62Igt34DnDgBDxYQSNv5vkSD6ClvvFnXJpudS0Wit87b2/zeR0bxSKLGVZLAiV+YA8MBwAFIX1R0G0B5CmU63sPs+Iwb5SDoe2wrSkvfAU9LaI5uL90mA0gZAZOP/FgEs68S1rritRzY/iRwQVcjtovlzGMoUpuGItkEXSgaXFTntqW5RG/YBEQIgzedKg9UEeqAq/qy0E6Tv6J7McWCSvVcZfzBkzjfi6QqAkfr/2sb/LSJEX2HbvLGLtBCHyAEpR7pDOH/OEm1rE66+yD5wPk2tl+VxD4AQQNu00TsyxBXvoJml/R+CAdMJQgXd4+r8cABC2sD+f2Xj/5b+wb2JOAUikej70r8R4cfRYC2cP3fZNixtpiNyAIoiRdL5RSsQuQDB+SXkja7eq7i0OWHCHj/pW/4X5rzRc4MvX/aZEYM2A08dACYVE0rY+L+l3/Rto1kn0WjdNiT9ihMt4bdi7YBYRv461nT1yJw3QBS+KZCHSEX3XtBpnXJoBIxzxEKMW/Kh1oVe7x4L8T2jf2/EmM3E4yRAG/+3+I5oGbmou8xXB0B3hcqE8+csIVVQJRlPgCim7Igf5pzX4RvHWT8WQEQos94pcn9twp4AcIpUQCnOqgPgWRJg65Sab4Ft/X+LzzA6AFT2d3jG6ZF9gbPMASgsUNsDyNqSYJBQlNmauf9heCaIsvh7ujDIES1uU6dkdJBZPbk6zIzzpTrEuDscf2aVCZv8pG3a6B2hUSdZx2DgzfI5y/5uzqpvxrMVAEcZ2P9v4/8WMSxaAXBclhUSEjoA7A6scrJfhlntJBOAaCuVE3JFhYQA5K0DUOCoXwAQrdAAACtcbcAc31E6dBqE71MiesiQOZuNZw4As4oJJWz832IAEjkAGWZZNTniT2XjMUwyPpdhJavlD+BDyWBiEhVxAufnCgDHY4MYGCfVIXBzxdzmF03Y5DfMLO6CqKHuMWHLluBdDgDZ+v+WQCDbR69kpXyZSLSkx2BpN8GchYB9hBIfSAZrYLBoduK8dACS692fE7CNVIeZrjRhj9+kL6wfBcLuQpmXKuc2vm7EoC3AEwfA1v+3BAhR/Jy0bAleaZkDQKCRLKwrnoswQGCuFmkQvycZT2BZKWGmf0rGBxE+74giAk2UC+HdyHtDs5rw5hWatLgJEoPvMGHLluKJA0AK9YzefR39PWz832IG/khyH0LR9qLZod+WzK+BbVunVO8lsSEXaZ1SvRcDQ0TXjvhNkRGEnWXz649F8weQtrKOnzF4O+nzHUQLaMkSUZnFIMDnHVHEjBOF18PNEN3tg/ke7QJgFYMkHZJs/N9iBs30kejzmWlHyfAeze+EFGkInG1FzvcBDKi2wATnaLBoa3hPuqDgZYkAa1kOAoE+kowPGh/EY4NonXuBXIm/aBvk/Fau4z9tJZ0/IkZUosHAk4Mvbf7clE1bgkc5AML4v7bxf4shWIsewgzeWzJ+8OXL2gG8ItEA+ETZ+NyDFB8rEmC8tnO8UVqIR7jywh8K5w8U0XWZ8wFZTgwAMNNVBn6bQECkfy7X8Gf5H/DAATAR/4ey8X+LGVgp6VfY9ukJMVFXOYCfEtrwndSkut2EGjlDy5TqYWAcJNEghWcl49MXHlIFYRKgIuRNCCA9IbYVgy4UCzGSVOxcZ8Ak32mZUj0MoFqhTGdPUSjr2/82YNwBIAP7/7WN/1sM0dNTLF6G1QWZ/STjmZTUAYBW8n7ruYIi+l+pBmv8VTLe1T3S7ZecWufmTRjTLXBnQF71DwAtyFarW69RSonLIBPxH4bEG32rGGk+BCDd/2/j/xaDDJ3/WCeE+8EB2l8y2nXdZgjr0oNwRkt8RLlIIwdIXlATBegMocz6nmLnSYkAk2wHAoD3dli0fK1QIxCkJ1fvDhio+Q+sybCbF1v/PmkYVQyGfO+/9m/5H/DEAeCYKD3Uxv8tpmG8ILknWbgcPfjyZe1gXir6u2BEVFehuPRq0GGm88AoF16rZulXlWKqFd0zGisk8wcJV6nLwSgQ/iYA6LK+nJicp6zIORmMqPCafBotLnjcB/P/hVEHwEj839b/txiGiF8QShzMceHfCuN2oQ0AYUJfbDovaZ84egiA8VIdAt0vGc9jxjgMHi3RUETSey4QtF1QEwPjfwxIfdaxvicvYv8AAFa/MKByM8UbMwZ0+o1RB4CAmFSDyToAFsNo8cO4KrWuRhQG0CU9D0DYmRBAJOP2zBVqBJaMo+ZCGGcmYB1I3yfRSO70z72ldrDm5yXjgwDHocA034gWaG6+hERap9TUAHygUCbjhjK/MWKQAMMhACVNAHyvct7SvMmctQQD7nZWAJLCFIBmdZhkfFX82TRB3uqTiM9qvbBWGp8OHG1T6uoMxP7BoD9VXLa0TaJBjvqe0AytS7tfEmr4TnJtzakAhouFCB9Fi1tullsUDAhokKvwH7e6ZLnvlSINOwC2/r8leEQXNyYB/EOiQWCRA9ArokwUP1Gk8dvVk6vDBrQCwap4rAzg22DgeaTA8q8qVj+UDCfwO1XxZ9NiO3ykNxkTl5vQIk2zKf5Gtwktv0leULMLQMdIdYidG0zYI8WYA9A6peZbYOwiTIqwy/8Wr1gmvDfr2i+sFe0Lj1yWeByMV8TJVIxvh1jlRTyVASrscm8GY2cD1+W18nnNj0nsWT25eltmPkiUAMhYJrEhCLCmy8G0tYHf5N1IiRHHNxAwYywYjvCa/CNyedMTPpj//zDmAJCWx/91xu7/t3gDaX5EKBHq0TheZAPARGQmhk84NTmlTt6UxWdSU+omMHCSGTW+goShHofUMZD2dWd6VDLeb3rDMTjThBYTxf1OdDNF65RDI2D6mVSHiG6U3qemMBcCUPL4f9VCu//f4g3cE3ocgOhBRCx/UUWKE/czIOoQuAFmntc2ue44E1p+kJxUdyIzzzMk91FFcq24nzoxfiSU6NGqKBBfd/2BzzuiiLS+EWY6UD4XnZfwpcmNFxB3nwVAFHojYJ1SBbcaMkmMOQeAbfzfElx68wB4uVCmpmVyTNQdkOLQBLpUaMcGFMB3t06p/YEhvazROqX6CCb+HYw9g/hiummFqNhSb3wXBwsNeaZy3hMpoYZvJIs7L2SiPQxIsSZqCMqXrhSODysEeKxYB1hSfumTLSZsMoGRPz4j+/9h4/8Wb2FS0jCAInbFvb8rPtj6DsBYoZhCYjyQnFwrCk9kk+SkuhOJ1e8BFBqSfLGiZOmdYhVNZ0G6/A/O2eX/NRfG9gDYQLc/gIB7quYlnjGhFQRSXVWnwUAjJKX5WgPmGMPEMg/aJtWcDqK8SfQwTG8pWuIn2A39unJ+4+t+GzRQaZ1Yuw8paWc+fFqR7NpF+rWZmlx7kAaWw9wqnAZjYvSK5kWG9DwhOaVuYt+yv8EdSOq70cubnpYo8NnDC1IVJR8zMFSko7Fv5fzmVyUafsAAJSfXNgKoMyC3lon3yJct3RyPhZJd7lsAdhUqNUcvX2ri+hrD0B+hqjeQLZqvRykYw6DpfCL35bZJNdf0LidZsk10fvNrYHwg/D23T0VKxXH3yOXNzzHzzQbvMwVgYXJS7V292+qCxap4rCw5ufZu1nwFGMrcedPvpC9/AEhWlB7NjKFCez6Izm9+TWqLH6Qm1Z4JRp2R3wR0eb68/AGgrUufCMau0uvCGlf4YP4mMRV/i5nRyXscgM5NdlY+ap2A7EMAg+h3ciU2UpPfybhTAawyobUBBk4u6HRfbJtQF5gvjbYJdXUFne6rbCCJ8ssQsFJlegwUZQGIMUkuQr/LxZh38oKaXRhYYEjuvWSJusyQlu9wHIqYp0p1CHgrOn/pn03YZBKxA2Ao/j/Q+G6yo9LUH5xlCyClfwfhQ5qBUS2Tq0dKbYksWt7KvdXvTL80doPixtZJNTf01df3hfaJo4e0Taq9GYqfBrCzaX1m/mVk0fJWqU5ycu0hDJb+nkwaORcG5XgsxBm6HYCRTpMMGrtzvHGdCa0gkOqsPRbAXmIhpgVBdA7FDoCJ/f8DEsIvWqZUS3uOW7aQisuWvg8gIdVRTLMMmIPKKxKPMDxZGiQCnZMh5922ibUXt42LVXgwx9eSvKAm2japdnqGnHcAiBPrvg5iui46f+lDJrSYeZoBmaaK+YkPDOhklWRHZhoIosZH/4YeqrwiIU20DQwMEBPE9wYBKyPrS31t+7sxDPxhivf/D1QcpZWRYhuWLeY2uQQd1jaxJibXAaKlzjTAs+px5SDMQoH7cduk2oVrJtft6dE8aJlSPaxtUs1idukjADMhbKizceiFyPpScddAAGiZUjcaIOnWPwB8q1wju7RMrB8FoosMyXWy0uMMaQWC1KTa48AQNQEDAE24iq5+dL0Jm0wTEiswy5tFDFgM1Je3bDE9nc79BSXu1QCEyXI0B0CN1B6KN2Zaxted7Ch+joVZ6JsgDKDBYW5om1j7PBHu1+w8It2V0jKlehhp52jSfCxcHGTI1k2xBiE1xsQDlQFKumyiJkP7epQ8YEAna6yeXB1WrO8AG3gHAADj4sor8ifxj8eMcZK80sQqX4dyOBB1/78OEz++8djewIF29NuCgciQ6xo7WifW3k3A/wqlEqGueQAAIABJREFUqlsn1RxVeYU8uadqYeKTtkmjjwA7TTAUj90E32HGdwjuvLaJtZ8DeA5ML5DCuyD3PU20ChiUqpz3RIrPHl6Qqiwu4x5drpm2cRxnR2bsCWAfgKvhYkjvq9Rji3vpVOCjIpc1fmhCLDWp7gQwi5MlGXzX0PmPdZqwKVuEtLoahnK3GHg2+vHQq0xoBYXkt744FSZi/8S/kXan9BLxn23bxNo2AFmLL+Yb0fnN2Xl0Wv6D1KS63TTzWwAcodR7HW5mb1O9ztsm1sQI9CgDg0zo5REuGMdHFzSLWyoDwGfx4SXFHSVvQV7cxVWus0dkUaOo22Q2SU6sO4HB9xqS62Y4w/OpvgnHhxUm2yv/DsJOQqludni3IG+JNJADwJ/KNSyW7BK5IvEuQA8akPp22CkwkUQGAIjOX9oIxmkAXFOaeUCGQaebevkDQHFH6WQYqOzGjPtz6eXfNmH0jgyTS9J0aT69/AGgrbPqfw28/EGgXwf55Q8YcQBI1H7TYvELYm2kEQ2DJ62ZEDNRPx0AULGg+X4wjicgb7ZTCXCZ6aeV8xN3mRJcM7luTwJPMSDFxGSqmZHnfNIwqhjkPAggakjy1YqyFjPdLQPCZ/HhJWRgVwgB6zJuT+CvjdwB0Pw7MLTBimYD67D4RsWCpStY4zEDv2OhQ+4NHDe33S26oPn3rNWRYKR8v0f9O9YC+FHlgoS8zn8fHI+FHJd/y4xBUvsI+Gt0YeIlU7Z5TZlTcAMYBxj6bbqh+XSKv9Gd9RPxkEHp4gYwtpFeH9Z001aLlv/Th1PYIsQPrOjCpa8w8c0mjLFYsg3BUNUyRn2qo0ZeTe5LRBc2Pc3k1AAU+AeJB3yuNGLR+c1/MCmabNcXAPiOCS12kTMV71on1v4KzOJGVhtgQjy6cKm0r0agWD2udhsikjdDYnRlNOfEvWHki2Vd2drxAJ4yoWWxZJPowqanAX7ahBYzzU5NqDfyctlA5fzG1zVjFNizOgHBg/GidpyDIouanzMp2zZp9H4AX2xI7snoouac6GDaOqm+lhgLDUo+E/1o6OUG9QJByKE5EG8NBkB8/eDFzZ/LLfIeIw7AtvEVXWvDXUcT6DoA2oSmxZI1GA0wk3RXoKHvWj25OmxA619ULUx8UlHuxEA0E/n/93X72vKu2qrLG40mF7dOOTQC7dwLMy2IXdZkpAeB16xpGLWd0vo+AAWGJDuVdn5CS5bkVZJq2/i6/QH+qQGpzhDpnHGOjMUst42v6KpYkDgXzAeAsRjg1wGkTelbLF4RXbj0FWbcYkhu1wJX3cSGd8ZTvDETnZ+IM9PRMNxAKCCsYeL/iS5oPn3b+Iouk8Ich6JM9+0A/suIHvGvKxclAt/1j887oiikCu5nk8WliM/LpV0Pmw3xQhh4HzLTNeH5z+TM36fdgy6kbUItS8ZHF9g6AEGgfeLoIRl23oGx8rV0cXRBYo4Zrf+kbVysAkrPBPG5kNcx8BsGcEeI3IlePTjbJtTOBDDdkFy6IFP4X2VXPvmFIT3PaB1fexORuNjVvyFaEp2fOMGYXkBom1hzLNjIluCOUDd2CV/dvNqAVlYw3qRjwCHNprUEgvD8Z1YRMNdcBjvPSo6vGeOFrdHFjcnowsT5CmoUmF4IQLZ+/w6NV1mr+uiC5tM9fPn/EIyLzNlMs3Lh5d82vnYcAf9r8Pd6X69ff1a2z8Nr+LwjiqDpckP38xW59PIHrANgsfyLSHfZlWC8a0iOGPRb00mBXyayoOn5ivLECBCfTsBbXs3jAf9golMrIs37Vy5qavZqktYJNTVg3AlDzzkm/L0i0nK1CS0vSTbUnQDAZLvxHsU4uerqZ/MupJss6JgMYFe5Ev1zbWfXfLlOdrHLz0Jax8tCAJULbQggSLSOq62GQhPMLa2vZtYHVy1a9oYhva+F41Ct6ZofEampYN7Py7n6DeNVAi+u6Fx7B920osfLqdrG1+zLoEaYK1PuMnRN1cJlfzOk5wltDbX1TPgrgCJTmgyeULVwqcldBIEg2VCziyZ6HUCxVIuYfhpdlPitAbOyil0BsFi+ROXi5mUw+/U0GKSeWjPOuza8AEBx6KqFS5dEFyQOYFKHA7gTgNFkun6ynoAHSPHBlYua940uWnqr1y//5KTR32bQX2C2R8nlQX/5t0yo3YsJD8Hgyx/AHyoXLl1kUC8waKIrYeDlD6KXKyKJ2+UWZR/rAFgsXyHaUzYdgLEvdgKGKOLHkg01RrqvfcNcXLWg6fHKhc2nuiE9lJh+ysCTADx96X6FDANPMtNZqpC3iS5sPj46f2ljNiZONcR21a7zBMy2VX4t2lM206CecVomx7Ynxl9grswvCHiHe7pPpzzMVmqbUPtDAEeZ0CKm8RTPze25dvlZSGuDMASwyIYAgkhyQs1wrWk5zO2fBoCPNdP3t1qcyHq8fuXEw0sL3K5aAn2XQQcTeH+YC3NkALzJoEaCfoIzPU1+xIvbxtfsy0x/gdmXfw8RjQhyyd+2cbEKJjcBYG+Dsl0AjcyF7Y5bysqJh5cWumvfhIFmUAD+ULmo+YcGdHwh5LcBFksQqViwdEXbuJpLmChuUPZbinhp64SaYyoXLF1qUPcb6etX/5e+AysnHl5apNf9FzPvTsy7M9EeYGwPojKAy9G7HTKM3mdECsB6BtoJvBJEH4PpUyZ+z2H9Uluk4PWd442+Ni5qnVBTw5r+BMOtyYkxO7oouC9/Pu+IojbqeAhmX/4A09mVi/Pv5Q8Ahe66i2Hm5d/jam2iqZRv2K9PIXYFIH/hMWOctu1X/hnA9w1LryOmH0cXJ0zsPR7wtDXUHsPAXQBKDEs/Eo00Hx3U5V0+e3hBa2nxPQQ6zqwyzatclJDXxA8gyXG1B2jCszDx8Uu4unJh81i5Vf5hcwAslo1AS5a4qohPAWC68tkgJr6vtaF2ElsnvN9wHKplfF2cgYdg+OVPwDvEzo8D+/KPx0LJ0pK7zL/88XA0kphqWDMQ8NnDCzThFphZ+W4LrS8MdF7I5mAdAItlE1RctrRNK+domC9r7QC4vK2h7g/JC2qMJW4NFFZPrg63puruJ+YZMO9EdWjo46KLG5OGdY3AY8Y4banMbxk43rDy2ygsCqzTIyVZUjwVwL6G5KaWX/tkiyEt37AOgBRp9ShL4NlqQePbzDgTDDZfEY+P1uvo+d5mJJbNoW3c6P1C3eoFYj7WgwqFTIzTvK7b0F94zBinbduVd4DpFMPn3eIgdHTlvCdSWT6lrNA6NvbfDJpq6Fo9G40035T1k/AA6wBYLJtB1eLm+xnwpLY/gG+zy8+0NNRN4DFjcr22v2dwPBZqO7/uIobzHBtq7PNVCJgRXdz8ey+0pfS+/D//HQgnmRXGOjD/MC+b/KD3viHl3gIznSAzBPfn+bJKYh0Ai2UzqVzcPAOMGzwRJwwi5vlt261c1tJQPcyTOXKYNePq9kwm3WeYeDbMbs38N4RrooubZ3uiLaQvIfU2EJ1iWhoKZ1Remd1dKdmkLemOZ8BISW5iXB1d/MzLJrSCgHUALJbNhACORpvPBfNdHk4zglitaDu/7iKODzPxxZLTfHb28JKWcXVxBV5h6iG+EW6PRprP91C/33Acqm27L24B41QP5KdVLmq+xwPdQNB6fu0+AGYZkvs0U6RnGNIKBNYBsFi2AIpDR9eu/SkIf/ZwmiImnt2WrHyz5fyaMQN1p0DL+XUnDiopeYvAM2CiZOvG+X20wvlZEJd1+bwjitr+r717j4+qPPMA/nvO5AJBIDMhICreetEWcWtptZBJiJdSsYptLfhpuyo3IxCuVl13XddYd/XjFUm4VC6KYhWbotYrYsVIZkK98Knt6lbrys0FkWRmwi2BZM559g8va11QcN4z58yZ3/fzmf/4PM9zwsm8T97znvdtjz4M6KXmo8uiyN3Nt5iP6w8b66p7QPAgDG2NrIpZ5bfFd5uI5RdsAIgOkyxa370X6bEAmlxO9RUR+W1qZlVLclZlhcu5fCMxo2p4clblSyK6AmY2bDkoBdbsLA39TOqa0m7m+TIS08/okwzteQaQsaZjK/TR8NYBU03H9ZPSlH0zzG2Q9HTZ3OaVhmL5BhuATPEtgLw0aM66znRX6AJRfd6FleifuUf0e1DEkjMrn07NilZn6xqzrX1G5dnJmdE1IhqHosr1n6viue6CnqO93sXwQHZMrT5SrKImUZxl/rr1xYjd++fS2Ghn96qyp2129BwFZhn6mXVYaZme9YvIgrycWjQpOTPDnQDncifAXKZ1g4tSqcgDAC7OVk4BXnWgt0e2DXw017/EtWZoYXtJrwtUcTWg38ti5ofC4dR4qXuzK3s5D83O2dVftR37OQBuHB61Xp2us7w4qyFbds4eFrGdgj8DOMZEPFW5uqx+7R0mYvkNzwIgyoDUvdmldfh5Khltg0htNnIq8F2B/DZ11PZNiVlV94fs9PLShpZ3s5HblPbZ0RMdWyalBOOhavLwni+kkPpIuHm2H5/5t8+u+E7asZ8WoL/56PpWoSOjegd48AcAxyn8NaBGBn8ALZH3BwTyOGSAMwAZ4wwAfSw1I3qD4cODDpUCiKvg/sLuosf8ukNZ67SKo0KWNVoFYwSohgePIAVyfXjuWrf2c8hIYnrVSLF0JYAjXAj/rmOlR/Sbs26rC7F9IzmjcjIECw2F6wipfKtv/dp3DMXzHQ4+GUrOjGbYAMT4fxAgqRnR8SpYAKCHRyXYAF6G4BkL8mzfu5v/5NV57jpmTKj96K1DVK0fAPgRgNPh3bqjTgEmh+fGHvAo/+dKzYxeqsBimNms5u8JNkNRFZkb22I8to+kpledppbTAkO/ewLMDM+N1ZuI5VccfDKUnJFhA1DPBiBo2mdEhzrASgDHeV2LAB8o9I+AvKrqvBpKW6+WLoyl3Mi1c/awiOMUnqJqVwBWFKIVUPR1I9dh2ihqXRRu8N+xvlpXXdCe7L5NIbNdSrHVUmdErj0iOlyJ6Wf0ERSth+hXjQRUNIXLYmf78TGRSRx8MsQGgA5kV+3pZWmr6DcQ/MDrWg5gM4ANAmxQkQ1QbLAc2QHL2Ql12q2iop29e7fu2rSp3Ar3TH/y/n26h10SShf2V7EHClCuavWHpV+Bg5MgGAyg3LtLOqhVoZD9i75z1iW9LuSzdtWeXmaHilYocI5LKbbaomeXz42/7VJ830jOiD4CwNTrknssxzq1dN7ajYbi+RYHnwwlZ0T3I4Npu3AkVezHlciUOQUkNT16DQQ3g6/cZptCcFt428Dr/PimRHJa1RBYzuNwZ6U/AGwJheyz+85ZF8j9/T8tOSNaC2CesYCqkyMN8XuMxfMxfillTDLaGWp3a6/epiohfxFAIw2xWy3ISEA3eV1PHtloOdY5kbmxa/04+CdmVl6ED59VuzX4bxSrYEQ+DP7t0yq+A+BOU/EEeD7cEA/ESX+Hgg1AxpyMGgC7sIQNQMCV1je/kE4XDvlodTK3f3KPApifThecWjpv7Rqvi/ksrYOVmBm9SVQb4c5KfyjwjhZYI8J3N21yI76f7J48vL8j8igMbfULIOUUWBO9WjTrBe4DkCnNbAZAnS5XvgjIX/ovaNoDYGpqRkWjqiwFcILXNQWKYoMAE8PzYk1el3Ig268a2SuV6HhYgAtcTPMXJyTnlt+19n0Xc/iC1gwtTBVII4BBpoZrEUyM3LX2PTPRcgNnADKXUQPgqJXVTVDIW+H6+Itpu+BUAe4CwLUfmeuCyh1dPUpO9evgn5h+Rp+i/R2r4O7gH5dQwYjyu5sDP/gDQKq45C6IVJmLKPPC9bHHzMXLDWwAMpfRrlqW4CRThVBu6L+gaU+4IfbLkG0PVuBRr+vJVQL8zoLzzci85quPvGP1Xq/rORhLCu8CEHUxxdP79neODN/d1O5iDt9ITYuOB3SasYCK13fuDl1tLF4O4SOAzGX2qoijbADyVN8F6/4bwEXJ6RWVAutOhbp53n1gCPCKWvhleG4s5nUtX6Rt5vDvqoMJriUQfTC8b98EWbS+27UcPtI2vfJ0hS4wGHKPrbj4hGX+OxAqG9gAZEgUb2smL1OKxQYgz0Ua4s0KnJGaFv0ZBP8CYLDXNfnUGwBuLm2IrciVhVqWY42HW69bq9wSbohdlys/i0wlplcfI5p+FGJul00RTC2fH/ubqXi5hg1AhhwLb0tGv356mgKSL7/EdGACKObFHlLg4VRt9IewcA2ASq/r8gXVtRDrtnBD8zM5+Htypgsx0yoypayheYkLsX2p9ZqK3tKRfhKCo03FVOiySH18ual4uYhrADIUcqy3Mzxrujw1pXKIB6WTDwmgkfmxpyINsSp1nOFQPA6FY/5MeN9/HFU8qtBhkXnxEZGG5qdzcPAHFMcY/bk42K0q55fV58/gr2PGhEId1goA3zL4s3yru7iXuXUEOYozABnq22/t5lRbtBNAzy/8xwchIT0TwF/MVUVBUDa/ZR2AH7dPiZ5oh3CpAJfAvc1j/OJdAZYLrAcCshWrydd8N8OR0WULm/PquyI14P16AOcZDNkBWy7288LRbOFWwAakple+oprJAi55IjKv+UJzFVEQKSDttVWVgHOZCn4KoI/XNRmyS4BGFb0/3BCP5eRf+geRnJbZWSGfEMQKu52Lev+6ZYeReDkiMa1ytkDvMhhSofLzyPzmFQZj5iw2AAYkp0VvBXBNBiE6VLoHljW8nNErhZQ/ttUMLSkuKhlliXOuqpwL4BivazpM7wFYJaKr9hQ4zw6as67T64LcYKIBENElpWXttfl2ZkhqWuWPFLoSJh9Vq94emR/P5Ls6UPgIwAB18KJYGTUAJUDhTwHca6omCrajFq3vwIdHDq8EPjpcBjoKqudCMBzmtkc1Zb9C4yLWKoj9bKS+5Q2vC8oFApkRbog1eF1HtqVqq6oUzkMwuk5NVod3DPxnc/FyH2cADNh+1cheRZ0dSWRwKiCApsj8mBsrhinPaF11QbK1+yRLZagjGCrAUHz4Mfb61BdIA/gbgPUiWK8O1u/sKHgtH9+1TtZmeFz4/Pw7Ljw5rWoI1HkJQNhcVN1U0F343T6LmtrMxcx9eXdzuSVRG21GZrt9OSEHXytdGNtgqiaij+n0UcXt9s5v2BI6DtDjBDgOwLGf+vQCcKgHU+0GsBfAFgCbAWxRYIuKbipwdEtpqO9fpeHZ/W5cR65JZNgAlOVZA9A+JXqibSEOwOQW6XtFrGGReWv/02DMQOAjAFMEL0AzagCstIWrAEw1VRLRxz4akF//6HNQ22qGlpSEehYjZJV223YRABSGQl2wnfYOu3P/R48eiIzbMbX6yLSkV4vZwV8hGM/B/8Dyqrt0U2tt9OsW8HYmMRTYr6Inls+LbzNVFxF5hzMAhyYx/Yw+ahc0ichpJuMK9ObI/Ph1JmMGCTcCMuSj7SRfySSGAMWWyi8NlURE5Hs7plYfAafwGdODvwJPhncc9W8mYwYNGwCDVHW5gR2qJqcmVx+f9eKJyLxMvw8CbvtVI3tZSD8FRYXZnSTl1XTPkp9JY6Od5UvKKWwADCqS7ochGZ/xXuJYaZOnXRER+c57s4f1LOzc+4QAIwyH3pgu7LqAO/19MTYABvWZ/0pCFM8YCDWqdUrFaANxiIh8Z+O46h4l+wseh8pZRgMLko7qqAFzX/7AaNyAYgNgmprZttKypCE1q7rURCwiIr/QMYOL+pTYKwEdaTj0PnH0R+UL4xktxs4nbAAMiyyMNwO6NuNAimOdrvS9yjc1iCggNo6r7pHoF14JqMnDfQDAAXTch9+/dKjYALjBsm42FOnHidrodEOxiIg8s61maEmfEvv3IjjfdGwRubZsQfwR03GDjg2AC8rmNT8HlVcNnf99W2Jq1fCsXwQRZY5vAQD48D3/4lDPVVAdaXa1PyCK+ZH5zbdn+ZICgQ2ASxw4/24ijgDFUOfJRG3FYBPxiIiyqX1KNIx04fMAKk3HVuCh8IDYDNNx8wUbAJeUL4w/AeBZQ+EicOS5VO3w4wzFIyJy3fbJw/vbwIsATjcdWyBPlNmd46QOjunY+YINgItsx5qpgKlDUY52HOu5ZE30WEPxiIhck6yJHltoWS8B+AfjwQXPhwuOGCuL1ncbj51H2AC4qP89a98RkdsMhjxJQ/hjckrlqQZjEhEZlaitGKwhxKA42XhwkXU2Cn7CEyczxwbAZR3F6Vug2GBw0ctAVX2RCwOJckAeLgJsnRythi1xKAa5sOBvvaSLR/Vf0LQny5cVSGwAXDZozrpOVakBjD6niqjjrGmbHJ3BfQKIyC8SkyvGCrAKQF/jwRVvFoS6fhBZ9IedxmPnKTYAWdDvnuYXBLjFZEwBigWYm5pc8Vj7lGjYZGwiosPVdkXldEAeFqDYdGwF3nUKdWSf+a8kTMfOZ2wAsiScGHiDAi+ZjquQC23Fn3h2ABF5QceMCSUmV9wlovVwZ0x5RyzrzPJ58W0uxM5rbACyRBobbTvdfTEU200/F4PiOMuR37ddEX2yfVLVCdm9MiI6qICvAdgxtfqIVGTbSqjMduF7DVC85RRoddmCte9l9cLyBBuALBqw5OUPoM5lANJuxBfgfDvkvJm4onJO2+RhR7uRg4gIAFKTq48P2ekWhVzoUorXi7qkin/5u4cNQJaVLWpZDaAGCnWpY+4J1VlwQu8maqK/bq8Z/pVsXh8RfUpAZwASl1cNd5z0y1AMced7TF4NWTir933NrVm9sDzDFeQeSdZEr1XDCwMPQgFtBqzlguJGrqAlyp5ETTSjYbxsUcx339HJKyr/0VFd4sZiPwCAIo4e3eeVNby8y5X49Anf3Vz5JFFTOQfQWVlMuQ/AC4C8YKn9YunRLX/hNppE7glSA6B11QXJrelbIbjStSSia7o7eo0+cvnqva7loE/45ubKRwpIclLlfRC9zKMS2gD8SQR/c6BviYO3rZDskG7sFrHb++zatUca3+zyqDainJe4PMMGYLE/GoAPJp0xICSFjwgwwrUkilUdve2fDJqzrtO1HPR3fHFz5TMFJHl5xZ2AzPa6ljy1F8AmAH8Qx1kSWdryhsf1UIAEoQFIXDF8GByrEYCbC4sfjrSnxvEPjuziIkCPCaBli+NXCnAtfL3sJ7B6ARgMYKZa1uvJmug8HTO4yOuiiPwgeXl0KhyrCa4O/nJHZHHsFxz8s8/z7pL+T9vlleNEdTGAAq9ryW+6JrKzfRS/kChTiUkZzgAs8WYGYPslI3sV9ehYqIpLXEzjKDC735JYvYs56HNwBsBH+i1uXgboeQB2eF1LfpOzUqWRO72ugsgLqcuHf6uwuOM1lwf/fYBczMHfW2wAfKZsSfx5x9HTRNHk0j4B/BzCRx2dkri8YvCh/J8RHVSm92J2S5W2iRXTHMdaB8XJLv5+pQQ6smxJ8++yeX30/7EB8KHye+PbwrsGngPBjQBsr+vJUyE4mOh1EUTZkKw5p29yUnSFQBoA9HAx1TYRqY4siTe7mIMOEZ81+5Q0NtoA6tomVjYDeg8A7uiXdfJ9ryug3JblP+K/lB2TKiode99vAAxyM48Af3ZUzytfGuPWvj7BGQCf67e0+YXddsEpqrgRin1eT43n2ee4Q/xvIjqwTO9BN0urGVrYOiFaZznyIhSDXP5degr7uqvK7+W+/n7CBiAHnLCsaV/5vbE623ZOUeBZr+vJI729LoDIDclxVUOSds9XBLgBQMjFVArg1rJjYxeW/YZb+/oNHwHkkAH3t7wL4LzW8dHzRXE9BKd7XRMRfQ6X/4o/XFpXXZDc0v3PjjrXw0Ghy+n2QOWSfsuaH3c5D31JnAHIQeX3xZ7qtyx2hiWoBPCU1/UQkf+1Tar6RmKz3aIqvwLcHfwF2GBZzjAO/v7GGYAcFrk3FgMQS06IRh3FlQB+CIC72BHRJ7RmaGGiu+c1sJ1/hbsr/D/OuKbQ7h7b575XEu7nokywAQiAjxuB1Ljq0rSmx0JwqQDDwZ0eibzl8SOA1vGV30506WIA385GPhEsihTumyb3re/ORj7KDBuAAAkva2oHsAjAotYJFSdZDsYCOEch3wNnBojyRuuEit5iWzdDdSqy86h3LxRTy5bFHshCLjKEDUBAld8bfxvATQBu2lYztKR4f3FU1ToTFs6EYgiAEo9LJAo+D2YAWi+rGC22zAf0mCzlfwOONbbf8rV/zUo2MoYNQB44atH6DgCrP/pAAWmfOPxYx5avq4OTYMk3VHECgN4WcASAPgrpC2hvcOaAKCd8MCF6YsiWOYCOzlZOBZbu67CnD2qMdWYrJ5nDBiAPCaBY2rIZwGYAz3tdj5vaLsvsNDYiv9tWM7SksKvnNWLjnwDNwiI/AB++4jel/IHmB7OUj1zABoCCjcM/ecnl+6/1kugFsk/rARzvbqa/81dLnbGR5S1vZDEnuYANABFRjkleMvwUR6x6AGdm82UfARZ3dNozBzWu45R/ALABoGBTTgGQhwzff22XDjta1brRAcZB1c0tfD8rIYqpZQ/Gf5vFnOQyNgBERD63/ZKRvQq0YxpUr5Msn1GhwCoRZ1LZ8nVbs5mX3McGgIjIp7RmaGFbZ8/xgr2/gmBAltPvUsjV/ZbHFgtX0wQSGwAKNn5tkZcyvP8SHcVvCvRrZoo5LGtCjk4IPxTf7EFuyhI2AEREviXZHvw7Abmx7Kux26UOTpZzU5axAaBg4wwAeSm37r+XVXBZ+YOxt70uhLKDxwETEeW33SIyq6zrqIryB+Mc/PMIZwCIiPKWPmWFrNrIA7EtXldC2ccGgIItt6ZgKWj8ev8ptgp0ZtnDLSu9LoW8w0cARET5Iw1IvZMuPJmDP3EGgILNr3+BUX7w1/23XhWTy1fEXvO6EPIHNgBERMHWqsD1/U6KL+arffRpbACIiIKpGyILQ0UFN4SXNbV7XQz5DxsACjZ/TcFSvvHs/tOnbMWsAY/E3/WqAvI/NgCnxpCiAAACaElEQVQUaBz/yUse3H+vKXBl/xUtzdlPTbmGDQARUc6T/wFwU7+TY0v4nJ8OFRsACjZOAZCX3L//2lVw+37bnjOocV2n69koUNgAEBHlnj2qOr+owLq19KFYyutiKDexAaBg4wwAecn8/bdXIEvT3c5/HPlYyw7j0SmvsAEgIvK/DoEscbTglvLGpu1eF0PBwAaAiMi/uiC6DN2hun6PNr/vdTEULGwAKNj4CIC8lOn9F8IJ5StathmphegzeBgQEZFPla+Ic/An13AGgIKNMwDkJd5/5GOcASAiIspDbACIiIjyEB8BULBxCpa8xPuPfIwzAERERHmIMwAUbPwLjLzE+498jA0A0edo/UkFv8KJKJD4CICIiCgPcQaAgo1/vxMRHRBnAIiIiPIQZwAo2DgDQER0QJwBICIiykNsAIiIiPIQHwFQsPERABHRAXEGgIJut9cFEH1Ju7wugIKNMwAUbIr3AHzT6zKIDpcKtnhdAwUbZwAo0AT6vNc1EH0ZorLa6xoo2DgDQIGWtrHECmEagJDXtRAdBjskstTrIijYxOsCiNy2Y3TFPChqva6D6NBJff8nYzO9roKCjY8AKPDKi9uvFOgLXtdBdChE8YfygZ1XeV0HBR9nACgv6JjBRa2dpXcCmAI+DiB/sgGZX/5+51Wyfn2318VQ8LEBoLzy/gUVgy0HE0XwfQDHAzjC45Iov+0BsEkhqwtCsrTs983/5XVBRERERERERERERERERERERERERERERERERERERERERERERERERERERERERERERERERERERERERERERERERERERPnsfwEBPux5okDv9AAAAABJRU5ErkJggg==;" parent="1" vertex="1">
          <mxGeometry x="173" y="550" width="72" height="72" as="geometry" />
        </mxCell>
        <mxCell id="JgDv4yjVZVKhBUE-g2lu-62" value="" style="shape=image;verticalLabelPosition=bottom;labelBackgroundColor=default;verticalAlign=top;aspect=fixed;imageAspect=0;image=data:image/png,iVBORw0KGgoAAAANSUhEUgAAAgAAAAIACAYAAAD0eNT6AAAABHNCSVQICAgIfAhkiAAAAAlwSFlzAAAOxAAADsQBlSsOGwAAABl0RVh0U29mdHdhcmUAd3d3Lmlua3NjYXBlLm9yZ5vuPBoAACAASURBVHic7N13nFXF2Qfw3zO3AQsIooJIb5aVsC6IuGh0I0IkebEgqxGBXUAUlgUhxpLmTRUTYZEu0rEFYkliNAKKxkbvazQrHQsiHbbcvec87x/LWtHgzpw79+x9vp/PfN73zZs7z3MKZ2Zn5swBhBBCCCGEEEIIIYQQQgghhBBCCCGEEEIIIYQQQgghhBBCCCGEEEIIIYQQQgghhBBCCCGEEEIIIYQQQgghhBBCCCGEEEIIIYQQQgghhBBCCPFVZDsBADjW5yeNORi6Ei53A3A+E1oDOBNAGoCw3eyEEEKIaokBOA5gH4BtxHgXilaAeXm9Zxd+Yjk3ex2Aw/2GnK7isZ8waCCAi23mIoQQQiQQA1hJhIVOefzJBv984qCNJBLe6B7vM7hpPFBxF4iGgZGW6PhCCCFEEjnGTI+ElDM+7ZnHPkpk4IR1APjKK4NHGrXIB9PvANRLVFwhhBDCB0oA+nP9wPE/0uLFsUQETEgH4HDf3PZg+gvAFyUinhBCCOFLhLXs8E0Nnpu/1etQyusAR67PuxYu1kjjL4QQQvwPjM5EtO5I39z/8zqUpyMAR/rmDWLGLABBL+MIIYQQNYzDRCMaPD1nplcBPOsAHLkhbygDM72MIYQQQtRgTKDb6j8zZ7YXlXvSOB+8Pu9aInoaQMCL+oUQQogUEXeJbjj96dn/MF2x8Q7A4X5D2nEca0Gob7puIYQQIgUdVQG+uP7iOe+ZrNRoB4CHDQsd3u+sBCAL/oQQQghz1p62v3k3ejUaN1Wh0cV5hz91xoBIGn8hhBDCrM6HGn0wCsAEUxUaGwHY12dw02BIvQegrqk6hRBCCPGZoxUq3uGsxfM+NlGZsRGAYChwF6TxF0IIIbxSL+iGxwK420RlRkYADvcbcrrrql2A7O0vhBBCeOgYRYItGjwxXfsDQkZGABw3cAtJ4y+EEEJ4ra5b7twMYLpuRUY6AMQ0wOD7BJsBzHbhLquoU7ajycKFx43VLIQQQiTIxwMGpIVKarVSUD0ADAVwoYl6FWMADHQAtJvtvT8Z2jhUEfjIQF3lIB7TML3pIxSNurp5CSGEEMmC+/ULHHQb3gGiCQDCutWFKNa43uK5+3Qq0R4BCMYDVwKk3fiTq65p+My05Vism5EQQgiRXGjxYgfA1EP97viPy3gRep0AinGtKwG9FlP/a4CMbvp18J0Nn5m2XLseIYQQIok1WDzjFRB+qluPMtD2ancACOq8ytH/6hZsbtjxbM++diSEEEIkk4bYPx2gd3TaTiacq5uHiRGA9joHQaRmy5y/EEKIVEGLFztMmK3VdjK1181DvwNA1EDn5y6cpdo5CCGEED5CcV6i83smNNTNQXsRIBPV0/m9g8Au3RyEEEIIP3Gc2E4VrF3t3zP0v7irPwKg+TrDWYunHTOQgxBCCOEbZ/59zlGd3xMQ0c3BwEZARr8oLIQQQqQIu+2niREAIYQQQviM/hoAGQEQQgghvjPb7adMAQghhBBWyBSAEEIIIRJMfwRA+zMAQgghRAqy3H7KCIAQQgiRgmrcIsCP+43pGCQMZearQGgFIM12TkIIIXzpOBg7SGGZgjvr9L9M2mKyctvtZ41ZBFh8TUGkQf1AIRi3M6BsD60IIYTwvTQQ0pmR7iAw8pOcsTPO5PpjaXE0ZqZ6mQLQVnxNQaRBveCLYBqOGnJMQgghkkqAwPmf0uEXuV9UawfcZFEjRgAa1AtPBDjbdh5CCCFqvB/sU0fGAyjQr0pGALR83G9MR4CH2c5DCCFEaiDG8P0/GZNuOw9dvn8NMEg0lIl835ERQgjhGwHXoSEAxmrVYrv91K2ATWShwSHqYX8SQgghREohXK1bhe320/drAAjUwmoCQgghUlFL/Sp8PgJg+wAAqms5ASGEEKmnnn4VsghQCCGEEAnm+50AbccXQgghqsN2+2XgLQADWfg5vhBCCFEdltuvmrAGwHJ8IYQQojr8PgJgvQG2HV8IIYSoDlkEKIQQQogEk0WAQgghhAW22y8DUwD+1uSpB6QHIYQQKejjm++zvRmfVbIGQAghRIqy3X74fQQgtc+fEEIIv7LdfshrgH6PL4QQwp9stx9+HwFI8RMohBDCr2y3Hz7vANheQWE7vhBCCH+y3X7Yji8jAEIIIVKU7fZDNgISQgghRILJCIAQQogUZbv98PsaALK8E6Dl+EIIIfzJdvthO75MAQghhBApSKYAhBBCpCjb7YeMAAghhBAiwWQEQAghRIqy3X74fRGgiSx8HF8IIYQ/2W4/bMc38DEgyz0o2/GFEEL4k+32w3J8mQIwbHf/33ZUwFCArgLQCkCa5ZSE+CYM4BCACgYdI3AFgGMAKgB8AqZdRPwhmPa4cPYw1J5mFeduo8U5jtWshTDGdvvh+w6AAIDiayZF0hodLmTG7ZDFlcIfCEDDyv+Fz/r6/5crhyiJQVAgAB+G3yv94JbfFQG0AcSbiGljaUVwY9vF9x5OaOZCCG0yAmBA8TWTImmnH3mRmbJt5yKEx2qD0AVAF4DABNQKx509/f+wjsAvg+gVt7z2G80Xjy21nagQ/5vt9kNGAHwv7fQjExmQxl+kqgCBLwZwMZjvVZGS8g/7//5tl/APimPxOU/9crftBIUQX2fgLQDLWylajr+7/287uqBhVpMQIpkwIgxcCcaVHMBDe/r/4W1m/gu7ob+2eOqeD22nJ0QV2+2H7fgyBaAbnUNDQCxz/kKcHAHIIqIsCjiFe/r/8TUA0875IPYcvRqN205OpLrUbr8MvAZoIAsfx2fFV9s+BUL4hELlVFn2B83Ce/b0f2BGUAUfbbLwZ5/YTkykKNsPb8vxZQRAOzo1t5qAEP7UDITfxzn+qz39H1iklHqg6cJ7/mM7KZFqUrv9kp0A9ePXs5yCEH4WAWGAw27/3bc+8LSC+tU5j93znu2kRGpIgvbDKhkB8H18IWoEBaCfC+67+9YHn4ZLv2j+xN3FtpMSNZ3t57d8DVAIIaoogPtBuUV7Bjz40L7BD8oImxAeMdABIM2S6vGlSJFykhJixk/LYnhvz61/GgghPKF7n/o7vkwB+D6+EDXa2QzM333rn/LcgDuy5fx7i2wnJGoS289vu/H1FwFaPn+pHl+IFHEluWrtrgEP/qJ529JCikZd2wkJ/7P9/LYdX6YArMeXIkXKKZYIoB7aszVt6Z7+DzaDENp070l/x5dFgEIIX2HgB25Abdl960P9becihJ/JGgDL8VssvMv2AYhqKC6YFIkcLH8YRLfbzuUk9oCxGYSdAO1h8C7FvNuh4F5yUB6OBI7Gyo/HWzxx7yEA2HXLuAbhSFowVu7U4wAiAY43dqFaEKE5wM3AaAlCRwDJ81c34zQmPLZrwPjs8gah/PaTR5XbTqkm2N1/QkcoHsrgqwC0ApBmOaXjAHYQYRkzz2qx8GdbzFZv+/FrN750AHwfXyTaB3njmzuHKv4KUl1t5wLgUwKWM2MVK7UhgND6ZgtG7j+1n95X+T+ewMET/8G+E//zpDvyffiTh86oCAUyFPgiuOjK5GYD1EgvfW1DwodiF2zP/dMNrefd/bHlXHyruGBSJHK4opCZbwegkui5lgYgnRnpAI3cNWD8jKNlR8emL47GzFRv+zh93wEQInXsHFTY3Ym7zwI401IKcSK85rpYigAva9H62PpELYhr+uRdnwJYdqKAo1G1e2v9TCa3h2J1NYO/DwvPFAJdGnCCq3cNmHB9i4Vj1yQ6vt8VF0yKhA9VvIjk/6R5AEB+/Vr1zy/qF73GXCcgdRl4C8BuDybV44vE2TVgws3MPJeJaiU4tMvA64rxVDDu/vVEQ2zdiY7HmhNl3Ed5k86scCtuZMbNAF2GxK4xagbg37sGFQ5pMX/MkwmM63vhI/GJIMq2vS3tqWLgB/Vq1x8PoEC7rhRvP2QEQIhTsHPQ+PuY8QckdsxuN4inK6YFzReM/SCBcavl7Lmj9gGYDmD6nv6TmrmB+EAGRgA4J0Ep1Gbmx3cMmNC01cKx4xMU09d2507o6LoYZjuP74qB4TsHTZjRcv5Y2RdCg7wG6Pv4wksMpl0DC/8MVn8EiBL0uttakBq0r1Za25bzf/qAHxr/r2r2+Kg9LRaM/WOLNkdagNEHoGUJOndERA/tHFg4LmEH62Oug6EAqQRdG5MlwK4aon8GbD+/7caXEQAhvgH3WxTYVbtwOkC3JSjkSwr86+YLxq5KUDzPnZgm+AeAf2zPHd9NsfotGFcnIPQ9OwZMDLdcOPqnBPLL6HbiKfSw/km6aiLiRNxHNZqBzwHb/Ss21eMLb3A0qnZs/XAOQSViH/o3XMIv2sy/898JiGVN63k/XQGg5/bcwivJpd8D6O5pQMKYnQMn1eM20dtl58CTY1bNbeegoaVuBbaf37bjy2uAvo8vTGMw7dg6aToRPG786X0wj261cPQL3sZJLq3njXkVwGU7B0z6PyYuBNDWw3BDd25rWIHKtQjia8jPX1s0kLvt57fd+LIToBBfsWPgpEIiTxdGlQP4Hat6HVOt8f+ilgtH/SNQ6nQE4Q8AvHyla/j2gQ9HPaxfCF/SHwGw/RpcqscXRm3PnXwvMY/2LADhNQbd0XpewbuexfCR5ovHlgL45fbcyY8ReAYYV3gRh4D7dwx6eF+r+aOnelG/b6X688v28VuOLyMAQpywPffhm4n5jx5VH2fi37RsdeAH0vh/Xet5Be+2nFeQTUx3wrPRAJq0feDkm7ypWwj/kUWAPo8vzNieO/lKMOazN5Nyxa6LW9ouHCW71H0LAjEW4OGtuVPfCrD7BAPtDIdQICzYkffw7lZzR79luG5fSvXnl+3jtx1f9gHwfXyha9uQKS3BtAigsPH3lZmeKClRmW0XFkjjf4razstfXRaokwnQU8avByjMbmDx9typTRJ7VMnK+PlNcLF9/P6OL1MAIqXt7jehtorjrzC/tz+D+DetFuTfmr44/5jhumu88+YMOdpqfv4tYNwLwPQrfE3B/ExRv2jYcL1C+Iq8Buj7+EJHPC08HUxdDFdbQnAHtppX8LSB7cqNK+4/qX6YgwE3TKcpxQoA4sHA/rYzbz9sO7cvOjEl8OC23GnbiHkegDoGq7+0Tp0z/wzAuwWfvpDqzy/bx283vuwEKFLWttwpA8A0yHC1nyhQ75bzC9YarveULb8yGmzTukkHx41fCND3CEgH0AJAYwBnAIi4YIAZrlP5G+XEsX3QlBhA+wDsA2MbEb3DzFscVkW7d+99N/vVaNzG8bSZN2Lx1typOxTjnzA7UjNqR+60la3mjXjCYJ0ppfX8fK0WbPugqT7dh7BmkNcA/R5fVMvW3BntCe5Uwx3wj8jhq1ouHPEfo7WegveHTL8w4HAPBnooxhUuu3WJvusMH4VR+eGec0DIYOAGECEARqtWZx3ZMWjav1nxK0yBV1rPuX1TIrfYbTsvf/XOQVOyXVLLABibv2dg2taBj7zRdsHtu0zV6Su2n18S32p4A28B2JXq8cV3tzwaDdIO93E2spPYZ3Yz1FVtF95RbLDOb7Uzb8YFLjsDGNQfDjevuhddb54p9ZnwYzD9GOxie+70Hdt52pMuOU+2nVew2ZOIX9Fy/siibYOnXQmHloG4maFqTyMVn8XgXqn4zQDbByzx7ZI1AL6PL76rFjsa3wXgYoNV7lBO8AetFt623WCdJ/XhsEfqlMY4V4EHO8ydLa7jbcWE+wjB+7YNmr6FiKZGwrSg6czbS7wM2mbOiPd2Dp52hePSclROaxhAV2/Lm3EH5mK6mfr8xPbzS+LbJK8B+j6++C52DJh6PoHuN/gq0n4o/qHXjf+egVMabR8049dlMXcHAVMZ1NngMegVogsZmF5Wzju35U7/7bahjzb28ly0nDNim3LcHwJ0wNQxkEt/2jl4Whsv805Otp9fEt9mfHkNUKQMBpMbCDwKoJahKktdUn3azBnxnqH6vqa4/6T6W3NnjIup4E4m/AYg068rmkM4A6BfIe5s3ZY7/bdFI6bW9SpUq4X5/2FF1wIoNVIhoa7j0hwGm3iqC+EL2h0ABmkViS8SZVveI7kM6q57zU4UxwXd0m7uME92lONoVG3Nm5GnQpH3ALqHQWmG8k5ESWOoX9UqCRa/P+iRYdxvUcCLc9R2zu1vMHArg1wzeasrtuY+mlJbBdt+fkl8u/H1RwBSewTFfnxxSnbeMq0hQA9qX68ThRTuaTfv9ue8yHVr7iMdt+08ewVAc0BoYipnC6UJKTyyre7BN7fnPnKeF+eq7bw7nmGFe41dV+IHd/ebUNuLXJOS7eeXxLcaX9YA+D6+OBVOJBQF6Ez960UA09Ot5wybYDpHjkbV1tyZY0G0CqCLjeSaHOUSl2j9tryZd3kxGtB2zrCHQPScoVxbxOrW/ZnpHJOX7eeXxLcZXzoAvo8v/pfiQY+0ZeAO/WtFAFQxwjzE9Ctj7w2cfs62necsBdF4gGqZyTWpSi0G/Xlr3cMvvz9g+lkmzx2BWLmhPIC2Gsr17uKhj5p6zTDJ2X5+SXyb8WURoKjxVCDwewAm9n0vIYdvNL1l7rYhs7oGVXA1gB+YrDcZEXAFBYNrtg6ebXT75dbz8g65ivoBKDNQXZpy8ICBeoRIarII0OfxxbcrHjLrImbcpHudGAQw/bzNgts2mczv/bxHb3JdfpWJzjaRo09Kc2Z+vTjv0VtNnsv2s4euZ8IvDeX4k60DZ3YwmV8ysv38kvh248sIgKjZHPwCZsbq3m7Tas9kA/V8ZuvgR+8F6EmAUmfR2edqEWjB1sGz7zRZadujp00kYKWBqgJuIHCvgXqESFqyBsD38cU3+e/QR88nouv1rxGVM9RQikaNfZZ2a+6se5jVAwCRgfz8WogZhcWD54wzcU4BgBbnOIoDuQCV6eZHwK3bhsxqaSq35GT7+SXxbcaX1wD9Hl98I3LVL0BQuteICb9tP3fwO6by2po359esaJz2vVNDCoHveT9vzu+0T+wJreflvQvFfzCQW4iZavYbAbafXxLfanwZAfB9fHEy7w6e3ZRAOfrXh96PHa33kKm8tg6Ze8+JHf1086pZhfDL9wfPLdA8vZ8pP1L/TyD9twIYNHh77lxjXx9MPrafXxLfZnz5GJDv44uTCXJgOIhDuvUQ6N70xTkxEzltHTyvLzP/MbH3DB1j5rcJtJHhvhdges8h3h8KhQ5SQJUBQMnxuIoE42e4CDYFuDnITQerTIA7A2iYwGQL3x8yd3e72XnaGyylL86JFQ+Zex8BizSrqu0ofPT+4Lm6KVULAceZsQPAMihnVrvZQ7cYj2CVxLdJPgfs8/ji64oLJkX4OA8zUNVbbecMegbI1a5o6+DZXVzwAiRm4e27AP7iknrhw+bb12VHo/FT+M1+AF/6pgFHo6p4Z4uLSaE3WN0A8IWeZPu5ABhPFA+d+4P2s/JW6FbWbnbuX98fPPdtgC41kZwNDKSBkA4gHRwYWTx47ozY0bSxpjqltp9fEt8uGQHwfXzxVVRS73oG6W42wwDdZWLDn21DH23suIG/AaijW9e3KAXhcXZ4aod5eRtMVHhi0ePKE+X+rblzL2ZFgxkYBMCrNxdqw8WioiGzMtJnDz2gUxGB+H2a9zNmvI6a8Q81ACA/XK/0/KJ+i64x0wmwfVokvk3yGqCocZj1/2Qn4IX2cwa9rZ0LmOIcngOgqW5d36AEjAfAbsv2s3NvM9X4n0zbeXmr283JHR5QFa0J9GcAxz0K1TyMgJEv87WbnfsmE71oIqnkwT8I1y0ZbzsL4X+yCND38cUXFQ99rBmgeuheF2b1ZxP5bB2yIJ8YvfXvk68VBmghVPDc9nNzf95+7uB9JvI9FW1m3ba33ZxBd0MFz2PgKQ+ODWB17dYhC/JN5Evk/tmTHG0WouHFt81LN3B2NIvE93N8/TUAZOIkSHxhinsrE+l+cGZVhzkDX9PNpDjvsQtccv+kW89J7CKFYe0fHfiSB3Wfsvazbt0D4Cf/HTx/NhTNA+Mck/Uz8Od3By9cet6cAe/97//2N2s/K+/V/w5esBqEi03llgQC7NIQAGN1KrH9/JL4duPLFICoWRh9dasgwMhrfxxwp4HNzpUT8ByVqY62G/8v6jBn0DInxp1A9KzhqmspYiO7LxLByIhOMiHgats5CH+TKQDfxxdVtg15vCWDOutdD7Wj3ZFaz+jm8t7Qx24C0xX698dnhUH063azB9zQ/vFbj+jmZ9r5Cwbtbz/r1r5g+h0qpydgqFxdPHhhjm5+lddU7TCYVzIUA7sU2n5+SXyb8WUEQNQYDpwboPmvgonn0+IcR6eOjQMWpBG7Jv/idBiU12HWgN+Z/gyxSQTiDnMG/JrAgwCcyquHp4QJ44tGLKqrUwctznGYeL6pnJJEPdsJCH+TEQDfxxdVGOpHmteDyVULdPOoHaGxgGquf28QAKoA46ZzZ9/qm8ar/eyBCxlqAECOoXPQLFhWPko3L6VCC2F2dCIJii6Jn8rxDXwOWK9IfGHCh8MeqcPgyzSvx+sd5vTfppNH0YhFdZlptO59caIwmIZ1mDPgaZ2cbDh3dv+nGJTHAJs4FyAaozsK0H7mzVsZ/Kaha5MURZfET+34Bj4GRHpF4gsDjrp1rwSpiM61YGC+bh6hWHw4iBpp3xdEYKL7O8zpP8/A6bHi3Nn9FxLR702cCxCdEYrFh+tnFZhvKJ/kKLokfkrHlykA38cXAACmqzSvRTwW1lvFvnvMotoM/FT/niAQ09/PnXXL73XySQbtZ91yP0DPmjgnDPx0e+7cWjr5uBUVz8Lc1EQSFF0SP5XjyyJAUVN01/o1Y8X3pvc/qFNFyRHnRgCNtfKozGVHWZhzk3nB36kiEMc5OBTABwaqa1wRqHWDTgXnLxi0H5VbGwuR8mQEwPfxxfbcubVAdJHWdTCwXSwRBuvfD8SkArfpdkaSSfrsnANEgVwYWIDHhCG6+RDRiwauU5IU7bMh8VM4vowACN+LhSNdAIR16iByX9D5/btDF7Vm4AqdOirxwg6P3rRMv57k0uHRm5Yx8KSBqrKLhz3VVqcCh90a9m0AIarHwOeATfSCUjf+u0Of8v0wr23s6tZAH3V49OaNQH+dLPJYf1XO8Qrw3Zp1JK0AnHscBK+D3lcRKc4YCOD+6lZw3qxb1v136F/2soHpmvNm3ax1zW3/+/f781Pi65EpAOvxpdguDKzQn2+na3XzIKJJHWfdslcvj+TVftate4joYe3zxNRHJw8CMUOtMHP/6JL4Et9efAOvAWqWVI8vxXpRilZ9/cKeuuKhTzcDcUfNPI6WB+M1br/6r4qx8zAIpZrnqtN7dyzS+/CQwmoj948uiS/xLcaXEQDr8aVYL0Srv35dT51L8WtQ+WJu9XNgeqwmLfz7JpUjHGq+5jUjuHSNTh4MWm3m/tEl8SW+vfgG1gDYlerxhTY3xLxGqwKiH+reCAQ1Q68G/3DJeZRY3aFTBzP3AjCr2jk4vEYpMMw8xavN9vND4qd2fBkBsB5fis3CUNvbzsw5fJILe+qYumrlQbT+vFk3btLKwUcumHnzOoDe0bx2XXVySJ+dcwCgXfr3kC6JL/HtxZfXAEVKI7DW3v/v3/HMWQCaaeXA0P78sN+Q/iuBLYrzFp2pV4XetRfC77SnAMz0giS+sISwXefncUam7j3guuo5rQp8iKBeYvDvdOqIBykTwEsaOWxjIFsnB322nx8SP5XjSwdAP/5RyHe5fYuZtP4KZJcv0roHGfvPn319kU4OftThkLPu3QaBAwBOr24dDMqARgeAmbZZf3xYT0Dip3J8/UWAls+f/fi0G+AL7GYhqovZ1RoBYMWtNW/ClTVhz//vihbnOO8Me/ptAD+qdiXsttLJgYm22T719p9fEj+V48sIgH74pWCSDoBPKZDexjustOb/mVjrFUQ/Y9Bm0ukAKNI694p4r2v7+SHxJb5FsghQF2EWAMd2GqJ6XJDeGwBAc50fE2OrZnz/YmzR+Tmx3rlnVx3R+b0QfievAWq6YMYNWwA1Qz8PKTZKgAOaHQA6Ryc+IZC6HQDCTp1zx6CmOuFdVof17yFdEl/i24svUwAG8MHYWGoYPg/AVbZzEd+Nw2W6HYA0rZ8H+EO9+P6lGJ+w3veTtM592C0/XBHQ+oikAbafXxI/lePLFIAB6YtzYnww1pvBUyDTAb7ySfMzqz0MzJVLeEI68YPlFcd1fu9nFcHwPs0qtFrvIJ95VDO+EL5m4C0Auz0Y2/GrpC/OiQEoKLrt7zOIMITJvRqgVgDqWk1MfKt6H/632jfQ2mEzg7WpidYNeDhUO2U7AOFyJ+6EtE5fkPstCtDinGp3um0/PyS+xLfJwBSA+KL0R/sUARhrO49UUXT7345AYx+GRrEOAQAV1fltqLRVGHXKqhv6RB3h5OjB+tSeZggDKK3Ob0vq7AvCiRjOSAj/kDUAwucopvPrkjr7qv1v4EDbcPlZH5XrfVAm7XgagJQcBXAoEgK0Lp/TrLBftXtgsZJQMByx/fyQ+BLfHlkDIHxOrwMQKwlVuwOQHc2OA9CaR47Eg3qLCH0sEC7X3MsfR3U2UaoTDsoIqEhpBj4HbHkOxXoPTtjEoHKd30fCtWsDOKQR/xCA+tX9vRPEmYDe9wj8Ks44Q/MvIK33+MvcQK1AwO6aXdvPL4mf2vFlCkD4GgPHSOMecKniLAAfVT8BdQjELar9e3B7AKuq/3v/IqhWOg9AArRe4Qwp5yzZCVDip3J8mQIQvkbApzq/Z6iztBJQ7gda8Zk6aMX3MZdVus7vGbRD6/ekee2F8Dn9EQDbr+HZji/sItqv83MF0msEOPAeiK+p9u8JF2rF9zEidNT6C4hQrBOfFTe2/jUW288viZ/S8WUEQPgaa44AgLmxXnx+T+f3xLicrbdCicfRqAKQpVWHq9cBACutay+E38kiQOFz6iNG9T/p6oLa6ESn9WCQtAAAIABJREFUAL/HbvX70QycuemOf6Zjht6Hcfxm04fdMpRyT9epwwXpjQAQdD/lrM3280vip3Z8WQQofI0IO1jnIU44Xyd+KM6bY4q09gIgDvQEUqsDoIh7af7bdd3aZWu1kmDSuvZm2H5+SfxUji9TAMLXmLFT5/cEvQ7AuTP/71OA3tXKgXCLzu99ifATzRq2XDTx+mq/vnnCBZq/F8LX5HPAwtcCAXe75j1w9qbhzzfUSoLwmmYOnTcNe+k8rRx8ZNOwf3YEqKPeOVNv6+Twn/xljQA60/7zQ+JLfHvxZQRA+NqWT47vAVCiUwcjqLUSn1z+t87vAYAC7hDdOvyCVGC4fiXuGzo/r4g7Wq8gClET6HcAiPSK3+MLq3IW5zggVaRzD5DmanTF9CqIXL37UN2uPRLhA//JX9YIRIM0/93Ggyr0ok4epNBd+9lRE55fEj+l42t3AFiz+D2+sM8Fb9K7D+gynfgXzPzhR8x4Q/NerAeE8nXy8IMK1x3FQB2tc8X82vlTe2jt/8DA5brPjprw/JL4qR1f1gAI/yParHMPECjrxHvp1cYKf9G/F2nMuoIXdD+Qk7TeGfavswGM1T5PpJ7VyWNRv0UBgLIMXC+dNE6Q+BLfXnx5DdCwTSOXdmSXhxLjKoBaAUjZr70ljH5X+PTNn3ZPB7C5uhWoWOBpDvEkAAGdPALx4AMAhmrUkbQqAup3BKqrWU08HmCtDkD6mQ06OkynaeZhiO3nl8RP5fiyCNCQ4oIXIpuHL50GBxuIaRRA6ZDG3zcozj11ft9xVo+9AJZq5wHK23T7skt160k2W0YsyybQYANVPZ85peeHOhU4jF4G8hDC92QnQAOKC16IlMTDLwLItp2LqB4mdT2A8Xq1qEkM/qFmKgoKC1cUvJDZbXJvrc/dJouiEcvrxtmZDQOrlpSLabp1MNR1unWYYvv5JfFTO76BtwA0i9/jAyhxQhNByNbORYrFwpduHr1Ma2/4jtN/8C8Q/mMgn7a1nfBMnVySBYMpDmcWCK0NnJf/XvjIVct08lk3cklTELoau290SXyJbzG+LALUtGnk0o6AGqafhxTLRXFMXfv1K3zqCMQMPGwon5s2jXhljE4+yWDz8FfuBugmI+eEaCKBtFZ8BDhwLUDK3H2jS+JLfHvxpQOgiV01BEYfKFKsFULfr1/h76YkUmcBQB+YyIeBhzYNf8W32wRvzF9+MxP9wdD12R78ZP9s7aSY+pq9b3RJfIlvL74sAtRERFfbzkGYwUCP9Xcsb6VTR1ZhVikTfm0oJcUKczflv9LbUH0Js3H4K33AvAB6b0V8UTR9cU5Mp4JNw5e1gazTEeIzBjYCIq3i9/guU3PdHKQkTVFE0N6S97+ffDqfQZuN5MQUdqGe3Zi//GbtmzVBTvzlv4hBISPngNQ77+379HHdvBylhjJImbxndEl8iW8zvowACPFFhLzl0eVab8fkLM5xCLjbVEpgDjPT4xtGvJr0awLWj3jlbmY8ASBiqEomuKNyFuc4OpWsGbYmREx5hnISokaQNQDa4Wm3fg5Skqicc/pepT3k3mla9r/A9JS5vKAATNgwYvlT7w5+o55ufqatGbb0tA0jlj9FUA+icqNymChEWNBp6g9e1s0vGDz+fwA1MX+/6JL4Et9efHkNUBMzL9XOQUpSFVZm/nqPO1wAwl6z+dFNZbXjazYWvHq5iRxNWD/yle7BUGgdiG4yfC0+KYPzUyNJKv6ZJ/eLLokv8S3GlxEATcrFLIAc/TykJE9B9/Ujl18JTV1mZn8KphEe5NiBXXptQ/5rj6zMX9ZIN8/qWlfw7zM35P97DnHgdYDaeHCcBZdofvQHADbm//sqMHXz6F7RJPElvr340gHQ1GlG9hZAzdDPQ0oyFeLAL2FAxrQrngEwx4McCaBhEYS3bRzx+v0rClbUN5Hvqdg0/PWGG/L//Rvl4r8A8mBwyP/zoqZmTL1ikYl8GfQL7+4VXRJf4tuLL58DNiB05uljAbysm4uUpCpXrct/1cie/AePu/kMrPYoz/oucTTixnZtyH/t4TUjl59nIueT2ZD/Rvq6/H+PdxTvYODXDDTw6JhWpamjRob+1494LYvB2V7dJ7okvsS3GV++BmhAejQ9VhQt6l3+6f7xxDQc5t59FhYRBR4AcKVuPdnzsss2j3itb5zUGgBnaSd2cqcxaFSAVcH6/NdXE/BMnAJ/6zIl612dSjfe8eaFbtDpDaYbGHwJef/v7VOGymk/uXe5bkUMpg305gNmHpVesf38kvipHN9AB0AAlZ0AAAUb8t+YwYQhAF8NRisAup8/FbYwrlg/8vV+F025fLFuVR2nXbF7Y8EbN7ouvwSgtoHsvgkB6MpA1wA749bnv/4JQG8TeI0Lfp9dKuYw7QvH+Oj3pl9+sChaFHb2HkiLB6g2O2hB5DYD4QKCygT4YhduU3DCHlLHFfDjTlO77zRR2caRb+aA+fsm6hKiJpIRAMMypl5WBGCs7TxS3ebRKxrH4/Ht0GxsmTF+zbA1/+wys0uJbk6dJl/2+oYRb17HxH+Huffk/5ezAFzLoGsJBFIA4oCjCOvz30Bs30FAVe6wTwr48qxgQv9tVTChX6cpl600UdlbY96qzTH3Qa+PYX3+G8k8vHAK9M5Pqh+/3+PrrwEg0ip+jy+SU8eHu+1lYIH2/UHUXEXKjXXoMqZ1X+ISBjGRo5tbDSouSOVmTrnsRVPnOVLB9zBRyyQ4Nk+LLtv5+/34/R5fdgIUNZar6M8AtHaQAwAw7tuQ/3oH/YwqdZ5y2V9ANBhA3FSdPhYD0a0XTcl6wlSFa0e8fT4B95iqT4iaSl4DFDVWl8ndtwJqsf49QnVcCjyxZtiakKncMidnLQCpa5jpqIH8/FqOs0vXZk7OetLEOQWA5dHlQVI8D6BaSXB8CSi6bOfv9+P3d3wZARA1WkC5f4CJUQCgcyBS8TMD9Xwmc/KlyxTzVQA+MVmvT3wCuFd2npb1L5OVnrY/fC+AribrFKKmkhEAUaN1mtR9C4EWmPhrgxn3rytY2clkfhdN674azF0BWmX/r6lEFawJINAtc8plawydRgDA+hFvZoDVr+wfX0LPpSbb+fv9+P0dXzYCEjUexflXDJTo3isMhF12F60ZtuY0k/llTu2+8/AZZd1dwoMMsIE8k7UwGJMiZ5zWvdOUS7abPIdv3P1GPVepJxgIJ8FxJqzosp2/34/f7/H1XwM0sBLR1/FF0suYkfXBmoKVkwmsvTCMgA6IxBcw+LrKl+fMyI5mxwHcu2bkyhVEPB1AE1N1JwMCDoA5L3PqpX83XTdHWa3bv+pxEJ9vuu4aL9Wfn7aP33J8mQIQqaE88ABAHxsaeuyztmDlr7xIs8uUS54LxSsuAPAoKt/ON5GvzcIA5sUULsicYr7xB4B1B1b9GsD/JcGxJroc1T97vl6EauL4NYu/48siQJESuszscpgMbtBEoPvXjXy7j6n6vuh70y8/2Hlyt2EArgCw0YsYCbJeEV3WeXK3vG4Pd9vrRYA1I1deB4YnnTEf2Gmgjt0G6rDFxPGnNBkBECkjc/IlTwJqiaG/PhRT4MnVI1d39yrfzpMveT2zUddMMN0M0LtJ8BfXqZatAA3b+vHOiy+a1PUtr87PmtFrLiOixwFSSXDMiS+EpdonkWip9eOwefzaefg7vowAiNTiqHwAZYZqq6OInzf9ZsAXUZTczlO6/mXrxzsuJPAgJPWIAG1i5v5bP95xbufJXR/NWZxj4vXLk1pXsLITue4/ANTxKkaSc4h5lm4lLmgWzLwmm2hGjj/VaS8CZCO9IP/GF/7SeVrn99cWrP41A38yVGUDBv1r7Yi1l3ee1vl9Q3V+zYnGdAGABatGrcpSrEYAfCMS902Bb1IGwj/YxdwuU7r8y+TCyG+ydsTadi7cfwFoYLDaBwFcDSDTYJ0e4qmdJ3d7R7eWiyddvGV1weoZBOSbyCpxzBy/7fbDdnyZAhApJ7NRl/EALTc4HNmEA7x09ZjVbRKRf9dJXd/qMrnLrY7rnkNQeQD9DaDSBA6/OgS1jKDy4nAad5l0cc7FUy5+MRGN/5qCNW05wEsBamLweF7f9vH2X8SCFVcDtC6B57FahaCWoVzdZeqc1mlUZywDL9s+LjvHr5uPv+MbeA1QuwZ/xxe+Q1FyV41dNUjF1UYADQ1V24ocen3tnWt7dJ7Y+T+G6vxWl0y9ZD+AeQDmbbxrY1osFutBTJdDoRsYnQHUMhTKIdA6l9xXyaXX4oi/3m1ytyOG6j5lq8asSoeDJQCaGqz2SEAFBp4YYTnw1pi3rg7Hw0tBSTkS4IAwlUv5ri4zu1SYqjQ9mh4rihb1LttfNp6JhwMImKrbMPPHb7v9sBxfPgcsUlLXCV13rx29djgznjJYbVN28dqq0et/1PXhi1YbrPd/6vRQp+MA/naioChaFC7ZX5KhoNozcRsQtSFGawafBlB9EOqCP/tU8nEAJQAOonLDpJ0E/i9DFStwca14rffSp6UfS+TxfNWa0WsugUPPAzjDZL3EGHHRxIt2VP3fWYVZJzoBkWTpBBwDsAPgJYrV7MxJmdrD3ieTHk2PAShYNWbDjIDjDOHK6ZBWAOp6Ee878Pj4bbcfduMbWANgl+34X7Vm5JqObkANJde9CkStAKRZTkl8A9ebm+dMYvfVlaPW3nrJpM7PehLhFJx4oK86UXxt9eh1fZl5IfBZh8UIJpredVLm41/9z6s6ASGPOgHMeOn40SPXZc/LNrUY1ZiuhRlFMPi6bLKz3X7Yji9rAAwpLiiOrBq9bhortYEYo0AqHaA02/NlUqyUOgr019UF63/GYHM3WYphMK0pWHcPGIsAqm32GqmVDd16Y74pdlZh1oGKYK2rwebXBBBRr7R6pz23PHe5qSkaUW2619Pf8eU1QAOKC4ojh+jIi8QYDjmnopIC8Z/WjFq/aEXBivq2k/GbFQUr6q8Zvf6vTBgHw/+mmPAJByv6tZ/cvvzb/ntZhekHKoKRq8FYZzI+ABBBOgHCOhkBMOAQHZ8IqGyP/pqU4u9yY4Aiq1YWrPNsr4CaZtWd6zOCFFkDphs8uB6lAZev7Tqh6yntgPflToDZXGQkIBnoXkd/x5cOgKY1Izd1BDDMwwZEiv/LuYrUytUF63/GUZYRom/AUVZrCjbcQy6tZFB7D66DC1YDO0/uvOK75PV5J8CL6QDVK61ew+eW526XToAVutfQ3/H1PwdMesXv8d2gM4QJSjcPKTW+RFjRn1Yf3LB85dgNHfTvvJpl5dgNHVYf2PiqqzCOCWFPrgHonosnd/prdfKr7ASErmbCOtN5QaFX2mmHpRNggfa183l8GQHQxYGrPfzLUUqNK+r75NDGVaM3/Lq4oNj2Ln7WFRcUR1beuTFKDm0C0eWenXemB7pO6vSQTq5ZhekH4irk1WZBvdJOOyKdgITTvW7+ji/Dkdq4ue0MhO/UAug3B1XJ5pWjNlxvOxlbVo/e2PeAOr6FGPfDwy2NGTyl66ROPzdRV1Zh+oHyGPUAzC8MBCCdAJFQMgJgPb6UFC7tidQzq0Zt+vfKOzddihSxatTmrJWjN7/OoL8SVDsvzzEzzen6cKdRJvO/fPr3DqIi+COASjzIuVfaacekE5AwutfL3/GlA6Aff7eXDzApKVCILiemt1bfufmlNaOLLkMNtXLMxstXjdq8FIQ3CbjM6/PKUFO6Tuo41PQ3CooLiiMUcmcBVMeb3CGdgITRvla+jm9gK+AUR1gKxgW20xD+x4yeDLfnqtGb32TwwyUN9z+bHc2O285Lx/Lo8mDagTNuAGE0XGQZeWaeCsYDl0y60Miw/xcVFxRHDqmypxn4kem6v6KqE3Bd9rzWSbdjoKgZ9LcCpkT9i07O+OQGZrmKRwKcrB/QEP7THaDudQ6duWvFnVvmM/jJSyd2TMgHhkxZUVB0AYL8EzqEQayQyHUyLoPv6fZwR60FfydTXFAcORCIPQ2Q141/lV51Ghx/bnl0+3XZUekEeMF2+2E7vowAaLp40gVbVt25ZQb77nvawgdaEPArAv1q5Z1bNgB4MsD0VJeH03fZTuxk3vzpOy2DcfdmEH4CcKfEb3ROpQwM7Dbxwmq96vdtPm/8OVGNf5VedQ5JJ0B4Q74GaEBaAxp77DDOA+Mq27mIGisDQIZDGLfizqK3wFiiQK8eb1h7la2GYXl0e620w2WXuK57BQg9yeEskLU/aT5hRdd2m3DBd9rk51R83vjjR5aeN73qHCqRToAnbLcfMgLge1Xf0z52GONR+T0AmQ4QXiECuoPQncGoc6ikfOWdRauY+DWAXw9yYHOXiRd85EXgNXe+c7bD7vdY4TJiugKHSroyELE8igkGVinl3njJhI6ntL3vd/Hlxt8q6QQI4wx8DtjyHIr1Hlylz7+nXTTDcWkICFcT0Ar2v6ctarYIgMvBdDkAxAGsuPOdY8QoZkXvs4tiUu77INrLLpWQi6MAH4m76nhasLQEAEqpTppynDoA1WeFeqS4Dpgbs6vakUJ7MLcH0C4O1AUpgGH9M6ZVCJh+wAmN6T3x2z/sUx0vFBRH9gcqEjnn/7/0qi2dAKNstx+248sUgGFdC9NT6nvaqe7tMe/mEPN0AKfbzuUL6jLhIjAuIgLAlY02ASde/CUEFaMclW+ZKXYBVfnviADArXzFqPK3n/2nyeYIg0Z0m3je415U/kJBceT0QDyZGv8TqFftQ2XSCTDG9r1tN77sBCiEhksLz1ukQm46mF6wnUvKYKxwye18qUeNf1G0KHx6IL4I9of9v0mv2ofK/vbWmN21bSci/E2/A0CkV/weX6S8rn9O//iSh8/9MYjuBFGZ9j0p5RsLET2468PzLssqTH/fi2v5QkFx5Ohh9QyI+tg+1v9Reio6/uzyqGwWpEX3Ovg8vowACGEAgbhb4XkPu3A6EvAv2/nUVAxc3azZO6d5UfcLBcWR04OeDfs7xmtk9Kp9pPw56QSI6tL/HDBIq/g9vhBflFWY/v4lheddwwj0YdBO3ftTytdKpkLw5ZX5/2lk8roVRYvCDQO8iKF+5EHOG10Ez2Oi1cbrZuoVOVwu0wHVpHv+/R5fvgUghAcuLWz/jzqBsnSAHgSoTP8+lVJVGJThhgNL3hpTZGTh5QsFxZHDh0PPgNDHg3w3hhR6ZBW2ez8ertULHnxKmKB6KiqV6YBq0T3//o4vUwBCeKTTQ52OX1rY4V4GtwMwCYDxV9VSWKZCSHskoOovf/Jmwd/GkOIeXcaf+ykAXD6u5cEyDl0FwmrTgZjRK3K4QkYCxHciIwBCeCyr8NwPLi3sMNpVwXMZmAmQ48VfxqlWGJTB4eCy6nYCiqJF4SOHwotB5NFf/p83/lWyJ7Y+VOaGeoKw2nRMAvUEyp6TTsB3oXve/R1fRgCESJDu49vszCrscLsbxLkATQJw3HZOfsdAtToBnzf+6ONBWhtDyv1a41/l804AGx8JIEA6AeKUyWuAQiRY9z+333ppYbvRFEdTUupOEO1OgtfKfFuYKINrhU+5E1AULQofORJZDOXFq37f3vhX+bwTQKtN50BEPUEx6QScCt3z7fP4Bt4C0Ct+jy9EdXWb3P5It/FtHw4dO9QW4GuZ8QwDMd17OolLBTP+yaB/m67bZc5wIqElb43Z/a0LAysX/EWeYaCP6RwA3hii/934V8me2PpQPBzqxcA6D3LpCSqXhYH/g/559nd8WQMghGVdZnapuHRC+79nFbbrC46cDaiRBKwAiPXvb+uFAXqTmfLD5DTNKmz3Y3D4hwxa6kGsTFBs6Td1Al4oKI40CKqnQfQj07EJ9J0a/yqXj2t50AmHesCDtwMA6hU54sg+Ad/KdvthN750AIRIIlmFzQ9kTWgz9dIJ7S6Nu4FziOg2Bv0doBIPGgivynEQ/YMZ+UzUOmtC28u6F7adVtU4ZhU2LyUOXwvQEg9in7QTUNn4Bzxs/OPfufGvUtkJCPYA4EEnQPWKHGHpBHwj2+2H3fiyCFCIJPX9ia0+unR8m1ndJ7S5Fhw6A0zXEOH3AF4DUGI7vy8oBegtAA8R89WHKpxGWePb9Ole2HZa9/Ftdp7sB1mFzUvBoesALDGfTmUn4PV7dzYEvtj4m3/Vj4CNIaqoduNf5fNOAK8zldsXSCdAnJR8DlgIH8gqbF6Kyi2G/wUAa4atCZXWb5SpmLvCpQuZOJ1A6QAaeJzKYQD/JcI7YFrtsrOy1vGDG7vM7FLxXSvKKmxe+taY3dcxxZ8D0NNsmpSpYu6yVT/b/qOKOM9i8mR7343lFOtxqWbjX+XycS0Pvn7vzh4q5i4DkGmizi/oFT4C+YrgV9huP2zH1/8csO3213Z8ISw40eCuPFE+s+Lu4maOG+oAds8B6GwwzgFRUwKfAaAeA2kAwgAafuFnMXz2SiKVALwPwMdg7APxPmL1IZP7Psh9t/tD7T4xeRxf6gSQ6U4AMiscbIWiOobrBYCNMcR6ZBtq/Kt8qRNAHnQCjkon4Etstx+W4+t3AGwfgfX4X/bWmN0dmeJDQXQVAa1OPHBFkiLgOAM7AF4GCszq/lCLLbZz0tHtT+33ANhjO4/v4rNOANznQGy2E0DwqPEP98ge39po41/l804Ae9QJIOkEfMZ2+2E3viwCNOSFguLIm3ftmMbK3QBSowBKZ1Ca+UU9UkyWE9coHVCjwbzhjZ/umlIULQp/y6UWHqhcGKiuA3uyMNBgUSca/6aeNP5VLh/X8qAbph5gL94OQK/wUSVrAgAYOJe+ji+LAA14oaA4clo4/CKYhkPOqZ8FCJx/6GjdF6UTkHifdwK8WBhoAm2MIeh541+lshOAHmB4sjBQOgFCPgdsQP1wZCKDsj34jKgUO+UHB4/UG2/k5hDfSVUngJmWJMF98MWS0Ma/yuedAFrnwTH1Ch4NpHQnQPcc+j2+/LWq6a0xuzsCGGY7D2EYYfgbY3am204jFWUVNi9VTMk0ErCxwkLjX6WyE8A9yIORAAJSvhOQymQNgCaHMBQgZX9uUorhEoCiIRBWZBU2Lz1SUd6HQM9bvg+sNv5VLh/X8mDMda4CyIuvCPYKHQmm6KeEdc+fv+Mb+BiQZvF5fFLoYff5JMW7QldDWNN7cvtycpEDwhJL98DGCgSsN/5Vsie2PsQhtxcRrzN+rAo9nQBS79sBuufN5/FlBEA/fgsbTyYpCSktIazKKmxeeqS8rA9xwkcCNlZw8jT+VS4f1/JgLO7hSMCxVBsJ0D1v/o4vHQD9+DXhgy1STl5MfHBLaOo9uX354VjpjQnsBGysYJV0jX+V7ImtD1XEK3oCMN4JAFRPN6BS6FPCuufL3/Hlc8D68Xeb/pSnlGQpvAsiKVROB7g5LrDE4+u+sYIpaRv/KtkTWx/ioOPJp4QZ6OkEVEpMB+ieK7/HlxEA7fCefNZUShIUIrUUImlkFTYvDTrudezNVwQBUNwlt1+yN/5VLh/X8iCCcc8+JRw8FkmBtwN0z5O/48trgJoUq1kAHNt5COMc16VZtpMQX1bZCXCuY0++Ioig4sBTVV8R9IPKTkDFiU8JG5cinYDUJSMAmro/1GQLmGZ49BeJFGsFU78//ux3IJJOVmHzUqdu+bUM5cVIQCbi4WX+7AR4NRJQqwZ3ArSfE76Or78GgEir+D0+AJxe78BYJnpZNxcpSVOW1T5y9l1Gbg7hiexo6zKnbum1TLTEg+ufyU4tH3YCYj2Y1DoPzkevQA3tBOieG7/HlykAA9Kj6bFGaft7gzEFMh3gZw4TJtU53Lh3l5n0nb9vLxIrO9q6zEkrvRaeTAewLzsBFCg7MRJgWA3uBKQymQIwJD2aHvv+Q00KlOJOABUSaAuYjnkwJCfFZGE6RqAtIJoAl793xZ+ajJbG3z8+7wR4sTAQJzoBh3zWCYh4Mx1AqlfgWJ0a1gnQvkd8HT+oXYP4kssePLsIwFjbeQiRKrKjrcteKCjuU7fWaX8F+MeGq890nfJXlt23p0ePB5rtN1y3Jy4f1+Dg8jsPXhUIVSwB+GKjlRN6BY7X+dtbY3Zfl1XYvNRo3SLhZB8AIYTv9Z7cvvxY2eEbXdDzpt+LB5ARioeWLbtvT6MEHpKW7IkNDzkVoZ4MWu3FPgEVwXCN2CzIdvthO76BRYB6xe/xhRDJoffk9uUlZYdvZKLndZ8LJykZQcd/nQC3qhNg/nz0jIX93wmw3X7Yji+LAIUQNUbvye3LS0oP3wjQ8x5U78tOAFeEeoJptfHKuWZ0AlKZTAEIIWqUqk4AezAdwEBGwKedAGYPpgN83gmw3X7Yji9TAEKIGqf35PblpaWHb3SVN9MByvVfJwAVoZ4g89MBLtCzzKedANvth+34MgUghKiRek9uX15+vHJNgAfV+7MTUB7qSfBgOsDHnYBUJlMAQogaq/fk9uX7a+3ry+TNdAB82gnw6u2AUp91Amy3H7bj648AkGbxe3whRFLLiabH9tfa1xdEzxvfG4f82QlQtSunA4zvnUToWRrxUSfAdvthOb6MAAgharyqToAXCwPhx05AtOEhVcu7kYDjPukE2G4/bMeXDoAQIiXkRNNjBzzqBDAhg33YCQh41AmATzoBttsP2/FlCkAIkTJyoumxgx5NB0Ahg+G/TkCwlnfTAcdrJXknwHb7IVMA/o4vhPCXnGh67GBkX194tE+A68dOQMS76YBjSdwJsN1+2I4vHQAhRMqp6gR4tVmQ48NOQCgS6gmPOgFHk7QTYLv9sB1fpgCEECkpJ5oeOxzZ1xfKg+kAQoZD/uwEkEfTAUfrJGEnwHb7IVMA/o4vhPCvnGh67HDIu30C4n7sBIQ9mg5g9DxcJ/zcoiTqBNhuP2zHD+pWYLsR1Y3/4s/32j4EIYRNMYC9e5JVdQJ69Hig2X6vgpiUHW146NnowZ61YhVLAL7YaOWMnvVqh0te/Pleo9VWl+2Hv+0y/GYEAAAYWElEQVT4MgUgRYoUKR4WJmTElb9GAq6PNjxUFq5cE2D7/CV10WU5fspPAUiRIkWK18UFMmI+7QR48hXBGlJ02Y4vHQApUqRISUzJKFehZc/4rBNQLp2Abyy6bMeXrwEKIUTiZER82AmIhUM9wZ58RVBYpL8I0MQ8iI/jCyHEd5QRDoSWPXPfnh43+GRh4PUnFgaG4xVL2PTCwBRmu/2SKQApUqRISXzJCAV8OBIQ9GzHQF8WXbbjyxSAEELY4ctOQDx44u0A4Xs1YQrgKIB6drMQQohqyQj4dDog4HiwT4C/HNGtwHb7WRNGAHbbTkAIIaqLCBnBQGjJv6K7T7edy6m6PtrwkKoI9wJjne1crGHssp2CLv+vASBaanseSIoUKVK0CiGzPB5+2U/TAT8e1+CgEwxflbJrAghLdM+hbg66fD8F4Ch3lnJpJICA3UyEEEIDIYNUaMmi6O6rc6LND9hO51RcH2146Pl7D/WqCJcvIyDTdj4J5EC5s3Ursd1++n4K4IZoky0AZtjOQwghdBGQGXLDSxf5aDrgx+MaHAzFIj0YKTQdQDz1uujZ79hOQ5fvpwAAIKY+HcvAy9aHhKRIkSJFs8DnnQDb58/zwli296PGd5k4bwbuFS36HQDSKybkRNNjFerT3i7xFFZwdHOSIkWKFMslM8g+7QQQ1iXB+TNfFBwmnvTJ3rN63z6TKkycM92cdPl+CqBKTjQ91vc3TQpcx+0EQiGALQCO2c5LCCGqyZedgHB5pAdqznTAMVS2JRMU3O/d8Jsmo001/slAuw/x9P17tUYi+v6msYF+jBBC2LMoWhRWfObTBP6x6boZ2KBiFb7ZJwAAno0ebOCiYgnYyD4BB5x3zjorZzE5BupKKrbbzxoxBSCEEDblRNNjR+l4Pya8ZHroGYQMNxJa4qeRgOujDQ+VRcK9DE0HnB7o+Ek328fkBdvtZ42ZAhBCCJvyoq3LjqLkOgAveVB9poK/pgP639fgoApX9ASwXbsypu/rZyS+qka8BSCEEMmgqhPgAi95sAI9Ez7rBNzw82b7XaX6MeDqHLvD3NlC+p6z3X7KFIAQQhiUF21ddhwl13k0HZAJ8lcnIOfXZ651QYs0j/s828fhBdvtp0wBCCGEYXnR1mXgT/uA6HkPqs8EhV9+5o/+2TaYiB7TrKKlkUTEl8gUgBBCeCAnmh477h7vx95MB2RUVPhoYWAk8Ibm8dZdFC0KW8jcU7bbT5kCEEIIj+RFW5eVsDfTAUzIdAP+mA7Iuff0w0wo0TneGJrUsn0cptluPw1MAdjuwwghRPLKi7YuU+6nfQB+Xv95+ZXCnOkGQkk/HbA8ykGAIzrH6qZV1Lh9AGy3nzIFIIQQHsuJpsdK3dJ+AJufDmBklDvJPR2wF5+2YSCgcZzOgLsal9jI3Uu2209ZBCiEEAmQF21dVuqWXUdg8/sEMGc6STwd4Cqnt2YVe4lI/mY0TNYACCFEglROBxzoA8LzxtcEgDPjgdDL85NsOmBRtCgMhQK946Otto/DC7bbT5kCEEKIBMqJpsfKnNJ+TB5MBwAZwSSbDogHGkWZ0UbnuFzCZgupe852+ylTAEIIkWB50dZlsXjZdSAPpgPAmRVJMh3w+O/3DmDgXt16CFhhIh/xZTIFIIQQFlR1ApjYg1cEOTMWtNsJePz3e/szeC4TSPN4WMXVy7aOw0u220+ZAhBCCEvyoq3LwvEDfVzgefPTAZxZHrSzJmDhHz7KccHzWG/lf2UhrPpJ9MwPE30MiWC7/dTuQyz8/cfSjgshRPLa4Kp4j0E/b7Y/EcEW/uGjHDA9DiCYiHipbMAvm2i14doXSIbxhRAiqWUoDi6b/8c9nncCFv7hoxwGPQ6Sxt8P9DsAJrIQQgjhGQYy4HEnYN4fPspxIX/5+4m8BSCEEKmhqhNgfE3A/N9/fBNJ4+87MgUghBCpIwMwOxIw/4GPb2LGY5DG33dkCkAIIVJLBhvqBMw50fizNP6+JFMAQgiRejJc6E0HzHng45uUNP6+JlMAQgiRmjIcqt5IwJwHPr4JwGOurPb3NRkBEEKIVMXIcFRoySMPfXjGqf5k9ri9AwHIgr8aQNYACCFEKmPODMbVqkcf+LDfbfc1XftN/7VF0aLwsUijKDPfywY2kRP2yRSAEEKI1kRq1ewHP/6L6/BjtWPhN26NNjqyaBEHju/Y18Zl90dHGKMBtLKdqDBHu/meNU62AhZCiBroOIBaAAK2ExEnN/Re21sB61YghBAiGaXZTkB4SzoAQgghRArSX8UpawCEEEII35ERACGEECIFWe8A3HGP3iIGIYRIdYuiReEDtRs9DeDHtnP5FjEC3XT7PY2fs51IspjxoN1F9PobAZFmEUIIoSUnmh47vXR/XxCe134me1Ok8T8Zy+2ndgeANYsQQgh9OdH02Okl+/sy8Lzuc9lwibksjf/J2G4/pQMghBA1RE40PdYouToBMWa6aYQ0/idlu/2UKQAhhKhBcqLpsdolpf1A/LTlYf9jpKiPNP7fQqYAhBBCmJQXbV12RssmN7mEyZb+8v/Icd3s4Xc1fikhB+xTtttP6QAIIUQNlJNDzsi7mowCUV8GHUxU4w9gGVhlFtzTdE1CDtTHbLefMgUghBA1WP5djZ9xHCcDRH/1eMj/EwaGjrircc/8u8/6OIGH6F8yBSCEEMJLo+9tumvkXY37uYqvdIGXDf/Vf4CZf1cRiJxb8LMms4lIHu2nyHb7qb8VsBBCCF8YNfbs1wC89vBDH3ZWpHLByAFwVjWqcgF6A8CTqjY9lp9/1jGzmYpE0N8JUIbxhRDCV0bf1XQtgLWLFvGdH+7c20UF+PuA6grm9gBaA6j/hf96HEQfg/+/vfuLsau67jj+W+eO79ixjWEsYhupwbWTNsVFbRikIqWqkoBbEdJKfWCUpmlFsWFC+ePIhaQlUeT0AVFiG2pBsR0MkRCqgIfmIQHJcQtV/1FFo/YB01S2Aw4tHhNjGAyJPTP3rD7Yl0CJPffede7sc8/5fqT7ONtrjq69f957nb39gGQvmPyfslb2jyzzx6WeP5MfBQwASGNszFqS/v3M5z123X182akPvHbytts+cmr+K6uH1PMnWwAAgPcZ//ORqdQ1oL/YAgAAIIHU8ydbAAAAJJB6/oyfAwAAAAYOKwBAiWzfPnmppI2SrpS0WtLipAXFvS3pJUn7Gg09tGnTyucT1wOURur5kx4AoAR27DgwPNNacq9L46rWytxiSeskrZvNdcu2e4/uPDF1bPOWLeumUxcGpJZ6/qzSPzTAQNqx48DwTL70acluUrX/TjYkv/m8Zcuf3rJlfzN1MUDdcRQwkNh0vuQ+d31yvi5rSf3JpU8tPW/5tqKeHzCoUs+f8QBgsQ9QZ9u3T17qshujf48G7ZNnuunu7UfWpX7+QEqp588qLzcCpdfKtFH1/HvYyDLbkLoIoM54CwBIyKWrUteQ0PrUBQAppZ4/eQsASMhNH0pdQ0IXpy4ASCn1/FnHpUegTFL/JyAZr/HvDpQBWwBAQi69LOmS1HWkYNKPUtcApJR6/ozfBsgWABDxPVk9A4DL96auAUhq0LcAUr/HCAyylvSQS63U7+Yn+LRyaU8xTxEYTKnnTwIAkNBXNq183mU7SzAhz/fngTtvW/VCMU8RGEyp50+2AIDEpo8f29wcWf5Rma5MXcs82be8ueL21EUAybEFANTbli3rpqePv/ZpSfd7tbcDWjLtWN5c8enxcZsp8BECAyn1/MlbAEAJnLkd79a/vP/IzobbBj99SM5qSUvSVhb2lqSX5L43k/bceSvL/kBb6vmTLQCgRL52y6r9kjanrgPAPEg8f7ICAABAAqnnTwIAAAAJpJ4/2QIAACAFtgAAAKif1PMnAQAAgARSz5/cBggAQA3FVwDoAQAAoGup588iVgCmIz/8pT0/XlpADQAADIwtO147L/LzJp2K1lDEUcAnIkcZfmBm9heiNQAAMEhaNnNxZO7MpTejNcQDgOl1t9NLGb18ZmXrozUAADBQFtj6yNzp8tejJcS3ANwPxn5eG699whvhOgAAGADXPuENuW8IDZLZgWgd8QCQ2Q+Ctxn96i8fm/xCuA4AAAbAL7129GaXLgnNnbn/d7SOcADIpedCyxgmeWbb79w5WZe70AEANfXV3UevkmlrfN7Uv0VrCQeABa5nFD/PoGnSU1958MgtbAcAAKrm2ie88dWdk5s896ckLQgOlw+ZPxutqZC3EO/cOfmcpN8oYiyX9meyh91972yzcfieDReeKGJcAADm05f2/Hjp8GxrdUv223K/XtIlhQzs+te7blr58egw8cuAJMn8UZcVEgAkrcvl22RSY7alv9g1WdCwAADMo9mWZiVJXujFPy57tIhxCjkKuNmY/VtJbxUxFgAAOKsTyk8+XsRAhWWSL+8+ss3cNhc1HgAAeC+X3fNX4yu+XMRYxWwBSGr40NaWtW6UtKSoMQEAwDvebJi2FzVYYbcB3jV+4RHJvl7UeAAA4D2+dtcNK44WNVhhKwCStOiVD973k4te/azko0WOCwBAnbn0/cWvrHigyDELv4zwjl1H1yrzCUnLih4bAIAaeqPRsNG7r1/xwyIHLWwLoO0b4ysOuemPpDNvPwAAgF7Nuvnni578pT6sALTd/s3JDZJ/s59/BgAAFeaSNmy9YdUj/Ri88BWAtq03rNxj0nViJQAAgG615D7er8lfmof/nd/+0OTvuvxR0RMAAEAnpkz6w60bV323n3/IvCzP37Hr6NpWI39cEm8HAABwNqbvu2WfvbcPe/7/X9+2AN7tG+MrDp33PyuvMNkXJb05H38mAAAD5G25vn7e0uO/OR+Tv5SgQe+OR15d2fLWn7nrC+LUQABAvb0l6cHGAtu69Y9Xvjqff3CyDv2b/ubwBQubzT9w0+clXZGyFgAA5lFu8uckPXry1MzjD/7pxa+nKKIUk+6tDx+5MMv1CTNd4a6PmmmtpOWSlkoaTlweAAC9OCXphEvH5PqhTP9lpucaM/7stvGLjqUurhQBAKiaTQ8fOShpba8/79IdO65ftbXAkpLZtOfIHTLdExji4F9fv+ojhRUEQNI8NQECdXLjruPLXFrjOn2KRy8fuSbmv/L+aJlNRJ6FS2u/+MiL5ycoHag0AgBQsIXD05crtrrmWXbyP4qqJ7XpmeaEzuSaHtmsL7qsqHoAnEYAAAqWy0fdpN4/fvC+P/nFN1L/HkXZPT4y5ZkORZ6JGTeMAkUjAAAFs1yjsSVvq8zyf5u7otsABACgYAQAoGBuwcmqQvv/babg7xR9pgDehwAAFOjGXceXuWlNZLk7b1QvALjbRGhbhEZAoHAEAKBAC4anL3fJAkvd3syr0wDYNj3TnHDJA8/FTtIICBSKAAAUyBVtVqtWA2Db7vGRKUmHImM0aAQECjWUugCgUux0A2DPvHoNgG1umpD04cDPEwCAArECABQo2q0ebpYrt+jvRgAACkQAAApSyAmAVt0A4JwICJQKAQAoiBXQAPiTCjYAtuU/LaARsEEjIFAUAgBQEMt8VCb1/JEf/FYFGwDbdo+PTLnpUOQZ5U4jIFAUAgBQEPfgCYBW3QbAdwltA3AgEFAcAgBQkNyiAaC6+/9tOUcCA6VBAAAKcOMTx5fJtCayvG1Z9QOAzCZC2ySmtdfRCAgUggAAFKA1HW8AnJ6ubgNgW7Yw3gg4RCMgUAgCAFCE3IM3AFa7AbBt99jIlEuHIs8q50RAoBAEAKAAlin4BkAtGgBPM4W2AYxGQKAQBACgANE3AFSH/f8znEZAoBQIAEDQdY+8eH5usRMAvdpHAL+He/xEwM89dviCBKUDlUIAAIJ8waJRmSywrO15DRoA2xYsbE7I5IHnZcM2/LEUtQNVQgAAwmgA7MbusZGpPNgIGL92GQABAAjKwnvSNWoAPCN866HTBwBEEQCAoDzTqJvU86dGDYDvME0EnxkBAAgiAAAB1z3y4vkevALY8/oFgJaCjYBOIyAQRQAAAnzholGdeZO/1yGyGjUAti0aak7o9FzeK2vQCAiEEACAgNw9tPwvq1cDYNvusdNXA0eenWU0AgIRBAAgwIM3AOZevwbAd4luAxAAgAACABATm4RqcAXw2USvP+ZEQCCGAAD06Lq/e/F8N62JLGPndXwD4AzLLfYmgGnttU+8PJL69wAGFQEA6NHMyUWjHrwCuNmsXwNg28mhAq4Gnl3w6ylqB6qAAAD0KtyE5ge/9fv1awBse3JsZErSodAgNAICPSMAAD3K81gDoNfwBMCfI9QIaPQBAD0jAAA98ugJgDVuAGxrZbETAXMjAAC9IgAAPThzCt2ayBh5ja4APpssvgpCIyDQIwIA0IM8G74s2gA4XeMGwLZZFdAIKBoBgV4QAIAe5EPxEwC/XeMGwLYnCzgRcJargYGeEACA3oQmHa/3CYDvYcGtkPh1zEA9EQCAHrjH3gAQ+//vyINvAuQEAKAnBACgS5977PAFMq2RST1/hggAP2MToWfJiYBATwgAQJemmwU0AGY0AP5MvBFQNAICXSMAAF3K5cEDgGgAfLcnx0amXDoU2wagERDoFgEA6JKZRiNL1p7RAPg+ptg2QEYfANAtAgDQJVfwCOCc/f+fI9QI6DQCAl0jAABduOaxwxe4tCYyWVmNrwA+mzyzaACgERDoEgEA6MKC5vBlMllgudpzGgDfZ2i2OSGTB56rzQ7RCAh0gwAAdCOjAbAfimgEVE4jINANAgDQhdy4ArhfPHogEDcDAl0hAABdMMXeABBXAJ+VR98EoBEQ6AoBAOjQNd+JNwC6EwDOxhVsBOREQKArBACgQzYTPwEwowHwrBbOxk8EPEkjINAxAgDQoSx82hwNgOfy5NjIlFyHImM4JwICHRtKXQAwKFrSqFlgAKMBcC5++oyEDweGIAAAHWIFAOhc8A0A9v/nkjsnAgLzhQAAdOCa7xy+QNKa0CC8ATCnAl6TXPs7NAICHSEAAB1ozQxf5iZzk3r8+IKcBsC5zMw2J9zkgeds2UIaAYFOEACADli0ucxpAOzEvrGRKVOsEdCcRkCgEwQAoAOeBff/aQDsWB69GdDpAwA6QQAAOjMaWJaWuAGwY26aiDxr50hgoCMEAGAORTQA5pwA2DGLr5bQCAh0gAAAzKHl8RMAT9EA2LGZk/ETAZ1GQGBOBABgDq3cQ8v/bn7wWRoAO7ZvbGTKTYdCWy5GIyAwl8i5ZsC8u+rbk5dmWb5RsislrZa0OHFJqLe3Jb1k5vvcsof2fmbl86kLAjpFAMBAuPqpA8Ot1pJ73TUuVq5QTi25dp5/6vjmJ8fWTacuBpgLAQCld/VTB4ZnWkuelvTJ1LUAc3HpH0Z+evxqQgDKjv9JofRmWkvuE5M/BoRJn3p90ci21HUAc2EFAKV21XcnL/Xc/1OEVQyWVu76tWd+b9X+1IUAZ8N1wCg1z/ONbsbkj0HTMLMNkjanLgQ4G/5hRam52VWpawB64+tTVwCcCysAKDWXPpS6BqBHF6cuADgXAgBKzpekrgDo0dLUBQDnQgBAqTltqgDQFwQAlJqnLgAAKoomQAAAaogVAJQaWwAA0B8EAJQaWwAA0B9sAQAAUEOsAKDU2AIAgP4gAKDUolsA/3L1RUQI9OzjT7/CLhQqiy0AAABqiBUAlBpbAEiJ7x+qjACAUmP9FSnx/UOVsQUAAEANsQKAUmMJFinx/UOVEQBQaizBIiW+f6gytgAAAKghVgBQaizBIiW+f6gyVgAAAKghVgBQauzBIiW+f6gyAgBKjSVYpMT3D1XGFgAAADXECgBKjSVYpMT3D1VGAECp8Q8wUuL7hyojAKDc2INFSnz/UGEEAJRa9H9gH9vHfe7oHV8eVBkBAKXGP8AA0B8EAJQbS7AA0BcEAJQaKwAA0B8EAJQaAQAA+oMAgHJjCwAA+oIAgFJjBQAA+oMAgFIjAABAfxAAUG6mE5KWpi4D6JrpzdQlAOdCAECpuelluS5JXQfQLXP9KHUNwLlwGyDKzfW91CUAvXDT3tQ1AOfCCgBKLVf2UGb5LS41UtcCdMqkljLbk7oO4Fx4yQql9yvP/O/9Mrs5dR1Ap1za8YNPXLQpdR3AubAFgNLLPvjGZpn9feo6gA7tW7xk1e2piwDmwgoABsK6/fubrWMj2yS/SWwHoJxakh5YvHjV7ROX20zqYoC5EAAwUC755yPr8lnf4Kb1klZLWpK4JNTbW5JeMtPeWdmeg7+16oXUBQEAAAAAAAAAAAAAAAAAAAAAAAAAAAAAAAAAAAAAAAAAAAAAAAAAAAAAAAAAAAAAAKB3/wfbdQroEVYv0wAAAABJRU5ErkJggg==;" parent="1" vertex="1">
          <mxGeometry x="162.5" y="383" width="87" height="87" as="geometry" />
        </mxCell>
        <mxCell id="JgDv4yjVZVKhBUE-g2lu-63" value="" style="shape=image;verticalLabelPosition=bottom;labelBackgroundColor=default;verticalAlign=top;aspect=fixed;imageAspect=0;image=data:image/png,iVBORw0KGgoAAAANSUhEUgAAAgAAAAIACAYAAAD0eNT6AAAACXBIWXMAAAOwAAADsAEnxA+tAAAAGXRFWHRTb2Z0d2FyZQB3d3cuaW5rc2NhcGUub3Jnm+48GgAAHatJREFUeJzt3XmwLmld2PHv3FkYZhhwYAYYBlDZBVRQUsKIyjKuKMQYjcZS44axYsRgqjAYlJRRMe6lJsG4gRqJURYhopFFNCqgaEAU2VQYVmcGYZiBWe/NH31vGK53Of2e7rfPOf35VD01S/Xbz/P06bef39vPVgAAAAAAAAAAAAAAAAAAAAAAAAAAAAAAAAAAAAAAAAAAAAAAAAAAAAAAAAAAAAAAAAAAAAAAAAAAAAAAAAAAAAAAAAAAAAAAAAAAAAAAAAAAAAAAAAAAAAAAAAAAAAAAAAAAAAAAAAAAAAAAAAAAAAAAAAAAAAAAAAAAAAAAAAAAAAAAAAAAAAAAAAAAAAAAAAAAAAAAAAAAAAAAAAAAAAAAAAAAAAAAAAAAAAAAAAAAAAAAAAAAAAAAAAAAAAAAAAAAAAAAAAAAAAAAAAAAAACswhlLFwCA1Tmz+oTqAdUl1XlH//+11TurN1Rvqo4sUjoAYDK3rf559YLqAw2N+6nSldX/qJ5QnbNAeQGAXbhD9d3V1Z2+0T9Zekf1bdW5Wy47ALCBr6je3eYN//HpLdXnbLUGAMCOnV89q+ka/lunw9UPVmdtrTYAwGldWP2f5mn8b51e2EcGDwIAC7p99Zrmb/yPpf+dAYIAsKgzq5e0vcb/WHrWNioHAJzYf2j7jf+x9A1bqB8AcJwHVze2XABwTXXp7LUEAD7Ky1uu8T+WfnH2WgIA/99ntnzjf6S6ubrfzHU9UM5cugAA7Gs/XD1ww89+oHpR9VvVKxuW/71HdfYG5zrUsEbAb21YFgBghy6srm/8r/Vrq39T3eYE57ygYUDhJmMK3psFggBgdl/a+Eb6yuohOzj3o6vrNjj/IyapGQBwUj/VuMb5cPWYEef/qpHnP1L9u13WCQA4jVc0rnH+tQ3y+KORefz3jWuzMoeWLgAA+9Z9Rh6/yap9Yz8ztkwAwEhj++jvvEEeDxmZx5s3rs3KeAMAwKZuO/L4922Qx9Ujj7dD4A4JAADY1IdGHn/xBnmMfWtw3QZ5rJIAAIBN/f3I4z99gzweOfL4Td4yAAAjvKxx/fN/NPL8h6rXjszDngA75A0AAJt67cjjH149bcTx31J90sg8xpYJABjpCY1fqOdw9QU7OPeXttlywJ86Sc0AgJO6oLqh8Y30zdUzqjud4JyXVs9sCBTGnvftebMNALO6XfWcxjfSt043Vb/XsNjPs6tXVbfs4nzPmLXGALBy96le1+4a/6nTjdXHzllpAFizx1fvb/kG//j0U3NWGgDW6lD1PW3WNz93uqq6aL6qA8A63bF6ccs39CdKh6t/Ml/VAWCdHlr9dcs39CdLPzxf1QFgnb66Yb3/pRv5k6XnZNofAEzmrIYpdUs38KdKz6rOnusCAMDa3K36g5Zv4E+WbqyeXJ0x1wUAgLV5ZPWupmmor6meXr1hovMdaVgo6FPmqjwArNET22zt/ROlv6oeePS851TfVL11F+d7XfXl6e8HgMmcW/180/1Kf0F1hxPkc6h6TMM6/2/ZwXn+ovqxhh0EmYE+FID1uk/1643fcvdEbqm+s/pPDQ346VxcPaC6pPqYo595f3VF9cbq7ycoEwBwnC+o3tc0v/qvrD57u8UHAMY4o3pKu9t179bpNdXHbbMCAMA4t6+e13T9/c+ubrvVGgAAo3xyOxt8t5N0ffWN2y0+ADDWV1TXNk3jf0X1adstPgAwxtRL+v5udZdtVgAAGOfi6mVN0/Afrn68IaAAAPaoT2+6JX0/WH3pdosPAIz1xOqGpmn831g9aLvFBwDGOLf62abr7/+NTrykLwCwR9yz+uOmafhvbtjFz8Y7ALCHfX51ddM0/ldVn7Pd4gMAY0y9pO+fVh+/1RoAAKPcvnpu0/X3W9IXAPa4B1R/2TQN//XVk7ZbfABgrC9vuiV931E9fLvFBwDGmHpJ31dUd91qDQCAUS6uXtJ0jf8zq7O3WgMAYJSHVW9rmob/g9WXbbf4AMBYUy7p+6bqwdstPgAwxrnVzzTdK/8XVh+z1RoAAKPco3p10zT8hxsGDlrSFwD2sEdX722axv+q6nO3W3wAYIxjS/re3DSN/59lSV924IylCwCncVb1adWjqk+q7tuwRekdqg9U11Rvrl5fvbx6ZXXTEgWFDVxQ/Xz1JROd75eqb6o+NNH5ALbu3tWPNf6V6JXVT1T3236RWYlzqgdVT6j+RcNo/a+pHt+wTO9O59jfv+mW9L2p4S0CwL511+oXGh5ou3kg3tLwa+jSrZaeg+qS6snVy6oPd+p777rqf1f/urroJOd7QsMbrCka/3dUj5iwrgBb99XV+5vmoXgsXVN9wzYrwYHyoOqX2zwgvaH6ueo+R893ZsPI/MMbnu/49HtZ0hfYx86qfrppG/7j07MaXt3CTlxQ/XjTDcy7ofrR6qUTne9IlvQF9rlzqhc0b+N/LP129jzn9B7SsHLeNu7JTdKHGsYcAOxbh6rntN2H5wsb3jjAiTymodto6Ub+ZOnN1SfOVnuALXl6yzxEv38LdWP/+bymW3t/jvQbDdNfAfa1RzZd/+rYdLh67PxVZB/51Oralm/kT5RuqZ6WdVuAA+Cs6v+27EP1zQ2brsAdqre0fEN/onR19fnzVR1gu76+5R+sR6pvmbui7Av/peXvxROlP6vuNWO9AbbqUHtnhPXbMyBw7R7a8Ip96Xvx+PTszFgBDphHt/lD8Y+rb27YE+DShtHQT6z+cBfnfNy81WWP+/WWb+xvnW7ImynggHpm4x+K1zes5neqQVBf1TA/euy5f3HKyrGvfFy7+/V/RUMA8czqedW7d3GuIw37WDx6zgoDLOmtjXso3lx94Q7P/djGL9n6royuXqt/32YN9Wurz+kf3jeHqi9q8y6up85SS4A94C6Nfyj+6Mg8vneDPAy0WqdXNf5eeW6n75u/oPGB7pGGlSoBDqTPatwD8abqziPzuEOn363t+PQFu6gT+9PtG78OxWva+dTRixt2BRxz/uuyXwVbdGjpArAq9xh5/B9VfzfyMx+ofnfkZ8aWi/3vQQ07843xbQ3jUXbiysav139eH9k1EGYnAGCbLhh5/Js3zOdNI48fWy72v/uOPP5N1e+P/MxzGwYGjjG2XLAxAQB72ZEtfc4gwPW5cOTxf7BBHocbpqiOcccN8oGNCADYpmtHHr/prmeXjTz+ug3zYf86b+TxV22Yz5Ujjx9bLtiYVdDYpsMjj/9H1d0apurt1IXVw0bm8x0NqwK+aOTn2J/uU/3zkZ956IZ53Wnk8R/eMJ+5XVTdr/0boFxbvaFhjBCwRRdVz2izrVZ/a2Rev7hBHsfSy6pP2ayK7AMXVD/QMJBv7L0x9u1VDV1LbxuZzxdvVLP5fGr1kvbmcslj003V86v7T3qFgBO6ffU91Qfb/Et7uGH64E58WuMXAjo+3dKwDruZAQfHoepr2/1KfWO7lh67QR4P3qyKs/iSNguW9nq6pnrUdJcJuLVzqyc39H9O9YX9J6fJ83HV30+U35GGZYW/vyGIYf+6rGEPiSnuiVdWZ+8w39s2fsvrD1e32UVdp/SANltae7+kqxsWJgMmcmbDL62xrz13mn67+rKGjYDOaRgf8CUNffdzPSj+rvpX7fzBz95wt4Y3OYeb9n74hU4/durc6tc2OPdLd1nnKe2mK22/pB+Y7GrByv3j6i9a/ks9V/qr6gmTXS3mctvqKQ1vjea6F36/oW/8RC6r/mTD8z55igswgTMaBsst/Z2bO71hqgsGa/VZ7W473v2WfrdhdgJ7z5dWf9v27oXXNuwE+Izqv1V/uYtz3VxdMvkV2cwdW/57to2001UdgeN8cvW/Wv5LvEQ6XP1y9bG7vopM4SENgdnS98Vu0i9PfVF24ZKWvx7bSsAI96p+qYMxLWi36cMN/Ygfs6sryqYubvgFPnZTn72WbqoeOPG12Q0BAPBR7lL9RJvN5T/o6eqGfue9MoL7oDu7emLTzTJZOo3d8npuAgCgqts1NG4HZVDQnG8u3tTQD21vgflcXr2+5e+jqdIb23ubUQkAYOXOafiV9Z7m/QL+Zdt7oP9h9QkNr43nDAReWT1y/CXnFO5b/Wrz/c3eXt044/lPlK5tGEuz1wgAVsIvFY53qGFu/TMa+vvn8rbq+6qfbXil++yGX89zeUHD+u8fOvrfD6t+qJ2vMriJFzXsIf/WGfM46G5X/duG/Rrm6GJ5f8O9/qMNU1l/pe1sknZTw7TSF28hr7Euadz+Gzc0fqvkuVw+8nhtIBx1eeNXLxubruzE/eVnVE9q+tXHrm9oQE72Rb+8+vMZ63tjwxuHi0+SPyd2qPrq5nsDdWzJ5zsfl+8XNwzunPM7cF3DypV71dg3AGOChbmN/VvA6j2iekXzPvQ+2PBL63RL696r4df6FCu4vajh1fHpnNX83R3vy0DBnfq0hm6Uuf4WL+/Ur94fWV0xU95vae9vOCUAgBV4UPP2qx5peD34zMavu/3Q6lmN30jouoZpipss1nO76unNuwb62xp+2Xr1+A/dvXmW7z2W3t5w7Xfioob7b6qy3FL9l+oO4y7JIgQAcIDds/nnT9/SEFzsdhzBedUXVj9c/U5DA/r+o3l8oOGh/pKGPtzHNzTiu3X35r8+r6o+Y4KyHgTnNbwd2c2ukadK1zUEduduULZHVL+5i7wPV89rCGj3CwEAHEAXNbyGn3uLz99pb45uHutTq5c177V6YXWfbVVoD/qi6m+a59oebghC7zlBOe/fsLX1n3b6GSQ3V6+uvqt5B9LORQAAB8i25vL/YfWZW6rTNl1eva75rtuxgYLHD0g7yD6l+r3mu6Z/Un36TGW/sOHtzb9oGGD6lOrbq685mud+eM1/KgIAOAC2NZf/9c07hW8vODYq/d3Ndx2PDRTc5FX1fnGn6sebr3vlXQ33/Dam8h1UAgDYxw41NMhvbd6G/20ND9szt1OtPeH85u2vPtJHBqsdpIGCZzdM8zw2fmPqdGNDYHG6WSacngBgJQ7SA2Yvu2f1gKP/PL/hun+oYarRG/tIH+gULm9Y4GbOPvirjubxYw2j/Nfo0oY+3q9vvgDojxteMf/eBOe6Q0P3zCMa+rPv2TD4roZBcm9vWMr4D4/md80EeR5zeUPjPNeGNxZcmtbYhYDeXd1tprKMNfY5qg1kcmdWn1v9fPWOTh+FvqdhBbInNLy238Remsu/Jg9s/m2Rf6dhyuZYZzQMsntB45a5vaF6fsPsi908IO/fvNfmDdXn76J8nJg3ALCBc6pvbnejmt/VMKDovHbmge3dufxrcnn12ub7G4wdKPi4plnh8LXV5428Fhc2BIpz7Rz5vobuhLNGloudEQDASI9q+EUy1UPubxp+gZ3MfprLvxbHBgq+q/n+Jh/s1HPa71j92gz5/mpDw76T+r93prrflGWVt0EAADt0ZvW9zbe73E/00d0C5vLvfccGCl7TfH+fK/qHo90f2jAwc648/7aT3xOPat43IC+tPvEkeTMtAQDswDnN//r9SMNiNJdkLv9+c7fmf0vzJw2N72c03wj7W6f399FbHd+jYfneufJ7cwd/iuleIwCA0zi7+Qd/3TrNvVf5GubyL+UTGlb8m/Pvd9PM5791+kB1WUNXxFw7513b5sv3sjsCADiNn2t7D9w50xrn8i9lG9stbyvN9VbjcMMbhbtueI3ZPQEAnMLXtvwDeLfpPdW3tPm0QzZzZsPaAe9s+Xtgr6VXN0xnZVkCADiJu7advta50geqpzXNrnls7vzqu5t3RcH9kt7ZwVv5cD8TAMBJPKvlH5ibJHP596ZLqv/WvAMF92r6UMMOe+fv+ioyJQEAnMC92u5gqymSufz7w4Pb3b7z+y39avWxk1w5piYAgBP40TZ/4N1QvaT6zw1z+1/c8Atozofs89tsCVmW89nNO1DwhuoXqn/aMKf/k4/++7Oab+W+W6c/qz5rqovFLAQAcJyz2myFs5urH2hYoe14t6v+fdNPpXpFwzQt9qdDDQNNd7KPxJj06urep8j3Pg0bEM3R8P9d9U2ZbbIfCADgOJc1/ub6cMOmQKfz8IZ5z7t9yL62+oLdVpQ947yGAHGKFQVfWd12B3ne9uixUzX8N1Y/Un3MhteA7RMAwHH+XeNvrq8dcf4v2+D8x9JfV1/ZRy8Ly8Fxl+q/tvn4k8PV3Ufkd49d5HXr9JsN22CzvwgA4Di/0rgb61WNn9Z0xcg8bshc/jV5YPWixj/kXrlBXn+wQT7H0puyquR+JgCA44ztG/3mDfL4mpF5XLFxbdjPxo5F2aRbaOy9eKRhfYxvT0C63wkA4DhvadyN9ZAN8hj7xbt249qwn72vcffJJsvq3m1kHtdXd960QuwpAoCV0Ge8czsZQHVrV2+Qx1Ujjx9bJg6Gsd/bmzfI46aRx3+4YaQ/sE8IAHbuwyOPv9MGeVw08vixZeJgGPvm5+M3yGPsZz64QR7AggQAO/f3I4/fZB7+2M+8b4M82P/ePfL4z98gj7GfGVsmYGECgJ1788jjv7bxswC+buTxY8vEwfBXI4//V9UFI46//dHPjDG2TMDCBAA79+cjj39Yw7avO/VFjR+t/bqRx3MwvHrk8Xeufq6dBaRnNKw5cPHIPF418niAfeMRjR9hen07e5V6WZttMfz4SWrGfvPAxt8rR6pnd+qBo+dVv7jhue8/Yf1YllkAcJyzqvc0/ga7ufqhTjwo8IKGPeGv3+C81zXsJcA6/XmbNdRvr57UsDvkoaPp3tW3NX4hqmPp/85cV7ZLAAAn8CNt9oA80rAm+ksbXq/+ZPXb7W4ToF+aua7sbf+mze+dY+mmplny90kz15XtEgDACdyraR6YU6R/NHNd2dvOr65s+fvwqryJOmgEACthEOA4f93QR7q0FzUsTcx6XVd939KFqP5DVqQEVuIuDWsCLPWL6/oMuGJwVvVnLXcvvqY6c/Zasm3eAMApfFXLPXSfvIX6sX/ct7qm7d+HH8xWvweVAABO46fb/kP31xu/uBAH3xc3zDbZ1n14c/WErdSMJQgA4DTOql7Y9h66/yeb/3ByX9d2goCbG1a55OASAMAOnFM9p/kfui9tWJ4VTuVLGgYHznUfXtvwtoGDTQAAO3Soenrz/Po6XP1YQ6ABO/Hg6i+a/l7884YVCDn4BAAw0mdUr2+6B+5b22wXNzinemrTDA78QPWU6uyt1oAlCQBgA2dXT2xovDd94L6jYWU1/f3s1h2r76r+tvH34d9UT6su3HahWZwAAHbhUHV59TPV29rZF+jZ1RfmlxbTO6NhM6unVS9uWNDq1ita3nT0//3m0WMentkmayYAWAlf8u24e8Oc6Xs2LJt6qGEe9TuqNzb8QoNtO/foP69ftBTsNZc0rlF/d3W3mcoy1thGfdVt4FlLF2Al3nE0wV6i4YcVsxcAAKyQAAAAVkgXAFM7u3p89aiGjZP2qyurV1TPr25cuCwAk1v1AAgm99CGlRHvt3RBJvTX1VdWr1y6IGzsztVd258zbG5sGGR31RbzNAgQGOUTW2ZXum2kD1UPm+5SsQWHqm+s/rLl758p0usadiHdRoNlGiCwY2c0/EJe+iE5Z3pDusz2i7Mbds5c+p6ZIz27+cduCQCAHXtEyz8Yt5EeO9UFY1Y/2PL3ypzpadNdqhMSAKyEWQBM4eFLF2BLLlu6AJzWpdW3Ll2ImX1HwzLPsCsCAKZwp6ULsCUXLV0ATuuLOvi7Z55Xfe7ShWD/EwAwhbWMpF1LPfezey1dgC25z9IFYP8TAAAHybmnP+RAWEs9mZEAAABWSAAAACskAACAFbKwCUv4lep5Sxei+rzq65YuBMASBAAs4fXV/1y6EA3rw7NuV1R/t3QhGu7FS5cuBOsiAADW7Aern1i6ENVTq+9duhCsizEAALBCAgAAWCEBAACskAAAAFZIAAAAKyQAAIAVEgAAwAoJAABghQQAALBCAgAAWCEBAACskAAAAFZIAAAAKyQAAIAVEgAAwAoJAABghQQAALBCAgAAWCEBAACskAAAAFZIAAAAKyQAAIAVEgAAwAoJAABghQQAALBCAgAAWCEBAACs0FlLF2APOr/6uOrchcuxqRurt1XXLF0QduXS6our+1W3Wbgsm7qhelP13OpdC5cFOI4A4CPuVf3Hhofufm38j7mpenH11OovFi4L4xyqvqv6jvZvw3+8H6yeUX1PdXjhsgBH6QIYXFb9SfUV7f/Gv+rs6vHVq6vHLVwWxvmp6rs7OI1/Dd+pp1c/uXA5gFsRANRF1fOrC5cuyAzOq55T3XvpgrAjj6v+5dKFmNE3V5+3dCGAgQCgvr26eOlCzOh21XcuXQh25FuXLsAWPGnpAgADAUD946ULsAVrqONB8MilC7AFn7F0AYCBAGAY8X/QXdjB7OI4SM5v6LI56M4/moCFCQAOxqC/nVhLPferNX0X11RX2LN8EQFghQQAALBCAgAAWCEBAACskKWAx3vN0gU46pMaVvxjna5v78yp//EMMoV9RwAw3sOWLsBR76ouWboQLOam6qeXLsRRP5QAAPYdXQAAsEICAABYIQEAAKyQAAAAVkgAAAArJAAAgBUSAADACgkAAGCFBAAAsEICAABYIQEAAKyQAAAAVkgAAAArJAAAgBUSAADACgkAAGCFBAAAsEICAABYIQEAAKyQAAAAVkgAAAArJAAAgBUSAADACgkAAGCFBAAAsEICAABYIQEAAKyQAAAAVkgAAAArJAAAgBUSAADACgkAAGCFBAAAsEICAABYIQEAAKyQAAAAVkgAAAArJAAAgBUSAADACgkAAGCFBAAAsEICAABYIQEAAKyQAAAAVkgAAAArJAAAgBUSAADACgkAAGCFBAAAsEICAABYIQEAAKyQAAAAVkgAAAArJAAAgBUSAADACgkAAGCFBAAAsEICAABYIQEAAKyQAAAAVkgAAAArJAAAgBUSAADACgkAAGCFBAAAsEICAABYIQEAAKyQAAAAVkgAAAArJAAAgBUSAADACgkAAGCFBAAAsEICAABYIQEAAKyQAAAAVkgAAAArJAAAgBUSAADACgkAAGCFBAAAsEICAABYIQEAAKyQAAAAVkgAAAArJAAAgBU6a+kC7ENPWboAR91u6QLswmdWtyxdiOqypQuwC+e0d+7Fc5YuwC5cXp23dCEavhP71e3aO/ciIwgAxnvG0gU4AD73aGJzt8m9OIXHH01s7oLci/uSLgAAWCEBAACskAAAAFZIAAAAKyQA2Buj0bdhznq6hnv73HuN67h7ruHuraWeJyUAqPcsXYAtuLG6esbzr+EaVr17xnN/qLpmxvPvFe9vqOtc3Iu7d3V104zn3yvetXQBliYAqJcuXYAt+N3mjXZfPuO595K575U13Isv2+fn3yvmrOctDc+Mg24t9wqn8EnVzdWRA5weM9nVOrkXLFi/baSXTHepTuoR1eGF6reNdLh6+GRX6+ReulD9tpWeN92lOqnLF6zfNtLN1SdOdrXY17615W/IudL3TXidTuUu1Vu3VKdtpyuqu093qU7pO7dUpyXSUye8Tqdyj+odW6rTttNbqztPd6lO6fu3VKdtp8MNz3z4//5Z9c6WvzmnSldV3zTpFTq9O1fPnaDseym9sLrblBdpB76meu8EZd8r6b3VV096hU7v0upFE5R9r6TD1a9VF095kXbgXzaMCVi6/lOld1ZfNukV2sfOWLoAe8xtqkdXn9Dwi3Y/uqp6c/U7zTvY6lTu3dDtcGl17kJl2I0bGh4Ur6jeuFAZbls9trp/23/oT+XK6q8a+lo/vFAZ7l89qiGIu81CZdiN6xveZry84df/Es6rPru6b3XRQmXYrfdWb2i4jjcsXBYAAAAAAAAAAAAAAAAAAAAAAAAAAAAAAAAAAAAAAAAAAAAAAAAAAAAAAAAAAAAAAAAAAAAAAAAAAAAAAAAAAAAAAAAAAAAAAAAAAAAAAAAAAAAAAAAAAAAAAAAAAAAAAAAAAAAAAAAAAAAAAAAAAAAAAAAAAAAAAAAAAAAAAAAAAAAAAAAAAAAAAAAAAAAAAAAAAAAAAAAAAAAAAAAAAAAAAAAAAAAAAAAAAAAAAAAAAAAAAAAAAAAAAAAAAAAAAAAAAAAAAAAAAAAAAAAAAAAA2K7/B3TL0yEJiV6+AAAAAElFTkSuQmCC;" parent="1" vertex="1">
          <mxGeometry x="167" y="247.42" width="82" height="82" as="geometry" />
        </mxCell>
        <mxCell id="JgDv4yjVZVKhBUE-g2lu-64" value="BI &amp;amp; Reporting" style="text;html=1;align=center;verticalAlign=middle;whiteSpace=wrap;rounded=0;" parent="1" vertex="1">
          <mxGeometry x="168.5" y="329.42" width="81" height="30" as="geometry" />
        </mxCell>
        <mxCell id="JgDv4yjVZVKhBUE-g2lu-65" value="Ad-Hoc SQL Queries" style="text;html=1;align=center;verticalAlign=middle;whiteSpace=wrap;rounded=0;" parent="1" vertex="1">
          <mxGeometry x="170.5" y="490" width="79" height="30" as="geometry" />
        </mxCell>
        <mxCell id="JgDv4yjVZVKhBUE-g2lu-66" value="Machine Learning" style="text;html=1;align=center;verticalAlign=middle;whiteSpace=wrap;rounded=0;" parent="1" vertex="1">
          <mxGeometry x="158" y="630" width="100" height="30" as="geometry" />
        </mxCell>
        <mxCell id="JgDv4yjVZVKhBUE-g2lu-70" value="&lt;b&gt;&lt;font style=&quot;font-size: 24px;&quot;&gt;High-Level Data Architecture&lt;/font&gt;&lt;/b&gt;" style="text;html=1;align=left;verticalAlign=middle;whiteSpace=wrap;rounded=0;" parent="1" vertex="1">
          <mxGeometry x="-812" y="40" width="480" height="30" as="geometry" />
        </mxCell>
        <mxCell id="JgDv4yjVZVKhBUE-g2lu-72" value="" style="shape=image;verticalLabelPosition=bottom;labelBackgroundColor=default;verticalAlign=top;aspect=fixed;imageAspect=0;image=data:image/png,iVBORw0KGgoAAAANSUhEUgAAAgAAAAIACAYAAAD0eNT6AAAABHNCSVQICAgIfAhkiAAAAAlwSFlzAAAOxAAADsQBlSsOGwAAABl0RVh0U29mdHdhcmUAd3d3Lmlua3NjYXBlLm9yZ5vuPBoAACAASURBVHic7N15YFTV2Qbw5zl3JgnIFggJq+wgRFBkTcgyQAg7shh3bV2pba12tf2qLa1dbGs3bbXWutQVCYKAskMCJOybQgANi4iKohRBhSwz9/3+mCUzk5mQhISwvL+W5M6de889d9rMee9ZAaWUUkoppZRSSimllFJKKaWUUkoppZRSSimllFJKKaWUUkoppZRSSimllFJKKaWUUkoppZRSSimllFJKKaWUUkoppZRSSimllFJKKaWUUkoppZRSSimllFJKKaWUUkoppZRSSimllFJKKaWUUkoppZRSSimllFJKKaWUUkoppZRSSimllFJKKaWUUkoppZRSSimllFJKKaWUUkoppZRSSimllFJKKaWUUkoppZRSSimllFJKKaWUUkoppZRSSimllFJKKaWUUkoppZRSSimllFJKKaWUUkoppZRSSimllFJKKaWUUkopdZ44dOhQo08//fSeL774Ir6h86KUqszR0BlQSl1YPv744wSPyB0WeZ9tS9vS0tKvALzY0PlSSoXSAEApVSfef//9LqR1v8fjuZM0jQUAKRDhFGgAoNQ5hw2dAaXU+a24uPgqy3LebwxuIOkgDWgIQ4I0MIanALRu06bN1w2dV6VUBa0BUErVmIiwuLh4JMn7SDNBYEPEAPA+9UMIIUAIRNjIGI4GMKdhc62UCqYBgFKq2oqKimJIXv/ee+/9BGAy6KtGFEAoIAiRiEHAFGgAoNQ5RZsAlFKnVVxc3KykpOQ2GvMjQ9OBpK+aP7S6P9q2MTx+9GhSYnIyyxr6XpRSXloDoJSKauvWrZ0sy7r/5KlTdxqaJsFP+oFtIfwd/oKf+sNqAJq3bv1ZFoCFDX1PSikvDQCUUpVs2LC9p8Ph+RnAm2yB0wAQCECCkYIAX9U/KIDNTWJkISm/gJD+IMC25WZoAKDUOUObAJRSARs3bkwW4QPG8AYaOgwNQqr7w7aNCVT37zJkLoBXunXr9h4AHDp0qJBkKiuOPWlZVpvWrVt/2cC3qZSC1gAopQCsX7++n23jR7YtN5KwBBVP+kC0p37ssm3mGmPP7Nm9154Iyc4UQSq8x0KEjW3bngLghbN7d0qpSLQGQKmLWH5+YYpx4EFDjjUkaYyv4x4RcdvwS8uYl0XkX5dffvnbVaV94MCBNg6H40PSWEEdApe2aZM0+mzdn1IqOg0AlLoIrVq1qq8IH6JhToRC3ttzP6i63xjugTHPG+Df/fr1O1bd6xw6dGg5yZFBowJsh8NxaUJCwkf1eX9KqdPTJgClLiIrV65MFsGvPbZMIf0d9+kbyy/ebQEAgZAlBsgl8a8rr7xybS0v+aoIRnovBAhoPB7PdQD+Ulf3pJSqHa0BUOoisHDhim6WQ2YY8kYaGuN74id9VfOh20cMzd8B+6khQ4YcPZPr7vnss6aXlJR8RJqmQc0AO9u0SepbV/emlKodDQCUuoAtXLiwg9D6sUVMpzGxwQV+hKr/9w2tv8XEOJ4eOHDgybrKwwcfHPqHMfxO6ORAHJaUlFTbWgWlVB3QJgClLkALFy5s5rbxf7bgPgOJ81bte8fxe4fre6v7AcBADgL4dXlZ+QvDhw9313VeROwnRKxvk96ZgbyTBmE6AA0AlGpAWgOg1AVk1qxZVmxso7tA/MrQJHo79EWdsvcwLfPbxISEp5OTk+t1it5Dhw6tJM3woDyciouLbd+iRYtqdyhUStUt09AZUErVjdmz3xjtcMS8bYv9JASJAoF3ej7fLH4iEO/2KYj9cHl5WY/hmZn/rO/C3+efvl6A8OWoUVlZ2S1n4bpKqSi0BkCp89zs2bOTRfgoDcf4n/SjPPULwZmWxZ+OGjXqg7OZRxGxPvzww3eMMX2CaiCKkpKSLj+b+VBKVdAAQKnz1HPPzW3RqFHZb2nM3aRxmLCCP2z7PcvwW2PGjMlrqPweOnRoKmle9+fTt0pgemJiYkFD5Umpi5k2ASh1HnrllVduiI0r3S3AtyFwAAIRfxV7SNV/GQQPN24Ud0VDFv4A0KFDh7mAbJKKZgCI4P6GzJNSFzOtAVDqPPLsyy93ddryTxozxvcEXdVTv3/7sGVYIMYUOsiC7OzsraR3up+z7YMPPs62LFkS1AzgAdArKSlpX0PkR6mLmQYASp0HnnrqKWdcXOMfg3iQNI2iTdlbRRAQvH3EMtwo5CaHMZvLy8s3jx49+sjZupePPvpoMcnRQasEPpaYmHjf2bq+UspLAwClznHPPPNMGo31L5LJp3/qNzDkcRo2P11AEDwk0DL8AOTbNKbIIneQ3HX8+PHd48aNK63r+zl48GBXh8O5g4aNfXn4KibG2TE+Pv6Lur6WUio6DQCUOkf95S+zGjVt+uUjNLyXNAx56q/6Sf9tiOMm45R0IxxtLDOSZNPTTP8bPkcAaIybNAcNsRfG2mdR9hpj9oo4PgLKD+/fv//Itdde66nNvX388cffA/h3/7UA64GkpIQ/1vFHqJSqggYASp2DnnzyP/2NZb9EWn181eQh1f1B22WkiakcEOCFaVOnfgMAnnpqs7Nt2yOplsXRJEbTmP4kGT0IiDpVsDf9im2b5BEafkqYj4zBEdL6iDSfGiNHHA7HlyJyCsAJkl+KxJ1yOt1fXXrppScA2IcPH55Lmqt9QcCHrVu37kqyvGE/eaUuHhoAKHUOmTVrlnX06LEfg/gVaWIqP/UHCuPFhviNMSYWNEtJY4Ufa2junzLl6r+HX2PJkiWJts1sY5nRhhhOY9pXXStQ9VLBrGLbn+cIsxCWkqbcGDbxDwm0LPPNhISE/zbE567UxUgDAKXOEX/965OdY2LkBdCkV/HU/xksfuu2W2+d4z/v1Vdf+yWIGRGaBDykdc2UKRPfqOq6eXl5nT0epFmWGUYijcb0IStWDDxdrUAdBQQgTXHr1gm96R0ZoJSqZxoAKHUO+NvfHrvVWNbjJJsFCslKQYDZTNhTb7/99kPB586YMcP06NVnqWUwMkIQcBIww6dMmbixunlZs2ZNvIik0pg0Q6bRmIGkiatcyFermSB6EBAhIDDG3JKQkPBS3X/CSqlwGgAo1YBmzHgurnnzE/+iMd/wFogROul5C/PCRnGx426++eYTkdJ55ZVXkmg5NhuyQ4Qg4KjDYVwTJkzYWZs8Lly4MDY+Pn6gMY5UEgNo2J803Y23Z2LVBX7kJ/2qagX2JCQkXK61AErVPw0AlGogf/7znzsC1us0HBTxqbhie1eM0xp22223VTlMbubMmYNAs9rQxEUYLfCJw2Eyx48f/15d5L2goKBpXFyTK4xBf2PxCkOTTPIyGraoRdU/gqcHJnFj69atX62LfCqlotMAQKkG8Oijj2bYMLMMmRT9qd+A5JeG0n/69OnVminvtddeuxk0L0YZ93/I4bCGjxs3rt5m3duzZ087j8fT2xjTm2QPkp2MsS4lzaU0aFXNgGBXQkKrviTt+sqnUkoDAKXOukce+eN3aMxfjTFO+trQ/UFApWYAmjvuuefuZ2uS/mu5uX8i+KMocwR87LDMqHHjxu2qr/uL5uOPP25cXl7eGUBLAPGWZcWLmHhjcJsxvCKsL8D1rVq1eu1s51Gpi4kGAEqdJY899ljsVydP/ZPgHabyk36k7fXfvmd6ak3n7Z8xY4bp3bvvy8bC9VGCgGOGGDt+/PgN9XWv1bF37yeJsXHuJww5LbwZwLLM/pYtW/YmWdaQeVTqQqarASp1FghAZ/G7NzU+/sVYAN6V++BdtC94O7BOngA25Ue1WbRnxowZNun5BkQWSeRVAuMFXLJo0aKRdXJztXDw4MGcmJiynRBMC1oZMLBKoG1L16NHj97dUPlT6mKgNQBKnUVLXcMGfhV3ycPHOnfud6xTl3bijI1c9W9M4b3f/XbamVxr4cKFsSdPnsqlMROjTBtcboh7xo4d+0xd3d/pFBcXd7Acjj8bmmsj9AWwSWMq+gLwM5LdW7VqFXHkg1LqzGgAoNRZNisnx2r+0YGfgvj5V4lt5ItLuzb+sl172DFxFQUi+LllWQVCbjIwKxMSmm+qzbz7Tz31lDMhIfEZGt4Sde0A8JENG9b9fMaMGfXW6a64uLgZyAcMeT9pGkcYEviuiH29w+H4L2n6BfUF+G3Lli0frK98KXUx0wBAqQayNPXKKw2sl0QkWUiUtGqNL9u2x9dt26O0VSJgTHBA8Jmx8JzT4Xjq9ttv31/Ta70+d97PDPEb7wx/EUcILLQsc2tWVtbRurzHzZs3O5s2bXo3yF8amtYRnvqFtP7TuHHcj1q1anXi8OHDg40xa0lavn4BJ0WkZ0JCwkd1mS+llAYASjWohWO7xzpPNP8NBT9AUJ8ccTpxqlUCShKSUNI6EaWt28DTqDGMoU2a1x0Wf3Lbbbe9X5Nrvf7GG1kWzPM0bB9l3v+DlmWuHTlyZLVnDYwmLy/PkZiYeB2N+YWh6RlpoiDC7DAG3+/UqdOK4HM/+eTI32hwn6noEPhsfHz8HWeaJ6VUKA0AlDoHLE/tnyIwL5DoHvpHycAfqbtxY5S2ao3SpLYoTWxbWp6Y+Gipbf9u+vTpJ8PTmzVrViMALW2HI94p0lLEtDQOxlPYwxjzAxrGhtUA+AOCMkP8X0FBwV9r0yRQVFTUxO227zCG36dhp4r0QyYHOkjiF126dHkp0lj/I0eONBHBFhr29AUBHssyg1u0aLG1pvlRSkWnAYBS54hlAwY0Z5w8Q3AaEFT0B/2VBv/BitOBsviEUnfz+EOlbdq5y9t2MO6WLZvQWC0NWTEbYNjUvNH6AoRNyFPocFi3ZWZmFlcn7+t37EiKddv3kriHhi2jTA/8maH1O8B+skePHqVVpXfkyJErAawjTZxveOCG+Pj4VJ0cSKm6owGAUueYlWmD7obI4yBi/Psq/aEyuG6ggsQ4Ud4qEe7WiShPbAtPYht4WiWAxopc4AeaASIFBOYkgIeaNWvy+MCBA8srXUuEmzZtyqBl3WHAHJJxURYFescy5vHGjRu/3LFjx1PV/RyOHDnyHZL/CCxvbMxdLVq0+E/1P0mlVFU0AFDqHLQybcAQgK8B6BTyR0ocJWgBaBGyO8JfMn0/JS4O5YlJ8LRuA7fvN1olAA4HIvUFCOsXAJJ7LMv8OD09/U0AKCgoaGeM4xvG4m2k6RFllUAPyXmA9Xjfvr3za/s5HPn881wDXOMLAj63LOuyZs2a1WlHRaUuVhoAKHWOWpyS0jLWKn8ZwBjvXypB4GMSORmrN61fm5qa4HaUd6ewj1B6ARgMYAiBWF8VQUD4H7pYFuyE1vAktoGd2BZ2YltImzZgo8ZRAwJjzDLSlJAYS2MckZcCtjaT8iqA16688soz7rl/9OjRZrbIRkP2Ig1g+O+WLVpMP9N0lVIaACh1TpuVk2MlfHLgTwb8ftDuMgi+7yrY9ET48WtTUhqVOz0pMBhBwTUEeoUcENKtILy7IWC3aAFpnQS7dRLQOgmS2AZIbAPGxFRVQ3DYGD5pWdbM/v37V6vPQE0cPXq0jwg2GMMmJG1jzNDmzZtvquvrKHWx0QBAqfNAftqg20A8CSDWX90vxH+afGV/e+CWLZXa5/1Wpw+9CvTcQMNbACRFLPijfAv4dwstIL4FkNQWSEwCEtsBSW1hktqATqdvBj/ON4bPiMiSSP0FztTRo0dzAL5mDElya/PmzYeQdNf1dZS6mGgAoNR5YnX6wGFCzgGQ6N9HcGlMKXOGbthQ5XS5hZmDU4QsRNDffPR+A76tKpoQAACGQKvWMEltgaS2YJt2sNq0PWYlJs6CM/alK6+8sqDaN1cNR48efZQ0PzSGAPDzFi1a/K4u01fqYqMBgFLnkTVpg7rahksIdAfg+wuWHR6accPzN3xY1bkFrqHPA/KNKgt+Vm4WiHRw5f1BoYNlga0TYeJbHbPf3/cUSk5us0X2tIpp+W6PRYuqHP5XFRFxHDt2bBlJF40ptYwZ0LRp06LapqfUxU4DAKXOM4WpqYlup/stAgOBwB/xQVs4KnP1hqht8AWjhrWj270XQCP/PgIg5AGbPAwiETbbkWwNIImQtvDWNiSCkSoMGLpVxbeJ7y0PnDGfOrr1aGHatCl3tO0oVtv24mzb4YQjvsWXpCk1hscBuC3LOg5jygzwtX+hJN9iSYkkJ/s6H25q1rRpqjYFKFU7GgAodR5akt3vksaljXIBGRvYSXwKYnR63sa3o51XOHzwnwH+IPSJn4+mrlz342jnFOUkx5w81riDG1ZXwnQl7K4CdoWNdjRoC6Br+DmR5i0Ifyf4GDa+BFbrRDjadYSzfUc4k5LgaH8pnO07wLKs4AmK4J8XwLeK4s+aNWv2SLS8K6Wi0wBAqfNUUXJyzP8SGv8X5PWBzn2C/xH2mGGrNkXsJV+YnZrIcvsgiDj/PgIfDc1YfylnoFaz7BVmpyY6RfrCZjJoXw5wAIi+AJzRCvyIIvQ5YEwsnO3aw9m2vTcwaN8Rse07IqZdR1ixMSBZSvKqpk2b7qpN3pW6mGkAoNR5bFZOjtXus4P/BXiTfx+JL2wgKz1vw5ZI56wdPvR5EN8IeQKnjBi6YkNeXeVrbUpKI0dT9KeNwaTJEIgLQHzFBUN+VUOlI8XRrPkXjpatjjKu0e6S3TvnENxpx5XsGrhgS6W1EZRSlWkAoNR5blZOjtX+8w+eg+CWoL/o/9FjslJXr9sWfnzhyNRBRuyKFf8IUPD00JXr766vPMoMmK1r0/oDMkIgEwGkArBCj4pSW1CzbykbwAEBdhrBLhjugGBXbLNju5Nzi8pqmX2lLkgaACh1AZAZMOtWDX1WIN8AAn/YR41BxtAVGypVj68bMXQDiMFBfQGONY0/0eZsFZJbx6a39njsSQQeJtAWQZmuiRqc4gZYDKKItr1TgCIbsvPLsti9w/PztROhuihpAKDUBUJmwKxdNeQlAjcEjdX7wLaslLRlhR8HH7shK+VWEflvaMM7Jw9dvnbe2cjrltEp3UHzTwiyox1T7S+n2nyLSWCrDMBuQHaR3CFAEeF5p//i9e/XIlWlzisaACh1ASnKSY45frTZAkCyAd8wP8p2xCBz6KKKyYLyXK64RlbpYQAtgobwvThk+bpb6zN/eS5XXLM4908h8gAQ0hERAMoFfJ6QuwL7iVkCfkLYcQI0BYwTkBYg4iFoJWArAzStaT6kilc+/wNkm4DbjHCb7XFv2xff8b1rc3M9Nb2WUucqDQCUusDkuVxN4kzJCngXB/JWBpBLHcfKJgRPG7xhZOpLoNwUdOrRg/EdkuqrkNsyJmU0xPwjMIlRMHKtZdvT/1cWs7d5XLlvyWCC4G39F695vqp0Nw8Y4ERC4wRj2e1hox3BDgK0NUAnAbqB6AZBUk3zK5W3vgbwjtiyDcRmC9x4RUrh7tqOnlCqoWkAoNQFaLNrQEK5ca4BcVlgTn/wv0NXrLuNvhJtfVbqNEJmA0Hz/lsmY8iSwjV1mZeN41xtnJ7yvwtwbWBnRaa+APCz/imF//YXpNvGpB0H0Mz3/m/7Lyl48EzzUORyNSmNdXcj0RMGyRAkA0gG0AMCR03SkqCfAE4AskmEG0hscJa7N/RdseHTM82vUmeDBgBKXaDWulK6G0s2AGwZ2Gnw8NBl634BAG9n97uk1L7kM/hnBiRB4I+Dlq19oK7ysHV06jSA/wKRULGXIAARvua2rPsHL8z/JPicbWPSiwHp7p3WgK9dtWjN9XWVn3BFOckx7hMtL7cNBpAygIIBAvQDEBMo4iO2EFSQ8IMEBwGsF2C9wKze36zN29p0oM5FGgAodQFblzU0i8JFBByBsfeU2wYvW/88AGzMSp0HyiR/oQxg96Bla/uc6XU3Zw1obqy4x0D4+hQw6KEfh0CZftWiwkWRzt0+Jq0QRKrv5ZYrFxUMPNP81ERRTnJM+ZfxgwG4aJApglQAjYGgYr6KoCAkIPD+OgFBAcjVFM8az9GyTVWt4KjU2aIBgFIXuI0jU78nlL/7XxMosY2dNnTphi0bRg27k5Cng78IjJEeA5as21vb620bk+YSyPMEO4W9JQSedbvjfjhw+fLj0c7fPjZtLoDJvpfHr1xU0KK2eakLRTnJMWVftRwEiItAJrxzGFwCnD4giBAMAMBJIdbDltUE8o6XxazVoYiqIWgAoNRFYENWyjMEbgfgmzGYB63ymIF0lLS2aQLzBPhW/PnewKVrH6/pNfJcrrjmjdy/oeD7AEzIm8RhCm+7cvGaJadLZ/vYjKdICUxK5BEkXrVozWc1zU992TxggNPRutEPQTwMhPYfkMCPyiS0mSB48wQgK0EudtjW0iuWrj5Q55lWKoIadX5RSp2frEZl99olMUMAJAOEATrZzrKX3m/RcXyXLz46BiI+6GlgBIAaBQBbRqd0N3TPhuCKwE7/VATEW7bwtv6Lq1mI0z4S/GzisEx3AOdEALBtQprL8vCXArjCinQAoasihgcD/kYQAQBW1AoQaAZwsggmu+nB5tHD3jPCxR6RJYwrydepjVV90RoApS4Sm7JTLxfBRgYtByyUH1vACAErVhUEv9jfvF1CdTuubRubPhkizwNo7j098MVSRuIn/RYWPMbTdqWrsGNc2vcEDGqykFv7Lix4sbrn14cdE9Jcts1fAciIeIC3tN8skIMAp0V+O9JplZoHwg8roWClB5hjWWb+uVQTos5/5vSHKKUuBIOWrt1pwB/4X5OAAX8L0tchjd7/EC26nPhwwOnSkxkw28ek/R4ic0A0J71p+gr/TyEYecXCgr/XpPAHAJs84p3ByPvPNqZbTc6vSzsnpF3xzvj0RWIzj0BGULYCBLIMgqwrFhUMAs0J/5M+wZ8L8SsIFhM4xvATEfjEQxINOyxOiHGG+I/tsQ9vHjUsb3N26r0bszM61ttNq4uGNgEodREZuKzwX5tGp46lYJJvV4wIJwRXXQMAxRoBYGPlFLzezs6+ZPv6ky+CmBKhGnGL5TFT+i5dfahWmbR5hEYCGaJEmDionm0b4+rssORhEftGAkbCb1IgBOaB8psr3ioIrLpogCFCb8FuyLlXvLVmt/dw8J0xw3rCcDCBdAEyRNDLf16geSC0acC/6T2GsAC4BHQZuP++OTt1EyBzScw+k06b6uKlAYBSFxnL5j02JRNAc3if+ENqAn3TB48E8Eik87dPSGnv8Zycb4Crwt8z5FtfXeLOSc0tOFXrDBpzBEGT60mkmQPrSfHYIc1KrLgHIfZ9AGICQUhQbgRYTNgP9V1YuDn43M1ZWc2B0sv8r8tt+dy/TUCwuPBdAO8CeBEAisa52pSjPENsZkAwAkTvaIGABCVE7wEU70yPg0Xw+03ZqetIvhDj4Gv93io4VpefibpwaR8ApS5CW7LT7gbkqcpV0oGNr+3PSuLDx6tvH5fWk4JlAlwaeh5ByqyyT0/dfKZj3N+ekppolTuCZ9M7evmbqxOinlAHZAbMzk0Z3yTxOyB02uCK9nvJN8Z6KHlBfkGkNN4Zn5YF4TLfS0/fwWtiajJN8NZxqZ2MzTEiHANipHftg9A+AiFtKVJ5EiIBSiBcYGi/cKIsdrEOL1RV0QBAqYuQANyanZoHMhMIKfh9vwhjMPSKhQUb/G9tH5vRH7AXA0isOJy+x1s8994lbe6qixnvZuXkWH1OfVqGoD5Kttgt6+vJdsf4jFRDPiaQaP0e9gjtH/ddUPBmlelMyJghIr/0vpJP+71V0Ka2eSrKSY5xf9UqzRbPGAHHANI3YhAAQMJ6GAa9/BQir3jEfn7oig3v1DYv6sKlAYBSF6lNY4b1MoIdBJwAAmPYKoIB+XH/RYWPAsC28RmptO2F8PX0D3RcA0Dh3D1NknLqcrrbogkZRwC09r8WcvDlC1Ztqqv0AeCd8WnxDsv6gwjuREgtf6AwPQrIjFOHTz5VnVqNHePT8wC6AICw11z+VkHkEQO18PZYVwcbZWNFOAaCLADNTlsbEBoprBXyMXO0ZI7OQqj8dBSAUhepQYsL3yXxL3+3cwYX/gAAkw4AW8cNG+gv/L1V/RWFvwBrv2pSflOdz3VPHkFgWAGBOu4HsHtixo0OY+2G4C6GPwiRbiH+VuYw3ZPfXPOP6hSYB1yuOJBDK/aY3XWZ3ysW5X/Yf9Hap69aXDitqWmWKMJJRvASAO8Sz4GbqLiVsFEHqRSZabeMfX9jduqDhdmpiVAXPe0EqNRFzHY6f23Kym8hGTLdrrfMlbSto9OusISLBdI8+KkfAAxQ7IiNmXRl7prad/iL7giAZP/lyLoJAHZPdnUWkadEkA0g8MAcdFvrxcN7Ll+4antN0j3V2B5MIC4oMNpV9Rm112PRolIACwAsyHO54lrElo0W8FohJhJoKlLRbZDwzr8cdJ/tRPCwE/LgpqyU12yax4csC+3MqC4eWgOg1EVs4IL8z2nw28COwAM3AKClMVgNoFXwU7/vwbJMKDf0nrviaH3ki+CRsH4JZxQACMA9k1zfgi3vUJAdGM9fMbD/mJD39B6waljywvwaFf4A4DEYEbLDsN4CgGDD8/NL+i9ZO++qJYU3lTazk0BOJTgT4Nf+YyoN8fT+jBXiVoq9aUNWytp1o4ZOkvCaEHXB0xoApS5yTdDs8a/w5f0k2oe/R7JZyOvAhvyiX9D497pGI0ck9Om81gHArnEjOu1x2P8BkBWpjCNkthuO7/adv+JTzK/dNQwxJrSTnuOsd7pLzV13CsBcAHPX5qQ0ch7neANcL8BEAjFhNQEQEKCAghQjnLcxK2XbBsGvB69YN6+mkzep85NGfEopbB+T/n1Q/uJ/HV7dH/JFQazuO2jN8JoMcaupPZNcDwrk4Yqry5He81clVXlSxHSG3w7afwVCAxmfz0F+57I38madSV7fnehKcEM+RaBGVfYmL1jd40zSrEubXa4EiSm/hWLfKWSfytMOS1AnQgAib5P49aDl6+dqIHBh0wBAKYW3s7MvEevk+wASohb+sp74SQAAIABJREFUFU0ANsB1AiywLPN68vz8Op+FbvfVrukQ/AuoaJKwyho177Fo0YnqnL8vJ6u5u9TzpFBuiPQ+BW8KnNMvm7/s4zPNa9Ek180UeREIlJbPJS9YdfuZplsftmSnDbBh3w3BjQCaAP5hg+FjCAARFJH448H4Di/XeSdPdU7QPgBKKVyxdOnXAB8/feFPADQAhhF4RGz7vZ0TMjbsHJ/xwK4JGXX21GsgRyoGAHiVO0qr1Qzw7tWZ6eVl5e+AckPw3P3ef3ICgpt7zc+fWBeFvzevGBPaP4Jr6yLd+jBgacGWQUvXTi9txHYgpsM/3TPDxxAAJJJF8N+ORz/cvnZkypizn1tV37QGQCkFACgandLSbTk+AhAXVuUfeYhZGG9nM+4AOceGZ07f+Wtq3Q6+Z9LwYaAEZtzz9mbndVVV10tOjvVe+dGHAHkQgBXhkI0GvLHHGyv31TZf4YpykmOs0oRPBWjhf3q2hL17LcjfU1fXqG9bRg7p5zGOuwGZDhEHUKkmwIuy0Db8YerSdefNvamqaQCglArYPj79JSO4CUBIr/+qCn+G/gg+ei8Ec8Qyc/rMy9tYk/bkXRMyeliWeS/k0sKf95qX97tIxxfnpLeWcutlgKMivC0A/nQi8cSDA/9dt5Pg7Jo0fDwhb1ZcBh9fNn9Vh/Oh7bzI5WrytaM8m5QJACYI0LpSfwAgfJKhcht8wlNq/Sq9QNccON/pKAClVICx8TSImyIW/pVmzAk89Ye+rnjRHcRPjNg/2TMp88PdNHMp9txesYmreZo25dhGMUfc5e6QFGkijwQonjIyRcrtWQA6RMjI5xTe1OONlUurul5tWZRrBP6nZIKChedy4b8xO6OjgXuCgJNOocxFIC7KyICQBYgggQ2ngdzHGPfN60cO+eUpT6OndL2B85fWACilAgTgjgnpuyHoFTIvYFjhX9E3IELhz7DX4QGE4DMA80nOMWVxK3wT21Ty3uThJQBig3K3pucb+SHT6743dcS9EHmUQEyEJLZY5LSuc1YejHy3Z6YoJyfGKvvsEwDx/n02ZGqfeavm1sf1amtTVlpXY9nXgMyBYGD4tMHBSwkEjQQIfY2gpgDvioj+N3cZ2PcOWblxZb3dgKo3WgOglAogIDuA/wIMVLVHrvKP+tRfueAPT4NoDeAOQO6wY08d3zM58y0DM6eJp8midgsWnAw68jMAHYIii0ANQFFOTkyM5/MnIHJHlFt5ztFcvt3l+byS6Hd7ZqzSz8eQiA8qJEuNuJfX1/VqYsvolO6kdQ0o18CWAQCD2vIR8oQfND1A2MM+dgE4CiA94nHeHX1smOXrRgz9D2PlR0MXbajWKA11btAaAKVUiLfHDOtlLGsPEFZwC58npRXIEQAuAU7/1B+9s2DYcd4Xp0BZTMEcB/BmObmCwFXBOTj5tbNp4+anGtPtfF18BVNYmmUU3Ndt7sp/1eima+HdycPfAORqf6loA8t7z8uP1AfhrNiRndHRY9k3CuQ6CPv790tQo37lJ/qQxYPKQK4mZIHY5s3SxvJZzEn7bQG6hJ4TSDUkQVtwiIZ3p65Yt7iu703VDw0AlFKV7BifsYtE7+B9BG9PfnPVc0U5yTE4lZhOY4+GYAyIvt73K34CVXUWjHQ0woOIMgBuAI1D9gpvoZGHAXSulGnimNBM7TF7eX41b7PWdk1Nb+uwHR9IoBZVQBv39JyfX++BR7DNWVnNHc6SaRTcLEQmfEO7g1cCDJ7sp+J1YNdnABYJZIHH8iwNfoLfNCrlSRF8K+icVQAGiaBxVc0HAnm+zC79/vD87V/U7d2quqZNAEqpSoyRuSIMBAAEAIM2AJCcW1QGFK0AsALAT4qnujqUl9ujQTOGQBaI0IWFQjZOW/D7xQCMAcKbD+SFyocCAPYZI+O75i5/t/p3WXtOj3WrEI6KanGWi8jss3HtzQMGOJ2JjcaQuFlQOgmgdxGioFKfrHgZVq0PADtJvEmxFxQ377Ah0iQ/m7KHjRKR6UFtBe+edMeOcTrLWzpFfiXAbYBYkZoPCH4zlrHZa0YM/Vb6yvUL6udTUHVBawCUUpUUjUsbIsasB4La/IV/T34z//6qzstzuRzt4jFUbIwBMIaQ/iB9E46xOgW/97gqvpkqvUUUumPsyb1ezf+8qrzVFZkxwxS/vXoPID2CHnvf6jkvb0J9XvftMcN6GYfjDoH9DQgSIz/RB1XpV7xZBjDfFnuBoefN/ovXv1/VddaPHdLMcls7AFzqmyVQYOgavHTtav8xG4cPS7aN/QdAxkfrROgLOl6KNe7vDly+5Xjt71zVF60BUEpVcuSkY0vrJvZXBJoESmN6awCq4hsSVuD79+DeKdmJbinLBjjWAKMAtPalVaOCP1Lg4OMWyDxnqbkEwFkJAPZuWz2eRnoAvo5wAEh5tT6utTYnpVHTkphrALkTNtIhwghP9L5MABT6g4CThCwS4RyPJ+6tgcuXV7sAttzmLwAuDdr1dHDhDwCD8wqLAExYP3LIcAgfA3B5aJYIQiCCm0s9jtS1I1JuSF25bmONPwBVr7QGQCkVUdGE9GWgyfK/JmRVnwWrXbVNT2bMMO+9s2YAYY8hMAaCIQCsaAV/eAfD4HcifXEJsNVQZrlt++Uec/I/rG0+T6d4yoh8AJlBS+t9XWZJm+Tc/K/q6hq7r87oKx5Mt4GbAG+TSminu9BOeL5fx4V4Ex57jttZsnjggi0nUUObR6eOF8EC74QAAICPHeUxyf3z86O2528eMMBZ3tz5AwC/ANC4Ui2AV7kI/m9Y/oY/n8vzJFxsNABQSkVUNDHzFwB+BQSe7PYkL1jVu+qzqu/g+LT4sjjnKNhmNCHXgGjmvxZCNrwvon5ZVe5saAskj4JnTppWryfn5pbVVZ73TR05SCAbgaBe9MQzPebk3Xmmaee5XI7EZjIFIt8BmAnfRSKPxQ+EACcofENsvGY1Pbrc2z+jdraOTW9tezw7ACT5ryPCaYOXF86pzvkbsgd3sd3mHwKMC85sWKfDt8TtvEVnETw3aACglIqoaGLGCIArggrko33mr0qo6+vsnTrimwCepr9JMmT+oehVA9X88vqEwNOwHU92nrPk8BllFMDeqcNnArzO/1oEMOTgbnNWbKptmkXjXG3okLsATIegPRA+FW+lIOAkgDdBzmzyFRd1yc+vk7kOtoweNk9EJvmvT+HcgcsKp9Y0nbUjUnIAeRxAUuQARvbZFqdmrNhQ67UiVN3QAEApFVHx2PTW5Q5zBID/m6K8z/xVkWbcq7V900b8VAS/Y1hZX6ngr1mhH3KcrwAqEeBZ2PLH2s4MWDxteLIRvg3ACirUtnafs3JAbdJ7d2LmIBu4H8Q18M1kWEWHujIAS0jMRJyZX5fNDQCwJTvtbkCeCiqujxthn6uWFdZqxcTV6emtHTHup2HbV0epwfhaRO5KX7WxXvpOqOrRAEApFdXuiZmfCpDo77QXd4KN6uKJU2bMMPveWf03AvcCCKn3J+ARQS6J6yN3FqzAqoYLRFYO4D+2Q37V9dUVn9bkxH3TRswFMNl7A4HC+u7uc1c+Xd00BGDxpOHjbMiP4R23X3lyHd+Bvl+bQL7gEMzstaB+RjlsG5XRwzaebQAuqWjW4D0DlxSe8ZwG61xD7xTKXwVoAl/SweMUbMrv0/M2/Vz7BTQMDQCUUlHtmpiZB8Ll/6JwWrFJ3ecuPXImaRaPHRtrGpe+CEEOgKCnewJAOcCbxcgNRnyFbYVyAM5aFPqRfAnBH6WJ+9Euz58+oDkwbfgQgVknAINK5/+VWHan6jyNF48dG+uJK7mJYv8Qwj7hpV3wrHwCHBIbL9kiL/Z9a/Xumt5YTeS5XI5mseUFAIYE8kEpGJCyNpMzYNfFNda6UroL7RcBDA1cA4A/4KEtr8d9bd86cEvNOy2qM2MaOgNKqXParopNQsTd9EwS25eT1ZxxJYshyAERmBzIV/iXkswxYq2xBCFj6gm6LUt6O8h+BO8HsBBAqT+JSv8Y9q/yMU1BPIyvHe+8n5M94rQZp/mdL9mK5gnKP05X+BePHdvs3cnDfyaxJQeM4BnA9IlSq1EC8GWKjOx91arOyW+u+r/6LvwBoEWsewZ9hT8AECiFyF11VfgDQGr+ur1l0ihdBI8i5Enf+ykIOe1UE2tVwbBh7erqmqp6tAZAKRXVrokZD5B8xPuKsAz693wjf3tt0tozaVQ7h8OziEC/sCp/ACgxlKmdZ69cdOCakT8DELQYEQHglc65y28KTq/4prHNYt1l40RwI8CxqOm8JsHT4BPPlzud9/d4eVGlxWz25wyfRDHzwua+P1ke4+kUbfKhopzRLWPcZfcB+J4ALSrPxe+tC7chu0g+7XHGvpCcu+R/Ncr/Gdo6Oi0LkCUATGA2P/KhqxYX/Ka+rrl2xOAc2+az8DUJhK1TcNBDz5jh+Vv21Nf1VSgNAJRSUe2e6PomKM/5vyosmMye81euPs1plRyY5rrMI2YxgU4RCv+vhebqbrOXrRCA708bWQyiW1BVv9i2XNn19RVRe40fyHG1cdB5qwDfQegkNhFI5QZn7479Arm5c+6Kdf7dH0+c2Lg09uQuAJ0Ch3mryR/vOnvl98KTKc5Jbw238wcEviOQQG1JWOe+U6CdC/DpXnPzC6rOa/3YMXJIUrnTuR2QNv4ymODG46WOYb7JnOrN6pFD+hgP5gDoFWE+g6M0Znx63voN9ZkH5aVNAEqpqAwk0FGOBDwGcTVNo3jKyBSPmAL6ClFfav7C/0uIjOs2e9kKAPjgmlEjwgp/AFhYVeEPAF1y8z/pOGvZHzseKe8G8gYQOyvV+4dc2/+fwC6A6Epw9fvXZv3Iv7s87tRDCMq3r8WiFDb+HJzi+1PT2+6bMvzPxuM8QOKnIJpGeL7aR8EPYiDtes1d9Y2GKvxlBozbGfMCUTGzI4GTHsqt9V34A0DGig27HI0wGIL5Ed5uJba9oiBz4Nj6zofSAEApVQU35ZPggszAY9Xk/OJpIyaSshxAKwDhw/m+oDC765yKGgUb9p3hnfwIPFLd6zE/333pa0tndrRbXAnhHRR8GN4vIDQgqBQIOCj40/vXZL1yMCd7gAA/qJQfwb/8Qwk/nDKy1f5pI//ooXMvyB/At0wyfNcDKBQsp81JPa7M7NljXt5fu7wRfVa9s2Hb+rSfAJIdslPkp4MWF56VhZQAYOiiDSeGDd8whZC/R3j7ElvMvPzMwTlnKz8XK20CUEpFtWdiRheh2Q94CzQxmNh7bv6b1Tl337Tht4vwKcC7al5Yb/+jtrFHd8/N2+I//sMpI1u5HfwIQKx/H4GCTrnL02ub/48nTmxsNyq9TygPAGge/n7E6XUr9rklqF+BeLuvn3Azprun9ERJbGzc98XGDwA0l6A6bG91Or4WyEtCPN7j9byi2ua/rm0bn5EKj70KvvsS70yGy/ovKhzdUEPxVmcO/j6BRxHUF8G3sJEbwDczV296uSHydTHQGgClVFQURxmAivWAPKzWd8Z7k0c8KML/oFLHPALAEQAjggt/ACg3vBWhhT+kBk//kbRbsOBkh1lLf++wHT0oqLRcb3BgguC6AO8vR/ATEkkI8A8nym6Ji4nbL4JfIRBUBI78lJD/c5SWdew+J+9b51Lh/874tHhj26+CQf+bCL+w4L69IcfhZ6za+FcA1wMIH47pAPDf/MxBt539XF0cNABQSkVlOR3lwa9Ju8omAMnJsYqnjnjCGDyM4PK1olw9bGy6IrXp0yAwn76v8H+nU+7yhWd6DwDQNnfRZx1mLcsBzU0kQnrb+5sHKl5Hn3bQgPeI4M8CJITd1wFQvhNjnerSbU7e7zu9dW7NdS8AbRvPSlgHSRr57hWLNtTbwknVlb5qYy7JUQDCm0csCv6Tlz74jNdaUJVpAKCUiupk2cmQAMCmifqdUTx2bOxe9+evQHBP5CPkkMBkdp67vNL49oPXjhoGoA9QUe4a8pG6fjLtOHPJK07afUgzv1L5zgib4WP2ifjQc2QnyG8cPOrp2W123hMdc9edqsv81pW3x6Z/F75ZDIPuZ27/RYXnTPV6Wv6GAhF7BICjYZ+7MZSn8tIH3dxgmbtAaQCglIoqxpKQXuG07YjfGQfHp8Uz7tQyANdGTkkOWMaZ2e31ZcWR37ZDn/AM9neUFrNqkeXTEof1FQVHwNAVB8KbA6KpGJwoj3TJXdmv6+zlL5yN3vO1tX1sRn8CfwrbfbisvOyuBslQFTJXb95mUbIAhM+vYAg8tzJ94LSGyNeFSgMApVRUtsM0CSkLxVRabrZ4qqtDaYxzjYDROusVi9uZ2Tl36YFIb+7LyWouYEjgQOGfmJvrqX3OIzt04+jBnnJsE4o34IgUBJxmu6JDBH988JoRv9589wBnXeezruyZNKwpKTMR1LcC3i52dw5ZsfFoQ+WrKsPyN20XsUbA21ckmMOAr6xMHzy+IfJ1IdIAQCkVFSWmaWjhJ6XBL4snDk8W4VoCyYFDQh+ed1soz+w+b+mhaNcwwI0AGgOBgvYTT+Py588w6yEkJ8f6+PrsBy2RAgA9wqr1Q4XXAkSvDLAEfLDl/1oU7Js2qkedZbYOlXjMkwB6huwk/t1/cWGd9K2oL5mr1+0wHkQKAmIMJHdFxqDUhsjXhUYDAKVUdGKHzP0vpqKn9rtTXGliYQ2AjlHOfgficHWes+ZwVZcgEFr9T/6tOgv0VNcnt2R3OWx9uQrEwwI4qyjQ99fyEoMJe+u+a7Km1vL8evHOuIzpFNwUtvs950nHjyKecI5JK9xURLHHAgifnrmRJbJgVcZVvRsiXxcSDQCUUlWQkADA4asBeHeyazKFS4GwTnF+xJZy4YjTrRx4MGf4AABXBe06XuZ0PHlmea5w+MbRt9oebgdlWFXZAHgzwDPpcNiEIrP3Tx35a5kxo8G/V3eMGzYQlSfZKRHa1yXnn371wnNFxpotW4VmMoCQmicBWoptFq9ISWnfQFm7IDT4/1GVUucwj7QNe13y3hTXtwDOBtAo8klcb3nsrN5zV5y2jdkW686Qfv7kE5EW5KmpgzeOj//ohtGvieC/EDQLGUxQsekG+ZcYT/nlEJkMSLczvCyF8tC+navnFt80ttkZplVrRaNTWgpMLkLb/SGCH/ZfuLZWCzk1JNeqDXkUuQlASJ8QAS61rPKFBcOGndEKlRczDQCUUtEZdgoun21YPxbBkwCs0FnbAla73SXZ1Znu9pNbsi8B5Mag+fdOeSw70tSwNXL4xtHDnVL+NiHXenMmvp8VBLKJsAd3eHXJD0uN4zYQ1wS9GdggZC6k0tj0KlEwyTpVmr9/0sikM72XmpIZMB6H4wUAnUMzxdz+iwueONv5qSsZaza/TsG3w/cL0K+Mpa/Oysmp0RTVyksDAKVUVCLoFPLwTLmhipH5q8ocMv6y+YVfViftkpP2dQAqnpRFnu366opPo59Rtc13D3B+dGP2DFtkuQAd/YV+yPS+gq9t8KftPS1S2s9cvu2D60cNBPin4EMC28SLl85aMfVU6alLQf4UwDFfPkMvHOHzEKC/OOx1e3Nc3Wt7P7Wxc1PazwCE95LfX14Wc84N+aupzIJN/xbiDxHeGt/q8PuR9qvT0ABAKRWVEYmytG5oqUfIIkdzGZOcW/32ZaHcEfTSDVp/jnrwaRzOGdunzfFWG2HjlxAYBJf+FVHAXNvj7tVx5pI/MDfXc2CyqwUFs+CrKg9dFwAb7UbuuwHgsvmFX3aatewPHqCLCP4gQGAoZGitQsWG95LsAo9ZtXeK6/La3ldNFI3NGAHwV2G7Sw3s6wYuX378bOShvrlWb/o/AJXWoiDkh3nDBt4R4RRVBQ0AlFJRCXnadnGCb5Q5Wk+uSc/94mnDkwWoGMolMjPaPAFV5g/gR9dlfddjeTaDuDJSuS/AB4Bc3X7m0qkdc1d+5D/PEet4DkCX4MR8d/QJxTM1/H665S4/3mX28p/aYi4X4K2IuamsncDkFU8bnhzpzbqyfcKI9raFVwUIVIX7gpD7+i4s3Fyf1z6bCNgny8xNFNkFhH7iNvDEyrQBQxooa+clDQCUUhG9nZ19CSBVVmELMOt44vFrk3NzK00QVBVDK3jon7g9Vo2rcA/kuNp8eN2ot2zwcRFp5K2aD6n09wD4a4ynLLn9zGUha89/dF3WfQAnw39GRUlSZhv3NH+gEEm315cVd529YoLQvhqCw/40ELIRIgE2lu+bMrJnxHfP0OYBA5yWuF+DIDF4vwDPXblw9VP1cc2GNG7DhhMeG5NAVHQy9X7uMSJ4ZeGQIQ3WAfN8owGAUiqimJjSfvA9UQY3ewdVlb/Y05lw48B/bymvfHZ0B77piqPILYHOg8Sb3ecu3VmTND7IGTXJMs53AIwNzpeI/59sNsLBHWYu/UFiWLPEoeuzhwj4h7B7ASCwie90nrlybXXy0DU3b36Mjb4imBlc8oc0C1RcoI0H9oo9EzO6oI7FJTV+BMCwwJW9v7Y0P2lV6jR3PisYNqzp6vQhfVZkDMg2lkknsCHCYV3jHO7ztrPj2RZ9Sgyl1EVt16TMewg84f+aCF0xD//p2d81nTNm2DVNd9+0ETcQfMWfkIEM6zy7eoXuJ7dkX1JeZv9FhHcHZ6Yia/IlwIc62C3+EWkq4UM5o1vC2FsFoZ0bAYENPNF51vLv1PR+AGD/NSNyxMbTAJpHCQD8wcZe8UhKrwX54XPd18rOienTxGYuAPpHO8DGUQc9A/osXHuwLq5xthSmpiZKjKerx7a7UdDVNuhKQXsA7UXQEUBTwHeXIbEOgkaieH/akJRRhVvXn907OP84Tn+IUuoi1d/7SxBSxAL/7DUv/17Oy6/txDl3BVIUrO78evUK/w+uGzmopNR+iUBP7xA9BjLk+/J/wzid93Z4eVHE5W0F4CHaz0PQKXivr9Fg1ectjt1fy/tB19krc/fmuLaJx8wmcAUQsfAHgO60OLd47NisHosWlUZOrXp2j0vr6RY+i8BHCQDwkOaGPgvXnJOFf55rQEKMMX1sMZdR0AOCrkLpBkFXG+6mIgB9kSbDR1vUAIWpADQAOA0NAJRSkQnSJOjpWgSAkb9c9saqH9V2md69Oa7usOHyFryERXnktNnIybEO8osHbFtmEPAuvFPxvAsCh0Dce+lry+dVlc6ha7N+CGBixZk+xMFY25lT06aMcN1z8/ceyklJKfE0+icFt0X7iARIQ8ypZwS4pbaf4+aJAxp7xOR6JznypQqANh/ou2jVstrdQd1Z5xraWSxeRkgf2LhMRC4Toje8/SGClluIdvs1/lj+B8qnFPkIMBvtUnmmtnm/mGgTgFKqkqJxrja05GMwuOafAsoaA7MCBvN6zc17u6bpFk8Z8XtD/NS39u72rq+vuKqqQvDA9a7O9DheBJAWvN+XJw+M/OPUqZKHTjf3wAfXj0wXmysR/NDjvepJsZHW+fXl22p6L1UpnjL8+wAeBWCC+xkE9xSg4MGe8/J/W5v0d07MeB6Cb1Q8JAsEfLbfW6vP6lC4tSkpjawmJtn2eK40QD+hXAFBPwFbVGQtNOAK7U8SuTo/LEj7VAT7QNlLG/ttykcU86kN+4hlzMdfX3LsyLhFe8+oNuVipQGAUqqSnRMzbzBAoJ2e/g1U9AUQyC4L5qnyGHm2OuP/N989wNni8+YfAGhDAGJ4Q/fZK2ZGO37/tJE3k/gHgOYMbegHgK2EubtT7tItp7vu/htGJllubgXQLni/t7+g3NAld8Vrp0ujNvZOdk22DV+C4JLQQk78//VAZNRl81fl1STdnRMy7wLk3yEFqcgq65L/ZSfnFtVoNEZNrB87pBlsxwDLYw8UylUivAJATxH/0ENBxGCnegHAJwLsEshegvtg2/soZq/b8fW+4flF583aBecbDQCUUpXsmpT5bwi8s8eFlL2VOwQa4JhNPhLbQh6rai6AvVNHTAEwx/+ym9Xqskgd9Q5MdrWwHdaTBrg+/D0CXwn4UGfGPx7p3HCSk2MdxLFlAIZXepP4TedZyx86XRpnYs8010Dj4VsAEsMKf79PPOXon7ww/5PqpLdrYvpVtrAQQFzQ0/8+R0zMkOqsvVBdmycOaCwlzv4CDiQ4EIJBQvSAiPHdBYJuByE/qw4A/ic2dsJIkUB2ClAUa7hzyIqNdZZ3VX3aB0ApVYkIRgEVvcsq+gKEdggEABuIp8gfyr7A3e9OcX2z19z8gihp3lUROPDRSAV48TVZLhF5geKdyjcs+Jjvdpjvdp+59FB17+MDHPsNIhX+kLmd+qT/Elhe3aRq5bLX8zfvmTQ8gwbLEHnZ5DbGIS/LjBmjTjei4p3xafEinI2Qwh/HAU4808J/+7i0nm63pBBIESAFpZLs7aLhfV+CuhmGPM2Hb1fsKAewQ4CtJIqMzZ3lnvKijDVbqlwaWp1dWgOglAqxa2L6VQKzBQjurBX8q3ItQGAvxRaYGb3eyPtNcNv+vpysS223Zz8AizCHpSSmS3Av+KKcnJg4+fxhCH8EwDDoq0mAjywj93bOXTm3JvdxcNqIiULOk8rfc++cpGdYTaYtPlO7J7s6G2AZBN0jV4fLD3vPX/WXaOcLwKIJGfMATAwqaMshHN93Yc06/W2eOKCx8cQOhNukguIt8IHW3qf5oF4K4XM/VK69gHg/3FIBdgD2FtjYCmBL04SvdtRnc4SqGxoAKKVCFI3P+A2In/tL+OoGAaHHmZc+/sK+bXh+vhsA3p06YoYR+SUACPCTnnPzAgvwvDclq7eh/TL9ww4r0vQQ/GdZecmD1V1gyO/gtKyuNrEZkPjQd+QzOOzBXWbmv1+T9OrCrqnpbY3HWgngMiD4iVkA4JTYckWfN1cXRzq3aGLGT0XweyBQMAsgt/Z9a81Lp7vu5qys5pZVmgYjGRRk2JABEO9oitPMWYCQY7wHlNjEOxRugW1v9RhuiTlWtnNZthT1AAAgAElEQVTgljMbQaEahgYASqkQOydk7ALQ21u48xSALwnfNLOn6Q8QHAQI+EovZ8KtAFBc/vl+EJcS+MLjKbv0svmFXwrAvVOH30PwUQCNgtMgsE3A6d3mrNhU0/wf+KYrDl9bhRBc5d/nK8TKAGR1nb1iTU3TrCt7Jo1qR5avEqB7hAK3oPeAVZmcgZCmgJ3jM4eTskwAy/9UTvKBy99c9cdI19g80ZVguT1pBsgU2JkC9oOvo17wk3zFa/+uiE//e21gHYn1tGXdV+7YHf6gTp3/NABQSgUUXZ3eRzwsAvxV+lzYZ8CqiTu3uq6yYF8N4T0gWlUVBFScC0DwCGhWE7LQd+Bve85d+eD+SSOT3MZ+lsQ4hI41/ErIX3541PNYbQua/dNG/Btg5eVvBXd2nbOiwceHF03MutTQvQqQzkCltvPv9FmwKjCV7Z5Jw9q5bWsrgKTAccRjfd9cfZ//mOKxQ5qdNLEuCEYC9ggRJCPou/20w+4Cx9hfE9wskLUiZr3lMOuuWrTms7q6b3Xu0QBAKRWwc0LG74H/Z++846sssv//+cxz00MggAhIETEIhE7oLQlNAoiKZHVd2ypiQf26NnR/62arZXft4OJaUdc1iCggRXqvIi0UQVBQaVIEQtp95vz+uCXPvUmAJDcJhHn7ekFm7jwz57lqzpkzZ87BOH+HYFybL5b4C/Vsv6ZXDVtcD5B4gvAloTmjESAAdwNoTuC0Ylgz0e5uouRNv1fB/wCnK0uNbT553t6yyr/n+tTbhXwnuF+Al5tPmV/mTH+h5puhva+wLWuJAJcBcCrlo8rlatFq6vwjC5OTXZfE6gUA+gD+8/bJJ6ILbos7Hd5dIP1F0F8gSfAFdJfuHP9bCFZCuEqLvcLs7i8+jAFgMBgAAAuTk111Y/ReEg18fRrs2W7G4pXBY7el9W4hLusTAm09PWfxBAAg+DZE8kGO8TT9Y34UwUMtPls4pTzy7x7Zv51AVgKIDvroy71H9NDzTbltG9G3rQiXQFALKNyRU2R86xlLxm4e3vefFDwC+BW5DWC5QLoAiDqrGz/gQ2gR2SSQxUqsRQr2ivZfrjhUcW9nuBAwBoDBYAAAbBnWb7iITAP8ijw7d392fEkBXuuGd46OYey7AEZ5es5gBAAA5QSg4hx9mpAJyIv6fcKsWSfKI/u3owbUhK3XAkgI+ugbV15+96ZfLDtWnvkriqyh/fpQYY74YiA8d+bdAP4E4M8ISokvQVo/0I3vbMEGsEELFlvEIiosa3eefgeGqsMYAAaDAQCwaWifzwiO8LWVwheJ05cMO9Mz6+7uHBZzIHaaAFcH3Rk4ozcA4AaAY676bMGa8sotAL8dmfoJBNcHfXRcWdL9iskLd5R3jYok65p+oyDIDM6YBwS68EvMtOcZ6BZiPSGLta0W56n8pd1nrS6XUWWo/phEQAaDAeuv6dUQNoZ6SvR4tLQt+OhszyW98VXBxkGDbgiLyFsgRFcWOrI9Z9YOI8CrvLIVkPHjL/JSyqKFIXHJf3t9/99By/VB2xlbKDeer8p/36geUSdzIwYL5HoIhpdB+RdAsI6UxQIsjgiT5aW9KmkwGAPAYDDAVWA9CIrLV2WPYLYVpc5YXc9HWGRBMgSNissYWHhtzTdafjlx6amXUz7/KiTKf+d1/XuI6Gf8S/ogH02YsnBOKNYIFeuGd46Okdj+Qow6kYtrAakBoEiufG+Xs+VT/rshnAel5xXkRX6ZNG/eL5UjuaG6YgwAg+EiZ+OgQTHCnNH+bK8eI+Czs2XK+/ra5Frhtjwnou8GAtMGe9qB3gBPDgE2jD0Qey2AyeWVe/c1/S91Q0/2lwj2IsB7LT5d8FJ55w8Fm4b2jne51HBqDhMgTYiYINf9mZT/zwQWasg8l+g5rWeu+L4yZDZcPBgDwGC42HHl3gWgtldHe4wA0R+e6ZHNQ/sMpa3/A0ED3/Y+4HkAQtgU3gXK7wC0hXhMApIPoJwGwMLkZFeBZX9E4WVBCnRZQVjdu8szd3nJSkuub7lwrYaMBJAMDZegyJm956/AR3MhWC7AXFEyt13npRuCkwIZDKHEBAEaDBcxC5OTXbWj3d8AbObrI/BN265LWxWnfNYNGFAzIjLvRYJ3OMYHR/iBgAjlrsRpS97OGtGntRK1Fv7reYTS7HDVjIUbyyr3jhHJz4Ac5/wFJsD3FsO6Xjn1y0q/3rY1LbUpLH0dKCMB9ASgnNq9pF0/ic0iMpfamptjnVySNP2r05UmtOGix3gADIaLmPhI+0YRNAME9O3kBS8Vp/w3D+87CHb+mxA2RtHgPm/OH7834P8Spy15GwASP1+6Neuafi8TeBLwjLOVjAFwX1lk3n5NyjWgPBF4652nQIyoTOW/7br+LaDt6yEyErA7izP8wUsxu/5jAs4BZJYqkLmt5yw11fEMVYYxAAyGi5TMUaMsnNr//3xtEQHJo7CjJjnHrRveOTpMYp4RLQ/QayUUDe7zHgGIAMLfJ36x+BXnHMpy/Uvc7rEAanhjBK4V4H4W8YKfma3XpzaFrd8WCfA5iBB3tpxado/CuZI1PCWRkGGkHg7b3QsITMRTzI8AZDcEMyhqukQfXtLGVMkznCeYIwCD4SJl/dW97iT5ZsAvAeKvHWYu+4OvuWFovxQl+m0AlxdXDdD3o68l4DNtZyx+qrj1tl7T93UI7/E/ZqmkVp8t/Opc5d2TnByZWxMr/FUDfQj+0HLaor+e6zylQQB+c21qFxF9vYiMBHClt98/IGg8AORDsIRKZtgFrhltZy34tiJkMxjKi/EAGAwXIVmjEsPzT/IPvrzw3p38Sbflehnw3gwIy3mWou/3O/YLg/sAR74Af255Ja+2nb6kWOUPALZWHyvKPYDXYHDbwwCcswGQVwOvQtBRvBN4V//4qmmL/nauc5wLMmqUtS3vSC+KPXIHcZ1ouzEQ7M4PegY4BOALgfrCxfwvW043d/IN5z/GADAYLkJyT8SPVkRTX1sEoMLLSdMX/bzh6t69NU+/S43mzgh/wBHl788X4O0VeafN9KUP4Qy0SVq0ZOtX/Q4BqCcARHE4PClvz8q24cm3C+Uuf4fHCtlwSmr8trTHCMWx7u7OYTH7Y1JAjtyed2gEgUuFJe/0vV1fC+UL0prRuuPCtSZi33ChYY4ADIaLjHUDOtdUVuQ3IOr5a/IIjouWRFh8RBH/B0D5xtPp40fQLw3Pw5nboxv8On3yZPtsa28Z1m8yITd4nqWEu/WlCWcpObv9mj7tNNQq+PLle5Y9DMWurT5b9N3Z37h49iQnR+bF6UEaHAlgOIB4/4fFKHy6XLbr0gY78n/c+4rbrb5oP2vRD2Vd22A4HzAeAIPhIoOuyD9CUM8btec9AlAraGEBgKuKpvD1+PhZjDdABDMKDub8Jv2rsyt/z8N6uZAeA0CEeQqdAJSYsW/7Nb1qaFGZcCh/AAUQpreaVnrlnzUqORa5Oo3kyBxIGoSxZxrPqGip0bUna/Toi9hOXS0VGXkpyYmlXddgOB8xBoDBcBGxblCPlhCMDUjaQ0Cg0+jY2xdm7oOjTwK8AULMj8u2RjUroVpgcSjheu30JvDMBoAW10QBrgrqfqT1jEWLznXNTUN7x7uohhMcKbkyCGBkCcF7AAArJlZqdOvNGj37IrZjFzIsINFgbRGJJJl7rusbDOcrxgAwGC4iBOpFX+rcwvrz3s/o0fqFafsDAgS9XV5vANQq12l1bbNFi0qlCJXL3mXblt+4ELJjSWOzhvcdIyI3eYT0eh+ISW2mLX71bOtsu65/HSkoGApylACDBAg/U6CAVSMOsUndEdcrGbGdupCusJKGEsClAExaXsMFjzEADIaLhLUDe11DyNUidF6iLxAgrNAb4D0SOKM3QL7WEWpI4qwz1woojqumLd+/ZWjfbIg3J75Ip+LGZaUldxDRhfn8PdnzVkW6Y0pM87t5RN/GSvM6ACO1290LpFV0VGE5PVeteNTo0RdxPfshum0H0CpmePE0gDEADNUAYwAYDBcBy67pVYO58pqn5a33J4CAT5NyswBtgGBvgMMQ8F31I7YK1OBOny06XhY5CMgmyC4C7T0mBa/YOaRbXIKjdv3OId3i8pTOBBDpeHB/GO2RCTNm5Tnny7om+Uqx9UgQ18NGF/GXIioeV+06HqXfqx9iEtuDSp1peEk0LMtDBsP5hjEADIaLgIgc/XeBJ4WvL5RPgFW7azb8x5UnforyGQBFC/oE+AO+FbcM7DR32Rmj9s8GBbuEaO8zKXLDwi8HsMn3ea6KmABBguORAi38VZsvlv8EAFnDeyWKtoYBGC5a9zrbXSZXnUtQo3tv1OiVjOhWiaCy/AGNZaRBeR42GM4XjAFgMFRz1gzq0RNCT959b7leAjmieHv65Mn2moE9p1rk047NPgBnkKBAgH1E2IBOcxf9VF55BPg2IG1ugb4MXgNg49De9wnk5qBsg/cqYc6WYX2fgeB6rdHCOVlxuC6phxq9klGjRx9EJbQESI/S99c7kHM1AvIBhAf1GQPAUC0wBoDBUI3ZOWRIxDH38f8IoAKC+0Se6vLlih0A0HXuig3rBvXYA1HNAhLse4dTcNAiBrafXfY7904E8mNg5UDVCAA2Du/TiTZeAAqzDQI4KcAfSLtpoLIvqrxVjTjE9uiD2N6p3p2+AklnzkLP+mdW/ocArAGwDMA8ABEAlgeNMQaAoVpgDACDoRpzrODY/wPY2rOL9+6rBQuTeq98BfMcA8mpEPmdJzCP/sh/AkeFalD72Ut3hE4q/hjU0WjdgAE1YedlChDhPIIAUINADX+X04oBwIhIxHTtidheyYhu1wl0hXlkL6xsCNJ/sFF4xFHIjwAWAVgCYAnJ7c4PRSQKgBuBvytNDIChWmAMAIOhmrImtUdP8ZXgLazZe9ii+k2RtLW2mgqlf+dpCLw3BU7a1EO6zF6+CaFE9I+FSYQJgI3CIvLehKC5V8oiOPU+XWGIat8J0b36ISapO1REpMO9H6zsg1S+yH6QywDMI7mcZNaZRCWZIyLb4Y2R8FKn1O9sMJyHGAPAYKiGLOvVq4ZQvw/AAgrz/Yjwjk7zlhc5x+/ce9mKdSt6HSCkvqdHTtsiw7t+uXJNqGVTtvWjbXnsD/H8kw6NWMARbhi0TRcA4Vdehdg+KYjp0ReqRhwIBuQoKLK992z/d8Pjwl/mdrvnRkVF7SmDyOsRaADUKsMcBsN5hzEADIZqiCtSXhHgCjjS+grwUrd5K74o9oEMCAbqrwUcAiJfUUZ2/XLl4oqQza3c9QHl1NX+dLziuKcPAK669RDdOxkxvVMR1qAh6Avm8wYn+nf7ha5+AZApIlNFZElMTMz+EIi8AcCtjrYxAAzVAmMAGAzVjBWpPa4D9O2eFr3KkV/Fxv8yrrjxq/p3u3Stst4gMASALZq3dJ63YnYoZdo4qG8zsXQ6BLcL0NKfV8CHI9EQw8IR2TEJ0b2SEdkhyXttr3BokXP9wDZFcAOJBiQb5+TkTCnjrt/JzqC2MQAM1QJTDdBgqEYsT+3ZVEGvB1HbEWd/XNvo0nPRyl3B49cM6J4OcAKAOiA1gNu6zl3xQShk2TiobzOt7BtF8CsQ7Qs/YdFfPFSISGyLqF4piOrSHSo83BupT++u31eMiELyOxLNCj9HoWeA3qiCwrYQWKqUeicsLOwTkqXOXigirQBsDeqOJZld2rkMhvMJYwAYDNWEmUOGRMTnHVsKoIu/k3ATktZ9/uq5zrFLh/aOD8+zxwO4yTMMIpT7us1d9e/yyLB+YK+GopAO4EYA3QrFCMLboeLrILpPKqJ7p8Cqd6n/XL9QmRdpf1u7dvyVx48f7yzkrQq8kUS9EpR/QJvkSQDvhIWF/ZPkvnN9JxGJBJANR4lkAI3IIrcZDIYLCmMAGAzVhBUpPV4D5X7A4U4Xub/7wtUTnONW9e82EFBvE2jkHyjyRLf5q54vy7qSAbVuZfdUwrobgmvhqy1Qwm8XpRTCWiYiqt9ARHTqCuWySlL2RdpKcXJ8fHy6f22RsJMnTw6BUndTMISE8hsAwd4B+H/OJ/mhZVl/PFdDQET2Amjs6GpzthsEBsP5jjEADIZqwLKU7ukK8jEAZ/m+13ouWPWAr7GiR48oK0b+KILHACjf//4Uyei2YNWfSrvm+oG9GmrILSDuAXB50RGOfH4ErEvrI7Jbb0T0ToGrdl2/a79Q2Qe3izUGxtWuXfu54uTJyclp6na771JK3QmwQaDyL9YYyCH5olLqOZInipvTh4isBNDd0dWbZHCCIIPhgsIEARoMFzhL+3dtQS3/KczcJxDh3HxEPuwbszKlezdQJmmNFs56AABfLo3ylwyodcu6p4LW3TbkOgCuwNzBAVUDwbAwhLXrjMi+qYho1QZQyhEBUFiUyJd3WARfE+wYeJ2vcFIRWV+SbFFRUd8D+IOI/Dk7O/smpazHASQWHzToeQTAU1rrW0VkNMkzBT4eC2qbQEDDBY/xABgMFzDrBnSumeN2rVREK0f39nzJ65GyaMPxrFGJ4b8cjc2A8HF6cwL4IGVit/mr72WJGfWd6/RuomnfBcFvQVzmncHxZyBW42aI6NMPkV16QcXEFLvTdwT5HVWKH9q2/XajRo02HDhw8DiJmsUEAWrLsurWqlUrWBkXi4jwdF7eUCUyjmSvs8QJCMk3ATxcXHCfiHwI4NeOrhtJfnwuchgM5yvGA2AwXKBkjhpl5R7e+xGBViJ+V/t+bemhKfM2HF/Rt0fbX37WkwB0gEPLexX2B936rL6P88+s/Nf079lFE4/YsEdCPL8v6H/Cs6g/q190NCKSeiCidzKsJpd7lGzJewytgZUKnETigwYNGpwu/Eh+BFizmJx+W89V+QMepQ5gBoAZubm5AwD8AyIdirlT6PtaRgPoJiIjSH4XNF3wusEFggyGCw5jABgMFygNDn3/vBBDfPtwERxVWg3eX7fJ98tT+LjA/jPACMBzLOAZRggwNU9H3lEkHbAXyYBatbj7MCo+oiF9i2TTdYylAFbjpghPGYDwTt2hIiIK9avTte919VNhr4h+17b1O82aNfuuhFf7SYDWhXl9PAl9FbCiLN8TAERGRs4Tkc4FBQW3APgLgMbBRYG87XYAVonItSRXOaY4HjRlRFllMRjOF4wBYDBcgCzr2/U2AX7nL+8rchrkCFJOXnb4+/kC9mNxSlvL3F+iat+UNmuWO3jOmUOGRNTKPf6rVUtlHBVaOX0GfvvB94flQli7jgjvlQxXq0S/a7/Yc30wXwFfkpjUuHHjqSSLrB3EyYBzf3jsAIGUK+iOnjwH74nI5Pz8/KeVUo/Clyo50Bi4FMA8EUkjuaSE6YwHwHDBYwwAg+ECY1lyt95a5A1HgZwcoYwA2doWPQtgLAA4Nv0+lkTUcF+bNn1WnnO+Vf27Xaqh7mfesXtB1PVn6fMH9RXu+VkzHmG9+iG8VzJUzVqeMcUoa297s5BvRYSFfdCoUaMjpXhF52z+v7TWZfYABExOngYwLj8//zOl1JsiSCymOnAMgOkiMojkahT9XWkMAMMFjzEADIYLiKW9u7bQWqaCCPeq5RyCY0TwMEXSxLvrdobniQAiWEO3a1jS9NX+s/alA7pcoTSf1FpuASUiKEbA7wAQAFbzBIT1TUVYu86gywWSnr290KGuBRSeoMJHSvHtK664okyFhLQGlfK6/v1H9PJDvXr1imQyLA/h4eGrRKSzbdsvAbynmCFxAKaJSBKAsODHQymLwVAVGAPAYLhAWNKn4yWaMgNAXXo0fR7IjwXyAoC6AAqVdqAhsDncJWndFi8/CQDLBnRuQtv1CGwZAzDCs2sPiBHw/OhywerQBWHJA2E1buKIlfM7+n2iiUCWUfBmbI3YTxo2bOgI6Cs9pCif38ERBLioPHOWvBbzANzrdrtXkXxdRKIY6A6oB+ATeAoCOTExAIYLHmMAGAwXAAuTE2NFu2YCSAD8VfNOUHC702EO+I/ePX3EjjALA7vNX3NkeWrPplrs38ON2wUICwiA8z0rAtapC1evZLi69YKKifVuwX3BBgGxffupMElEv92qZatvQvi68YVHCT5PgCwK4fxFcLlc74nIRhGZBaB+0MddAWctAwDGA2CoBhgDwGA4z8kcNcrige8+FCAJCDjTv0S8B/YEg0/OAWCfUq7BeQUF4Uv7dXtZa/fdBCKdRwPO+Xh5c4T1TYXVrqO3Ap9vF16o/AFogSyg4I3TOac/S0pKKgj1+wpQzxFH4DFORBaGep1gSG4QkX4A5gNoFPRx8I4/+EjAYLjgMAaAwXAeIwAXH9zzBsBr/H1Fg/u85+8A4Nuly09QuEXb9uOKvBOQCJ8ed8YIMDwCKqk7XL2ToS6t7wjzd0jgPOcXPbZtm7avV9wbAxDULXRjEAT21bv00t0VuqYXkt94jYAFAJqeYaj53Wm44DH/ERsM5zELeyU9R43f+lzhAapZgo0Az58UaIDboTFHIJ48AIGDgJo1YfVMhtWjNxgdU7jbLzmi33fu/3RWVtbHiYmJRyvifbOyssIBxDuS/wBSMef/JUFyt4gMAbAKnkDA4rArUSSDoUIwBoDBcJ6yoE+XpyHyGACfH9y7GXcmr/H8HWQIKEBSAz0C3nH1G8DqmQyV1A0Mc6FIrr2gNsl1AJIcdkB9rfFPAL8N/RsDcXFxTX0uB58BQlXx7v9gSG4TkVsBTEXx2Y7PlsvAYDjvUWcfYjAYKpv5PTs/AJE/AUGJ+sWTtEaCMvh6r/ohaKhnnAjY9ApYt46G66FxYLeegMsKuOYH/+X/gPbanJyc/gIccH4O4vasrKz+IXxdP5ZlXeGXwfuH1npRRax1Nkh+DuCdEj42HgDDBY8xAAyG84z5vTrfBeJl8WhwAD5l7sCTGe/MhoBlgR27QD34BNSYB8FWbSB0RtYBAmSXoPw1ibHdu3c/IZC/BC1OEUxct25ddMhe2ovW+opC5Q8A+L5+/fp7Qr3O2RCR1iIyBcAdJQwxHgDDBY85AjAYziPm9066CSL/hi+Uz5dWFwh05QOOq37i7fMq9/BwoHNXoHcKWLuOf+7C63sCEMsBNZ5gS4g8XbT8Lt/p0KHDGgCwCwr+o8Ii/g9AgiP5T/PIyOjXAdwW0i9AqSud9wxJVanufxG5XGudISK/IWmdYajxABgueIwHwGA4T5jfo/Mo0TJJxFm217HPF2evo+ltSGQE0KMP+PCTwLDrwfjafneAd+xp0fKm1qpj9+7de8fGRk8R0aOd03jHHwP0k75+z1U//ZQ4PAUAAMqtWVnb7g7V+3uWlzYOaSrN/S8il7rd7le01jvgMWrOpPwB4wEwVAOMB8BgOA/4skfnUUL8F97/J4sG9/mMAAbc1BMAiIkFu/YEevUFIqMgLFKEdxfB17XtfqdPnz7+srYnT578Faka+OYpDAKUJzt16nzYOUH79u0/2bhp0+cARhSOBwB5eevWretat269PgRfAyho76wAiApOACQitfLz8x9zu90PkYwJrhDoGwagAIHJf4wHwHDBYwwAg6GK+bJHx5sIeV/gcTkHX/UDSjAE4mtD+qQAnZIAV1iw0tcQzKLC+F69es7xVsILgOTDnhkDkv0s7NSp0xvFyemyrHtsW/cWoI5jfKQIJ2/atCmpXbt2x4p77lzZvfvgpYD7Ur9Mgt0NGzb8vjxzloSIRObl5T2Qn58/jmRtb19weWAhOR1ABoB/w5MR0IfxABgueIwBYDBUIXO7d0oXYBIAy++up7OUj4cAQ6BWPKRPCqRTV0+gH+lMCnCUwNuKeL1Pn94lJs9ZsWJNfxHp6E8g6LECTgMymqQU90xiYuKBjRu3jCXlI2dyIFCucLnCP9+3b9/gxo0b55T1u7Asdztn3AMVFpV1rpIQEZWbm/ub3Ny8v5BoUtgfeJUSwAySGSS/8j4XnPEwDwbDBY4xAAyGKmJO9043C/EeACswuK8EQ+CSerD7pgBtOoKKgM/V7wnaWy/C8RERYR/17NnzHJSw/qO/nI9f+/H3SUmdvz3TU+3bt/nf5s2bRwC40bO0LyhQ+pw8mf2RiIwkWSb3OGm3Fyh/8iEJcfrfU6dODcrJyXkeYHs6Mhx5Xt/fnmnbKiM8nGuDHs8Pap8IpWwGQ1VgDACDoQqY3b1TOoB3RWAVOdNHoCGg612qpWc/Je07glRgYUGePAg+Edjj+/cfsPJc116+fHUqKX3gW8NjaKxMSur0yrk8r7W+SymrpUA6MNATMGL79u2vAyhTYCDJdoUtgdahOf/Pzs7uKCLPkRxYUsIjEcwBkBEWFraqhGmCDYCToZDNYKhKjAFgMFQys7p6zvwBWIXBboFp+AWA1K2Xp5MHREirREWlvOfTAgH3KXAiIW8OGND/YGnXJ+WPQYrwtFL8bXFxAsXRvn377K1bt15ri6yF4BLA77gHwNHbtu042bJli0dLOkooCQHaOzbmOxs1avRDaZ4P5tixY00ty/qL1vpmksoTVxDk6xeZoyzrz2FhYStKOb3xABgueIwBYDBUInO6dbxBAM9VP3/CW8BpCKBmzZM6eUAN3bZjBBR9gWkiWhYK1PjISNe0lJSUMgWhLVu2LEUgfemo6yvEY0lJSdtLM0/r1q2/37Rp6w1UMleAcEccAUj87ptvvokVkXvP1ajIysoKh6Cl40xjUenerJDjx4/HA3iKVGMBRPo/cHr9RWaIWH+Njg5fc47TBv+uNAaA4YLHGAAGQyUxu1vHkRr4iL7/73zX6n2GQGTUcXfKgBjdqWsNUvnS+J8kMMl2q/HDhg3cVp71RYTLVqx81nnuL8DM7l26lKm6X7t2rZds3rz5JlJ9DKHLWTQIwrt37NgZu3DhwtvOxViJiYlJBBDu8yWI5pLSyrNnz57I+Pj4sQCeAhgfqPEBUjTAz0TkrzExMV+Xcvrg35XmCMBwwWMMAIOhEpjVpf31Io9+PvsAACAASURBVPIRSFfAOT8AcbkOu5MH0U7qWpeW5XWlyzYC490FBZNGjBgREmWzdMWKXymwq0P5H1KQ35bWVe+kbdu2n27ZsuVWkO8DsByZAkHi1w0vu+ySrKysG89ePVB1DLgBQH2uO3OIiDp27NivAfxVRJoCRFCQnyYlUwR/i42N3VLGVzUeAEO1o7gqVwaDIYTM6tL+eiH/ByDMH9dPAFRH3F26/Wz3G3AVwlwgCYIgOX3YsLQR5VHMwcycOTOiRlytbYQ0Iz3HCiSu6dGjx/RQzL9ly7bbqOQtkpb3HbxGAEFwF4kRCQkJW0t6fu/eva8BuN9zs4FHGzW6rO65vP+RI0cGAngeQAfPmr7vECDpBvkRgb/HxcWV6ogjGBHZAKC9oyuaZJmvPBoM5wMmFbDBUIFM79r+OoFH+QP+BLe5iI79R84jT8a6UwdfJa7grLP67VAqfwCIqVFjLCDN/CuAE0Ol/AGgTZtW7xG4AYLTgD9dke+FrwSwcteuXb8q6XkR6ViY7phrz/b+hw4d6nDo0KE5WsuXItLB/6jnjwIAb4lIy5pxcbeWV/l7iXf8XGCUv6E6YAwAg6GC+KJr+2FK+D8BwgoL92Cem2yX88DDH8JyRQRU8/NU+MvPycmZF0o5lixZcgnB3zvqAuzIjol6JJRrAEDr1q0/A6Q/gMO+heD9QYA4Efxv165dk3bu3BnnfE5ELAHa+8aTUqL7/8CBA80OHjz4vgBfARzkqF8I0cgD5HUACbVq1bqrVq1aZ8xpUEqcBkC5Mh4aDOcLxgAwGCqAmZ3apUIwGZBwABDgqBaMSVu9YdDw1Rt2ilg1i1H+AGRTenr6qdBKw+cgEu9dpoCQWwa3b58d2jU8tG7depXWdk8INvv6ggoZ3UKlNu3evfsaX8f333/fAoIY32g3sDp43kOHDtXfv//AqwC2C/AbSMDvrhwIXgF089q1a98XHx8f0vTBIhImIrGOrgOhnN9gqCqMAWAwhJgvOrfrphU/E0GkAALK+1pbVw1bu+ENX0VfEanpf8CpIcldoZRl8eLFPUXkdv8KxJ969eoVnOUupCQmJu7Kzj7VncS7wRUEva/aVASf7969Z9r333/fGkAn36cCIMKy/B6APXv21Prhh5/+5nbbuwAZCyDc4Vk4BeCftm03q1u3zkN169b9sYJeKR6B8VKlzr1gMJyPmFsABkMI+aJz27aanEmgBgQ7lZZ70tZvWhA8TpQOC7iLD6+G0QiZAZCZmWmJYDzpz667bP+PPz4bqvnPRFJS0mkAd2z/5pslELwMoEZhsiAPAhluaz2U4D5Hbp49DRo0OPzTTz9F27b9AJV6goD/Sp/3PU6J6FdtW7/QsGHDnyvhdeKD2sYDYKgWGA+AwRAipnfokKChvoQgSsA/qV+y2xan/L348+U7jwJEEDL3dd169e4H0MHbPCHavjU9Pb1Sy9i2bNHiHa3tdiLak9ffERfg/UsBaFpY5VDW7927917btneBfBZSqHwFyIbwea3tZvXr13+qkpQ/YAwAQzXFeAAMhhDwWZc2jUXruYBsJ3Dv8HWbzxZ5bnvy5Th2xQKIkpCUmZ0/f35TCv7q9y4QD/Tr229PKOYuLa1atfpORPrv2rXrHgB/B6SW776/L/NfYZvXARjpLQfs+/w0wH8r8rn69S89VNny27ZdWynlLBdsjgAM1QLjATAYysmn7drVU7b6gMTTw7/anDr8q7Mqf1iAu/ggQATfCSw1njL2aiKAGp4VmNmvT59J5Z23PJCUhISE1y1LtRRgkvOeYGCQoChHOweQl/LDwpo3bNjwkfr161e68vfSUEScbeMBMFQLjAfAYCgHmZ0711SSfzMZPnL4uq/O2SXtdvOosvw60L/dVcJyG+ULFiy6jcRg7wb6B0vhnvLOGSq01kLPNboCAOFBO32fJyBfgImAfrZx4yY/VaW8ACBko6CMacYAMFQLjAFgMJSDmgUF7sGbNr9Y2ucsSx+UYoIAReSS8sizcOHC+lrLC+LJhqe1jdv6JPep8nvrWVlZsVZ4+P1a5CmCcZ6SxoFBgQ7ClIKcOHGyss74zwhFGgdUEDQGgKGaYI4ADIZyMHjTpjLdp7dt2+/ODjgKgFxVHnlsW78h3qA1Cl/o379fSUGIlcK6deuit2/f/oTL5fqeIs9C4E0C5Pd+nPT94HD9U0QerBEXt3Tv3r3NK13oojTy/eA9CihXmWKD4XzBGAAGQxWQnp6eQ+Dn4DgAAC3KOufcuXNHAxjubW7Mycn+f+UQsVxs3769xrZt28bFxMTuAfisALUd5/wiwGyIpJF41qH8C7yf+9pdSa7/4YcfbqmKd/AhIo28fwPAEZK/VKU8BkOoMAaAwVBFaEFhZTpvEKAArRcuXFjqo7n58+c3B/iCV8fmEnJzWlpaXsiEPUc2bdoUn5WV9bRt6+9E8AyAeo5kQCdJvGbbdquEK68ccuWVV84SkU6+nb8IniIxToA8h10UJ8CkH3748ct9+/YlVPb7AADJRo4YwCq5SWEwVATGADAYqghCPAZAYNmbuGPHTvYqzTyZmZmWbev3BIj1zvdEampqVojEPCc2btxYb/PmrL9Rqe9E8CcAtT2iCCD4EZAnXC6rcUJCwgMtW7bcAXhuKwjQ038aIGpR06ZNn1NkEsCvHccEADBQKbVp//79f9y5c2dEZb2XiMQJEOevOSCyu7LWNhgqGmMAGAxnQEQoIhVSNlsEW4IuwwECWBbTSjNPzZrx4wTo5Z10Tv/+Ka+GVNAzsGnTppYbNmyaSKrvBfIUAH+hH4FsIXCH1vYVLVu2fL558+YBrvM9e/a0BdDA2zy+d++3GwCgSZMmWw4fPthNRP4sKDwWABCpRTJiYmK37t+//1YRKfeVybORn5/fGIFXAI0BYKg2GAPAYCiBSZMmxQCeO+wVMb+IvRQIDgIERPQ152p0zJkzp69AMrzNn23bfUdFyetkw4YNKV9v2DBda9lK4m4BIuF39XMRiaGtW7Vq16pVq3cTExPzi5vDrfXgwt2/np2SkuJPgpSUlFTQtGnTPxJIArAKCCiZcAWA9w4cPLhl//5D6SJSYb/HLMtqEtRljgAM1QZjABgMxTBhwltXARWn/AEgPT19q4gU3nMvjANoOW3atMFne37OnDn1tOAjeK/zEnLP1Vdfvb+i5N25c2fE+vXrb/nqq6/Xa5EFEAyD9xo/IDaEkwHp0qZN65TWrVvPPOt3pzHK84MAwPTihjRu3HhTo0aX9dLkWIgv+M4fJNiSlI8PHTq04cChQ3fu27cvKiQv6hRRa78BICLQWhsPgKHaYPIAGAwOMjMzraNHj6aS7uW33nrn6QpfkFwAT3nbgLTAIupxALNLeiwjI0Nprd8HVUPvA58MHDRoSkWIuHr16mZKWWN++eXEb0FeQgog9NXHOw3R75DqhXbt2pyzcty1a9eVIugCAALkEPiipLEkNYDxe/funepyuV4W4AZn8iCAbSl4MyIi4rnDhw+/5XK5JoSqJLCINCEJEYAEXC6XMQAM1QbjATAYvLzzzjuRh48evaF27doLxowZU/HKHwChpwdVzPU2dMrnn39eYjBg165dnxRwkHf8EctSY0Mpl4io1atXD1u9eu0XpNoF4AkAlxTKh8MAM9zugqYdOnQY265du1IpRtuWWzxTCUTj0+D4gOJo0qTJTw0bNhwlmqmAbPQH5hUOqQPgcbdtf/vzz0fmHzlyZPSJEyfqlEauYEg2caziBrCvPPMZDOcTFRLcZDBcaLz44ou1wsMj73C51GtjxowpqKx1MzMzo5Ry7QdRkyQIegrOECC5Iz8vt2N6enqO85mZM2f2E3A+ScvjMeAtQ4YM+iAU8qxevbqZbcstSvEOkJd7RPHJRJD4FqJeAOx3vSV/S83ChQtdl13W6DsQl5GEIgc0b958fmnmEBFr//79d1GpvxC8xCOeV0ZPFkRfu4BQ85TCpyIyLz4+/rvSrJOfn78YQF9vEaAdYWFhLUvzvMFwPmMMAMNFz6uvvtpQKddDtl3w9IMPPljpd+c/+WTKmyDv9BkAXuUPr3J85Zprhj/kGztnzpx6Bbb9NcGG9OTTnZGWdvXwM81/NlatWhVXoPUNCuo2QvrQszgClb9aqyj/2L1796flLSm8Y8eO60h+Cs/7fde8efPmXjd/qdmz51it6Oj8JwGMBRkdpPyDjQEQ3EVinlJqvsvlWhMVFbX3TPPn5eXtIXm599/HFJfLdUOZXtpgOA8xMQCGi5rXXnuthUD9C9A3VYXyBwCt+a6ycGdx5YE15IHPP5+xdsSIYR9kZGSoggL3ByAbegoH4BSg7y3LmuvWrQvLzc0dIMJbCtz2tSSjAA2QcByvayrMsIkXe3TpvChErwsAj/qKAAn4blmVPwA0axZ/HMAThw8ffklr+b0Ao0lnkSH/2/iKLl0J8EoRuaegwI2TJ0/+THK9UuprrblJKdkjIt/FxMTsFxErPz//Mt9aIrKlGBEMhgsW4wEwXLS88NpriS7hVEUZNnbs2G+qUpZPPpmyHGRP384/wBOgWKCAMYC6DMRfCo8KZFxaWtpz57rG9OnromPisq9WwutIDCUZD/96jl0yeQyCtyyLE7p16xbSa2/bt29PBTnf61nQtu1q3qpVs+9CNf/+/fsvtywrg1Q3k3T5d/8OT8A5tnNJ7CXZwve5Ukx3uVyTQyWrwVDVGA+A4aLkX6+91sLSMpeUe8aOfaBKlb8H61lATwNQWBrQh0aYEG+DoukvHSjfnDp16qxVCBcuXFhXaw5RSq4TnhpMYbTvs8Kdvvh2/psV+Fp4mOuDsp7vnw0Bfu/blJOYFkrlDwANGjT4DsDt+/cfywgLs38H8E4Bop1fp2f5wi+5hHYkwBbOz21bGw+AoVphPACGi44XX3zxcirXUpLTH3pw7H1VLQ/gyTg45dOpGwi2cwQBBgcF+s+0lWJaWlrarOB55s2bV0dr3RdQyVRMIdmG3u0tHbt9RztHEVO0Vm/27dtzcUW+47Zt23qCXO57J6XYMyEhYWVFrnnixIm6BQUFY0neT7JuCXEBQe1CT4A3+A8k88LCwmJJus+8osFw4WA8AIaLimcmTIiXfPcXBMK0XfBUVcvjg6R8+umnD4tgvsARBwDPVbmANjE9LS1t1vTp06OVimhN6o602IFAb9vWbUgq/3DfBXYEtgl8JZC3tNv9Ud+UlOOV8Y5C+nf/Ilhc0cofAOLi4n4GkCEizxw7dux6gneD0s//pRQbJ+CQufDr22GUv6G6YTwAhouGjIyM8LiateeQSIbCbx5+8MEPq1qmYD759NOPCaYXdyPA0f6GZA2CDTzH0wzwDpTcxs8APwKst1JT+2yszPfaunVrd4Ar6AEk0q666qoiHozK4MSJE1dprX9LqhtIXHGOcQH/DQ8Pv7kq5DUYKgqTCMhw0RAbV+tlQJIFsuL/Hnjgv1UtT3G4lHoUYG5QeYCARPgAWkDQIKCKgPfzom3ZD8EEiO7/88+H66emJj9Y2crfU1AJL8J/uUA2tmjRosQshxVNXFzcjlq1aj1Rs2Zcc6VUBwB/EmA9IP4dfnCKISHN+b+h2mGOAAwXBf944YU7CNwDAND4Z2UUzDlXMjMzrwSsVCr2d9s6hWCkJyjP6/r3uc3hzH7rOBgo0uZ3AvmMxJTly5avyMjIKPM1u1CwdevWXwPs7hFVQMHz58v3HxsbuxHARniOCWJyc3OTNDCOIlc7j07EttdXmZAGQwVhDABDteef//xna4ia4PGgy7eXNWo4rSrlef/9KQ2scHd/BaSCKhVgU/j1oe9o+ixxAHCe38kPArVSQRYocv6gQQN2VsZ7nAvr1q2LFsGzLDRgtrZs2fLjqpYrmGPHjtXKzs6+XSl1DwRXBcYBiERERKytOukMhorBGACGas3EiRPDTpzKft9zrQuwoV4ubya70vLhhx/Gi6hkWkilsD/obuWJO6MnGU5Q8p9StL8npHdaWtoPlfk+pSEiIuJxAI08LYFo9RTJSv3+z8Tx48eTlFL3krwRQLTW4t34+4oyASR2kTxalXIaDBWBMQAM1ZpfTmY/SaATKBChDV3wUUWvOXHixOiIiJjeSqE/yFQt6EiKBU1vEb1Cn35hUT2U0D6jMdBUCwcDeKui36ksbN68uTHAxwC/6395YmLLz6taLhEJO3HixEgRPEyia2E/QMeNAF9bBGuqSlaDoSIxBoCh2vL88883h8iT8JVzBdY8+uijP4d6nYkTJ4a5XFHdaCGVkP4kuxMS7lHVwcq+xPZRIVYC0ohg+yLJgIpPawsQz8+ZM2f64MGDD4X6vULAeADRHuVPgBhXlcIcO3aslojcffz48bEgGxc9Uik+ORBJ4/43VEuMAWCotgjUSwQiRcR7lQshuXaWkZGhGjVq1F6EqVTsT6g+oI71b99L3Nn7lb0IZQeAlSCXK8jKUaNu2LZo0SLryJGjux3DziUIsHZBgX4BwG9C8W6hYtOmTb8WwXAUfg/TEhMTl1WFLIcOHbpSKddDWuvbScYG1wkIsq02CfCTMwhQa208AIZqiTEADNWSvz//fC8Aw5yZXEgpswEwYcJbV1mWO5VUqUKmaGEd+jfjPrd8ifvI0xSsJblcNFe67fCVt912/ZHgNT7+5JNhCmzMgDkBABsFyCMc7moUGhgkbp45c+aXaWlpk8r6fqFk48aN9UT4MnxGjyibCpWedOngwYM9lVKPAbwG0CpQ2Qco/3yB/hTg+Bo1aizLzs4e75imICoqakNly24wVAbGADBUSxT45yA1ap84cWLTuT7/yiv/aWRZdiqI/opMBe1GAv9RQqEC8dsXAdv0fRBZLsRKiqxo3LjxhpSUlLNmkaPIfQCLVgQU/B6wtlhh9noIahcXFwDw9S+++OLroUOHbj73b6liEMEroNT1XkmEQP6dmNgmq3LWFh48eHAYycdB9nae6xdTIfAHAhMtS70ZGxt7wDFNu8L5uJlkTmXIbjBUNiYToKHa8cwz/+pIpdcDATnd9zz26O+uKOmZ1157rY7WTAGYqhRSQVzlPf/1HR8guO3JzMcCkl8rYqUIV2jtWjF69G9KHZX/v//9r4VSru3wJMpzZv5bNvL66/oAwOeffz5UwOn+bHpFM/99A+guaWlpJ8r41ZWbr7/++lpSTYX3+yF50LbdLTt27Fih6YazsrLCa9eufRPAx0gkFmbyc+T597QFkAVKqQm1atWaFpzeV0SYnZ19jGRNgFCKr0dFRZ0X9SIMhlBjPACGagfpvl+ksJALAIiWXc4x48ePj83P130ApFJJf7ct7Uko/331ksPzf4bISoArbSXLabvXjRkzJgSV81wP+GvyOYIERdHvOh8xYsQXn02b9v8A/K2EZEAtQE7OzMwcnp6enl9+mUrH+vXrLwE4wbnJJvFYRSr/w4cP18jLyxtNqodF0Chgtw/AcQzzC8FJInpC3bp1t5c03/Hjx5uGhYXV9D0lgqUVJbvBUNUYD4ChWvHCCy9E5eYVHCIZ66zmBvIti9YkQPcHmUqyG8mwYqrjOdua5DZCVgqt5RRr5X333bkj1DJ/9NFHDZVyfQsiMrACIGfeMPK6ocHjP/98+lskfwuHpyDQE6AyV69ecVNlZgAUEa5fv2E6FYeycPe/uF27tikVkfVv9+7dl7pc4Q8qhXtBxp+hwt9mISdQ5IN69eqdOtu8J0+eHAnyE8/XSZBsFB0d/WOo5TcYzgeMB8BQrcjNLRgMItbfUVj97k6BvrOIxSsC8Sl94BQgazS4XAlWFhTkrnz44YcrvFIeaT0pkMigzH82RT9Z3PgDBxrcU7/h/iYEBxSOd1rzOr1r955HAdxbcVIH8tVXGx6kwlCHt6RARN8fauW/b9++K7WWR0jeTkqkgMXdjswHZSqpJtSrV29JaeYXke6+oksisjMmJsYof0O1xRgAhuqFQpqzkE5QytzghLrfCblCASsVZfnRo0c2Z2RkVGrJ1w8+mNJIYN8VnPxHgW/ccMMNxQYtjhmTVDBnzpxr8woK5kDQq2hQIEDIPbPnzJFVK1eOrWhPwNq1azuC8pxnffquML7YsUOHkAX+ffvtt0mWZT1u2/p6kpb/36XjbqSAPypgostlvXnJJZfsL9tK7O77r4bk4lDJbzCcjxgDwFC9EPbx13Lz3v/3ki8a66GwUoHL3QXWyieeeOCnKpPTCy33OACRgcmBeCw/P/zpMz03ePDg7JkzZ6bZtswD0AVAMcmCeG/Pnj3rZGZm3lJRMQFZWVmxp3Ny/gcgAoXn/ttPnz6dEYr5d+/ePQjA4yD7O29cOJS/ALJQU01o1KDB58FBfaVBRMJOnjzZuTAToBgDwFCtMTEAhmrDs88+W1MLj8F3U89xrg/hgCeeeGR+FYsYwPvvZ15pufQWkhHeGwUgAUX14KhRI189lzlmzJgRL+Bsgl2DbgQ44gIwNzcneuSIEb1Phvod1q5d9x7IWx1n5m5tqd5J7duvLuucCxcudF12WZNRloXHAXZw3CjwnvEDBE+QnKS1PeHyyy/fFop3+eWXX7qSXO2LI7CUahIdHb0vFHMbDOcjqqoFMBhChZtMQDFGrYhAKR1XBSKdEVr2S/DtnAF4PRdbjx79+d/nOsewYcOOhYe5Ukn5MvCwXRwnIRwYFZWzbt68ea3LLbSDtWvXjhXgVjhWEsHzZVX+O3fujNixY8etjRo1yiLlvyLo4Jzbu8IOAuO0tps2adL4gVApfwAQkYGAd0WR3Ub5G6o7xgAwVBuUjSZFOsV3HKBqVrY8Z+K///3vcAL+CH+vuhZN3D9mzJiC0sw1ePDg7Ojo6BEEPvNOFqg2RSBACy1Y+eWCBdeEQHysWbOmnxa84FxMgM1xcbF/Lu1cO3bsqLtjx44/aq1/APmeCFr4ZvR8KygAkAlI8uWXX96yadOmzzVr1qwigjMHepc15/+GiwJjABiqE0WUvE8RCnWtSpalRN55551ILXgJQKCyFrx906hRi8oyZ0pKSm529qkbCLzq3PsHbaDjaOvP5s+f/0xmZmZ4WdYBgOXLlzcVwWQAYQ7lXyDavi0hISHvXOfZtm3b5du2bXtFa/lOBBkC1A0S/ScCGZalml5xRbNfNWvWrMKU8qFDh2JJ9hCvxQFgUUWtZTCcLxgDwFBtIBHlbIs4XdOMr3SBSsAVHv4EgCsKlb8AwEGl8Hh55k1PT7fT0oY8COFYAG7f9jnwhAHUgnG169RZtWDBgsTSrrFu3bpo5XJNFeASv3fFs8pTXbp0+fpc5tiyZUv7LVlZH2otO0XwAIAYCXRbLAIk/Zfjxy9v3rz5ny6//PIyRvSfOxEREf1EEO47ACA5t6LXNBiqGmMAGKoNGiwxIx9FJ1SmLCUxadKkNtB4Mkj5g5D/S09PPxqKNYYOvXq8aAwn5Xig8ncaA+wognXzFiz4XWZmpnUu84oICwrcb0PQEU7jCvi8S+fO/zrb81u2bEnZtGnLLAG+huDX8N5C8ir/kwBfV4ptWrRISElISJiclJRUqqOQ8qC1HuT7WUQ2xMTEVLjRYTBUNcYAMFQbFPhLcf0iAg2WercbajIzM8NBTgIQ4VT+EMy88cYb/xfKtYYOvXq21joJwEbfIsUECUYS/FfdS+qtWrBgQeezzbly5crnBfhVQNAfsCc/IvyOkhL+ZGZmWl9v2jRq06ZNa7SWBSCuRkCSZdkGkbEul9WoZcsW9yUkJFRK0aBgSA70G2Pk7KqQwWCobIwBYKg2aC3fF+317bBxVUZGRpXmvTidm/s0wI6BvTxOyj0VsV5aWtq3kRHh3Ql5KzgoEIHtJKXUmgWLlkyaN29eneLmWr58+X0CPuoZ7+/OE22P6tOu3bHg8du3b6/x1YYNdye0aLGVWjJF0MVv9Ag0wBkkBrZu1SqxdevW4xMSEqqsgNGRI0caiUgrR1eZy0YbDBcSJhGQodrgcslOW0PDYdgWJo9BRHhs7JUASiwEU5FMmjSpm4BPODL1wZv8Z+xNv76pwq6bpaSk5AK4a/aXX64C8CIEsYVVi+H/grRAkXKLyxU2eNGiJRki9n98JYyXL19+o4CvOsd7c+U91L1796+c661evbGZy6UfyD6dcyeJOO+lfS9yAKL+Y2v3xA4dOpxPKXYd7n/8EhdXY1VVCmMwVBYmEZChWvH3Z57bCEc9dwCOZEC4e9y4x/5T2TKNz8yMjcnJ/YpgC1+yH2/Rnsm/+c1N6ZUlx+zZs69UynofZPfiiwg5iukobqfIOACnqKyZJMODPn+hR7duj/jmXrt2bS9APUziWpIWHPORXEZivMvl+jQxMbHSqxSejWPHjn0CYKQn/S+m1KpV64aqlslgqAyMB8BQvRBZDLJd0W4BiGEAKtUAEBG+O2nS2xC2CNz5ywFlSaXWmb/66qt3LVy4sE9Bgf0UgD+A4gosJ+zwDGi0BPkZSBuA5XSlgJjcvWvXxzZu3BiTk5N/MxXuFUGHgFK8ItlU/FBra3znzm2LrWlwPnDgwIEYERniM1gAmPN/w0WD8QAYqhV/+9tzKVRYENzv3Ylm5+Zk183IyMitLHneevfdR5Twn4XlhuHNYs9ht95688zKkiOY+fPnd9WC90m2KKkksn+372yDy0h5kLTuIHEryJqO8r8AuYOQ1wG8m5SUVGxQ5vnEkSNHbgA52ecN0Vo3rlOnzg9VLZfBUBmYIEBDtSIhodkSQEo6X46JjI1NqSxZ3n777X4Eng2Imff8/VJVKn8A6N+//xptuzsJ+O+AhAkAnPf7g9viOdf/CpAHBKjpDeqzSXwGyKCkzp1aJSUlvXwhKH8A0MANviuSADYb5W+4mDAGgKFakZ6ebhOcWOIAW26tDDnee++9ywT8GNp3zOa/jbA2MjJiXGXIcDYGDx6cPbB/yr0k/lGcsi+uTZF28NYcBGBD5FnLUld06dLlui5duswt6Trg+ci+ffuiLGft9QAAIABJREFUKBjqeNvPqlIeg6GyMQaAodrhcqmJAE4F93s3utc///zz9Sty/UmTJsW43fZUCC4Nuu9/HJBfVVRp3tIwd+7cmnPnzh87b978LVq8GQgL0/p6fzizMQARC1CdAVRawp5QEhUVNRhArKNralXJYjBUBcYAMFQ7HnvssUMQvubsc3i5wwXq0YpaOzMz08rLd39UeO/dJwCgKaNvvfXWPRW19rkwe/bsTnPmzH1DhD8C8qoAiT75gtIG/+zvBorLHeD7YaDb1htWr179axG5oGKKRHCDIx/jd/Hx8eeUythgqC4YA8BQLcnPD3sOwIHiPhORe1944YXLKmLdY7+cfBkiwwPO/QUQ4Su/ve22TypizbMxY8aM+FmzZt03a9actaD6CsRoQGKKyQz4PcFnFdFORMYXN1eQD8DXrgfww7Vr1y1YvXp9+4p6j1Cyc+fOCECGAf7s/2b3b7joMNcADdWSjIyHjz/zzHOPCvBB4CcCgNEFBfoFAL8K5ZpvvPHmo4Dc779a571Up4GldkFOhXkdiiMzM9OKjq4xQCncDvBaASJ9t/iCrvQdhujJVOq/KSnJK3xn+IsWLX4jOFlQ0RxGCL5CmExlf7127dqpSqk/de7c+by9/lerVq2BAGp6riwCVGIMAMNFxwXlsjMYSsvfn3nuvwBuAnzX2ByJgRSue+LRR0MS+PX6G2/cqMAPASr/dT9Psp0ftXZ3Hj169MFQrHM2pk2blkhaN4O4hWSjosl+CBKnQPUZLP43XKm5vox/PpYuXRrvtvVhklbAdUCoMUqJAHwaZKMzXhckBcQCinpt9+6d09PT0+3KeP9z5eDBgx8qpX7tSf7Dg3Xq1L6MnpwHBsNFgzEADNWajIyM2PCI6LWAtAQKlb/XGDjistjxkUceKVcq3gkTJ16rwEyCYUH3/fNEmDx69B0Vmlp26tSpl5OuG0ncRKJdkLL3Ked8ArMBfuR2508bPnx4iZUTFyxYnE6Fj4OU+/fRUZEJSUlJBQsXLowMD4+6H5BxSrFusPIvNBj87f0ApwBqcseObZeR1BX5fZyNQ4cOxQI4ADCGJJTif+rUqXN3VcpkMFQFxgAwVHv+9rd/tKHSqwFEO5Q/SEKRG7V293niiSdOlmXuCRPeGEIlnxEMD1L+EKXuvvvOOyok8+CUKVMaKOUaqSE3KbIHQXoUL5zKPw/EPMKaYln4/Oqrrz6ncsMLFi6eTWBwoOdA7uvbt+/rznGrVq2KE5EHQeteQhoGKP/A5ECOttoPYIpS+OTIkSPLg70PlcHBgwdvBvmBz0CyLCutdu3apgCQ4aLDGACGi4Jnnnn+JoF8QFIBQZ4AwfzTp2OvycgYU+KuuDhee+3f/ZWFGQQjg5U/yVdGj77zoVC+Q2ZmZhNa1vUKHAmwJwhVmLnPr/xzQM5WUFMiI8NmDBw4sFQJeb5cvDjBpWWHZyrfTp4/ZmefbJ6WlpZX3DPr1q0LKyjQ1yslY0HVu2TlX6R9iuRyKC6G1ovz8vLWJiUlVfiVwoMHD84EOMR7TPNL3bp165Gs8quZBkNlYwwAw0XD/2fvzOPjqsr///mcO0laSumWZu69MwmhtGwBBAoIyL5TpOwFQdkUEFkU0J+7IuIXFAQUkF3cEKiAILRWQMsuCgURu9BSCO3MvXe6l7a0Teae5/fHJOkkTTJ3kpks5bxfr8CcO88955npzDzPOec5z3P99T+7CMRdaDFurQa7xRy9EIZNJ37rW9+KZDB/+atfHWRB/ZXEsJZ95Px9/+kjR24zuRT73lOnTt1RhCeBciqp9s7N8/Nm+rnx1oKcpiiPDRkyZPoxxxyzrqfj/f0f/7iZ4JXt9/V58SGHHHRPlPtff/31PQFcBPB0kGOKcAZAch2If0L4hmXxTcuy3hw/fvz7pUwuFARBDcA0yRgJQKnf1FRXn1+q/g2GwYRxAAyfKH5y/c+uVMTNHbcCWszqu6RMvvrqq+d318ftt991FKj/TDLP+Lc5E+80bRx64BVXfL5H9e0feOCBIVVVVYdCqUkEJxHcHu2di1bjv4qKT1Gsx1avHv63888/rNf1DWbOnLm11rKI5Ki8ff05IvpTxS7Vv/HGGxUi6khSn0mqk0Bu08HYt1QKLtherRTfAvgfIWYrYHYsFpu73XbbrerJa/R9/zJS3db6fopYx8TjY57pSV8Gw2DHOACGTxzX//TG7xK4DtgsKBAk10Lhyq9feeV9nd17222/OgnEwySqcsa43dJ/JhtTn77sS1/6sBh9HnzwwW1DkeMUrONBHE62xCogb5aca6eEnEaLTyCb/UepMwo+++zfr1GKP8wP6gOsEw477KCne9PvzJkzh2yzzeijSH0cyWNJbhfR+HfXThOcS3IOiTkA5mWzQ+ZMmOAs7U4X3w9eJbF/S2GjTE3NWBP9b/jEYhwAwyeS66//2UVUvCO3FNxhJYCEgM8hxq9+/Yor5rTec+ttt31eQT1AItaJ8f9YKRx+8cUX/6vQ2NfMnBkbt3jxZ7RWk6gwicSunRh7gAwJ/BsKT1vk9ClTpvynXO/HzJkz7TDUC0Bu3Tq+UvjHoYceekSpx3r77bd31MBxCjya5Gc6rg60D2Qs3G4LVsy1l5OYQ3IuyblKqTkA3nVd98NMJrO91noBW28S/tK2a0oap2EwDCaMA2D4xHLDDTcdA4WpCtgGecY/t5JPkGym4u8ltK63LH0kyDtIqrznW41/llQnX3LJRV3OlO+7777xtKzDCHUUiaMAjsyPG8iLI8gwF7k/AwhnnHXWWcv64r145pnn7qLixXlxBU1aqz2PPPLgOYXv7jlTp061GhoadtMaBymFAwF+BkQiorEvpr2W5EoSta3PA7KfbdsFHTaDYUvFOACGTzQ33HDzblR6GsnadkGB7ff1Q5KKLSftOj4vUBde9pWL220Z3HvvvUlAHQ7ycACHkazrMLtvNf4fE3wJCs+KUs+e87nPvVPKoLcoPPfcc7uI4G20rIa0rIf85IgjDvteX+rRyrvvvpvIZmVvEvtQYR+Ce5Mc3Qvj31l7YTxeM6Gv32uDYSBhHADDJ54bb7yxRqB+S/JYAB2Nf7dtgtdceuklP7rzzjtrSB4mVIcR6nASE1qXtTss7a8D+S8CL4nFF9euWvXKFVdc0enxur5g6tSp1ogRo16i4v6bZtpYOHTokN0OOOCA9f2lV0fmzp1br5TaA1B7KMU9Se4Boq6nzgAgP3Yc5wf9+6oMhv7FOAAGAwAR4c9+fstVCvg/kpWbxwUAnRj/+SBnkDycRANbLH3e8wC5TJGvCuVFaPWK1k2zLr744gFTPveZZ565SsCf5xl/AdTRRx552HP9rVshFi9ePLqpqWlP0toDCntQsBfJXToz/h22WSAiu7iuO7e/X4PB0J8YB8BgyOOmm26aCGU9BMGE/KDATvb9O2t/RPIdkLMomKWUzLrwwgvnDNRl5ueee25cNtT/JTmsxfiDVHcceeThl/W3bsWwYMGCbWKx2JkAv0Zy5+5n/wDJNx3HmdjfehsM/Y1xAAyGDvz0pz8dHotVXAeqS9lSEKeLIMG2tpC3XXrJxV8dqMa+IzNnzoxt2LhxJqkO3PSa8J5ovUdvEgn1JQsWLGhQSl0G8gtsyesfaSsAuMp13Vv6VXmDYQBgHACDoQtuvvnmfUF1N8A9osQFgOpZhfD8Sy65JN2/mhdm+owZNxD8Zt7SfyiWOviYI454tb916w4RsebPXzhZKVxG4vBuZvprlFIzBDi9w/NNikw6Tvf5AgyGTwKqvxUwGAYqV1111b8/Wr1qH5D/D8DHgEDaze/btwl9lED9984775nSx6oWxbRpM06E4P8BACT3HxFcN5CN/7x583ac++6718+fv+BDUh4HcHiL6i0IBAgh/Bsgn6+oqLC11n/q8DxE42lj/A2GHGYFwGCIwE23376tFeqfEPxc7khgl3EALW15KmZZl3+pyKyA5WbGjBnjQ43XSYxs3RMX8h9rVq86uhS1C0rJwoULRzQ1NZ0B8FwQBzBv5aVDZsD/CfG7yljswbq6Oq/1/sbGRQ8pxTPzgwAB9dlk0pnWf6/KYBg4GAfAYCiCX/ziFxOF1s8UWpafuw8KXEelfgSdvXUgRP4/+eSTw2OxipdB7t5q/EEGFTFrjyOPPDLT3/oBuWOJO++88xFQ6hwFnkJyaBeZAJco8iER+d2ECRPe7NjPBx98MEQptYRUw/O2BrxEwt2WZJ+XIDYYBiLGATAYesAvf/mr40H5KcmG9nEBmx85Izkbor510UUX9Cqnfm944403KvxgyVMkjtmUjAhZRRx97LHHzuwvvYBcQOKYMWMOBdTpJE4BUb3J2G9yqEhuVIpPkfzd6tWrZ3RXOnjRokWTRfBkflyAUvxpIpH4Vt+9MoNhYGMcAIOhh1xzzTVqzJixpwv5HUXuXjB5EPCCZfGbF1xwQZ+nn33qqafvB3lBnvGHorrquOOO6Zdo+JkzZ8ZGjhx5GJQ6nYKTSVZ3srQPECGELyqFR5qbm6fuvvvuK6P0/8EHH/5WKZyTFyQoSnHnRCLxbrlfm8EwWDAOgMHQS0SEd9xx92RSvgdy7w7JgjpuDYgQT8BSP7nwvPNm9YV+f/nLX34Aqh/lRfwDVL87ftKx5/bF+K28/PLLw6uqtjpaKR5P4oT8mX57469Cki9B4U8Sho/ttttuRW1PzJ49u3LYsGEByFFtKwmQV+rq6g4s00szGAYlxgEwGErIHXfcdSyV+iYph3YfJAgQ+BtgXX/BBee8UC59nnjiqUupcFuujEGr8ce/h2211SGHHXbYhnKN28qrr84aX1GhPytQxxNycFuWxZbcA5uMP0NFvCSi/hSL8fGGhoagp2M2NjYeL8DTHc7+f7Guru7XpXpdBsOWgHEADIYycNddd31KQ12uyLNJDOnWGQD+BfCONWtWTS1lXYAnnvjLxSDu3GT8CSgshtb7n3DCCWXJVfD2228PW7du3UG0rKMoOJ7kjh328fP39TWpXgL4p8pK67HeGP18GhsbfyfAF/Jm/2uGDh3q1tTUrC1F/wbDloJxAAyGMnL33XdXQ6mLIPgKqRJdBAm2tpcS+DUpd59zzjkf9Gbcxx9/8gIq3Js7sti2778KEjtw8uRjZ5fm1eWCCzds2LCfCI9QioeD3I9kRevsvhPjrxXxEoA/hWH42L777lsSo9/K4sWLhzZnswHBbdry/pN31tfVfaWU4xgMWwLGATAY+oC77767gox9FgpfJHgsSavV+G9aDWhrC8mXAP4+m9346Pnnn7+qmLEef/yJ80Hc18H4byTkmMmTJ/dqu2Hq7NmVNUuXTlRKHQjwcJAHERi2ydhvWtrPa68h+QyJ6WEYTttvv/3KduRw4cKFp5DqsfzMgJZSu9fW1r5TrjENhsGKcQAMhj7mzt/+NhEL5TxCzlfg9h2Mf0dnYAOpppH6sVgsNn3KlCmru+v78cefuFIgPyfbFv4BQivic5MnT55arK7PPvvsCKXUAYD6DC0eRME+ubP5XRr71vYCRTVNhNO22WarFxsaGpp6+n4Vw8KF708leXre8b+X6+u3PagvxjYYBhvGATAY+gkR4a9//btDqXAuyZMIjCjgDDRBcSYgf5aKihlnn3rqh/l9Pf74n68D+J2OiXNE4cqTJ0++tZA+11xzjdp33wN3isX0vqTaB+CBJHZF3kpCm2Hd3Pg3K+JFETVNKtS0gz796fnlfO86Y968ecMrKioDkltteg/w+fr6+gf7WheDYTBgHACDYQDwwAMPDFFKHQdYnwPls0TeLLtd0GA74/6ukM9S4RklPJ7kxZtlzQNuPvnkE6/ubMynnnqqTqmKfUjsS6X2JWQiyOHMM/CbdOiszQyJ6YCaXllpPbPffvt91Hfv2OYsXLjwEoC/ypv9L8lmm+smTJhQssBKg2FLwjgABsMA4/777x8ei1WdSMUpJI4iOaQzB6DN2HfRJvHI22//56wf/vCH8vTTT48XkT1B7klae0KwJxVqur4fmxl/kutBvkLw76T8/ZBDDplFUvfz29XGe+8tfKdlxaI1n8AN22237bf7Wy+DYaBiHACDYQAzderUrTduzB5D8iQqHM+W5DYFtgoA4mOCv6fiLgT3ADG8g3OQt5TfZTsk+AaZM/hKqVf7IndAT5g/f/7BSlkv5GUS1EpxfH19fa9OUxgMWzLGATAYBgkzZ86MBUFwiFCdSMjxpBoXxRmIaOxBsiln8OVFki9ls9mXJ02a1K/L+lFZsOC9R0BMad36IDFt3Lhxn+1vvQyGgYxxAAyGQcqDDz46oaJCHyO5Y4WHEhzWllI3Pw6g2zaWArxfLD7z8UfbvDZlygHr+/t1FcucOXOcWEXFh7n8A62xD3LC9ttv32/FlwyGwYBxAAyGLYDp06dXrVu37kDSOobE4SD3IGgVihNoaWep+D8K3iAxSyn1xqpVq/47ZcqUPjm611vmz59/Lcjv583+F44bN26HgRSfYDAMRIwDYDBsgUydOnVry6rcj8SRSvFAQO0LSkUEZ6C1nSUxH8QskLMoMqu5ufn1SZMmDaiI+g8++GBkU3PzBwRH5uX9/+r48eN/2c+qGQwDHuMAGAyfAJ5++ulRYRgeJOQBCmp/EHuT3KrIOIENBOcCeNeyOAfAPJLz1q1bN7+/HIN58+ZdR6rvtjouIFaH2WztTjvttKZVZvTo0dsMraw8puO9ITDbsqxKZLPJdCbTtl0wfvz4qvVr104OgeeDIFjaV6/FYOhrjANgMHwCmTlzZuzjjz/eQ4T7k9gPuRz+44oMGmw9HhiC+ABUcxVkLmC9S+o5zUOGvHfY3nsvK9drmDdvngvwXZJbt8U2QN0yYcL2V+XLxePxGou8Cjm1zwfkzyJcRUueFa0mE3JpKBgfBEEjALhufDKFTyjw0MW+/2K59DcY+hvjABgMBgDA9OnTtyG5O2lNhMJEBU4EsFOXmQC7zheQXwRoI8A0FXySHoQ+qTxYeN8CfBHx9t5778ae7NfPnTfvDwTPzgtsDCGyww477PB+V/cknPhblsapizKZ9wHAdZxfELK7CKZ5QXATACQd548C2V6B3zAOgGFLJtbfChgMhoFBy5G/l1v+AORqAQCyJ8hdIXo3gdqVQAOAERBB66Y7ALS2BS0zi9yDKhDjAIxDqzgFFEByyXow6823Nsx6880UwaUklwNcoRRWiHAFqZYrJWtIfqyUWk1yndZ6vVKqFoKz8geCyF+6M/5dIYJHSZ4F4CbXdbcS0SNBfAjp8VtpMAwKjANgMBi65KijjloN4PmWvzaeffbZuoqKigaAu4KYAJEdQO4ogJ2zyZ06A120ZQiE40GMFwCkQIRtzoK0yGstbSsQ+b6H5MQAomC9g05RsgzCdbU1NduHCPeB8CkQh/WoL4NhEGEcAEOvSCaTQ1U2O07IpAAUrVexomJ+KpVa0d+6GcrHUUcdtQjAIgB/zb/+2muvbdPc3DxBYO0AYAIV6gmpF+G2IGoJVHTlHOQQQNhlWyBgJ20B3txxxx16vFxP6qmhUqcQ2CcrclkMNA6AYYsnlnTsNzpeFIGXDoLJvek4YdsPkxjf/ipvSfn+ZpW5XCf+uALrciKYmfKCb/RmbEP5mQhUBI59g4TZL4fEVmhdL1WEhFk4jlPv+/6H+fc0NDRUzp49e1CcLTf0jJaCQLNa/toxdepUq76+3hWRegDbgoxDdBJkHGBCBHECSRDDgK6NfWdtUn7RK8VVxeNKss9AZHEmk1mScO1edWcwDAZiAkzc7CoxsTYe33VxJvO/nnRaF4+PC4kpsnmQYbwzeYINAuwAACKyqCdjGvoUBq79OARdpVpd4/t+279jMpkcCp395qqVy2sAfKVvVDQMNKZMmRICWNzy91JXcq+++urQYcOGjQkta4wVhmNIVmvIGEU1EsIRIhgO6K0U1TCAIwGRbDZ8OIoOhJqrK6xNRxZFllO4NuWlViQce44Q03NyWCIiA7LugcFQKrrcAtAWpwDokQMQKpwBc8JgiyVh26d2ZvwJfCTA1hD8Dy1LAol4/LMSZn+BXBDYA32tq2HwccABB6wHkGr5Kykp3z8rv+0FwbWtj9N+cE6bnBdcVuqxDYaBRtcxAILTAfygR70KzzTmf8tFyJPZLkRabq2oGvqjxsbGVQCscaNGbd32lMJdABLFjpG07X01eTKgd6TQErIRDJ/2vCXPASY+22AwGHpLRwdgDYDhLY93Ssbju6UymXeK6dC27V1A7N7SbBfe0xVCfT7ArQBAKVlSzHiGvoeQCXnNRWk/83UAYUs7fH/lytU97bu+vn5k88YN92sIQfmNiLqLlgqJ7I6irTNdx/6egOd0jC8wGAwGQ3G0dwAEz5M4RIBtAEAsng6gKAcgpnCGtM7PBK+B2L/QPZ635NVixjD0O61OIgSYi03Gv1eMHj16m+aNG/5G8GdQ2qO2dgMQl2zWr9D6jcalmQsT8fh+JP7iOM5k4wQYDAZDz1EdWhsEeLKtndsGKAoRnNn6mEoiBeYYBhlERdtDwcpSdTu0qvJ2grelfP8xaHWaUK7R0MdB8fvNMeuDhG2fm85kXhOlL7Egv4eJMzEYDIYes3kMgJapUPxCS2unZLJm91RqyX+jdOa67l4QvUOuxQUa+g2W9zfaSsbju0CpHUBdpYF1KsT7qUxmDno4K43H49tVKLWnpv6osln/r3Hp0qDQPbZtj7VEdhMLY6kZKnKJVmp2Op1e3hMdgNaTFNxZlGwDWOtFZLlSak5v+gQQS9r2XlqJDWCY0lwVko2+789DD/fVSZZkP762pmZ7AepTvv+HvMuzPD9zCgAkXftnAvwYwG89b8mrCdt+r9Zxjl7s+38rxfgGg8HwSWMzB2BkdfUzq1YsXwlgFABIyNMBRHIAFPSZbdaA0Wf/Cdt+DsR2Lc1n0n5wSXfyjuNsa1G+IYIzBKhuTRZCAKKAhGOvBOQ3Quv/PM/rtBhJwnFeAcTO6c3zF/v+y0nb/oUQlwjEohDNMUsnHPtxS8s3W3OHtzIRqAhs+2wQlwPYE2wxhQQ0BNBhmHDt1wXyC8/LPIIIBnbcqFEjNg6tuhqC80KgFkDunDN0zo3SoU469lta8OtRY8bcF/VMfTJZs7uE/AbAEwUYnuszl19FQZBwbR8ijzSHcsOSJUsynb9f9jygbeZf23pdICckHHtha5uC5zXwJonWgiybjn4SpyUc+5C2phUem0otXQAAYUwdpyB/6vpVyAqAza0tRT4SihwPwDgABoPB0ANUxwuzZ89uouDPm64w6jYARTCltaGFD0XWgqgFcvnCBdJproBWXNe+TEHmiuBSANVdiI0CeCVFz3Ec56DORaRu05jYyrXtW4W4DICVJ6QAnJa1rIr8O13X3TFw7NdAPABgL3S+FG1BsB+FDyUc5+Vtq6ud7l5XnW03bBxS9Q4E30eege2AEmAiiTtWrVj+juM423bXJ4BYwolfJ6F6E+Dnkbd33w6BA/BrFZZ6z3Xjn+uir+2Atpzu+e/H1m3XgXFC2CRH5V3LdzKH58uqrFXZ9sKAbSFqQYcxd3Zt+4aEE79LwCsguKL1iSat5xOoL/D6DQaDwdAFmzkAAEByal5zx2SyZvfO5PJx3Zr9AbQYJL7t+/7cUiiYT8KJf4eC2wAMbbtI+AJ5EJBbATwKIH8GO1ZB/pqMx3frrl8BDmbO+G8O8Zrnee+26ZBI7EDRLyNn+FvJAngekLsFci8grwDIq24mB2QrYv/qymCPGzVqRJhLQJJn+LkAwGMiuC3XL/4GYH3ebTso4NmGhoZKdA4TTvwBgN9Fe6emEZA/UHA7cu9XfsrerSl8MOE4X+ukvw8AvA/gfRDNedfXtl0H3qcgEJGVedeyebJr8mV1LGxbwdDCrGi92YqUAoYR/Bw0vpYOgmmt1ysqdEwo2Y7yBoPBYIhGp3kAFvv+3xOOvQwtM2wJOQWFtgG0ajv7T0r02X9EkrZ9aMsecCsbILgq7Qf3IG+/Px6PD4tZ/BEEV7dcGiaKvwGwN7pahqd8HQICWEHiNg15S4mKA/pUEdW2GjJ69OhtqMMZkr/yQDwtUJd6ntcug2EikdgBOrwHQOuSd62C/Gn8+PEHvffeexvzZTdUVX2VQF1LUxP8csr37+2oZjwer4kp9WdADshdkQmrV6w4D8A9HWVd2/4+gM/nXVoKwVfSQfBovlxDQ0Pl6pXLrxTgxy0zewJyUyIRfyedzvy9VS7tBzu1vTbXfg/A9rmXz6c6Jldp4Q4ASDjxFMBcHgDBo+kguKATWYAyHwq7AXg67+rcVBBcnnCc/5FybzKZfCWVSqUBAGFsdwDvdtaVwWAwGArT6QoAgCwgj21qFtwGsMC2EwOS1XikBLq1QxM3YpO+muDJ6SC4Ex2C/TKZzLq0F3wdkLvzLu9V6zhHd9m5oEKAQIV635QXXON5mSdTvn9Pys8ck/b9u1rFhlZWflXQFqsAgg+lveCkjsYfANLp9PyRo8ccjfbFUvbZsG7NlzvKkjxlkyp8uDPj3/LaloQiJwGbIu815OSOcttWVzskvpV3aaVQHdzR+AO5LZ+UF/xUoKZg06qFBa3uRPuVg7KSzerpAKagE6c07fv3CrEUOvvt1mtCOd8Sebyv9DMYDIYtja4cAEAjfxtgh0Si5lNdiSbi8UMItFTP4D+DIGgskX4AgFrb3oe5GXwLcm/K92d0e5OKXYe8ZXgNvZmhbIfgusVLlizs6un6+vohoFyVd2nxhubmi9HNaYPZs2c3hYJzkbfMLuDV2MzISdvSP6G7rWceBMFSEA8B8h8Aj0Hwz44yYWXsSuRvk4Bf9TxvXnf9ep73BIk783SakLDt7t+zEpILPlTTk679vU6e1hS5TQRf3La62mmJU/h4cRC83lf6GQwGw5ZGlw5AOpN5QYBNR+B016sAovLO/lOX/Oy/ppyY36bOLS/tnpjuAAAgAElEQVR3RzqdTgG4lYLbRXApdfd56CvD8LHunm9ev/6AXOGRVuTOZcuWrSmkRxAES0n8Ou9SbSIe37uD2NJND3lubW21212faS+4NO1n9kz7wWn5uczbNBMcl9dMpX3/j4X0BICsxk3Ic5qE7DMHAADSvv9D0dgz6do/Wr+x6UdNzWFbQGLKz9xOK5bIxmInUfPy9RuavtSXuhkMBsOWRtcrAECoiILbABOBCoKntt4Ta9bdHOXqIcL92h4CQdT0xGk/uDoVBJd7QfCrVCbzr25E3y943t/ioflNpfFUFB0AIBT+Jb8tFg9uJ0D8I69Vq7Oxd1zbvqHlBEPX9Ro6IR6P1wBoyBttOiLmRGhZuXl7k1r6kK6ly0I2HQSnAMDQqqoXKyzrKteNn+i68RNc275SdHYaiN2zIketWLHioz7WzWAwGLYounMAEArz9/J3SCQSe3SUCWz7aACjcy3OjJI4p2gId9NDFpWaOBKCDwqKiIzLa65fnMlEPuWQzWbfym9TZPv8tsrqnxPIN2ijSXxTQV5MOPaShGs/krDt8+rHji1YpLwiF6OQdyxRvdWlcCdQkCfPRH19/ZBi7i8BYcoLfgiljlDkQgXuSXAfKFlJFTst7QeXZDKZdX2sk8FgMGxxdDu79H3/lYQTT7dFcWt9OoD/tBMizmh9KNQlj/5voabtkUhvMuF1DqOks+WYTY9lBYrINLh06dK1CcdeB2DY5n0Bi5csWei6NadR1MNoc6baGAXBFBBTmmOWuI49i+BDKtb88OLFy7zN1WzfN4Giiitpckl+pb8wXDsawObjlJmWjIcP9vW4BoPB8Emh2xUA5PaD85f0220DJJPJoQRa9+c3xmJVf0bpUWhvFNd3JdgLCvZJwYi8Vk9moB/nPd6q45Oet+TZimzYAMgt6NpoMxcMKT/X2dj7Ccf5CTo4cVrJNu1uAIrSlSL5ekKEm+lqMBgMhsFPIQcAaHekTya02wYIw0mtlQMJzli0aFHJCsO00wDYkNce2pVgWSHX5rV6YhTzs/B93JlA49KlQdrPXGX7QVKojgFwswCzu+ivCpDvJBz7/nZqhsjXE9K26hAN5jL7bWpTOtXVYDAYDIObgg5AOhc819h2IbcNAAAQStvyvy5D9H8bxKq2h5SOS+R9AyXfuRmDIs7Ijxs1agSAvL106bQ+QSuzgGbP855J+8HVnh/sKlR1pFwI4DG0d4YA4Jxax2kLKhTLaueECTA2qp4AIER+nIG2rK1XdClsMBgMhkFL4RUAQMj8bQA5FQBc190KgkktF9eFYfSo+KIRtJ3PF+GuUW9LOs6xCce+07XtbyRs+7Tx48dX9UKL/KxzQ+tse6cuJTvQVFW1Z35byG7P+nfE87zFKS9zX9oPThOqWrBdtjxoStsxzDAMF6BdxkPdbuyCEPnyXmNjY0eHw2AwGAxbAFEcgI6nAXass+0Gaj0JLcvLBP9SzshsCl7d1ICbSCR2iHjraQC+TOJnULjvvffeay54Rxco4Sv5ba3w2aj3CnFCftsSvtb6uM62G1zb/nrSce5LOvaLyWSy2y0Oz/OWVa3f+Hnk59iXTUVxMpnMEgDzN93BSYi4WhGPx7eD5B8hRHdHJw0Gg8EwiInkAPi+PwuC91rbIXAK1KaAQF2+6H8AAMlp7S5IeFGhe5LJ5FDBpgRCFJmJdgV6iiMkX0J+Rj/BJfF4vOD+eiKRGAPg3LxLy7YZPbrNAcgq2Y3EjQL5ogAHSXPzEYX6fH/lytXISwdMcFX+8yTy8w7Uum58CiJgkVci/zMh7VcaegY31T1Q7eMLDAaDwdB/RHIAAAB5FQJJnAnB8S3NlaNGVZe1Jvti338RyD+fjiuStr1vd/dIGH4feUV7RHhfb3TwPO9jgHflXdo2ZvF2dF4KuJWY6Oy9yMUMtGpy9+zZs5s2ta3nkLevL4o/7KbCHwDAdeNHIm9vX1PaHc3UULflV+yj8Je1NTXtcg90pNZxjiFxad6ljCg1tcsbotMWRCiCbks9GwwGg6HviOwA0ArbtgEE2AUty/8CPtbeoJUHCq5E69l7QYUoPJOw7dM6yjU0NFS6tv0DQPKL4TyfDoLpvdWhoqrqRnBTPAIE5yUce2pnCXpc161zHfspol063febsvqGfDnP85YJ+IfWNoG9V61Y/sS21dVOZzok4/FPU5if2ncdabU7CeB53mLR+EnepWodUy8lbXsSNsdybftSDXkSeZ8HoXwt5/T0DrZbqcABCds+13XdujrbbnBd1xwxNBgMhn4icprZVGrJfxOOPQ9Au+A3qjJG/+ePHwQvJF37uyLIGVDBCBB/yukkL4hwFRXiq5YvP5p5mQMh8ELgfHRVCrgIGhsbV7muezoR/iOvLsBpzTHrswnXfg6C+YBQwJ0p+nAA+TP5ZUrLiUuXLl3bsV8q9S2E4aS8jIfHZStija5jzyTxPwJaBDaBXQSYmHerELwylUua0w4vCH6cdJw927ZBBI4Q05KOPUeAF0Wwmgo2RI4EkOig0f95XlCSf1cNvkXIQS3NGIjfUDRCAioXR/LX7u43GAwGQ3koKs88iUdE8MNNF+Cn05nnS61UV6S84KcJ2/4IxK3YZFx3ArgTiZyJb78gP1eTpwa+31gqHTzPe8t13f0p+gkAO7ZcHgJpDQpkZ3sCr9MKz1rsL31v86dyWe9c1z2comcAbQF9lQSOgeCYVs+lgweznpRvpryg09LBAHTK909NOM7PAbkCLe9My+rNLm3vV3tt1wH8en4J5N4iwF0ELkK7Y5Btz+0C4wAYDAZDv6CQW6Jt/es2kr/lNECbPIE/oJuUuEqrbL68iHR6pExyefBb++xWh3QQ3Glp2RnEb0Gs7lRI4AHyHaHa2/f9TnP2C9AaSLcSKC7Zjed580aOHrO7CC4D8L8uxATEvyA4N+0HB6RSnRv/vD7fzWrZtcXBauxGdBkED1hadk15mdsKqBqmff9rQrW3QP6MLhIQAVgCyK1CtXMk4y+b3jtd4N/L9/25FBwCyCvo6MOQtZ3fZTAYDIZy010A24BnIlARxOMTxbJshbAaopYrkfmLgmAOSrDkH5VEIpFUWjcIMFYAKmDJxjD8T67Gfc9wXbeOWu9GJSM0MIQhlohlpT3P+y+KqEOQT319/ZCmpo/3UmLFQT0GolZA6wWpTGZOT/sscvyRGzZscJVSYWVl5Ycmx4DBYDAYDAaDwWAwGAwGg8FgMBgMBoPBYDAYDAaDwWAwGAwGg8FgMBgMBoPBYDAYDAaDwWAwGAwGg8FgMBgMBoPBYDAYDAaDwWD4ZFDyVMATgYpMMlnDbNYFOVqLbJM3lijyo5A6ZIi1IflRGIaLOquQN4ixHMdJWlrb2sJwAEOpOQQASGY19RpS1mlteb7vLwag+1ddw0CmoaGhcuXKlXGGYYJKjRSR4Wj5LgGAKLUaCLXS/Egr9RGARaUo42wwGLZ8eusAqEQisTu0PhSUA0SwC4kdIKgorhtZBTBFcKEAr1PklWaR1zOZTLeFZvob13WrgXB/itoPwL6AjANRW8TrbwLwgUDmEOplJfLS4iB4C0C2fFoXTzKZHKqam51CcmMzmcWzgOa+0GkLJZa07b00cAiJ/QDsCmAciqzaCWA5wBQgC0XwGpT6Z2Vl5Rum9oLBYMinRw5AIh7fT8izCJyaV8O+1GQBzoTIPXYQPDlQDEsyOXa8hGoKoKYA8qmSD0CshsbjAH6fDoIXMABWCJK2fagQMwvJCdVOnue92xc6bUEwaduHaMpZBE8GUF2mcZogmAHgnnQQzEAfFH8yGAwDm2IcAOW68SkUXgVgn3Ip1CmEn/aCcjkaUYi5bvx0Cr8GYN8+HHcRITdrWvf257KucQDKQsx14+e2fKZ27duh+Xba9/fo2zENBsNAI9LSouvGj6TgRgj750dDEO+PYScCFb5rX0zB1RDU94MKdQLeStHfTtj2jXYQ/HKgrIQYeo7ruidR9A0Q7NgvClBq+mVcg8EwoOjWARg9evQ2Q6qqfk6RL6IMAYMDmaRtH5IhfkXBLv2tC4A4iJsCxz4voeXCdCbzWn8rZCge27bHWgp3QPTp/a2LwWAwqK6esG17l6FVVW8Q8iV8goz/2LFjt0649gNCzBQMCOOfz65QfCXh2jeh+MAwQz+SjMc/bVHegsAYf4PBMCDo1AFI2PZhFvEaIBP6WqH+xHXdnSpj1r8hOA8D1+lREFydcO1nbNse29/KGAqTdJxTRPEFgIn+1sVgMBha2cwBqHWcg0E8BWB4icYQAAP+nL/rxk+k6H8D2Lm/dYmE4DCLeN113Z36WxVD17hu/EShPAygqkRdagAD+niswWAYHLRbRnYcZ1sNeRzAsKJ7EnhCTofIW1Dqv5XNze+tA9bmJflRdXV1I7Bx46isZY2wRGo0sLMADQpygOQMb7/Mul03fgaFf0DvltU3AHhNBP+CkgWWqAVihatUM9dKZbiBTdaQMCbDGapRWsn2FLU9RPYFsT+ArXo45rYQPdNxnMN935/bC90NZSAZj+8mwj8CxebFAAA0gvgrhf+B1m83iTTGYrE1eadBYolEYoSVzY7IWtZIau0IsDMVdoXGZ0CML+FLMRgMWyD5Bk8pyiMQjCnifi3gw0rk3lQQvIjuz6zrRYsWrQSwMu/a31ofxOPxGsvCCRSeCuBoAFYRevSYpOOcLSK/7eF4GyF4guRvYlVVzxeRaOX51gcTgYogET8Yws9DcCqKXHkhYBMy07btw4MgmFPMvYbyUV9fP6R544ZHUZxzlxXIA9T4dTqT+Rdasv11JZtOp5cDWJ53bVrrg0QikZQwnEyF0yA4FAN3S8tgMPQTbT8KSce5SCB3F3Hv80J1led5b5VaKdd166D1V0hcCmBrADrtByV3CJK2fZzktjuK7ftjCm7XSt3oed6yUukzevTobYZWVV0OyFUARhd5+4ehYJ8gCJaWSp9WTB6A4knY9vdBXBv5BsFTotQ3yvH+JRKJHSQMLyNxIYAhAyCvhsFgGAAQAMaPH1/18bq1jQTsiHf9PO0F30SZs4m5rlsNrX9AhS+nvaCylH07jrOzovwTghFF3vpYrDl7+YfLlvml1Cef+vr6kU0bN95IFHf8ksBLI0aPOXL27NlNpdTHOADFUVdXNypsblqEnPNaCA3I99J+5gZ0P+PvNYlEIgkJr4PGUekgMAGJBsMnHAUA69etmxLZ+EO+m/aCr6MPUol6nrfMC4IrtHD/UvZbV1c3Son8pUjjv4aUs9N+cFo5jT8ANDY2rvJ8/0KhOhbtl3i7RYCDVq9cfnMZVTNEINvU9EVEM/4QykVpP3M9ymz8ASCdTqfSXnCeJieXeyyDwTDwaT0F8IUowoQ80zJT6VN8359Vyv7CbNMtRQZJLaalD0x5mT+WUo9CeJ73DK1wPwCRZ9Ui+Irrxo8so1qGAjDi9wmQP3he5v7yarM5pf4+GQyGwYmKx+PDADk4gqxoWldgABSn6Q1J2z4OgnOLuGV+rDn76VRqyX/LplQ3pFJL38tqORjAvIi3kMJ7q6urS3WM01AEiUQiCWK3CKJNYa6uhsFgMPQLqlKpiYh0RlleHez7u2PHjt1aiHuKuGWRUB1V7iX/QmQymSVQ1lEAPox4S31VhfWjcupk6IIw3B/R4jaeLkfApsFgMERF6ciJb9Rfy6tK+amMxb4GIBlRfG0oOM7zvEXl1Ckq6XQ6pcDTAGyMdge/4rpuXVmVMmyGRPw+kTLov08Gg2FwowBEMxIii8urSnmpq6sbBeiro8oL5UsD7Vz9Yt9/Q4ivRxSvUlr/sKwKGTZDkZG+TxQ1qL9PBoNh8KNEJNJesSIz5VamnITNzV8HODKKrEDu9bzMI+XWqSd4XnAHBP+MIivEOfF4fLty62TYhDDa90krNai/TwaDYfCjyGhpSrVIseflBwz19fVDAPlyRPFMrKLqm2VVqHeIKHUZoh3DjMWUurDcChk2ISKRvk8Mw0H7fTIYDFsGMQFXMcIRZFKcPtCnLGSb1p8CMFpmPcH/a0lZPGDxPO/NhG0/CuKMwtJyQUNDwzWlTg5k6BwKV0UJAdRq8H6fektDQ0PlmuXLJ2hyRwHqAD1UhCNIaSa5FsKVmuEHYcj3MpnMB/2tb28ZO3bs1kqpsUqp0SKyvqIiu8qytl5RROpwQyfU1NTEK5XaWSsZp8CxAgwTjUpSPgLUBogsVuQHTVrPzWQyg72AVqx+7NhqbVljmskhFVqvRFXVyt7aqhhElkfMNXcogF/0ZrD+QsAvRhR9Nx0ED5ZVmRKhyRsVJIIDgPiq5csnA3i03DoZACoslwgpfZjLz/9wufUZKNTWVrthc+wskkevWrH8MyC22pT7iCBz/8+9dwKKQkwBCcfOAHiF4OMbs9kn84qLlQXXdeuo9ae7kyGwNhUE3QZxuq67l4K+AILDBNgld1UAAjobg85uyCZs+3WI/F86k3l68/vjJ1KzYPbTrMj0vjZu8Xi8JkYeUkhOaf3m4iVLFpZwaCtp20cL5SSQR0CwvQCgbJrCtn6O2t5rCGKK2YRjvwXwOWr9UCqTeaeEOnVK0rYnSYGieqLUa57ndRkLNHbs2K0rLOtcEpMAHNTcUidGQRAqAs1NSNi2B8o/0n6my9wjyeTY8dBqkghqhHifjD3ZUkcEMQKRotwFPLK6unr4smXL1kSRHygkEokkdHhYNGn+BH2Q4bAU+L4/y3XsFwkUzuFAORHGAegjZFG0U4A8fiJQMQtoLrtK/UgiUbM/QvVtncUkElYPEh7GAZwikFMqY9Y613HuB3lTdz+cvUGJHCTEH7qTEXABgE4dANd1d6TWd0D0EQVeaQzE/iA+DWAzB4DCL4A4tZC+FVSfB9CnkxaLvATENQXERFdUlKRUeXV19fCqioorAPmyAEmAxX6MYgD2AWQfUfy269hvKPD6lO8/gXLltSFuB9Bt/BW1PgNAZ59jK+naXxfBNwGMKjCOC/BsdJF8LOE435MQYmn9UKypafmGoUPHQcJrXTf+jOdlnlSMxV6J9oqw9ZDKWNQI9AEDtZ6EaL/IS23fH1QzMgVG/OLzOPRRdcVPOhpW1O9TMrDtL5VVmX6kLh4fl3Dtp6DVqyBOQGk+f8MIuYKi5yds+/sNDQ0lrQ/SW1w3fgFFvwniiF53puU3UcSEcmavxyoSkmdHEHshnU7P7+VQynXty6oqYu8Dch2iH+HuFgJ7C+SxhGP/M5ms2b0UfZaKbaurnYRjPy+CG1DI+Bcg6cavoMgsoQ5CxYc2Dq2aAZGvDN1q66sUuFfStvdVqVQqDeD9KB2K4OqB9oYVRh8XTU4eHHSzMct6FECUvf0xruuWtJ6CoXM8z3ubwEeRhIkf2bZdX16N+hy6tn1pqPhfCD5bpjGGgLh21Ypl/xoo71/SiX+VwvtQXPnnLklnMjMECAoKCo7OHXHuG5K2vS8gEwrJkXJvb8api8fHJR37eQpuA1Ddm766YV/R6o2E43ytTP0XRW1ttZutiD0P4MDe9tXQ0FApwp1TQfBXao4U4vdpL9ifIsPXr117wohRY34ilC8qACDxWMR+h0monnJdt7a3CvYFDQ0NlQJGyosvtH5fbn1KTSqVWgEi0oyTIgX37AwlIRTgiYiyYxXxdCKRGFNWjfqI+vr6Ia7j/IG55c9u9z9LA/ewiNcT8fh+5R+raxKO8wUBb0ERlTsjkFUFtiJaqMxmN55cwnG7RUeb/S+PVQ59vKdjJBLxI0LF1wU4qKd9REZQAcgtSdu+H/24ShqPx4dJNvYsgB1K0d/KlSsbhPJ6a1tp1CZt+1CQtbCs/86ePbuJwiYFAM2h3InoeyF1EP1vx3HK/4/TSz5asWJ3RKnKRvie571Vfo1Kj2g8H0kOemKZVTG0QMEdkWWBBurw9USi5lPl1KncjBs1akTzhg3/IOSsPh66GhZn1DrO3n08LgAgmRw7AZBfobTGHwDAUH4bRU5JlNNAJSHGSIHH8vuennBI2PY50JwBINqprRIhxAUJ174Pmwrk9SkV5C83BYv2HkvrGEW1rWgLuadQbhHqX7ZuzWhAFABkMpkPBPJk1M4J2Iry94TjfG8iouUR6A8E2DOi6N/QB+VYy4FFPh9FjmC//EB+EkkFwb8BvhpVXoDtoNWrSTd+OfrpB6g3VFdXD99YVfVXED3dZtoAIAWgZxH+ghEaMi2RSJRkj7iooUPr14hY+rlYFmcy/wPweiE5AQ+3bXtsOXTIJ+k4RyIXlNktobBHy/9JxzkbxK+RC9rrCUtbtk16FsgtOC/h2tf0cOwek7Tt44S4oJR9NonMAdA26RPKX4TWZII/yeXFAUEZ0vZjE2pcDeDjyCPklk5+HNj2G7W2vU8plS8VQonmAEScRQ9E1jc3v4VozkttX/xIGHIIeTmAbBG3bCXCXyYc5yXbtks2E+gDYlWx2J+LNP4fAnILBYdWVA0ZlfaDoWk/qE37wXBasa2EameAV0Lwd0R3zGsg4Z/6ckLiuvETUYL92u4QQZRVgJhFFjwx0GtdoCMs/8srPUmhnrTt4wTyG0RdhieaAUwneFEo2M72g8q0H9R4fuCk/aAiFNRAywkA7ooUS9GmPr6btO1JxerfC5QAN5S609zRUL0mkaj5lAAbFGSD53mLIXi2ecOGMxOOc5ESPqHybvhAiOIryBG7a+KfruPcWz92rF3SV9FbNPaIIsaYHpTL/wDQciwz0lHOWIFjKYbS4XnemwB+WfydcoBFvJVw4jf3ZXBXT0na9i1FRL0vgeAraT8Yn/YzV6WC4IXGxsZV+QKpVGq953nz0r5/azoIjlSCTxN4KVLvgv182+6rgC5C+JOuVcFsED+GlhM0uDe17A6lD4BgCiA/Afh2lEFULPYQIhUAi5QTpMfkysbzpMJqFD/7d113R6H8ERFn/gL5M1XYkPaD41O+f28QBI0dArglCIKl6Uzm6bQfXAKq7UXwQwBR8iUoodzTV+XUk278TBBdBdZ/DMHDQvkSlD5AadlNg3sL5SghLif4ELpZNbP9zLXQvEQpWTliVPXvAKCiasi3AdSSuioVBNM77lvFXMd+msAxPXw9awHeQMu6OZVKre9hHyUj4dgBCi9ZbbT9YPigOwGQR8KxpwEo6LUSPC3l+1EDPttI2vahQswsJCdUOw32ktGlJJlMDpUw+wKAnq6QrSDk2rif+dVA/Hy6bvwMCqMdnSWmVa3fePb7K1eu7slYCde+FoLvRxBdB2XtlE6nUz0ZJ+k4ZwukQPAdF0DkYhD/2PwpLBTIlZ6XeRoFVi9aciQk00Hwp27lXHsqBKcXUF2rWLZ28eJlXgG5HpF042eJFDp2LKuEVsLzvMgryePHj6/6eN3aWQQaIoivEcrZnpd5Kmr/+SQSiR2gw2cAbBtB/Oa0H0QuHteRpGO/L4UmXIIzQH4VkAM6PKMp+FUWuLZQyfCxY8duXVVhfSPlBV0Wfks6zrECOQqgBcpHlsYji4JgNrD5fmN2yIaNZwD4d7eKd83WgFwnYfMC17a/0p/ndFvGjrLk/f5A/HEtCuLDKGIStfKjoSSkUqn1FdlwMoB5PexitIC3Bq49N2Hb52AA5XKwbXsshbdFkaXg9rQXnNhT4w8AaS/4ASRSJcxhovU3ejpOEVzU8QIhT2RD+VSLgSq4dZFOL/lnIeMPANT4TQR9lGStQk5CjxEpHP1P8sFijD8ArF+35vsRjX8KSh/UU+MPAOl0ej6UdSByiZwKcUlNTU3BeIfeQIWGzYw/sVqojksFweWFjD8ALF26dG13xh8AUr4/I+0HV6d9/2tpL/hBq/EHOgk4en/lytVVGzYe3bL/1kOYIHHHqhXL5yfd+Jf6I1Bw+fLlLiIFVDFddmXKjOhoe1yDuZ7DYKVx6dKgIhsehgjBXF0i2B7EbxOOPdt145/DAAgUtIibEMnBlntSQXA5SpBhMx0EPwcxtZAcIV9yXbdcZ8cBSALEKe2uAH9L+ZnTy5GWNxUEf4Og4MxehGXZBojH4zUAji44PnVRy/+5WBdGKby2UqiOTKeXRNo26Y50Op0S8syWGILuGFphWV/t7XjdIYLLO1xqUsLJnuc9U85x8+n0h+T9lStXp4PgGOa+5L2Jjt9WhPcGrj034ThfQB/OYJRS0SKCKYPeAVBkJAegUG5qQ3loXLo0qKgacjAFv+5lVztS+MeEY7+ddJyTUYajZ1FIxuO7Afh8BNHnbT9zWSnHFqhLARQqpbyVQljO44hbAWhb3SQwp2XltJigz2IIiQg5AYj9HMeJsrxdFJbFKSi8P//vYg20olwXod+sUJ9Ryq1Fz/PeJHB9QUHKeSivzWoX4yPElxf7/otlHG8zuptJhCkv+AYEZ6Knx3NaEWwPyO8Sjv1OwrZPRx/8cFHrqOVWl5VVkT5ARFZEEtQYWmZVDF3Q2Ni4IRUEXwT4ZUQK6uqWXQXyeNKxX+/jiOUcCtei0CoEsbo51GeWenvN87xlgBQMrtTCLoujlJhsVnB6b7Y3ohCSv4kgRopMKfXYBCIs/xeX+a/WcfZmlKBCyA2et+TZYvqOwsbm8MaCGTsFTm3u6GNf8DvPCx7oo7HaKLiUmA6CqRrcFcD0Eoy3M4ipCSf+ZiIeL1eaUAAAySGRBEX6PVixt4iSqAalJGlKDT0n7ft3a3BPAC/3ti8BJgoxLeHEX07a9qG9164wtm3XCzi5oKDw2iVLlhSaqfeI5lDuR4EU2AQm1tZWu+UYv904grt6cuytWHzfnwviXwX1IUpaGyCZHDsegm6rIwJYs7FZF1VHRUMuR+GJYCqrS39EDsjtnYMomP1VUwp/1nvPOlqx7/TBOJsRaS/R9/0P035wvFA+h8LLbxHgHlB8KuHY0+LxeLmOpkWc7aotoCa3RHoNQhlQxVM+qfi+PzftBwcTvBiQVYXvKAQ/I8TMhG0/tG11dVnjPCzyQhT63RC8N3L06FicoLsAABseSURBVNvLpcOSJUsyEMwoIEbJVhxeLh1yyCqxrGvKO0b+cJFWAfbKZScsDTprnYWChloeKqZMczKZHA0UPNUAgN8pZ6lj6gg5FqQEhZ0KDSH4WUtNnj6nqGAiz8s8bFVU7gziVxGCKKIwKab4v4QT/3bJTwxQR1oBEMrgPgEAQGkVpSAQKIwkZ+gTJOX798Saw10A/A6lKEtKnJmtjM11bftSlC1QsHCqXwHunj17dlk/a6IK18DQ0IVLZfcCkg+21lXvCyqqqh5GLmtit0gYK1kwIFl4+V9BFXf2XzefgsITtKUjR49+pKh+i2RxELyFwsnvdmwJgiwXWQ3cWcb+u6XoH4lFixatTHvBpVThLhA8jN6n0N0K4P+tXrH8rUQiESlxTyRERXpt1Kgq2Zj9hFY6mvOkCv94GPqWD5ct89N+cC617AFiWq87FIwgcXvCsV8r5UwQaAv+q+9WiGjOal32wlpKR1kO527l1EFDPVTO/jvS2Ni4ChKl0FRpkgK1ZHgtVJzmrcW+/0Yx/YrmCRGk/lBuJxK5oM03CwlZVpeJekrBs1GO+5WLHs8SUqml76WD4HNCtTchvT62IMAu0OGrrhsvSU5kAaLt7UeNFRjQRI536G3wmaFMpDKZd9Je8FkNHlxMHYFu2Ee09XrScU4pLBoRi4UDDgXPlmvvPx9VWfnfCLrsivIFHDd6nleKf6eiUNGCAXets+0oZ+u7JVLlP0FRs/+GhoZKEAUD64RWlEqIvYco+DmiqF3LqECfOpEd6fUyoed5b6b8zDEUHIbeBzYNpfD+hG3/OplM9ipinZHrGuhBHxlPHc0BoLAE+82GcuL7/ktp3/9MSx7z3qWoFowQyKMJ174JPS+w0oYWKRQMBhJ9coxp0aJFq1A4t8DWruuWpdQyBf9APxQQW+z7zyFXOKlbQtXrCoExQAoFFK6r2rjxj8V0umLFit1QIBiZwEee5/2nmH57CiOdAtMlP1rZioo19yLfTgnGL1VHqSB4Pu0HBwnVQQBe6FVnxPkSZp8ZO3Zsz6tsRYzuF6iyZnvqIyIlPZGI+QIM/U9LHvO9hHIUIixTdgMhuNp14lN7m5CLYMGUxqGUZPUiCgJgZSEhFYblCYpU0icGqhNCgFG2WHqVByFS5T/B1GKPP6pIabHlNZQiJiYCIiz4GQJZrtMkS8qVujkqvZ4VdMTzvJcBHJqw7eNBXAtgrx52dWBlhfWk67onFJtesoVI5/sJSfSg74GFghNlLkJgSfmVMZQSz8s8B2Af142fTuEPAezck34Inhw49kPwgzPRg4Q19fX1I5s3biiYXEsBE5OO0yMdi0UifOi1hTiAd0o9NkX1OitdTxHytxT5dvdC2N513b1ailIVP0aEYE9YxWX+AwCKNEihMwVQTDrOZqmWy4EgQsVYQVmCAIl+cyLbKLkD0Eo6CKYBmO667okUfQOAHYvuRHC4Qvhn5ArdFJVKNBaGi5pjEZI4EX1eQ7zUiNBhhB9DEelXb9PQY7TnZR4B8GjCcc4C5Dr0rK7Dqa7j/Nbz/QhlXduTzX5cF23BUG7p83Xx7ilL7ouQLPvZ/67wPO/dhOO82kkRmXYorc9AD1aPXNfdCqJPLiD2v3R6yT+L7TtaPRI5SoCjiu27jJQlg6oA/fYZaqXcOcXF87wnbD/YLXfmufisewIenbDtopMkNC5dmkGEIzMQ1LuuO6gT5BASKdo7ls32tCiNYWAQpn3/97RiO5H4FoA1xXZAyFk9mV1JMwdlIamo8TFFIp7nFV46LiNE4TPskksKVHQQpEJ4EoBut1+LzfyXd2PZ9tPLhpTnpFik7Ycy0ydFRWYBzSnfvyerpUEg96LY/R3iB8l4vGAAUgcEwKIIcpalda8jZvuZwvoTqz9ctszvA10MZSaVSq1PecFPhaqh5ShuUQjkZtd1i1uRI0cXO86AgCzHj/fHKEFxo95QuWHDIyh80qkuUfzvJgQstPy/Aaqih1H6Mvg+R0RZToqR7D4VcR/Qp1XFMpnMEs/P/P/27jxKrqrOA/j396q7k5BOIJjueksldKDJAA2ICmhAJIIcFkEckcXxREVxnaOODs44LkfHQXEcFT3jYUYRhNFxBHFw2BdlCTjIEc54kChLiJ10vaXSTRZ7SdKp937zRzUxge5693UtXZ3+fs6Bw+n+vXdvNfWq7nv33t/vA6I4FwYLePbSpjm5BllHswKjeToVSZ8HalETmd9MFgH+odF9oeYKgmCgshVX/wpAloxpCwXJ1ZkaE5mdT8k0bcZ5GiQlh3wTbNi6dbtC/zs1MONuANu2u5Ba+U9vLhaLZvVHXm7W77qqFxVtaP0IEzNSVrQYRXdZcXICNH0P5h6KY1w3nykvsyZmJVhVtcEpQxsnbm9fZRSokpo4hWanICj9l+SSkyB43vggxWlePv+6DM3wg/tFSabBVuMIrjeIuhAZPuct4CJo9d0imTP/7YvvownSAu+jGasrPrB58/M7xsdPEeAJ02NEJdNaAMu0BnslMcWM11ifDhU1y1Wtmpo6lWavYnHzk+VYTwJgXjZVpPpKcpqcSEuscwyC0v1IneYUr2Dbp5ieU6zUMs/PDIThw6bno9Y2o196W7Zs+VNud/k8mBcYOtF13SNMz78rjh+HWenVV7hud5a7odah6Vm1AAC5XOYVuzS7lEqlzZKLz4Pp4kDBuZ7nmSbKmfVVM/dDCaCpOQHUcBpgWXf3YamV/yqZ/2oZADEdeQtp2DZAUxuHhkLXzb9fVG41ibcQnwHAaDX74ODgiOvYDwhwVlqsqLUGQNNTe9bC87zjkMRpuboBxZO+76dmD6PZr1gcfK7g5j+pKiaPaS3E8ekAbkqNVN1psgKnnGhnIyu40b4kl1yvce4zqLY+SnEBgI8hJf9DYllplf/G40rhqhrozvSlXPIVPww/W1s7ZKIlHnsHQek2CB4wiVVIygKVfYnCaGAB4OKenp7ZVRcgidcYxVn4nwb3hFpIMShdBzFLfiNidj2ppUaLduelZY+juioWB9cDqZURu123+42pJ0ur/Ke4pfbCNelb30TVrq0NMtUSAwAAQGJYElFxVKbz5nK3wWzb4ZLdu3a9J9O5Z9BErYS0+ToAgMK6pcHdodaSKPA9k0BVNbqecokYJZEq5/jh3Wwqen1ajKW5qtMAyxzneKQka1NLv5+tZy8nSE9GpgK+h5qkZQYA7fPn3wezL+pMaRknHn3fbRIr0L+rNV96syTl8nth8rdQPBkEQW1FZWjWsaz4HrNAs+tJ29qMBgCW5vjh3WTj4/FNSNkGqtC39fX1TVk2PEFS/e5f8HwQlGouXKNiNJDke6hJWmYA0N/fvw1miXs6s2buU9F/N4oDVkS2fVmWc8+E3t7eeSL4lEmsWtnKddL+YeLRcPrCPcM858ViMQQwkn666dUqoOkbGhoaBpCWE2DJtqGhqaZ7cgqpXvlP9VrUo/qh6nMGUSsBGORxp1q1zABgglFyiY6OjilHspMJgtKdADYaBQu+nM/nG1L8oV52jI5+CoBJSs2Rjo75zamrTa1GATW5nkyvpQSCp1KjRGfnbprZLkmfBpgqKZDruqdLtbtuwe72cvKDafdtb4lR7pfOQqF7tmdnnRVabQBgVP63v78/9U7kJWKBfMUwdkm7ZX0r4/mbZll392GAGuVDEMXVE09WaC4SMbmezK8l1fTMmorVvb29DcmdTlPzS6UHAfRXixHIWybWDu37c63++F9Vb+8fHKxLKXHN5YyysyZl68x6tEfVtdQAoOoo9M+GMY1ypsUwvA7AsyaxCn1Hs8pRZtHb2zsvyVk/hlk2rdEy8PVG94laU6FQWADFgamBap6SWwUPGoR1jo0NZ9qpQ3WRiFTfoqfAYsTx2Xv/bGI6tWrlP8tsS6mRIAgGTDJWioW31atNmlrLDAB6urpsBRYbhJrMIU2mDMXnTYMV+u1pFCBqqB1jI98EcKJZtF5V+5Ydmq1Ux9PzQwBQwXrTcyaJ/BIGC3UF0nKD57nAivUGpMzTq+hLpgHitwBYVOWQjcUoMltQakpxn0HM6wqF7mPr2i69TMsMAHa3tb3VJE4h0y5p60fRTwV6r2H4fLXkjuW23RJzUZ7jfBaKjxiGb1TJXdnQDlFL09gyup4EalwkqjKglF+nN45zPK/7labnpfrYVCptALC2apDi7L2naARS9U5bFdcha/XWFKK4zSROy1bmMvCUjVVw7S/atp1tb31DJEZ72i3goRoa0URy7xcYV/N6RQzcO9ODAM/JfwbQK0zjVfTjQRCMNbJPNDnPtb/uOM5M1zxvE8E7TAJVMl9PJpngLMTWNzCNWvRUI00tELRo1+jo6on/boPqGVViY8nlrqtLv/ZSjKJ7FUhfUyC4yHXdk+vdPv2ZpQmOyAke82z7w5ihJwKebb8bEJP/0VpW4zv4SQVBsAmQy40PELixhV+5bt4s534d9fb2zivY9rWAfNn4IMUPgqDEzH8zRXG8BX2i4ObT0qo2jOvan0RKUpcJu3bu3G2UgfNFufb2mwCkDy4Fp7uVz5SmqrbXfS4Yj+ObkbKwU1XPBQDHcVYBctCUgYK7GpRCvGwJUmsYABDR5Lquri6jxeF1JLMlH0ytXvzC74TgatexH3Mcx7hyVD0st+0+CL5hGP5QFEX9tbZZDMNrILjB+ADFgaJyl+faX2rWG6OQzx+zY3TkYRW8N8NhT5dVP9qwTpGpV6jKf3qOfb/ruq9uZsOe171KFF80Clb8fMuWLZlq22/atGkroN81iRXBVQXbXp3l/LUoOM47t20Z+tdmtdeKBgcHRyC4uVqMCs4FgJxo1ZsahTYsh4jkyt+CWWGglR253I/RpLwAhyxd6riOfWep0NXTjPZm2j53/AIcb0HXFhx7bcG2z3np7+vN87pXxYK1AMwqkqlhumAD7R3zPwTBYxkOaYPi85FjP1aw7VPr1Y+XKhQKB7uOc6Xm5AkAJ2Q4dGusuICFWFrKatHkCc+x75z4ImzoE4GC45yFxLoPhjXXBdO7nqy2+Osw+/DuUMFtXj5/2nTaMeU4ziEFJ3+LQn8ElfSdD/s5SVKnAXoKhYIHlSrrNNSfyJ/SEAMDQwEEZtMLgvM8x/5Jg5/uWAXHeX+5ve13JsXj9heTfsErcIoK7vAcu99z8v+UpQSvie7u7rzn2lcjsdYCONjkGAUe96Pop/XqQ39//04rV34bUvbOTuJVKnjQdey7Xbf7DNRpkLSsu/sw13Gu1LjcL9BPQzM9adhlQd4aRdHv69EXqruzVfCA5zjPeI7z2Xw+v6KeJ3ddd7nn2P+h0DsALDQ87K5iFE1rPc3AwFCQYVqqEzm527Xty1HnGwrXdZe6jnOlBf29QowWPc4FxShaC2BD1aA4PkZVq61t+gGmsd06C4X1BQBDhuFv37blhUcqeVDqq2Db57iO/ZhCvwfTm9H9RFo54GWAfE40+Zxn2+shehsS3B+LPJZ1i5nrugdYqmcDuECh50HNkv5MKEuiH0U9UlHuZWBgKLBt+425yv7mTAu3BDgTap3pOfZGUdyYWMkvgLZfmS6+6+3tnTc2NnaCaHwKRM5PFK+V6b28XSp68UAQVV/92wyafMtzbbNa9HUiVtsnisWi38w2p08PB3BFmyVXuI69DorbLZEHrfb2xyqP1s0dumTJgeMLOt6sKhdAk3MAZKlkOapifSJT11/ioIMP/trWLS9cIkD6AllFuwj+xXPsd6gknw6Czb9ADdey53nHQeMPQJM1MEweNseoKm4QwT9OFZConiiCQ6f6daxybYP6tkcQBEOebf9thunYE5Kc9TvPyX8TVttVvu+/MN22u7q6Oue1W5eoyocVePVcXa0qnm3/BDJ5isgUGwA8LYoNsNSHWlsAjKlqmwILLQudAJZCtVdh9QF6KKY9j6Of8cNSw7a15fP5FW2WPAhgeU0nEuyG4o9QPAOBr4rtIjIsoh1IMD8ROVigLoBDJ/6p9ZHWCCx9q+/XXqSjmoJtr1bDcs3NlkCOCsPQeCtbo3mO/SCArFNECsh6qD4NkQ0qGlgq2yDJSAKZB2ChBSxU1TxEDp+oiNmDad5Rq+j7gqBU8+ru5bbdFwt+jexfwk8B8hMVuTMIgt8h5U6zUCgcjDg+EapvVMF5qFZvQHGjH0XV89pXa8tx3qnQlPTZ8pwfhkZ5FmaKbds9uUrCnaneI0MAlk72CwXuCcKoaY/BPSf/Q0CMdoHtZQzAzwTy80RkbRAEaU8ScoV8/ii1rJOgeg4EbwIwZU0ZycUri8XB6eacQcGxNyhQ/Umf4mI/im6abhv1kPYEoJpDARyqAqDyr8pPpTLRqXvG93v9bhoEcm0xjL5aQz9TlUqlPy5btnRVUm67BcaJdiZReWy/EoKVACBS+aEqJv4udX2AsUHFenvgs9LffkAAPRyCwwGFKKBQQGXPogHdE1ZzU1cGQVSXrV2bomidZ9uXQnAjsg1Gjgb0ClG9wnPsMSjWA9gI0e0AxiDSUXlCqA6AHo3LXqXr9ej13BBFUb/n2g9CMdX6i0m//AHAQv0y/5mQXPsHNC4fBSDLgtkDAKxR6BpRhefYmxToF0FJVbcJoFBZDAuLVNEjwAoFDqiMtRv0QmahWgYADVf58g8/iDo/+p/MwMBQ0NPTc+ruXTu/B2BNo9urieLW9vnz3808/5SFQr4ahGFdk6v4UXRzwc1/UFW+i+k9kTgAgmMBHLvnk3mfmweatgQ3QKYcAEyllA/DWxux928qxWJxh23bZ+Us/BKKY6Z5muUCLK98v0+8bybuPfkumlrLZALcR+VR+uXFMLwMQNysZvv7+3f6YfQuKN4Dw8qEzaRAJKLv9KPofH75UwY7VPDeIAz/oREnLwal70PxPgDjjTg/TU9Z9Weo1E4xporrnwB2N6hLU4qiaLAc65sy7syiGlliGa/CbBL9rcJ6rR9FprkB6s6Pohvay3EfUH0/bRONiOJr83fuOqIYlH48052hqlrqehLgYVi544Igqk851yn4UXQ9rGQ1FEEj20nxSAx8aQbbbymlUmlUFFl2TqnVFn+/YR1KUSqVNi84oPNUQeMXIFYxCsgni8XB6rso9hNWMYg+KpA1Cqyb4b5shOJSPywdHwQzP6/dPzgY+WF0IRJdpcDdM9SNEqBfVrFWFKPo7zds3bp9hvpBhvwwugSKj5hUPGuwp6G4sBhGp/q+b1QFs1a+v/nR9vnz+yYSBdU1f3xVivUCWeOH0Ru4FXZfscj1xsGCB4rFQePiUI2wfv36XcUwvAyKc5F9i3YtygK5VsU60g/Dq9DEJ88zyQKgxTD8URBGRyeQN4jiOwA2Nan9BIpfQnGhHUaH+1F0PVrsD++XSr8OwuhsUbxWFNdlqCMwXcMAfqai59thtMwPS58zWOFKraPsR9G/+UG0UsU6U6HXGOU9r1PbUNwGxbl+GPX5UXQzmrB+Zm/9/f3b/LD0IVi510BwExo3EFAIHlDRS/woOrIYhj9Ck1/rbBCG4SMTiyxTNTLzX1Z+FN2hYvUJ9G8ADDSwqc2q+OdyoiuLYXhZEASNbKvlTLk+wnGcI3OSnKyQ10NxLCpbb7LsNZ6cIoDgUYHcMx7Ht27evLlU8zmbqFAoLEiS3eeLytkAVqPWrYN/tgmJXnrQ0qWPrFu3rqXmUpfbdl9s4Qsz3Y/JzJI8AFYhn+9LRE6ByMkiegwUf4Hat4ECwCaB/EqBuySXu6NYLLbU2hXbtnvaLL1EVS4CcBxqW5O1FcCjqrgTlnVrIz6sXdd9vSD5WLUYVQmDMPx4vdtuFM9x1kD0vGoxolKev3DhpevXr9/VrH6Z6uvr69i6degsqHWxiL4ZilqyPSYQrFOVB8RKbvX90kNoQMKjgmt/R4HuqkGSXOX7mx+td9tZZLkYc4VC14okaT9aND5SgRUCWQLFEhEcpMCSibiyAMMKDEMRKTBoiT4PWM/EwB/CMNzYiBcyU/L5/Io2kdeIhcMS1cMAWS7AEkDmAboIlQRDhvkP5Eq/zqu0qWW1ua7bK0lyNIAjReQQhS6B4CAolgB7PuTGBRhVwXZViQQYVNXnYCXP5nLJukpWvtlh+fLlS+Lx8ZMg8ipRXaEWVohisUIWA1q5RgSjAEaRYFCAQRV9HirPqmU9FQTBM+Bd/lyXKxS6+zTOrQJ0pUJXCMSDYAH0xSyYEgv0Tyr4k6hECg0BeVZUnx4bH/+/rPUv9mfcIdFgnuOsAfQGGP+t5fN+GBqX/iUiIpqOplRYmsuGR0aeXLxo4Tggpxsectqizs6x4ZGR/21ox4iIaE7jAKAJhkdGH1m8qHMxgFUm8SI4Y1Fn54LhkZFfNLhrREQ0R3EA0CTDIyP3LV7ceQgqC6FSieD1ixd35oeHR+4C5z2JiKjOOABoopXDI3cOL+o8QYBew0NOOHDRwld2zF9w59jYWEvtDCAiotmNiwCbLJ/PL2yzcA8gJ5seI8Dv1cr9ZbMSuhAR0f6vNWsB7MdKpdLoeDk5S4CHTY9R4ChJ4t94jvMhcNBGRER1wC+TGdLV1dXZ0Za7Hdlrxz9kQS4fCMPHG9EvIiKaGzgAmEGV6QC5HZWMgpkocI8k+p0FixbdlzF7l3iedzinE4iI5jYOAGaY67oHSJLcCoFpnoB9CbYDuFeAJ0Tlt0gSP87ltre1tY1YO3bM293RsRhx7Kmlh1pqrQL0NAWG/DA6sb6vhIiIZhMOAFpAX19fx7YtL1wD4F1NavI3HAAQEc1tXATYAtatWzfuh9G7JypfNa+MKhERzVkcALSQYlj6NhQXA9gx030hIqL9GwcALcaPopstyBsAeW6m+0JERPsvDgBa0EAYPj5eLr8agqvBKQEiImoADgBa1ODg4IgfRH+dQE6E4HawHgAREdURBwAtLgzDJ/wgOs9K9FgAPwTXBxARUR1wADBLDJRKT/lh9K5yol1QXATFjQA2Zz6RIFTF/fXvIRERzSbMAzDLFQoFT8vl4wAcAdGDVOVAC1ioFnZBZZuIbofKVqgWY5F1YRhunOk+ExERERERERERERERERERERERERERERERERERERERERERERERERERERERERERERERERERERERERERERERERERERERERERERERERERERERERERERERERERERERERERERERERERERERERERERERERERERERERERERERERERERERERERERERERERERERERERERERERERERERERERERERERERERERERERERERERERERERERERERERERERERHtn/4fuDOZNXVuSWYAAAAASUVORK5CYII=;" parent="1" vertex="1">
          <mxGeometry x="-592" y="140" width="50" height="50" as="geometry" />
        </mxCell>
        <mxCell id="JgDv4yjVZVKhBUE-g2lu-73" style="edgeStyle=orthogonalEdgeStyle;rounded=0;orthogonalLoop=1;jettySize=auto;html=1;exitX=0.5;exitY=1;exitDx=0;exitDy=0;" parent="1" source="JgDv4yjVZVKhBUE-g2lu-72" target="JgDv4yjVZVKhBUE-g2lu-72" edge="1">
          <mxGeometry relative="1" as="geometry" />
        </mxCell>
        <mxCell id="JgDv4yjVZVKhBUE-g2lu-74" value="" style="shape=link;html=1;rounded=0;" parent="1" edge="1">
          <mxGeometry width="100" relative="1" as="geometry">
            <mxPoint x="-95" y="400" as="sourcePoint" />
            <mxPoint x="5" y="400" as="targetPoint" />
          </mxGeometry>
        </mxCell>
      </root>
    </mxGraphModel>
  </diagram>
</mxfile>
